;TYPE=PLATED
;Layer: PTH_Through
;EasyEDA Pro Client v3.2.149.88089769, 2026-09-16 20:40:31
;Gerber Generator version 0.3
M48
METRIC,LZ,0000.00000
;Hole size 1 = 0.30500 METRIC
T01C0.30500
;Hole size 2 = 0.30500 METRIC
T02C0.30500
;Hole size 3 = 0.50002 METRIC
T03C0.50002
;Hole size 4 = 1.00000 METRIC
T04C1.00000
;Hole size 5 = 2.59999 METRIC
T05C2.59999
%
G05
G90
T01
X31.8135Y-1.0795
X31.877Y-2.286
T02
X42.57501Y-12.51718
X45.07771Y-5.79899
X22.97935Y-19.51526
X38.12492Y-10.46568
X23.76986Y-19.93896
X42.31182Y-3.42899
X32.90163Y-0.80758
X32.7817Y-2.29008
X38.39702Y-12.77118
X38.43472Y-5.69079
X5.71499Y-11.25118
X39.81302Y-12.77118
X54.82999Y-16.51397
X56.35399Y-18.54596
X42.97511Y-10.44618
X60.48148Y-7.92578
X44.64521Y-11.75518
X62.33757Y-8.70719
X63.60757Y-9.97718
X45.07771Y-4.99889
X31.15364Y-3.17499
X43.00671Y-5.39889
X16.59076Y-3.53999
X48.53881Y-14.53007
X57.68279Y-9.45008
X47.87171Y-14.00877
X57.54398Y-8.67478
X43.77491Y-11.73568
X2.66089Y-10.85598
X0.8829Y-8.91808
X2.405Y-9.41788
X3.67499Y-7.63988
X4.3399Y-9.39798
X0.7839Y-9.90598
X40.93702Y-5.36739
X39.41302Y-1.0494
X40.32102Y-3.29639
X36.00303Y-2.53439
X7.14609Y-9.83998
X9.17809Y-7.80798
X10.60608Y-2.4057
X41.47432Y-2.53999
X17.76296Y-3.99799
X17.76296Y-2.286
X51.9542Y-16.25997
X43.06421Y-8.74478
X53.30799Y-16.25997
X43.02621Y-7.97338
X56.26809Y-12.15698
X45.31221Y-10.16088
X45.58571Y-6.99889
X46.09371Y-10.04688
X59.65418Y-16.25997
X45.17621Y-9.40198
X56.94599Y-16.76797
X57.96198Y-18.03796
X45.26611Y-13.21197
X37.84122Y-8.89398
X26.59295Y-7.32689
X34.46693Y-6.56489
X39.49392Y-3.31589
X40.46712Y-10.62888
X38.18153Y-9.65318
X27.41565Y-13.30707
X35.85653Y-8.59878
X22.82705Y-11.39278
X36.63803Y-11.21478
X22.56685Y-10.65298
X35.34853Y-9.50688
X22.41916Y-12.04688
X35.85653Y-10.30668
X26.23855Y-12.59267
X22.66795Y-12.95707
X28.06604Y-10.09898
X39.12122Y-5.34789
X41.15322Y-3.31589
X46.85431Y-9.98518
X29.87764Y-4.10309
X20.98766Y-3.59509
X53.90009Y-13.89797
X46.59251Y-16.37957
X31.24104Y-18.55086
X47.7423Y-8.50898
X47.8693Y-7.23899
X33.27303Y-10.67688
X39.98312Y-9.91488
X22.79895Y-4.04699
X21.54096Y-0.778
X13.54497Y-2.2782
X7.28998Y-3.73809
X66.22497Y-16.30387
T03
X1.94297Y-6.39305G85X0.643Y-6.39305
X1.94297Y-14.94295G85X0.643Y-14.94295
T04
X68.85005Y-7.54906
X68.85005Y-10.04905
X68.85005Y-12.04905
X68.85005Y-14.54904
T05
X70.84982Y-5.04906
X70.84982Y-17.04904
M30