G04 Layer: BottomSilkscreenLayer*
G04 EasyEDA Pro v3.2.149.88089769, 2026-09-16 20:40:31*
G04 Gerber Generator version 0.3*
G04 Scale: 100 percent, Rotated: No, Reflected: No*
G04 Dimensions in millimeters*
G04 Leading zeros omitted, absolute positions, 4 integers and 5 decimals*
G04 Generated by one-click*
G04 Object Configs: Pad,Via,Track,Text,Image,Dimension,BoardOutline,BoardCutout,CopperFilled,SolidRegion,FPCStiffener,Line,PlaneZone,ComponentProperty,ComponentSilkscreen,TearDrop*
G04 Layer Configs: 1,15,16,2,3,4,5,6,7,8,9,10,11,13,14,56*
G04 Copper Areas: 0*
%FSLAX45Y45*%
%MOMM*%
%ADD10C,0.1524*%
%ADD11C,0.254*%
%ADD12C,0.2032*%
%ADD13C,0.0153*%
G75*


G04 Text Start*
G54D10*
G01X4226560Y-1357325D02*
G01X4220210Y-1354277D01*
G01X4214114Y-1347927D01*
G01X4211066Y-1341831D01*
G01X4211066Y-1329385D01*
G01X4214114Y-1323289D01*
G01X4220210Y-1316939D01*
G01X4226560Y-1313891D01*
G01X4235704Y-1310843D01*
G01X4251198Y-1310843D01*
G01X4260596Y-1313891D01*
G01X4266692Y-1316939D01*
G01X4273042Y-1323289D01*
G01X4276090Y-1329385D01*
G01X4276090Y-1341831D01*
G01X4273042Y-1347927D01*
G01X4266692Y-1354277D01*
G01X4260596Y-1357325D01*
G01X4223512Y-1387551D02*
G01X4220210Y-1393647D01*
G01X4211066Y-1402791D01*
G01X4276090Y-1402791D01*
G01X4211066Y-1451559D02*
G01X4214114Y-1442161D01*
G01X4223512Y-1436065D01*
G01X4238752Y-1433017D01*
G01X4248150Y-1433017D01*
G01X4263644Y-1436065D01*
G01X4273042Y-1442161D01*
G01X4276090Y-1451559D01*
G01X4276090Y-1457655D01*
G01X4273042Y-1467053D01*
G01X4263644Y-1473149D01*
G01X4248150Y-1476197D01*
G01X4238752Y-1476197D01*
G01X4223512Y-1473149D01*
G01X4214114Y-1467053D01*
G01X4211066Y-1457655D01*
G01X4211066Y-1451559D01*
G01X3172712Y-1954037D02*
G01X3169664Y-1960387D01*
G01X3163314Y-1966483D01*
G01X3157218Y-1969531D01*
G01X3144772Y-1969531D01*
G01X3138676Y-1966483D01*
G01X3132326Y-1960387D01*
G01X3129278Y-1954037D01*
G01X3126230Y-1944893D01*
G01X3126230Y-1929399D01*
G01X3129278Y-1920001D01*
G01X3132326Y-1913905D01*
G01X3138676Y-1907555D01*
G01X3144772Y-1904507D01*
G01X3157218Y-1904507D01*
G01X3163314Y-1907555D01*
G01X3169664Y-1913905D01*
G01X3172712Y-1920001D01*
G01X3202938Y-1957085D02*
G01X3209034Y-1960387D01*
G01X3218178Y-1969531D01*
G01X3218178Y-1904507D01*
G01X3248404Y-1957085D02*
G01X3254500Y-1960387D01*
G01X3263644Y-1969531D01*
G01X3263644Y-1904507D01*
G01X4061813Y-1756148D02*
G01X4058765Y-1762498D01*
G01X4052415Y-1768594D01*
G01X4046319Y-1771642D01*
G01X4033873Y-1771642D01*
G01X4027777Y-1768594D01*
G01X4021427Y-1762498D01*
G01X4018379Y-1756148D01*
G01X4015331Y-1747004D01*
G01X4015331Y-1731510D01*
G01X4018379Y-1722112D01*
G01X4021427Y-1716016D01*
G01X4027777Y-1709666D01*
G01X4033873Y-1706618D01*
G01X4046319Y-1706618D01*
G01X4052415Y-1709666D01*
G01X4058765Y-1716016D01*
G01X4061813Y-1722112D01*
G01X4092039Y-1759196D02*
G01X4098135Y-1762498D01*
G01X4107279Y-1771642D01*
G01X4107279Y-1706618D01*
G01X4140553Y-1756148D02*
G01X4140553Y-1759196D01*
G01X4143601Y-1765546D01*
G01X4146649Y-1768594D01*
G01X4152745Y-1771642D01*
G01X4165191Y-1771642D01*
G01X4171541Y-1768594D01*
G01X4174589Y-1765546D01*
G01X4177637Y-1759196D01*
G01X4177637Y-1753100D01*
G01X4174589Y-1747004D01*
G01X4168239Y-1737606D01*
G01X4137505Y-1706618D01*
G01X4180685Y-1706618D01*
G01X2349856Y-678815D02*
G01X2349856Y-613791D01*
G01X2349856Y-613791D02*
G01X2386940Y-613791D01*
G01X2420214Y-663321D02*
G01X2420214Y-666369D01*
G01X2423262Y-672719D01*
G01X2426310Y-675767D01*
G01X2432406Y-678815D01*
G01X2444852Y-678815D01*
G01X2451202Y-675767D01*
G01X2454250Y-672719D01*
G01X2457298Y-666369D01*
G01X2457298Y-660273D01*
G01X2454250Y-654177D01*
G01X2447900Y-644779D01*
G01X2417166Y-613791D01*
G01X2460346Y-613791D01*
G01X3703822Y-1545614D02*
G01X3703822Y-1480590D01*
G01X3703822Y-1545614D02*
G01X3731762Y-1545614D01*
G01X3740906Y-1542566D01*
G01X3743954Y-1539518D01*
G01X3747256Y-1533168D01*
G01X3747256Y-1527072D01*
G01X3743954Y-1520976D01*
G01X3740906Y-1517928D01*
G01X3731762Y-1514626D01*
G01X3703822Y-1514626D01*
G01X3725412Y-1514626D02*
G01X3747256Y-1480590D01*
G01X3783578Y-1545614D02*
G01X3817614Y-1545614D01*
G01X3799072Y-1520976D01*
G01X3808216Y-1520976D01*
G01X3814566Y-1517928D01*
G01X3817614Y-1514626D01*
G01X3820662Y-1505482D01*
G01X3820662Y-1499132D01*
G01X3817614Y-1489988D01*
G01X3811518Y-1483638D01*
G01X3802120Y-1480590D01*
G01X3792722Y-1480590D01*
G01X3783578Y-1483638D01*
G01X3780530Y-1486940D01*
G01X3777482Y-1493036D01*
G01X1003046Y-664210D02*
G01X1009396Y-658114D01*
G01X1018540Y-655066D01*
G01X1030986Y-655066D01*
G01X1040384Y-658114D01*
G01X1046480Y-664210D01*
G01X1046480Y-670560D01*
G01X1043432Y-676656D01*
G01X1040384Y-679704D01*
G01X1034034Y-682752D01*
G01X1015492Y-689102D01*
G01X1009396Y-692150D01*
G01X1006348Y-695198D01*
G01X1003046Y-701548D01*
G01X1003046Y-710692D01*
G01X1009396Y-717042D01*
G01X1018540Y-720090D01*
G01X1030986Y-720090D01*
G01X1040384Y-717042D01*
G01X1046480Y-710692D01*
G01X972820Y-655066D02*
G01X957580Y-720090D01*
G01X942086Y-655066D02*
G01X957580Y-720090D01*
G01X942086Y-655066D02*
G01X926592Y-720090D01*
G01X911098Y-655066D02*
G01X926592Y-720090D01*
G01X880872Y-667512D02*
G01X874776Y-664210D01*
G01X865632Y-655066D01*
G01X865632Y-720090D01*
G01X357854Y-2123092D02*
G01X351504Y-2129188D01*
G01X342360Y-2132236D01*
G01X329914Y-2132236D01*
G01X320516Y-2129188D01*
G01X314420Y-2123092D01*
G01X314420Y-2116742D01*
G01X317468Y-2110646D01*
G01X320516Y-2107598D01*
G01X326866Y-2104550D01*
G01X345408Y-2098200D01*
G01X351504Y-2095152D01*
G01X354552Y-2092104D01*
G01X357854Y-2085754D01*
G01X357854Y-2076610D01*
G01X351504Y-2070260D01*
G01X342360Y-2067212D01*
G01X329914Y-2067212D01*
G01X320516Y-2070260D01*
G01X314420Y-2076610D01*
G01X388080Y-2132236D02*
G01X403320Y-2067212D01*
G01X418814Y-2132236D02*
G01X403320Y-2067212D01*
G01X418814Y-2132236D02*
G01X434308Y-2067212D01*
G01X449802Y-2132236D02*
G01X434308Y-2067212D01*
G01X483076Y-2116742D02*
G01X483076Y-2119790D01*
G01X486124Y-2126140D01*
G01X489172Y-2129188D01*
G01X495268Y-2132236D01*
G01X507714Y-2132236D01*
G01X514064Y-2129188D01*
G01X517112Y-2126140D01*
G01X520160Y-2119790D01*
G01X520160Y-2113694D01*
G01X517112Y-2107598D01*
G01X510762Y-2098200D01*
G01X480028Y-2067212D01*
G01X523208Y-2067212D01*
G01X3558880Y-1908028D02*
G01X3558880Y-1861546D01*
G01X3561928Y-1852402D01*
G01X3568278Y-1846052D01*
G01X3577422Y-1843004D01*
G01X3583772Y-1843004D01*
G01X3592916Y-1846052D01*
G01X3599012Y-1852402D01*
G01X3602314Y-1861546D01*
G01X3602314Y-1908028D01*
G01X3632540Y-1895582D02*
G01X3638636Y-1898884D01*
G01X3647780Y-1908028D01*
G01X3647780Y-1843004D01*
G01X4483589Y-282251D02*
G01X4483589Y-328733D01*
G01X4480541Y-337877D01*
G01X4474191Y-344227D01*
G01X4465047Y-347275D01*
G01X4458697Y-347275D01*
G01X4449553Y-344227D01*
G01X4443457Y-337877D01*
G01X4440155Y-328733D01*
G01X4440155Y-282251D01*
G01X4406881Y-297745D02*
G01X4406881Y-294697D01*
G01X4403833Y-288347D01*
G01X4400785Y-285299D01*
G01X4394689Y-282251D01*
G01X4382243Y-282251D01*
G01X4375893Y-285299D01*
G01X4372845Y-288347D01*
G01X4369797Y-294697D01*
G01X4369797Y-300793D01*
G01X4372845Y-306889D01*
G01X4379195Y-316287D01*
G01X4409929Y-347275D01*
G01X4366749Y-347275D01*
G01X2616030Y-1643082D02*
G01X2569548Y-1643082D01*
G01X2560404Y-1640034D01*
G01X2554054Y-1633684D01*
G01X2551006Y-1624540D01*
G01X2551006Y-1618190D01*
G01X2554054Y-1609046D01*
G01X2560404Y-1602950D01*
G01X2569548Y-1599648D01*
G01X2616030Y-1599648D01*
G01X2616030Y-1563326D02*
G01X2616030Y-1529290D01*
G01X2591392Y-1547832D01*
G01X2591392Y-1538688D01*
G01X2588344Y-1532338D01*
G01X2585042Y-1529290D01*
G01X2575898Y-1526242D01*
G01X2569548Y-1526242D01*
G01X2560404Y-1529290D01*
G01X2554054Y-1535386D01*
G01X2551006Y-1544784D01*
G01X2551006Y-1554182D01*
G01X2554054Y-1563326D01*
G01X2557356Y-1566374D01*
G01X2563452Y-1569422D01*
G01X4715002Y-1590040D02*
G01X4711954Y-1596390D01*
G01X4705604Y-1602486D01*
G01X4699508Y-1605534D01*
G01X4687062Y-1605534D01*
G01X4680966Y-1602486D01*
G01X4674616Y-1596390D01*
G01X4671568Y-1590040D01*
G01X4668520Y-1580896D01*
G01X4668520Y-1565402D01*
G01X4671568Y-1556004D01*
G01X4674616Y-1549908D01*
G01X4680966Y-1543558D01*
G01X4687062Y-1540510D01*
G01X4699508Y-1540510D01*
G01X4705604Y-1543558D01*
G01X4711954Y-1549908D01*
G01X4715002Y-1556004D01*
G01X4769866Y-1605534D02*
G01X4745228Y-1540510D01*
G01X4769866Y-1605534D02*
G01X4794758Y-1540510D01*
G01X4754372Y-1562354D02*
G01X4785360Y-1562354D01*
G01X4824984Y-1605534D02*
G01X4824984Y-1540510D01*
G01X4824984Y-1605534D02*
G01X4852670Y-1605534D01*
G01X4862068Y-1602486D01*
G01X4865116Y-1599438D01*
G01X4868164Y-1593088D01*
G01X4868164Y-1586992D01*
G01X4865116Y-1580896D01*
G01X4862068Y-1577848D01*
G01X4852670Y-1574546D01*
G01X4824984Y-1574546D01*
G01X4846574Y-1574546D02*
G01X4868164Y-1540510D01*
G01X4898390Y-1605534D02*
G01X4898390Y-1540510D01*
G01X4898390Y-1605534D02*
G01X4919980Y-1605534D01*
G01X4929124Y-1602486D01*
G01X4935474Y-1596390D01*
G01X4938522Y-1590040D01*
G01X4941570Y-1580896D01*
G01X4941570Y-1565402D01*
G01X4938522Y-1556004D01*
G01X4935474Y-1549908D01*
G01X4929124Y-1543558D01*
G01X4919980Y-1540510D01*
G01X4898390Y-1540510D01*
G01X4971796Y-1593088D02*
G01X4977892Y-1596390D01*
G01X4987036Y-1605534D01*
G01X4987036Y-1540510D01*
G01X3097936Y-911471D02*
G01X3104032Y-914519D01*
G01X3110382Y-920615D01*
G01X3113430Y-926965D01*
G01X3116478Y-936109D01*
G01X3116478Y-951603D01*
G01X3113430Y-961001D01*
G01X3110382Y-967097D01*
G01X3104032Y-973447D01*
G01X3097936Y-976495D01*
G01X3085490Y-976495D01*
G01X3079394Y-973447D01*
G01X3073044Y-967097D01*
G01X3069996Y-961001D01*
G01X3066948Y-951603D01*
G01X3066948Y-936109D01*
G01X3069996Y-926965D01*
G01X3073044Y-920615D01*
G01X3079394Y-914519D01*
G01X3085490Y-911471D01*
G01X3097936Y-911471D01*
G01X3088538Y-964049D02*
G01X3069996Y-982591D01*
G01X3036722Y-923917D02*
G01X3030626Y-920615D01*
G01X3021482Y-911471D01*
G01X3021482Y-976495D01*
G04 Text End*

G04 PolygonModel Start*
G01X3939865Y-334927D02*
G01X3939865Y-284927D01*
G01X3855387Y-350169D02*
G01X3924628Y-350169D01*
G01X3840147Y-284927D02*
G01X3840147Y-334927D01*
G01X3840361Y-190650D02*
G01X3840361Y-240650D01*
G01X3940073Y-240650D02*
G01X3940073Y-190650D01*
G01X3924838Y-175407D02*
G01X3855596Y-175407D01*
G01X3940076Y-190650D02*
G03X3924836Y-175410I-15240J0D01*
G01X3855596Y-175410D02*
G03X3840356Y-190650I0J-15240D01*
G01X3840147Y-334927D02*
G03X3855387Y-350167I15240J0D01*
G01X3924628Y-350167D02*
G03X3939868Y-334927I0J15240D01*
G01X3518715Y-331246D02*
G01X3468715Y-331246D01*
G01X3533958Y-415724D02*
G01X3533958Y-346484D01*
G01X3468715Y-430964D02*
G01X3518715Y-430964D01*
G01X3374438Y-430751D02*
G01X3424438Y-430751D01*
G01X3424438Y-331038D02*
G01X3374438Y-331038D01*
G01X3359196Y-346273D02*
G01X3359196Y-415516D01*
G01X3374438Y-331036D02*
G03X3359198Y-346276I0J-15240D01*
G01X3359198Y-415516D02*
G03X3374438Y-430756I15240J0D01*
G01X3518715Y-430964D02*
G03X3533955Y-415724I0J15240D01*
G01X3533955Y-346484D02*
G03X3518715Y-331244I-15240J0D01*
G01X4605373Y-757042D02*
G01X4655373Y-757042D01*
G01X4590131Y-672564D02*
G01X4590131Y-741804D01*
G01X4655373Y-657324D02*
G01X4605373Y-657324D01*
G01X4749650Y-657537D02*
G01X4699650Y-657537D01*
G01X4699650Y-757250D02*
G01X4749650Y-757250D01*
G01X4764893Y-742015D02*
G01X4764893Y-672772D01*
G01X4749650Y-757253D02*
G03X4764890Y-742013I0J15240D01*
G01X4764890Y-672772D02*
G03X4749650Y-657532I-15240J0D01*
G01X4605373Y-657324D02*
G03X4590133Y-672564I0J-15240D01*
G01X4590133Y-741804D02*
G03X4605373Y-757044I15240J0D01*
G01X3506981Y-682935D02*
G01X3456981Y-682935D01*
G01X3522223Y-767413D02*
G01X3522223Y-698172D01*
G01X3456981Y-782653D02*
G01X3506981Y-782653D01*
G01X3362703Y-782439D02*
G01X3412703Y-782439D01*
G01X3412703Y-682727D02*
G01X3362703Y-682727D01*
G01X3347461Y-697962D02*
G01X3347461Y-767204D01*
G01X3362703Y-682724D02*
G03X3347463Y-697964I0J-15240D01*
G01X3347463Y-767204D02*
G03X3362703Y-782444I15240J0D01*
G01X3506981Y-782653D02*
G03X3522221Y-767413I0J15240D01*
G01X3522221Y-698172D02*
G03X3506981Y-682932I-15240J0D01*
G01X4319046Y-1319985D02*
G01X4319046Y-1369985D01*
G01X4403524Y-1304742D02*
G01X4334284Y-1304742D01*
G01X4418764Y-1369985D02*
G01X4418764Y-1319985D01*
G01X4418551Y-1464262D02*
G01X4418551Y-1414262D01*
G01X4318838Y-1414262D02*
G01X4318838Y-1464262D01*
G01X4334073Y-1479504D02*
G01X4403316Y-1479504D01*
G01X4318836Y-1464262D02*
G03X4334076Y-1479502I15240J0D01*
G01X4403316Y-1479502D02*
G03X4418556Y-1464262I0J15240D01*
G01X4418764Y-1319985D02*
G03X4403524Y-1304745I-15240J0D01*
G01X4334284Y-1304745D02*
G03X4319044Y-1319985I0J-15240D01*
G54D11*
G01X3242282Y-1707929D02*
G01X3162285Y-1707929D01*
G01X3298327Y-1707884D02*
G01X3378325Y-1707884D01*
G01X3242282Y-1849897D02*
G01X3162285Y-1849897D01*
G01X3298327Y-1849849D02*
G01X3378325Y-1849849D01*
G01X3131310Y-1738912D02*
G01X3131310Y-1818917D01*
G01X3409303Y-1818864D02*
G01X3409303Y-1738861D01*
G01X3378320Y-1849849D02*
G03X3409303Y-1818864I0J30983D01*
G01X3409303Y-1738866D02*
G03X3378320Y-1707884I-30983J0D01*
G01X3162290Y-1707929D02*
G03X3131310Y-1738912I3J-30983D01*
G01X3131310Y-1818909D02*
G03X3162290Y-1849897I30983J-5D01*
G01X4131384Y-1510040D02*
G01X4051386Y-1510040D01*
G01X4187429Y-1509994D02*
G01X4267426Y-1509994D01*
G01X4131384Y-1652008D02*
G01X4051386Y-1652008D01*
G01X4187429Y-1651960D02*
G01X4267426Y-1651960D01*
G01X4020411Y-1541023D02*
G01X4020411Y-1621028D01*
G01X4298404Y-1620975D02*
G01X4298404Y-1540972D01*
G01X4267421Y-1651960D02*
G03X4298404Y-1620975I0J30983D01*
G01X4298404Y-1540977D02*
G03X4267421Y-1509994I-30983J0D01*
G01X4051391Y-1510040D02*
G03X4020411Y-1541023I3J-30983D01*
G01X4020411Y-1621020D02*
G03X4051391Y-1652008I30983J-5D01*
G54D10*
G01X2566446Y-1070861D02*
G01X2566446Y-1120861D01*
G01X2650924Y-1055619D02*
G01X2581684Y-1055619D01*
G01X2666164Y-1120861D02*
G01X2666164Y-1070861D01*
G01X2665951Y-1215139D02*
G01X2665951Y-1165139D01*
G01X2566238Y-1165139D02*
G01X2566238Y-1215139D01*
G01X2581473Y-1230381D02*
G01X2650716Y-1230381D01*
G01X2566236Y-1215139D02*
G03X2581476Y-1230379I15240J0D01*
G01X2650716Y-1230379D02*
G03X2665956Y-1215139I0J15240D01*
G01X2666164Y-1070861D02*
G03X2650924Y-1055621I-15240J0D01*
G01X2581684Y-1055621D02*
G03X2566444Y-1070861I0J-15240D01*
G01X4473824Y-1750493D02*
G01X4523824Y-1750493D01*
G01X4458581Y-1666015D02*
G01X4458581Y-1735256D01*
G01X4523824Y-1650775D02*
G01X4473824Y-1650775D01*
G01X4618101Y-1650989D02*
G01X4568101Y-1650989D01*
G01X4568101Y-1750701D02*
G01X4618101Y-1750701D01*
G01X4633344Y-1735466D02*
G01X4633344Y-1666223D01*
G01X4618101Y-1750704D02*
G03X4633341Y-1735464I0J15240D01*
G01X4633341Y-1666223D02*
G03X4618101Y-1650983I-15240J0D01*
G01X4473824Y-1650775D02*
G03X4458584Y-1666015I0J-15240D01*
G01X4458584Y-1735256D02*
G03X4473824Y-1750496I15240J0D01*
G01X4614189Y-1512005D02*
G01X4564190Y-1512005D01*
G01X4629432Y-1596483D02*
G01X4629432Y-1527242D01*
G01X4564190Y-1611723D02*
G01X4614189Y-1611723D01*
G01X4469912Y-1611509D02*
G01X4519912Y-1611509D01*
G01X4519912Y-1511797D02*
G01X4469912Y-1511797D01*
G01X4454670Y-1527031D02*
G01X4454670Y-1596274D01*
G01X4469912Y-1511794D02*
G03X4454672Y-1527034I0J-15240D01*
G01X4454672Y-1596274D02*
G03X4469912Y-1611514I15240J0D01*
G01X4614189Y-1611723D02*
G03X4629429Y-1596483I0J15240D01*
G01X4629429Y-1527242D02*
G03X4614189Y-1512002I-15240J0D01*
G54D11*
G01X4582770Y-1940709D02*
G01X4662767Y-1940709D01*
G01X4526725Y-1940754D02*
G01X4446727Y-1940754D01*
G01X4582770Y-1798740D02*
G01X4662767Y-1798740D01*
G01X4526725Y-1798789D02*
G01X4446727Y-1798789D01*
G01X4693742Y-1909726D02*
G01X4693742Y-1829721D01*
G01X4415749Y-1829774D02*
G01X4415749Y-1909776D01*
G01X4446732Y-1798789D02*
G03X4415749Y-1829774I0J-30983D01*
G01X4415749Y-1909771D02*
G03X4446732Y-1940754I30983J0D01*
G01X4662762Y-1940709D02*
G03X4693742Y-1909726I-3J30983D01*
G01X4693742Y-1829728D02*
G03X4662762Y-1798740I-30983J5D01*
G54D10*
G01X3098950Y-663265D02*
G01X3148950Y-663265D01*
G01X3083707Y-578787D02*
G01X3083707Y-648028D01*
G01X3148950Y-563547D02*
G01X3098950Y-563547D01*
G01X3243227Y-563761D02*
G01X3193227Y-563761D01*
G01X3193227Y-663473D02*
G01X3243227Y-663473D01*
G01X3258469Y-648238D02*
G01X3258469Y-578996D01*
G01X3243227Y-663476D02*
G03X3258467Y-648236I0J15240D01*
G01X3258467Y-578996D02*
G03X3243227Y-563756I-15240J0D01*
G01X3098950Y-563547D02*
G03X3083710Y-578787I0J-15240D01*
G01X3083710Y-648028D02*
G03X3098950Y-663268I15240J0D01*
G01X4609285Y-951454D02*
G01X4659285Y-951454D01*
G01X4594042Y-866976D02*
G01X4594042Y-936216D01*
G01X4659285Y-851736D02*
G01X4609285Y-851736D01*
G01X4753562Y-851949D02*
G01X4703562Y-851949D01*
G01X4703562Y-951662D02*
G01X4753562Y-951662D01*
G01X4768804Y-936427D02*
G01X4768804Y-867184D01*
G01X4753562Y-951664D02*
G03X4768802Y-936424I0J15240D01*
G01X4768802Y-867184D02*
G03X4753562Y-851944I-15240J0D01*
G01X4609285Y-851736D02*
G03X4594045Y-866976I0J-15240D01*
G01X4594045Y-936216D02*
G03X4609285Y-951456I15240J0D01*
G01X4126454Y-199139D02*
G01X4126454Y-149139D01*
G01X4041976Y-214381D02*
G01X4111216Y-214381D01*
G01X4026736Y-149139D02*
G01X4026736Y-199139D01*
G01X4026949Y-54861D02*
G01X4026949Y-104861D01*
G01X4126662Y-104861D02*
G01X4126662Y-54861D01*
G01X4111427Y-39619D02*
G01X4042184Y-39619D01*
G01X4126664Y-54861D02*
G03X4111424Y-39621I-15240J0D01*
G01X4042184Y-39621D02*
G03X4026944Y-54861I0J-15240D01*
G01X4026736Y-199139D02*
G03X4041976Y-214379I15240J0D01*
G01X4111216Y-214379D02*
G03X4126456Y-199139I0J15240D01*
G01X3509927Y-441635D02*
G01X3459927Y-441635D01*
G01X3525169Y-526113D02*
G01X3525169Y-456872D01*
G01X3459927Y-541353D02*
G01X3509927Y-541353D01*
G01X3365650Y-541139D02*
G01X3415650Y-541139D01*
G01X3415650Y-441427D02*
G01X3365650Y-441427D01*
G01X3350407Y-456662D02*
G01X3350407Y-525904D01*
G01X3365650Y-441424D02*
G03X3350410Y-456664I0J-15240D01*
G01X3350410Y-525904D02*
G03X3365650Y-541144I15240J0D01*
G01X3509927Y-541353D02*
G03X3525167Y-526113I0J15240D01*
G01X3525167Y-456872D02*
G03X3509927Y-441632I-15240J0D01*
G01X4601461Y-557754D02*
G01X4651461Y-557754D01*
G01X4586219Y-473276D02*
G01X4586219Y-542516D01*
G01X4651461Y-458036D02*
G01X4601461Y-458036D01*
G01X4745739Y-458249D02*
G01X4695739Y-458249D01*
G01X4695739Y-557962D02*
G01X4745739Y-557962D01*
G01X4760981Y-542727D02*
G01X4760981Y-473484D01*
G01X4745739Y-557964D02*
G03X4760979Y-542724I0J15240D01*
G01X4760979Y-473484D02*
G03X4745739Y-458244I-15240J0D01*
G01X4601461Y-458036D02*
G03X4586221Y-473276I0J-15240D01*
G01X4586221Y-542516D02*
G03X4601461Y-557756I15240J0D01*
G01X3467915Y-1085423D02*
G01X3417915Y-1085423D01*
G01X3483158Y-1169901D02*
G01X3483158Y-1100661D01*
G01X3417915Y-1185141D02*
G01X3467915Y-1185141D01*
G01X3323638Y-1184928D02*
G01X3373638Y-1184928D01*
G01X3373638Y-1085215D02*
G01X3323638Y-1085215D01*
G01X3308396Y-1100450D02*
G01X3308396Y-1169693D01*
G01X3323638Y-1085212D02*
G03X3308398Y-1100452I0J-15240D01*
G01X3308398Y-1169693D02*
G03X3323638Y-1184933I15240J0D01*
G01X3467915Y-1185141D02*
G03X3483155Y-1169901I0J15240D01*
G01X3483155Y-1100661D02*
G03X3467915Y-1085421I-15240J0D01*
G01X4240754Y-199139D02*
G01X4240754Y-149139D01*
G01X4156276Y-214381D02*
G01X4225516Y-214381D01*
G01X4141036Y-149139D02*
G01X4141036Y-199139D01*
G01X4141249Y-54861D02*
G01X4141249Y-104861D01*
G01X4240962Y-104861D02*
G01X4240962Y-54861D01*
G01X4225727Y-39619D02*
G01X4156484Y-39619D01*
G01X4240964Y-54861D02*
G03X4225724Y-39621I-15240J0D01*
G01X4156484Y-39621D02*
G03X4141244Y-54861I0J-15240D01*
G01X4141036Y-199139D02*
G03X4156276Y-214379I15240J0D01*
G01X4225516Y-214379D02*
G03X4240756Y-199139I0J15240D01*
G01X3356861Y-913354D02*
G01X3406861Y-913354D01*
G01X3341619Y-828876D02*
G01X3341619Y-898116D01*
G01X3406861Y-813636D02*
G01X3356861Y-813636D01*
G01X3501139Y-813849D02*
G01X3451139Y-813849D01*
G01X3451139Y-913562D02*
G01X3501139Y-913562D01*
G01X3516381Y-898327D02*
G01X3516381Y-829084D01*
G01X3501139Y-913564D02*
G03X3516379Y-898324I0J15240D01*
G01X3516379Y-829084D02*
G03X3501139Y-813844I-15240J0D01*
G01X3356861Y-813636D02*
G03X3341621Y-828876I0J-15240D01*
G01X3341621Y-898116D02*
G03X3356861Y-913356I15240J0D01*
G54D11*
G01X5016406Y-7897D02*
G01X5016406Y-301899D01*
G01X6210615Y-1507896D02*
G01X6025398Y-1507896D01*
G01X6210605Y-1507871D02*
G01X6289345Y-1507871D01*
G01X6289345Y-1507871D02*
G01X6289345Y-1297813D01*
G01X6289345Y-1297813D02*
G01X6290401Y-1297897D01*
G01X6538402Y-581015D02*
G01X6538402Y-1297894D01*
G01X6538402Y-1297894D02*
G01X6289401Y-1297897D01*
G01X5014402Y-1302893D02*
G01X5014402Y-586892D01*
G01X5016406Y-7897D02*
G01X6540398Y-7897D01*
G01X6540398Y-7897D02*
G01X6540398Y-306898D01*
G54D12*
G01X2352396Y-561721D02*
G01X2872395Y-561721D01*
G01X2352396Y-41722D02*
G01X2872395Y-41722D01*
G54D11*
G01X3029097Y-1117506D02*
G01X3029097Y-1031105D01*
G01X3029097Y-1031105D02*
G01X2929095Y-1031105D01*
G01X2889098Y-1212502D02*
G01X2889098Y-1149708D01*
G01X3029097Y-1331105D02*
G01X3029097Y-1244704D01*
G01X3029097Y-1331105D02*
G01X2929095Y-1331105D01*
G54D10*
G01X3484321Y-35540D02*
G01X3580209Y-35540D01*
G01X3580209Y-35540D02*
G01X3580209Y-167660D01*
G01X3580209Y-167660D02*
G01X3484321Y-167660D01*
G01X3399079Y-35540D02*
G01X3303191Y-35540D01*
G01X3303191Y-35540D02*
G01X3303191Y-167660D01*
G01X3303191Y-167660D02*
G01X3399079Y-167660D01*
G01X5333060Y-1831579D02*
G01X5333060Y-1759775D01*
G01X5333060Y-1759775D02*
G01X5233340Y-1759775D01*
G01X5233340Y-1759775D02*
G01X5233340Y-1831579D01*
G01X5333060Y-1876821D02*
G01X5333060Y-1948624D01*
G01X5333060Y-1948624D02*
G01X5233340Y-1948624D01*
G01X5233340Y-1948624D02*
G01X5233340Y-1876821D01*
G01X3884952Y-1298940D02*
G01X3980840Y-1298940D01*
G01X3980840Y-1298940D02*
G01X3980840Y-1431060D01*
G01X3980840Y-1431060D02*
G01X3884952Y-1431060D01*
G01X3799710Y-1298940D02*
G01X3703822Y-1298940D01*
G01X3703822Y-1298940D02*
G01X3703822Y-1431060D01*
G01X3703822Y-1431060D02*
G01X3799710Y-1431060D01*
G01X3484321Y-175240D02*
G01X3580209Y-175240D01*
G01X3580209Y-175240D02*
G01X3580209Y-307360D01*
G01X3580209Y-307360D02*
G01X3484321Y-307360D01*
G01X3399079Y-175240D02*
G01X3303191Y-175240D01*
G01X3303191Y-175240D02*
G01X3303191Y-307360D01*
G01X3303191Y-307360D02*
G01X3399079Y-307360D01*
G01X6153379Y-1836760D02*
G01X6153379Y-1764957D01*
G01X6153379Y-1764957D02*
G01X6053658Y-1764957D01*
G01X6053658Y-1764957D02*
G01X6053658Y-1836760D01*
G01X6153379Y-1882003D02*
G01X6153379Y-1953806D01*
G01X6153379Y-1953806D02*
G01X6053658Y-1953806D01*
G01X6053658Y-1953806D02*
G01X6053658Y-1882003D01*
G01X5931840Y-1887184D02*
G01X5931840Y-1958988D01*
G01X5931840Y-1958988D02*
G01X6031560Y-1958988D01*
G01X6031560Y-1958988D02*
G01X6031560Y-1887184D01*
G01X5931840Y-1841942D02*
G01X5931840Y-1770139D01*
G01X5931840Y-1770139D02*
G01X6031560Y-1770139D01*
G01X6031560Y-1770139D02*
G01X6031560Y-1841942D01*
G01X5817540Y-1889521D02*
G01X5817540Y-1961324D01*
G01X5817540Y-1961324D02*
G01X5917260Y-1961324D01*
G01X5917260Y-1961324D02*
G01X5917260Y-1889521D01*
G01X5817540Y-1844279D02*
G01X5817540Y-1772475D01*
G01X5817540Y-1772475D02*
G01X5917260Y-1772475D01*
G01X5917260Y-1772475D02*
G01X5917260Y-1844279D01*
G01X5672658Y-1894703D02*
G01X5672658Y-1966506D01*
G01X5672658Y-1966506D02*
G01X5772379Y-1966506D01*
G01X5772379Y-1966506D02*
G01X5772379Y-1894703D01*
G01X5672658Y-1849460D02*
G01X5672658Y-1777657D01*
G01X5672658Y-1777657D02*
G01X5772379Y-1777657D01*
G01X5772379Y-1777657D02*
G01X5772379Y-1849460D01*
G01X5360340Y-1874484D02*
G01X5360340Y-1946288D01*
G01X5360340Y-1946288D02*
G01X5460060Y-1946288D01*
G01X5460060Y-1946288D02*
G01X5460060Y-1874484D01*
G01X5360340Y-1829242D02*
G01X5360340Y-1757439D01*
G01X5360340Y-1757439D02*
G01X5460060Y-1757439D01*
G01X5460060Y-1757439D02*
G01X5460060Y-1829242D01*
G01X5026020Y-1762491D02*
G01X5154513Y-1762491D01*
G01X5154513Y-1762491D02*
G01X5154513Y-1945909D01*
G01X5154513Y-1945909D02*
G01X5026020Y-1945909D01*
G01X4930780Y-1762491D02*
G01X4802287Y-1762491D01*
G01X4802287Y-1762491D02*
G01X4802287Y-1945909D01*
G01X4802287Y-1945909D02*
G01X4930780Y-1945909D01*
G01X4855058Y-1076076D02*
G01X4950945Y-1076076D01*
G01X4950945Y-1076076D02*
G01X4950945Y-1208197D01*
G01X4950945Y-1208197D02*
G01X4855058Y-1208197D01*
G01X4769815Y-1076076D02*
G01X4673928Y-1076076D01*
G01X4673928Y-1076076D02*
G01X4673928Y-1208197D01*
G01X4673928Y-1208197D02*
G01X4769815Y-1208197D01*
G01X2675179Y-891560D02*
G01X2579291Y-891560D01*
G01X2579291Y-891560D02*
G01X2579291Y-759440D01*
G01X2579291Y-759440D02*
G01X2675179Y-759440D01*
G01X2760421Y-891560D02*
G01X2856309Y-891560D01*
G01X2856309Y-891560D02*
G01X2856309Y-759440D01*
G01X2856309Y-759440D02*
G01X2760421Y-759440D01*
G01X3368279Y-1232840D02*
G01X3296476Y-1232840D01*
G01X3296476Y-1232840D02*
G01X3296476Y-1332560D01*
G01X3296476Y-1332560D02*
G01X3368279Y-1332560D01*
G01X3413521Y-1232840D02*
G01X3485325Y-1232840D01*
G01X3485325Y-1232840D02*
G01X3485325Y-1332560D01*
G01X3485325Y-1332560D02*
G01X3413521Y-1332560D01*
G01X3175278Y-413798D02*
G01X3271165Y-413798D01*
G01X3271165Y-413798D02*
G01X3271165Y-545919D01*
G01X3271165Y-545919D02*
G01X3175278Y-545919D01*
G01X3090035Y-413798D02*
G01X2994148Y-413798D01*
G01X2994148Y-413798D02*
G01X2994148Y-545919D01*
G01X2994148Y-545919D02*
G01X3090035Y-545919D01*
G54D11*
G01X413101Y-210208D02*
G01X413101Y-452077D01*
G01X933099Y-210208D02*
G01X933099Y-452077D01*
G01X475143Y-138168D02*
G01X543095Y-70198D01*
G01X871063Y-522244D02*
G01X803105Y-590202D01*
G01X803105Y-590202D02*
G01X543095Y-590202D01*
G01X543095Y-590202D02*
G01X475143Y-522244D01*
G01X543095Y-70198D02*
G01X803105Y-70198D01*
G01X803105Y-70198D02*
G01X871063Y-138168D01*
G01X945799Y-1872592D02*
G01X945799Y-1630723D01*
G01X425801Y-1872592D02*
G01X425801Y-1630723D01*
G01X883757Y-1944632D02*
G01X815805Y-2012602D01*
G01X487837Y-1560556D02*
G01X555795Y-1492598D01*
G01X555795Y-1492598D02*
G01X815805Y-1492598D01*
G01X815805Y-1492598D02*
G01X883757Y-1560556D01*
G01X815805Y-2012602D02*
G01X555795Y-2012602D01*
G01X555795Y-2012602D02*
G01X487837Y-1944632D01*
G54D10*
G01X3581740Y-1457752D02*
G01X3581740Y-1793474D01*
G01X3581740Y-1793474D02*
G01X3987460Y-1793474D01*
G01X3987460Y-1793474D02*
G01X3987460Y-1457752D01*
G01X3987460Y-1457752D02*
G01X3581740Y-1457752D01*
G01X3558880Y-1600611D02*
G01X3558880Y-1434892D01*
G01X3558880Y-1434892D02*
G01X3744600Y-1434892D01*
G54D11*
G01X4359818Y-430683D02*
G01X4366701Y-430683D01*
G01X3686707Y-477572D02*
G01X3686707Y-430683D01*
G01X3733593Y-430683D01*
G01X3733593Y-1150684D02*
G01X3686707Y-1150684D01*
G01X3686707Y-1103796D01*
G01X4406706Y-1103796D02*
G01X4406706Y-1150684D01*
G01X4359818Y-1150684D01*
G01X4366701Y-430683D02*
G01X4406706Y-430683D01*
G01X4406706Y-477572D01*
G01X4453109Y-435093D02*
G02X4478509Y-435093I12700J0D01*
G02X4453109Y-435093I-12700J0D01*
G01X1965297Y-675693D02*
G01X2045988Y-675693D01*
G01X2405309Y-927067D02*
G01X2405309Y-942576D01*
G01X1965297Y-1635699D02*
G01X2045988Y-1635699D01*
G01X2405309Y-1368814D02*
G01X2405309Y-1384323D01*
G01X1965297Y-675693D02*
G01X1965297Y-1635699D01*
G36*
G01X1987301Y-1365298D02*
G01X1987301Y-1289098D01*
G01X2088901Y-1327198D01*
G01X1987301Y-1365298D01*
G37*

G04 Circle Start*
G01X6043879Y-1433093D02*
G03X6054344Y-1433093I5232J0D01*
G03X6043879Y-1433093I-5232J0D01*
G01X469925Y-330200D02*
G03X876325Y-330200I203200J0D01*
G03X469925Y-330200I-203200J0D01*
G01X533425Y-330200D02*
G03X812825Y-330200I139700J0D01*
G03X533425Y-330200I-139700J0D01*
G01X482575Y-1752600D02*
G03X888975Y-1752600I203200J0D01*
G03X482575Y-1752600I-203200J0D01*
G01X546075Y-1752600D02*
G03X825475Y-1752600I139700J0D01*
G03X546075Y-1752600I-139700J0D01*
G04 Circle End*

M02*

