G04 Layer: TopLayer*
G04 EasyEDA Pro v3.2.149.88089769, 2026-09-16 20:40:31*
G04 Gerber Generator version 0.3*
G04 Scale: 100 percent, Rotated: No, Reflected: No*
G04 Dimensions in millimeters*
G04 Leading zeros omitted, absolute positions, 4 integers and 5 decimals*
G04 Generated by one-click*
G04 Object Configs: Pad,Via,Track,Text,Image,Dimension,BoardOutline,BoardCutout,CopperFilled,SolidRegion,FPCStiffener,Line,PlaneZone,ComponentProperty,ComponentSilkscreen,TearDrop*
G04 Layer Configs: 1,15,16,2,3,4,5,6,7,8,9,10,11,13,14,56*
G04 Copper Areas: 73*
%FSLAX45Y45*%
%MOMM*%
%ADD10C,0.2032*%
%ADD11C,0.254*%
%ADD12R,0.54X0.5*%
%ADD13R,0.5X0.54*%
%ADD14R,0.9X0.8*%
%ADD15R,0.8X0.9*%
%ADD16R,1.2X0.95001*%
%ADD17R,1.0717X0.532*%
%ADD18R,1.07201X0.532*%
%ADD19C,1.6*%
%ADD20C,3.39999*%
%ADD21R,0.9X0.3*%
%ADD22R,1.0X1.42999*%
%ADD23O,2.4X1.2*%
%ADD24R,2.124X4.22001*%
%ADD25R,0.54X0.56566*%
%ADD26R,0.56566X0.54*%
%ADD27R,0.80648X0.86401*%
%ADD28R,1.6X1.3*%
%ADD29R,1.1X1.4*%
%ADD30C,0.5*%
%ADD31O,1.62001X0.28001*%
%ADD32R,1.1X0.55001*%
%ADD33C,0.61*%
%ADD34C,0.18*%
G75*


G04 Copper Start*
G36*
G01X1601817Y-1876896D02*
G01X1812807Y-2087886D01*
G01X23114Y-2087886D01*
G01X23114Y-1578243D01*
G01X37770Y-1584773D01*
G01X53310Y-1588765D01*
G01X69299Y-1590109D01*
G01X189299Y-1590109D01*
G01X207856Y-1588294D01*
G01X225711Y-1582920D01*
G01X242186Y-1574189D01*
G01X242186Y-1989000D01*
G01X243939Y-2000067D01*
G01X249026Y-2010051D01*
G01X256950Y-2017974D01*
G01X266933Y-2023061D01*
G01X278000Y-2024814D01*
G01X490400Y-2024814D01*
G01X501467Y-2023061D01*
G01X511451Y-2017974D01*
G01X519374Y-2010051D01*
G01X524461Y-2000067D01*
G01X526214Y-1989000D01*
G01X526214Y-1567000D01*
G01X524461Y-1555933D01*
G01X519374Y-1545949D01*
G01X511451Y-1538026D01*
G01X501467Y-1532939D01*
G01X490400Y-1531186D01*
G01X476610Y-1531186D01*
G01X509881Y-1497914D01*
G01X529088Y-1497914D01*
G01X537861Y-1496823D01*
G01X546100Y-1493616D01*
G01X554339Y-1496823D01*
G01X563112Y-1497914D01*
G01X613112Y-1497914D01*
G01X624179Y-1496161D01*
G01X634162Y-1491074D01*
G01X642086Y-1483151D01*
G01X647173Y-1473167D01*
G01X648926Y-1462100D01*
G01X648926Y-1442890D01*
G01X675010Y-1416805D01*
G01X682596Y-1423032D01*
G01X691588Y-1426966D01*
G01X701311Y-1428311D01*
G01X811310Y-1428311D01*
G01X822377Y-1426558D01*
G01X832361Y-1421471D01*
G01X840284Y-1413548D01*
G01X845371Y-1403564D01*
G01X847124Y-1392497D01*
G01X847124Y-1337495D01*
G01X845565Y-1327041D01*
G01X841021Y-1317498D01*
G01X845565Y-1307955D01*
G01X847124Y-1297501D01*
G01X847124Y-1242499D01*
G01X845565Y-1232045D01*
G01X841021Y-1222502D01*
G01X845565Y-1212959D01*
G01X847124Y-1202505D01*
G01X847124Y-1147503D01*
G01X845371Y-1136436D01*
G01X840284Y-1126452D01*
G01X832361Y-1118529D01*
G01X822377Y-1113442D01*
G01X811310Y-1111689D01*
G01X701311Y-1111689D01*
G01X690243Y-1113442D01*
G01X680260Y-1118529D01*
G01X672336Y-1126452D01*
G01X667249Y-1136436D01*
G01X665497Y-1147503D01*
G01X665497Y-1202505D01*
G01X667056Y-1212959D01*
G01X671599Y-1222502D01*
G01X667961Y-1229444D01*
G01X660284Y-1235693D01*
G01X634314Y-1261663D01*
G01X634314Y-1259599D01*
G01X633482Y-1251921D01*
G01X631022Y-1244600D01*
G01X633482Y-1237279D01*
G01X634314Y-1229601D01*
G01X634314Y-1173035D01*
G01X633243Y-1164342D01*
G01X630094Y-1156169D01*
G01X635669Y-1141843D01*
G01X637796Y-1126618D01*
G01X636360Y-1111313D01*
G01X631438Y-1096749D01*
G01X640025Y-1094225D01*
G01X647717Y-1089651D01*
G01X654036Y-1083312D01*
G01X663809Y-1083312D01*
G01X676365Y-1081659D01*
G01X688066Y-1076812D01*
G01X698114Y-1069102D01*
G01X716945Y-1050271D01*
G01X731617Y-1048094D01*
G01X745438Y-1042710D01*
G01X757717Y-1034389D01*
G01X767839Y-1023547D01*
G01X775298Y-1010727D01*
G01X779721Y-996569D01*
G01X780886Y-981783D01*
G01X778736Y-967107D01*
G01X773377Y-953276D01*
G01X765079Y-940982D01*
G01X754255Y-930841D01*
G01X741448Y-923358D01*
G01X727299Y-918910D01*
G01X712514Y-917717D01*
G01X697835Y-919841D01*
G01X683994Y-925174D01*
G01X671685Y-933450D01*
G01X661524Y-944255D01*
G01X661524Y-913200D01*
G01X659800Y-902223D01*
G01X654795Y-892302D01*
G01X659800Y-882381D01*
G01X661524Y-871404D01*
G01X661524Y-818204D01*
G01X659718Y-806974D01*
G01X654481Y-796877D01*
G01X646343Y-788931D01*
G01X636123Y-783937D01*
G01X636123Y-350015D01*
G01X720445Y-350015D01*
G01X758094Y-387664D01*
G01X758094Y-469169D01*
G01X759747Y-481725D01*
G01X764594Y-493426D01*
G01X772304Y-503474D01*
G01X808894Y-540064D01*
G01X808894Y-592587D01*
G01X800522Y-595793D01*
G01X793208Y-600978D01*
G01X787410Y-607816D01*
G01X779425Y-599127D01*
G01X769048Y-593504D01*
G01X757408Y-591560D01*
G01X677408Y-591560D01*
G01X666341Y-593313D01*
G01X656357Y-598400D01*
G01X648434Y-606323D01*
G01X643347Y-616307D01*
G01X641594Y-627374D01*
G01X641594Y-717373D01*
G01X643347Y-728441D01*
G01X648434Y-738424D01*
G01X656357Y-746348D01*
G01X666341Y-751435D01*
G01X677408Y-753187D01*
G01X757408Y-753187D01*
G01X765866Y-752174D01*
G01X773845Y-749193D01*
G01X780894Y-744411D01*
G01X780894Y-776961D01*
G01X770388Y-775386D01*
G01X720388Y-775386D01*
G01X709321Y-777139D01*
G01X699338Y-782226D01*
G01X691414Y-790149D01*
G01X686327Y-800133D01*
G01X684574Y-811200D01*
G01X684574Y-865200D01*
G01X686327Y-876267D01*
G01X691414Y-886251D01*
G01X699338Y-894174D01*
G01X709321Y-899261D01*
G01X720388Y-901014D01*
G01X770388Y-901014D01*
G01X779161Y-899923D01*
G01X787400Y-896716D01*
G01X795639Y-899923D01*
G01X804412Y-901014D01*
G01X823615Y-901014D01*
G01X947774Y-1025173D01*
G01X947774Y-1111689D01*
G01X941290Y-1111689D01*
G01X930223Y-1113442D01*
G01X920239Y-1118529D01*
G01X912316Y-1126452D01*
G01X907229Y-1136436D01*
G01X905476Y-1147503D01*
G01X905476Y-1202505D01*
G01X907035Y-1212959D01*
G01X911579Y-1222502D01*
G01X907035Y-1232045D01*
G01X905476Y-1242499D01*
G01X905476Y-1297501D01*
G01X907035Y-1307955D01*
G01X911579Y-1317498D01*
G01X907035Y-1327041D01*
G01X905476Y-1337495D01*
G01X905476Y-1392497D01*
G01X907229Y-1403564D01*
G01X912316Y-1413548D01*
G01X920239Y-1421471D01*
G01X930223Y-1426558D01*
G01X941290Y-1428311D01*
G01X973984Y-1428311D01*
G01X973984Y-1461059D01*
G01X963791Y-1463615D01*
G01X954779Y-1469019D01*
G01X947722Y-1476806D01*
G01X943230Y-1486305D01*
G01X941688Y-1496700D01*
G01X941688Y-1576700D01*
G01X943633Y-1588340D01*
G01X949255Y-1598717D01*
G01X957945Y-1606702D01*
G01X949255Y-1614688D01*
G01X943633Y-1625064D01*
G01X941688Y-1636705D01*
G01X941688Y-1716705D01*
G01X943441Y-1727772D01*
G01X948528Y-1737756D01*
G01X956452Y-1745679D01*
G01X966435Y-1750766D01*
G01X977502Y-1752519D01*
G01X1049884Y-1752519D01*
G01X1049884Y-1765686D01*
G01X977198Y-1765686D01*
G01X966131Y-1767439D01*
G01X956147Y-1772526D01*
G01X948224Y-1780449D01*
G01X943137Y-1790433D01*
G01X941384Y-1801500D01*
G01X941384Y-1832083D01*
G01X926214Y-1816913D01*
G01X926214Y-1567000D01*
G01X924461Y-1555933D01*
G01X919374Y-1545949D01*
G01X911450Y-1538026D01*
G01X901467Y-1532939D01*
G01X890400Y-1531186D01*
G01X678000Y-1531186D01*
G01X666933Y-1532939D01*
G01X656949Y-1538026D01*
G01X649026Y-1545949D01*
G01X643939Y-1555933D01*
G01X642186Y-1567000D01*
G01X642186Y-1989000D01*
G01X643939Y-2000067D01*
G01X649026Y-2010051D01*
G01X656949Y-2017974D01*
G01X666933Y-2023061D01*
G01X678000Y-2024814D01*
G01X890400Y-2024814D01*
G01X901467Y-2023061D01*
G01X911450Y-2017974D01*
G01X919374Y-2010051D01*
G01X924461Y-2000067D01*
G01X926214Y-1989000D01*
G01X926214Y-1954131D01*
G01X941384Y-1969301D01*
G01X941384Y-2021505D01*
G01X943137Y-2032572D01*
G01X948224Y-2042556D01*
G01X956147Y-2050479D01*
G01X966131Y-2055566D01*
G01X977198Y-2057319D01*
G01X1067198Y-2057319D01*
G01X1077177Y-2055900D01*
G01X1086365Y-2051758D01*
G01X1094036Y-2045218D01*
G01X1103121Y-2050793D01*
G01X1113204Y-2054249D01*
G01X1123798Y-2055420D01*
G01X1403197Y-2055420D01*
G01X1415754Y-2053767D01*
G01X1427454Y-2048920D01*
G01X1437502Y-2041211D01*
G01X1601817Y-1876896D01*
G37*
G36*
G01X23114Y-1359498D02*
G01X23114Y-1027232D01*
G01X29876Y-1035808D01*
G01X29876Y-1156698D01*
G01X31529Y-1169254D01*
G01X36376Y-1180955D01*
G01X44086Y-1191003D01*
G01X79195Y-1226112D01*
G01X83486Y-1229923D01*
G01X83486Y-1256793D01*
G01X84912Y-1266800D01*
G01X83486Y-1276806D01*
G01X83486Y-1306806D01*
G01X84909Y-1316799D01*
G01X83486Y-1326793D01*
G01X83486Y-1356793D01*
G01X83588Y-1359498D01*
G01X23114Y-1359498D01*
G37*
G36*
G01X44129Y-842337D02*
G01X34442Y-853104D01*
G01X27324Y-865717D01*
G01X23114Y-879575D01*
G01X23114Y-774127D01*
G01X83586Y-774127D01*
G01X83486Y-776807D01*
G01X83486Y-806807D01*
G01X84909Y-816800D01*
G01X83504Y-825667D01*
G01X69259Y-828284D01*
G01X55922Y-833930D01*
G01X44129Y-842337D01*
G37*
G36*
G01X69299Y-543491D02*
G01X53310Y-544835D01*
G01X37770Y-548827D01*
G01X23114Y-555357D01*
G01X23114Y-35814D01*
G01X3241403Y-35814D01*
G01X3232994Y-47154D01*
G01X3227176Y-60018D01*
G01X3215132Y-50885D01*
G01X3201332Y-44718D01*
G01X3186494Y-41836D01*
G01X3171389Y-42388D01*
G01X3156801Y-46347D01*
G01X3143489Y-53506D01*
G01X3132144Y-63494D01*
G01X3123355Y-75792D01*
G01X3117579Y-89760D01*
G01X3115117Y-104673D01*
G01X2143891Y-104673D01*
G01X2142518Y-91497D01*
G01X2137721Y-79148D01*
G01X2129839Y-68501D01*
G01X2119429Y-60307D01*
G01X2107228Y-55147D01*
G01X2094098Y-53386D01*
G01X1960098Y-53386D01*
G01X1946967Y-55147D01*
G01X1934766Y-60308D01*
G01X1924356Y-68502D01*
G01X1916474Y-79150D01*
G01X1911677Y-91499D01*
G01X1910305Y-104676D01*
G01X1864700Y-104676D01*
G01X1852143Y-106329D01*
G01X1840443Y-111175D01*
G01X1830395Y-118885D01*
G01X1810490Y-138790D01*
G01X1804098Y-146687D01*
G01X1799490Y-155742D01*
G01X1796870Y-165558D01*
G01X1787046Y-163163D01*
G01X1776972Y-162289D01*
G01X1764477Y-156625D01*
G01X1750896Y-154686D01*
G01X1721894Y-154686D01*
G01X1720396Y-140971D01*
G01X1715193Y-128194D01*
G01X1720197Y-116177D01*
G01X1721917Y-103275D01*
G01X1720236Y-90368D01*
G01X1715268Y-78336D01*
G01X1707353Y-68003D01*
G01X1697031Y-60072D01*
G01X1685007Y-55086D01*
G01X1672102Y-53386D01*
G01X1538102Y-53386D01*
G01X1526796Y-54686D01*
G01X694209Y-54686D01*
G01X681653Y-56339D01*
G01X669952Y-61185D01*
G01X659905Y-68895D01*
G01X553305Y-175495D01*
G01X545595Y-185543D01*
G01X540748Y-197243D01*
G01X539095Y-209800D01*
G01X539095Y-594086D01*
G01X492403Y-594086D01*
G01X492403Y-372589D01*
G01X490750Y-360033D01*
G01X485903Y-348332D01*
G01X478194Y-338285D01*
G01X433812Y-293903D01*
G01X433812Y-219199D01*
G01X432059Y-208132D01*
G01X426972Y-198149D01*
G01X419049Y-190225D01*
G01X409065Y-185138D01*
G01X397998Y-183385D01*
G01X277998Y-183385D01*
G01X266931Y-185138D01*
G01X256947Y-190225D01*
G01X249024Y-198149D01*
G01X243937Y-208132D01*
G01X242184Y-219199D01*
G01X242184Y-314201D01*
G01X243937Y-325268D01*
G01X249024Y-335251D01*
G01X256947Y-343175D01*
G01X266931Y-348262D01*
G01X277998Y-350015D01*
G01X352705Y-350015D01*
G01X395375Y-392684D01*
G01X395375Y-594086D01*
G01X327113Y-594086D01*
G01X316045Y-595839D01*
G01X306062Y-600926D01*
G01X298138Y-608849D01*
G01X293051Y-618833D01*
G01X291299Y-629900D01*
G01X291299Y-716300D01*
G01X292829Y-726658D01*
G01X297289Y-736130D01*
G01X304299Y-743908D01*
G01X301596Y-756618D01*
G01X301424Y-769612D01*
G01X303790Y-782390D01*
G01X288690Y-782390D01*
G01X277968Y-784033D01*
G01X268229Y-788810D01*
G01X260367Y-796284D01*
G01X245114Y-796284D01*
G01X245114Y-776807D01*
G01X243361Y-765740D01*
G01X238274Y-755756D01*
G01X230351Y-747833D01*
G01X220367Y-742746D01*
G01X209300Y-740993D01*
G01X150014Y-740993D01*
G01X150114Y-738313D01*
G01X150114Y-735119D01*
G01X189299Y-735119D01*
G01X207991Y-733278D01*
G01X225965Y-727826D01*
G01X242530Y-718972D01*
G01X257049Y-707056D01*
G01X268965Y-692537D01*
G01X277819Y-675972D01*
G01X283271Y-657998D01*
G01X285112Y-639305D01*
G01X283271Y-620613D01*
G01X277819Y-602639D01*
G01X268965Y-586074D01*
G01X257049Y-571555D01*
G01X242530Y-559639D01*
G01X225965Y-550785D01*
G01X207991Y-545332D01*
G01X189299Y-543491D01*
G01X69299Y-543491D01*
G37*
G36*
G01X189299Y-1398481D02*
G01X150114Y-1398481D01*
G01X150114Y-1395312D01*
G01X150012Y-1392607D01*
G01X209300Y-1392607D01*
G01X220367Y-1390854D01*
G01X230351Y-1385767D01*
G01X238274Y-1377844D01*
G01X243361Y-1367860D01*
G01X245114Y-1356793D01*
G01X245114Y-1326793D01*
G01X243691Y-1316799D01*
G01X245114Y-1306806D01*
G01X245114Y-1276806D01*
G01X243688Y-1266800D01*
G01X245114Y-1256793D01*
G01X245114Y-1240322D01*
G01X301386Y-1240322D01*
G01X308911Y-1246341D01*
G01X317769Y-1250136D01*
G01X327317Y-1251433D01*
G01X383883Y-1251433D01*
G01X391561Y-1250600D01*
G01X398882Y-1248141D01*
G01X406202Y-1250600D01*
G01X413880Y-1251433D01*
G01X470446Y-1251433D01*
G01X482070Y-1249494D01*
G01X492435Y-1243888D01*
G01X500419Y-1235221D01*
G01X505159Y-1224432D01*
G01X508686Y-1224432D01*
G01X508686Y-1229601D01*
G01X509518Y-1237279D01*
G01X511978Y-1244600D01*
G01X509518Y-1251921D01*
G01X508686Y-1259599D01*
G01X508686Y-1316164D01*
G01X509690Y-1324584D01*
G01X512645Y-1332532D01*
G01X472228Y-1372949D01*
G01X462921Y-1376143D01*
G01X454835Y-1381748D01*
G01X448579Y-1389343D01*
G01X444626Y-1398354D01*
G01X443274Y-1408100D01*
G01X443274Y-1427303D01*
G01X349895Y-1520682D01*
G01X341925Y-1531186D01*
G01X278000Y-1531186D01*
G01X277725Y-1531187D01*
G01X283228Y-1513203D01*
G01X285112Y-1494490D01*
G01X283305Y-1475770D01*
G01X277875Y-1457764D01*
G01X269033Y-1441165D01*
G01X257118Y-1426613D01*
G01X242591Y-1414669D01*
G01X226010Y-1405793D01*
G01X208015Y-1400327D01*
G01X189299Y-1398481D01*
G37*
G36*
G01X395891Y-1097210D02*
G01X406958Y-1095457D01*
G01X416942Y-1090370D01*
G01X424865Y-1082447D01*
G01X429952Y-1072463D01*
G01X431705Y-1061396D01*
G01X431705Y-1008196D01*
G01X431642Y-1006070D01*
G01X447032Y-1004817D01*
G01X461716Y-1000037D01*
G01X474896Y-991992D01*
G01X485858Y-981116D01*
G01X489425Y-987298D01*
G01X484419Y-997219D01*
G01X482695Y-1008196D01*
G01X482695Y-1061396D01*
G01X484047Y-1071144D01*
G01X488001Y-1080155D01*
G01X494258Y-1087750D01*
G01X502346Y-1093356D01*
G01X511655Y-1096548D01*
G01X506580Y-1111588D01*
G01X505224Y-1127404D01*
G01X481030Y-1127404D01*
G01X470446Y-1125804D01*
G01X413880Y-1125804D01*
G01X406202Y-1126637D01*
G01X398882Y-1129096D01*
G01X391561Y-1126637D01*
G01X383883Y-1125804D01*
G01X327317Y-1125804D01*
G01X317822Y-1127086D01*
G01X323987Y-1117930D01*
G01X328548Y-1107879D01*
G01X331379Y-1097210D01*
G01X395891Y-1097210D01*
G37*
G36*
G01X489425Y-892302D02*
G01X485859Y-898482D01*
G01X481811Y-893856D01*
G01X486324Y-887112D01*
G01X489425Y-892302D01*
G37*
G36*
G01X539095Y-782390D02*
G01X518509Y-782390D01*
G01X508879Y-783709D01*
G01X499958Y-787569D01*
G01X492403Y-793686D01*
G01X492403Y-752114D01*
G01X539095Y-752114D01*
G01X539095Y-782390D01*
G37*
G36*
G01X1311513Y-201704D02*
G01X1488310Y-201704D01*
G01X1489809Y-215417D01*
G01X1495011Y-228194D01*
G01X1490423Y-238759D01*
G01X1488384Y-250095D01*
G01X1482862Y-241567D01*
G01X1475168Y-234933D01*
G01X1465921Y-230727D01*
G01X1455865Y-229286D01*
G01X1399299Y-229286D01*
G01X1391621Y-230118D01*
G01X1384300Y-232578D01*
G01X1376979Y-230118D01*
G01X1369301Y-229286D01*
G01X1312736Y-229286D01*
G01X1301668Y-231039D01*
G01X1291685Y-236126D01*
G01X1283761Y-244049D01*
G01X1278674Y-254033D01*
G01X1276922Y-265100D01*
G01X1276922Y-319100D01*
G01X1277875Y-327308D01*
G01X1280684Y-335079D01*
G01X1285199Y-341999D01*
G01X1171217Y-341999D01*
G01X1311513Y-201704D01*
G37*
G36*
G01X7284986Y-553530D02*
G01X7284986Y-1656270D01*
G01X7276379Y-1629179D01*
G01X7264121Y-1603533D01*
G01X7248446Y-1579821D01*
G01X7229654Y-1558494D01*
G01X7208103Y-1539960D01*
G01X7184204Y-1524572D01*
G01X7158413Y-1512623D01*
G01X7131221Y-1504342D01*
G01X7103147Y-1499887D01*
G01X7074728Y-1499342D01*
G01X7046504Y-1502717D01*
G01X7019015Y-1509949D01*
G01X6992784Y-1520900D01*
G01X6968312Y-1535360D01*
G01X6981193Y-1519409D01*
G01X6991059Y-1501436D01*
G01X6997600Y-1482005D01*
G01X7000613Y-1461725D01*
G01X7000003Y-1441231D01*
G01X6995789Y-1421166D01*
G01X6988102Y-1402159D01*
G01X6977184Y-1384805D01*
G01X6963377Y-1369648D01*
G01X6947114Y-1357164D01*
G01X6928904Y-1347743D01*
G01X6909318Y-1341680D01*
G01X6888970Y-1339166D01*
G01X6868498Y-1340280D01*
G01X6848543Y-1344986D01*
G01X6829730Y-1353137D01*
G01X6812650Y-1364478D01*
G01X6797837Y-1378654D01*
G01X6785755Y-1395219D01*
G01X6776784Y-1413654D01*
G01X6771205Y-1433383D01*
G01X6769192Y-1453787D01*
G01X6770808Y-1474226D01*
G01X6776003Y-1494059D01*
G01X6784614Y-1512666D01*
G01X6796372Y-1529463D01*
G01X6810906Y-1543923D01*
G01X6827763Y-1555594D01*
G01X6846414Y-1564109D01*
G01X6866274Y-1569202D01*
G01X6886721Y-1570713D01*
G01X6907114Y-1568595D01*
G01X6926814Y-1562914D01*
G01X6945203Y-1553849D01*
G01X6926393Y-1573738D01*
G01X6910388Y-1595949D01*
G01X6897473Y-1620087D01*
G01X6887876Y-1645726D01*
G01X6881766Y-1672411D01*
G01X6879253Y-1699672D01*
G01X6880379Y-1727024D01*
G01X6885126Y-1753986D01*
G01X6893408Y-1780079D01*
G01X6905081Y-1804841D01*
G01X6919937Y-1827836D01*
G01X6937713Y-1848655D01*
G01X6958095Y-1866931D01*
G01X6980723Y-1882341D01*
G01X7005195Y-1894610D01*
G01X7031080Y-1903524D01*
G01X7057918Y-1908923D01*
G01X7085235Y-1910712D01*
G01X7112549Y-1908860D01*
G01X7139375Y-1903400D01*
G01X7165238Y-1894427D01*
G01X7189683Y-1882101D01*
G01X7212275Y-1866640D01*
G01X7232615Y-1848318D01*
G01X7250344Y-1827458D01*
G01X7265147Y-1804429D01*
G01X7276763Y-1779640D01*
G01X7284986Y-1753528D01*
G01X7284986Y-2087886D01*
G01X2602014Y-2087886D01*
G01X2638995Y-2050905D01*
G01X2653437Y-2047042D01*
G01X2666500Y-2039773D01*
G01X2677395Y-2029536D01*
G01X2685464Y-2016951D01*
G01X2690218Y-2002778D01*
G01X2691371Y-1987872D01*
G01X2691077Y-1986152D01*
G01X2766155Y-1986152D01*
G01X2767922Y-2000705D01*
G01X2773121Y-2014413D01*
G01X2781449Y-2026479D01*
G01X2792423Y-2036201D01*
G01X2805404Y-2043014D01*
G01X2819639Y-2046522D01*
G01X2834300Y-2046522D01*
G01X2848534Y-2043014D01*
G01X2861515Y-2036201D01*
G01X2872489Y-2026479D01*
G01X2880817Y-2014413D01*
G01X2886016Y-2000705D01*
G01X2887783Y-1986152D01*
G01X2886016Y-1971598D01*
G01X2880817Y-1957890D01*
G01X2872489Y-1945825D01*
G01X2861515Y-1936103D01*
G01X2848534Y-1929290D01*
G01X2834300Y-1925781D01*
G01X2819639Y-1925781D01*
G01X2805404Y-1929290D01*
G01X2792423Y-1936103D01*
G01X2781449Y-1945825D01*
G01X2773121Y-1957890D01*
G01X2767922Y-1971598D01*
G01X2766155Y-1986152D01*
G01X2766155Y-1986152D01*
G01X2691077Y-1986152D01*
G01X2688853Y-1973136D01*
G01X2682816Y-1959460D01*
G01X2673625Y-1947669D01*
G01X2661835Y-1938478D01*
G01X2648158Y-1932440D01*
G01X2633422Y-1929921D01*
G01X2618517Y-1931073D01*
G01X2604344Y-1935827D01*
G01X2591758Y-1943895D01*
G01X2581521Y-1954790D01*
G01X2574251Y-1967853D01*
G01X2570387Y-1982294D01*
G01X2534330Y-2018352D01*
G01X2494082Y-2018352D01*
G01X2498066Y-2005661D01*
G01X2499196Y-1992407D01*
G01X2497417Y-1979225D01*
G01X2492815Y-1966745D01*
G01X2485609Y-1955564D01*
G01X2476145Y-1946217D01*
G01X2464875Y-1939152D01*
G01X2452339Y-1934705D01*
G01X2461463Y-1927674D01*
G01X3067206Y-1321932D01*
G01X3790822Y-1321932D01*
G01X3802679Y-1332134D01*
G01X3816595Y-1339276D01*
G01X3831797Y-1342959D01*
G01X3847438Y-1342979D01*
G01X3862650Y-1339335D01*
G01X3876584Y-1332229D01*
G01X3888467Y-1322057D01*
G01X3897636Y-1309385D01*
G01X3903583Y-1294918D01*
G01X3905975Y-1279460D01*
G01X3904680Y-1263872D01*
G01X3915050Y-1274243D01*
G01X3916265Y-1290070D01*
G01X3921207Y-1305156D01*
G01X3929593Y-1318635D01*
G01X3940941Y-1329735D01*
G01X3954602Y-1337819D01*
G01X3969794Y-1342425D01*
G01X3985644Y-1343289D01*
G01X4001246Y-1340361D01*
G01X4015705Y-1333809D01*
G01X4028193Y-1324009D01*
G01X4037994Y-1311521D01*
G01X4044546Y-1297062D01*
G01X4047474Y-1281460D01*
G01X4046610Y-1265609D01*
G01X4042003Y-1250418D01*
G01X4033919Y-1236757D01*
G01X4022819Y-1225408D01*
G01X4009340Y-1217023D01*
G01X3994255Y-1212081D01*
G01X3978427Y-1210866D01*
G01X3936790Y-1169230D01*
G01X3927509Y-1162108D01*
G01X3916701Y-1157631D01*
G01X3905102Y-1156104D01*
G01X3720359Y-1156104D01*
G01X3726943Y-1141747D01*
G01X3729945Y-1126240D01*
G01X3729196Y-1110464D01*
G01X3724736Y-1095311D01*
G01X3716820Y-1081644D01*
G01X3705896Y-1070236D01*
G01X3692584Y-1061735D01*
G01X3677639Y-1056623D01*
G01X3661909Y-1055191D01*
G01X3646287Y-1057519D01*
G01X3650715Y-1043489D01*
G01X3651941Y-1028828D01*
G01X3649904Y-1014257D01*
G01X3644704Y-1000495D01*
G01X3636598Y-988217D01*
G01X3625985Y-978029D01*
G01X3613386Y-970432D01*
G01X3599422Y-965799D01*
G01X3601150Y-952188D01*
G01X3600039Y-938512D01*
G01X3596138Y-925358D01*
G01X3611846Y-920800D01*
G01X3625961Y-912535D01*
G01X3637623Y-901068D01*
G01X3646124Y-887094D01*
G01X3650946Y-871465D01*
G01X3651796Y-855131D01*
G01X3648622Y-839086D01*
G01X3641618Y-824305D01*
G01X3631208Y-811689D01*
G01X3618028Y-802004D01*
G01X3602877Y-795840D01*
G01X3586679Y-793572D01*
G01X3570419Y-795338D01*
G01X3555085Y-801030D01*
G01X3541611Y-810301D01*
G01X3530816Y-822589D01*
G01X3523357Y-837146D01*
G01X3519687Y-853085D01*
G01X3520031Y-869437D01*
G01X3524367Y-885208D01*
G01X3509645Y-889352D01*
G01X3496265Y-896758D01*
G01X3484936Y-907032D01*
G01X3476263Y-919628D01*
G01X3470705Y-933876D01*
G01X3468560Y-949018D01*
G01X3469940Y-964249D01*
G01X3474773Y-978759D01*
G01X3482801Y-991776D01*
G01X3493598Y-1002607D01*
G01X3506589Y-1010677D01*
G01X3521083Y-1015557D01*
G01X3519339Y-1030660D01*
G01X3521080Y-1045764D01*
G01X3526215Y-1060074D01*
G01X3534475Y-1072839D01*
G01X3545425Y-1083387D01*
G01X3558489Y-1091163D01*
G01X3572982Y-1095760D01*
G01X3588140Y-1096935D01*
G01X3603168Y-1094627D01*
G01X3600394Y-1102064D01*
G01X2407628Y-1102064D01*
G01X2339174Y-1033610D01*
G01X2329892Y-1026488D01*
G01X2319084Y-1022011D01*
G01X2307485Y-1020484D01*
G01X2305565Y-1020484D01*
G01X2293471Y-1010122D01*
G01X2293027Y-1009898D01*
G01X2740290Y-1009898D01*
G01X2742217Y-1025768D01*
G01X2747886Y-1040716D01*
G01X2756968Y-1053872D01*
G01X2768934Y-1064473D01*
G01X2783089Y-1071903D01*
G01X2798611Y-1075728D01*
G01X2814598Y-1075728D01*
G01X2830120Y-1071903D01*
G01X2844275Y-1064473D01*
G01X2856241Y-1053872D01*
G01X2865322Y-1040716D01*
G01X2870991Y-1025768D01*
G01X2872918Y-1009898D01*
G01X2870991Y-994028D01*
G01X2865322Y-979080D01*
G01X2856241Y-965924D01*
G01X2844275Y-955323D01*
G01X2830120Y-947893D01*
G01X2814598Y-944068D01*
G01X2798611Y-944068D01*
G01X2783089Y-947893D01*
G01X2768934Y-955323D01*
G01X2756968Y-965924D01*
G01X2747886Y-979080D01*
G01X2742217Y-994028D01*
G01X2740290Y-1009898D01*
G01X2740290Y-1009898D01*
G01X2293027Y-1009898D01*
G01X2279255Y-1002943D01*
G01X2263737Y-999360D01*
G01X2247812Y-999580D01*
G01X2232399Y-1003591D01*
G01X2218387Y-1011161D01*
G01X2206584Y-1021854D01*
G01X2197671Y-1035052D01*
G01X2192161Y-1049995D01*
G01X2190374Y-1065821D01*
G01X2192411Y-1081616D01*
G01X2198155Y-1096471D01*
G01X2207275Y-1109527D01*
G01X2219246Y-1120032D01*
G01X2216836Y-1131608D01*
G01X2216522Y-1143428D01*
G01X2202999Y-1150994D01*
G01X2191601Y-1161491D01*
G01X2182950Y-1174346D01*
G01X2177518Y-1188859D01*
G01X2175603Y-1204235D01*
G01X2177308Y-1219636D01*
G01X2182541Y-1234221D01*
G01X2191016Y-1247193D01*
G01X2114396Y-1247193D01*
G01X2101839Y-1248847D01*
G01X2090139Y-1253693D01*
G01X2080091Y-1261403D01*
G01X1432397Y-1909097D01*
G01X1432397Y-732689D01*
G01X2592981Y-732689D01*
G01X2594908Y-748558D01*
G01X2600577Y-763506D01*
G01X2609658Y-776663D01*
G01X2621624Y-787264D01*
G01X2635779Y-794693D01*
G01X2651301Y-798519D01*
G01X2667288Y-798519D01*
G01X2682810Y-794693D01*
G01X2696965Y-787264D01*
G01X2708931Y-776663D01*
G01X2718013Y-763506D01*
G01X2723682Y-748558D01*
G01X2725609Y-732689D01*
G01X2723682Y-716819D01*
G01X2718013Y-701871D01*
G01X2708931Y-688714D01*
G01X2696965Y-678113D01*
G01X2682810Y-670684D01*
G01X2667288Y-666858D01*
G01X2651301Y-666858D01*
G01X2635779Y-670684D01*
G01X2621624Y-678113D01*
G01X2609658Y-688714D01*
G01X2600577Y-701871D01*
G01X2594908Y-716819D01*
G01X2592981Y-732689D01*
G01X2592981Y-732689D01*
G01X1432397Y-732689D01*
G01X1432397Y-656489D01*
G01X3380379Y-656489D01*
G01X3382279Y-672249D01*
G01X3387870Y-687106D01*
G01X3396832Y-700209D01*
G01X3408651Y-710806D01*
G01X3422650Y-718291D01*
G01X3438027Y-722234D01*
G01X3453900Y-722410D01*
G01X3469361Y-718808D01*
G01X3483522Y-711635D01*
G01X3495573Y-701303D01*
G01X3612670Y-701303D01*
G01X3746297Y-834930D01*
G01X3746297Y-834930D01*
G01X3735941Y-843834D01*
G01X3727628Y-854672D01*
G01X3721712Y-866982D01*
G01X3718443Y-880243D01*
G01X3717961Y-893893D01*
G01X3720285Y-907352D01*
G01X3725317Y-920049D01*
G01X3732844Y-931446D01*
G01X3742546Y-941060D01*
G01X3754012Y-948482D01*
G01X3751905Y-962361D01*
G01X3752767Y-976373D01*
G01X3756559Y-989890D01*
G01X3763112Y-1002305D01*
G01X3754539Y-1014334D01*
G01X3748842Y-1027962D01*
G01X3746302Y-1042513D01*
G01X3747046Y-1057265D01*
G01X3751038Y-1071486D01*
G01X3758078Y-1084471D01*
G01X3767818Y-1095576D01*
G01X3779774Y-1104249D01*
G01X3793354Y-1110060D01*
G01X3807883Y-1112721D01*
G01X3822641Y-1112101D01*
G01X3836895Y-1108229D01*
G01X3849938Y-1101297D01*
G01X3861124Y-1091651D01*
G01X3869897Y-1079767D01*
G01X3875822Y-1066237D01*
G01X3878605Y-1051730D01*
G01X3878107Y-1036968D01*
G01X3874355Y-1022682D01*
G01X3867533Y-1009581D01*
G01X3875558Y-998517D01*
G01X3881145Y-986043D01*
G01X3884056Y-972688D01*
G01X3891218Y-979851D01*
G01X3891218Y-1012088D01*
G01X3892745Y-1023687D01*
G01X3897222Y-1034495D01*
G01X3904344Y-1043776D01*
G01X3955144Y-1094576D01*
G01X3964425Y-1101698D01*
G01X3975233Y-1106175D01*
G01X3986832Y-1107702D01*
G01X3997832Y-1107702D01*
G01X4009661Y-1117886D01*
G01X4023542Y-1125023D01*
G01X4038708Y-1128717D01*
G01X4054316Y-1128764D01*
G01X4069504Y-1125162D01*
G01X4083428Y-1118110D01*
G01X4095319Y-1107998D01*
G01X4104516Y-1095387D01*
G01X4110511Y-1080975D01*
G01X4112972Y-1065562D01*
G01X4111761Y-1050000D01*
G01X4110016Y-1044618D01*
G01X4231197Y-1044618D01*
G01X4233124Y-1060488D01*
G01X4238793Y-1075435D01*
G01X4247875Y-1088592D01*
G01X4259841Y-1099193D01*
G01X4273996Y-1106622D01*
G01X4289518Y-1110448D01*
G01X4305505Y-1110448D01*
G01X4321027Y-1106622D01*
G01X4335182Y-1099193D01*
G01X4347148Y-1088592D01*
G01X4356229Y-1075435D01*
G01X4361898Y-1060488D01*
G01X4363825Y-1044618D01*
G01X4361898Y-1028748D01*
G01X4356229Y-1013800D01*
G01X4347148Y-1000643D01*
G01X4335182Y-990042D01*
G01X4321027Y-982613D01*
G01X4305505Y-978787D01*
G01X4289518Y-978787D01*
G01X4273996Y-982613D01*
G01X4259841Y-990042D01*
G01X4247875Y-1000643D01*
G01X4238793Y-1013800D01*
G01X4233124Y-1028748D01*
G01X4231197Y-1044618D01*
G01X4231197Y-1044618D01*
G01X4110016Y-1044618D01*
G01X4106947Y-1035152D01*
G01X4098796Y-1021841D01*
G01X4087758Y-1010804D01*
G01X4074447Y-1002653D01*
G01X4059600Y-997838D01*
G01X4044038Y-996628D01*
G01X4028624Y-999088D01*
G01X4014213Y-1005084D01*
G01X4001602Y-1014281D01*
G01X3980846Y-993525D01*
G01X3980846Y-961288D01*
G01X3979319Y-949689D01*
G01X3974842Y-938881D01*
G01X3967720Y-929600D01*
G01X3662921Y-624800D01*
G01X3653640Y-617679D01*
G01X3642831Y-613202D01*
G01X3631233Y-611675D01*
G01X3495573Y-611675D01*
G01X3483522Y-601342D01*
G01X3469361Y-594169D01*
G01X3453900Y-590568D01*
G01X3438027Y-590743D01*
G01X3422650Y-594687D01*
G01X3408651Y-602172D01*
G01X3396832Y-612769D01*
G01X3387870Y-625871D01*
G01X3382279Y-640729D01*
G01X3380379Y-656489D01*
G01X1432397Y-656489D01*
G01X1432397Y-377813D01*
G01X1431444Y-369605D01*
G01X1428635Y-361835D01*
G01X1424120Y-354914D01*
G01X1455865Y-354914D01*
G01X1463435Y-354105D01*
G01X1470664Y-351713D01*
G01X1526792Y-351713D01*
G01X1538102Y-353014D01*
G01X1591535Y-353014D01*
G01X1592763Y-354242D01*
G01X1594793Y-370283D01*
G01X1600645Y-385357D01*
G01X1609970Y-398565D01*
G01X1622216Y-409125D01*
G01X1636652Y-416407D01*
G01X1652422Y-419979D01*
G01X1668588Y-419628D01*
G01X1684188Y-415375D01*
G01X1698295Y-407473D01*
G01X1710070Y-396392D01*
G01X1710999Y-411365D01*
G01X1715270Y-425746D01*
G01X1722663Y-438799D01*
G01X1732802Y-449857D01*
G01X1745166Y-458352D01*
G01X1759124Y-463851D01*
G01X1773960Y-466072D01*
G01X1945191Y-637303D01*
G01X1955239Y-645013D01*
G01X1966940Y-649860D01*
G01X1979496Y-651513D01*
G01X3120793Y-651513D01*
G01X3133350Y-649860D01*
G01X3145050Y-645013D01*
G01X3155098Y-637303D01*
G01X3267888Y-524513D01*
G01X3794366Y-524513D01*
G01X3785117Y-537580D01*
G01X3779269Y-552482D01*
G01X3777162Y-568352D01*
G01X3778920Y-584264D01*
G01X3784440Y-599291D01*
G01X3793400Y-612557D01*
G01X3805279Y-623290D01*
G01X3819383Y-630863D01*
G01X3834891Y-634835D01*
G01X3850899Y-634976D01*
G01X3866475Y-631275D01*
G01X3880710Y-623951D01*
G01X3892774Y-613428D01*
G01X3901966Y-600320D01*
G01X3917505Y-600884D01*
G01X3932748Y-597814D01*
G01X3946857Y-591278D01*
G01X3959056Y-581637D01*
G01X3968675Y-569420D01*
G01X3975184Y-555299D01*
G01X3978227Y-540051D01*
G01X3977635Y-524513D01*
G01X4028525Y-524513D01*
G01X4027501Y-540613D01*
G01X4030396Y-556485D01*
G01X4037037Y-571187D01*
G01X4047032Y-583851D01*
G01X4059790Y-593726D01*
G01X4074554Y-600229D01*
G01X4090452Y-602973D01*
G01X4106542Y-601798D01*
G01X4121872Y-596772D01*
G01X4135535Y-588193D01*
G01X4146722Y-576569D01*
G01X4154771Y-562588D01*
G01X4328440Y-736257D01*
G01X4313172Y-731869D01*
G01X4297298Y-731238D01*
G01X4281730Y-734401D01*
G01X4267360Y-741176D01*
G01X4255015Y-751174D01*
G01X4245401Y-763821D01*
G01X4239072Y-778392D01*
G01X4236389Y-794050D01*
G01X4237508Y-809897D01*
G01X4242363Y-825023D01*
G01X4250677Y-838561D01*
G01X4243659Y-853067D01*
G01X4240348Y-868837D01*
G01X4240938Y-884940D01*
G01X4245395Y-900426D01*
G01X4253455Y-914379D01*
G01X4264642Y-925976D01*
G01X4278297Y-934533D01*
G01X4293612Y-939543D01*
G01X4309684Y-940712D01*
G01X4325563Y-937969D01*
G01X4340312Y-931478D01*
G01X4353059Y-921621D01*
G01X4363053Y-908980D01*
G01X4369703Y-894302D01*
G01X4372616Y-878453D01*
G01X4371621Y-862370D01*
G01X4366775Y-847002D01*
G01X4358366Y-833256D01*
G01X4365372Y-818783D01*
G01X4368689Y-803049D01*
G01X4368121Y-786980D01*
G01X4363703Y-771520D01*
G01X4407286Y-815103D01*
G01X4417334Y-822813D01*
G01X4429034Y-827659D01*
G01X4441591Y-829312D01*
G01X4568590Y-829312D01*
G01X4581147Y-827659D01*
G01X4592847Y-822813D01*
G01X4602895Y-815103D01*
G01X4741085Y-676913D01*
G01X5026617Y-676913D01*
G01X4777770Y-925759D01*
G01X4755282Y-925759D01*
G01X4745796Y-927038D01*
G01X4736987Y-930784D01*
G01X4729485Y-936730D01*
G01X4723827Y-944451D01*
G01X4711189Y-937411D01*
G01X4697325Y-933279D01*
G01X4682895Y-932253D01*
G01X4668586Y-934379D01*
G01X4655079Y-939558D01*
G01X4643015Y-947543D01*
G01X4628989Y-941342D01*
G01X4613914Y-938530D01*
G01X4598596Y-939255D01*
G01X4583854Y-943480D01*
G01X4582955Y-928843D01*
G01X4578862Y-914761D01*
G01X4571774Y-901922D01*
G01X4562037Y-890956D01*
G01X4550128Y-882398D01*
G01X4536629Y-876667D01*
G01X4522201Y-874043D01*
G01X4507549Y-874654D01*
G01X4493389Y-878470D01*
G01X4480414Y-885306D01*
G01X4469259Y-894825D01*
G01X4460469Y-906564D01*
G01X4454475Y-919948D01*
G01X4451568Y-934322D01*
G01X4451892Y-948984D01*
G01X4455430Y-963215D01*
G01X4462010Y-976322D01*
G01X4471309Y-987661D01*
G01X4466364Y-1002266D01*
G01X4464925Y-1017617D01*
G01X4467070Y-1032887D01*
G01X4472684Y-1047248D01*
G01X4481462Y-1059924D01*
G01X4492931Y-1070230D01*
G01X4506469Y-1077610D01*
G01X4521346Y-1081663D01*
G01X4536757Y-1082170D01*
G01X4551869Y-1079106D01*
G01X4565864Y-1072634D01*
G01X4577986Y-1063105D01*
G01X4592605Y-1068847D01*
G01X4608164Y-1070991D01*
G01X4623790Y-1069415D01*
G01X4638608Y-1064209D01*
G01X4651786Y-1055663D01*
G01X4664704Y-1061510D01*
G01X4678569Y-1064476D01*
G01X4692747Y-1064427D01*
G01X4706592Y-1061365D01*
G01X4719468Y-1055430D01*
G01X4719468Y-1070621D01*
G01X4705796Y-1084293D01*
G01X4698086Y-1094341D01*
G01X4693240Y-1106041D01*
G01X4691587Y-1118598D01*
G01X4691587Y-1161730D01*
G01X4684327Y-1167434D01*
G01X4678767Y-1174805D01*
G01X4675276Y-1183352D01*
G01X4674086Y-1192507D01*
G01X4674086Y-1206904D01*
G01X4522937Y-1206904D01*
G01X4528551Y-1192774D01*
G01X4530798Y-1177736D01*
G01X4529561Y-1162582D01*
G01X4524905Y-1148108D01*
G01X4517075Y-1135075D01*
G01X4506482Y-1124168D01*
G01X4493684Y-1115961D01*
G01X4479352Y-1110884D01*
G01X4464241Y-1109205D01*
G01X4449144Y-1111011D01*
G01X4434856Y-1116209D01*
G01X4422127Y-1124525D01*
G01X4410125Y-1115839D01*
G01X4396494Y-1110035D01*
G01X4381915Y-1107401D01*
G01X4367114Y-1108071D01*
G01X4352832Y-1112009D01*
G01X4339781Y-1119020D01*
G01X4328611Y-1128754D01*
G01X4250491Y-1128754D01*
G01X4238893Y-1130281D01*
G01X4228085Y-1134758D01*
G01X4218803Y-1141879D01*
G01X4168003Y-1192679D01*
G01X4160882Y-1201961D01*
G01X4156405Y-1212769D01*
G01X4154878Y-1224368D01*
G01X4154878Y-1529167D01*
G01X4156405Y-1540766D01*
G01X4160882Y-1551574D01*
G01X4168003Y-1560855D01*
G01X4650602Y-2043454D01*
G01X4659884Y-2050576D01*
G01X4670692Y-2055053D01*
G01X4682291Y-2056580D01*
G01X5228920Y-2056580D01*
G01X5240518Y-2055053D01*
G01X5251327Y-2050576D01*
G01X5260608Y-2043454D01*
G01X5405055Y-1899007D01*
G01X5522501Y-1899007D01*
G01X5533568Y-1897254D01*
G01X5543552Y-1892167D01*
G01X5551475Y-1884244D01*
G01X5556562Y-1874260D01*
G01X5558315Y-1863193D01*
G01X5558315Y-1854596D01*
G01X5569085Y-1854596D01*
G01X5571012Y-1870466D01*
G01X5576681Y-1885414D01*
G01X5585762Y-1898571D01*
G01X5597728Y-1909172D01*
G01X5611883Y-1916601D01*
G01X5627405Y-1920427D01*
G01X5643392Y-1920427D01*
G01X5658914Y-1916601D01*
G01X5673069Y-1909172D01*
G01X5685035Y-1898571D01*
G01X5694117Y-1885414D01*
G01X5699786Y-1870466D01*
G01X5701713Y-1854596D01*
G01X5699786Y-1838726D01*
G01X5694117Y-1823779D01*
G01X5685035Y-1810622D01*
G01X5673069Y-1800021D01*
G01X5658914Y-1792592D01*
G01X5643392Y-1788766D01*
G01X5627405Y-1788766D01*
G01X5611883Y-1792592D01*
G01X5597728Y-1800021D01*
G01X5585762Y-1810622D01*
G01X5576681Y-1823779D01*
G01X5571012Y-1838726D01*
G01X5569085Y-1854596D01*
G01X5569085Y-1854596D01*
G01X5558315Y-1854596D01*
G01X5558315Y-1750980D01*
G01X5628411Y-1680884D01*
G01X5631365Y-1696773D01*
G01X5638075Y-1711475D01*
G01X5648142Y-1724118D01*
G01X5660968Y-1733950D01*
G01X5675792Y-1740388D01*
G01X5691733Y-1743049D01*
G01X5707844Y-1741774D01*
G01X5723168Y-1736641D01*
G01X5736795Y-1727953D01*
G01X5744316Y-1741052D01*
G01X5754078Y-1752577D01*
G01X5743482Y-1763565D01*
G01X5735680Y-1776685D01*
G01X5731084Y-1791241D01*
G01X5729938Y-1806462D01*
G01X5732303Y-1821542D01*
G01X5738053Y-1835682D01*
G01X5746884Y-1848132D01*
G01X5758328Y-1858233D01*
G01X5771779Y-1865450D01*
G01X5786523Y-1869401D01*
G01X5801780Y-1869875D01*
G01X5816741Y-1866848D01*
G01X5824705Y-1863193D01*
G01X6506685Y-1863193D01*
G01X6508438Y-1874260D01*
G01X6513525Y-1884244D01*
G01X6521448Y-1892167D01*
G01X6531432Y-1897254D01*
G01X6542499Y-1899007D01*
G01X6702499Y-1899007D01*
G01X6713566Y-1897254D01*
G01X6723550Y-1892167D01*
G01X6731473Y-1884244D01*
G01X6736560Y-1874260D01*
G01X6738313Y-1863193D01*
G01X6738313Y-1733193D01*
G01X6736560Y-1722126D01*
G01X6731473Y-1712142D01*
G01X6723550Y-1704219D01*
G01X6713566Y-1699132D01*
G01X6702499Y-1697379D01*
G01X6542499Y-1697379D01*
G01X6531432Y-1699132D01*
G01X6521448Y-1704219D01*
G01X6513525Y-1712142D01*
G01X6508438Y-1722126D01*
G01X6506685Y-1733193D01*
G01X6506685Y-1863193D01*
G01X6506685Y-1863193D01*
G01X5824705Y-1863193D01*
G01X5830614Y-1860481D01*
G01X5842663Y-1851110D01*
G01X5852251Y-1839232D01*
G01X5858868Y-1825477D01*
G01X5862165Y-1810572D01*
G01X5861967Y-1795309D01*
G01X5858284Y-1780496D01*
G01X5851312Y-1766917D01*
G01X5866471Y-1756668D01*
G01X5879027Y-1743358D01*
G01X5888375Y-1727627D01*
G01X5894063Y-1710234D01*
G01X5895704Y-1693189D01*
G01X6169175Y-1693189D01*
G01X6170995Y-1710511D01*
G01X6176378Y-1727076D01*
G01X6185087Y-1742160D01*
G01X6196741Y-1755104D01*
G01X6210832Y-1765342D01*
G01X6226744Y-1772426D01*
G01X6243781Y-1776048D01*
G01X6261198Y-1776048D01*
G01X6278235Y-1772426D01*
G01X6294147Y-1765342D01*
G01X6308238Y-1755104D01*
G01X6319892Y-1742160D01*
G01X6328601Y-1727076D01*
G01X6333983Y-1710511D01*
G01X6335804Y-1693189D01*
G01X6333983Y-1675867D01*
G01X6328601Y-1659302D01*
G01X6319892Y-1644218D01*
G01X6308238Y-1631275D01*
G01X6294147Y-1621037D01*
G01X6278235Y-1613953D01*
G01X6261198Y-1610331D01*
G01X6243781Y-1610331D01*
G01X6226744Y-1613953D01*
G01X6210832Y-1621037D01*
G01X6196741Y-1631275D01*
G01X6185087Y-1644218D01*
G01X6176378Y-1659302D01*
G01X6170995Y-1675867D01*
G01X6169175Y-1693189D01*
G01X6169175Y-1693189D01*
G01X5895704Y-1693189D01*
G01X5895817Y-1692020D01*
G01X5893552Y-1673862D01*
G01X5887378Y-1656636D01*
G01X5877593Y-1641174D01*
G01X5864668Y-1628221D01*
G01X5861171Y-1625997D01*
G01X5899104Y-1625997D01*
G01X5901031Y-1641867D01*
G01X5906700Y-1656814D01*
G01X5915781Y-1669971D01*
G01X5927747Y-1680572D01*
G01X5941903Y-1688001D01*
G01X5957425Y-1691827D01*
G01X5973411Y-1691827D01*
G01X5988933Y-1688001D01*
G01X6003089Y-1680572D01*
G01X6015055Y-1669971D01*
G01X6024136Y-1656814D01*
G01X6029805Y-1641867D01*
G01X6031732Y-1625997D01*
G01X6029805Y-1610127D01*
G01X6024136Y-1595179D01*
G01X6015055Y-1582022D01*
G01X6003089Y-1571421D01*
G01X5988933Y-1563992D01*
G01X5973411Y-1560166D01*
G01X5957425Y-1560166D01*
G01X5941903Y-1563992D01*
G01X5927747Y-1571421D01*
G01X5915781Y-1582022D01*
G01X5906700Y-1595179D01*
G01X5901031Y-1610127D01*
G01X5899104Y-1625997D01*
G01X5899104Y-1625997D01*
G01X5861171Y-1625997D01*
G01X5849227Y-1618402D01*
G01X5832015Y-1612190D01*
G01X5813862Y-1609886D01*
G01X5795644Y-1611600D01*
G01X5778239Y-1617250D01*
G01X5762488Y-1626563D01*
G01X5749149Y-1639091D01*
G01X5739309Y-1627822D01*
G01X5727193Y-1619046D01*
G01X5713418Y-1613209D01*
G01X5698686Y-1610609D01*
G01X5729083Y-1580211D01*
G01X5736793Y-1570164D01*
G01X5741640Y-1558463D01*
G01X5743293Y-1545907D01*
G01X5743293Y-1006435D01*
G01X5757777Y-1010485D01*
G01X5772802Y-1011168D01*
G01X5787595Y-1008447D01*
G01X5801393Y-1002462D01*
G01X5813489Y-993522D01*
G01X5816568Y-993522D01*
G01X5829125Y-991869D01*
G01X5840825Y-987022D01*
G01X5850873Y-979313D01*
G01X5978689Y-851497D01*
G01X6001182Y-851497D01*
G01X6007539Y-850928D01*
G01X6013695Y-849240D01*
G01X6027938Y-855738D01*
G01X6043307Y-858715D01*
G01X6058947Y-858007D01*
G01X6073984Y-853652D01*
G01X6078809Y-866611D01*
G01X6087093Y-877683D01*
G01X6173493Y-964083D01*
G01X6183541Y-971792D01*
G01X6195241Y-976639D01*
G01X6207798Y-978292D01*
G01X6297352Y-978292D01*
G01X6294699Y-991903D01*
G01X6294933Y-1005768D01*
G01X6298046Y-1019281D01*
G01X6303902Y-1031851D01*
G01X6312243Y-1042928D01*
G01X6312243Y-1256467D01*
G01X6313896Y-1269024D01*
G01X6318743Y-1280724D01*
G01X6326452Y-1290772D01*
G01X6506685Y-1471004D01*
G01X6506685Y-1583209D01*
G01X6508438Y-1594276D01*
G01X6513525Y-1604260D01*
G01X6521448Y-1612183D01*
G01X6531432Y-1617270D01*
G01X6542499Y-1619023D01*
G01X6702499Y-1619023D01*
G01X6713566Y-1617270D01*
G01X6723550Y-1612183D01*
G01X6731473Y-1604260D01*
G01X6736560Y-1594276D01*
G01X6738313Y-1583209D01*
G01X6738313Y-1453209D01*
G01X6736560Y-1442142D01*
G01X6731473Y-1432158D01*
G01X6723550Y-1424235D01*
G01X6713566Y-1419148D01*
G01X6702499Y-1417395D01*
G01X6590294Y-1417395D01*
G01X6502818Y-1329919D01*
G01X7016687Y-1329919D01*
G01X7018562Y-1347760D01*
G01X7024106Y-1364822D01*
G01X7033075Y-1380359D01*
G01X7045080Y-1393691D01*
G01X7059593Y-1404236D01*
G01X7075982Y-1411532D01*
G01X7093530Y-1415262D01*
G01X7111470Y-1415262D01*
G01X7129018Y-1411532D01*
G01X7145407Y-1404236D01*
G01X7159921Y-1393691D01*
G01X7171925Y-1380359D01*
G01X7180895Y-1364822D01*
G01X7186439Y-1347760D01*
G01X7188314Y-1329919D01*
G01X7186439Y-1312077D01*
G01X7180895Y-1295015D01*
G01X7171925Y-1279478D01*
G01X7159921Y-1266146D01*
G01X7145407Y-1255602D01*
G01X7129018Y-1248305D01*
G01X7111470Y-1244575D01*
G01X7093530Y-1244575D01*
G01X7075982Y-1248305D01*
G01X7059593Y-1255602D01*
G01X7045080Y-1266146D01*
G01X7033075Y-1279478D01*
G01X7024106Y-1295015D01*
G01X7018562Y-1312077D01*
G01X7016687Y-1329919D01*
G01X7016687Y-1329919D01*
G01X6502818Y-1329919D01*
G01X6409271Y-1236372D01*
G01X6409271Y-1042928D01*
G01X6417914Y-1031343D01*
G01X6423841Y-1018161D01*
G01X6506685Y-1101005D01*
G01X6506685Y-1213207D01*
G01X6508438Y-1224274D01*
G01X6513525Y-1234258D01*
G01X6521448Y-1242181D01*
G01X6531432Y-1247268D01*
G01X6542499Y-1249021D01*
G01X6702499Y-1249021D01*
G01X6713566Y-1247268D01*
G01X6723550Y-1242181D01*
G01X6731473Y-1234258D01*
G01X6736560Y-1224274D01*
G01X6738313Y-1213207D01*
G01X6738313Y-1126823D01*
G01X6776334Y-1164844D01*
G01X6771030Y-1184318D01*
G01X6769187Y-1204417D01*
G01X6770862Y-1224530D01*
G01X6776003Y-1244048D01*
G01X6784455Y-1262376D01*
G01X6795960Y-1278959D01*
G01X6810170Y-1293292D01*
G01X6826652Y-1304941D01*
G01X6844906Y-1313552D01*
G01X6864378Y-1318863D01*
G01X6884476Y-1320712D01*
G01X6904590Y-1319045D01*
G01X6924109Y-1313911D01*
G01X6942440Y-1305465D01*
G01X6959027Y-1293966D01*
G01X6973366Y-1279762D01*
G01X6985021Y-1263284D01*
G01X6993638Y-1245033D01*
G01X6998956Y-1225563D01*
G01X7000813Y-1205465D01*
G01X6999152Y-1185351D01*
G01X6994025Y-1165830D01*
G01X6985586Y-1147495D01*
G01X6974093Y-1130904D01*
G01X6959894Y-1116561D01*
G01X6943420Y-1104900D01*
G01X6959291Y-1093746D01*
G01X6973078Y-1080100D01*
G01X6984394Y-1064345D01*
G01X6992922Y-1046921D01*
G01X6998422Y-1028319D01*
G01X7000739Y-1009059D01*
G01X6999810Y-989683D01*
G01X6995660Y-970734D01*
G01X6988405Y-952743D01*
G01X6978249Y-936216D01*
G01X6965477Y-921615D01*
G01X6950447Y-909351D01*
G01X6933581Y-899768D01*
G01X6915352Y-893134D01*
G01X6902124Y-879907D01*
G01X7016687Y-879907D01*
G01X7018562Y-897749D01*
G01X7024106Y-914810D01*
G01X7033075Y-930347D01*
G01X7045080Y-943679D01*
G01X7059593Y-954224D01*
G01X7075982Y-961521D01*
G01X7093530Y-965251D01*
G01X7111470Y-965251D01*
G01X7129018Y-961521D01*
G01X7145407Y-954224D01*
G01X7159921Y-943679D01*
G01X7171925Y-930347D01*
G01X7180895Y-914810D01*
G01X7186439Y-897749D01*
G01X7188314Y-879907D01*
G01X7186439Y-862065D01*
G01X7180895Y-845003D01*
G01X7171925Y-829467D01*
G01X7159921Y-816135D01*
G01X7145407Y-805590D01*
G01X7129018Y-798293D01*
G01X7111470Y-794563D01*
G01X7093530Y-794563D01*
G01X7075982Y-798293D01*
G01X7059593Y-805590D01*
G01X7045080Y-816135D01*
G01X7033075Y-829467D01*
G01X7024106Y-845003D01*
G01X7018562Y-862065D01*
G01X7016687Y-879907D01*
G01X7016687Y-879907D01*
G01X6902124Y-879907D01*
G01X6892689Y-870472D01*
G01X6911269Y-867709D01*
G01X6929158Y-861979D01*
G01X6945885Y-853432D01*
G01X6961010Y-842294D01*
G01X6974136Y-828857D01*
G01X6984917Y-813475D01*
G01X6993070Y-796552D01*
G01X6998380Y-778534D01*
G01X7000707Y-759895D01*
G01X6999990Y-741125D01*
G01X6996249Y-722717D01*
G01X6989581Y-705156D01*
G01X6980161Y-688904D01*
G01X6968239Y-674389D01*
G01X6992710Y-688863D01*
G01X7018943Y-699826D01*
G01X7046435Y-707070D01*
G01X7074664Y-710455D01*
G01X7103090Y-709918D01*
G01X7131171Y-705469D01*
G01X7158371Y-697192D01*
G01X7184171Y-685246D01*
G01X7208078Y-669859D01*
G01X7229636Y-651324D01*
G01X7248435Y-629994D01*
G01X7264114Y-606278D01*
G01X7276376Y-580627D01*
G01X7284986Y-553530D01*
G37*
G36*
G01X2165071Y-360600D02*
G01X2170672Y-368712D01*
G01X2178273Y-374990D01*
G01X2187298Y-378957D01*
G01X2197062Y-380314D01*
G01X2253628Y-380314D01*
G01X2261306Y-379482D01*
G01X2268626Y-377022D01*
G01X2275947Y-379482D01*
G01X2283625Y-380314D01*
G01X2340191Y-380314D01*
G01X2350203Y-378886D01*
G01X2359416Y-374717D01*
G01X2367097Y-368137D01*
G01X2367217Y-368361D01*
G01X2363997Y-376567D01*
G01X2362886Y-385312D01*
G01X2362886Y-435312D01*
G01X2363118Y-439380D01*
G01X2091598Y-439380D01*
G01X2072706Y-420488D01*
G01X2088261Y-424986D01*
G01X2104441Y-425580D01*
G01X2120284Y-422235D01*
G01X2134843Y-415151D01*
G01X2147252Y-404749D01*
G01X2156770Y-391651D01*
G01X2162830Y-376636D01*
G01X2165071Y-360600D01*
G37*
G36*
G01X3020602Y-286113D02*
G01X3049113Y-314624D01*
G01X3050244Y-330023D01*
G01X3054905Y-344743D01*
G01X3062844Y-357987D01*
G01X3073631Y-369035D01*
G01X3086680Y-377289D01*
G01X3054077Y-409892D01*
G01X3052212Y-394691D01*
G01X3046911Y-380322D01*
G01X3038454Y-367554D01*
G01X3027294Y-357065D01*
G01X3014025Y-349417D01*
G01X2999356Y-345016D01*
G01X2984068Y-344098D01*
G01X2968978Y-346712D01*
G01X2954889Y-352718D01*
G01X2942554Y-361795D01*
G01X2486938Y-361795D01*
G01X2488514Y-351288D01*
G01X2488514Y-301288D01*
G01X2487661Y-293516D01*
G01X2485140Y-286113D01*
G01X3020602Y-286113D01*
G37*
G36*
G01X7284986Y-35814D02*
G01X7284986Y-456272D01*
G01X7276715Y-430039D01*
G01X7265021Y-405143D01*
G01X7250111Y-382029D01*
G01X7232252Y-361109D01*
G01X7211763Y-342758D01*
G01X7189010Y-327303D01*
G01X7164399Y-315019D01*
G01X7138370Y-306128D01*
G01X7111388Y-300786D01*
G01X7083934Y-299090D01*
G01X7056500Y-301070D01*
G01X7029574Y-306691D01*
G01X7003639Y-315852D01*
G01X6979156Y-328389D01*
G01X6956564Y-344080D01*
G01X6936267Y-362642D01*
G01X6918625Y-383745D01*
G01X6903955Y-407013D01*
G01X6892519Y-432028D01*
G01X6884521Y-458346D01*
G01X6884521Y-406399D01*
G01X6882868Y-393843D01*
G01X6878021Y-382142D01*
G01X6870311Y-372095D01*
G01X6833721Y-335504D01*
G01X6833721Y-324895D01*
G01X6870311Y-288304D01*
G01X6878021Y-278256D01*
G01X6882868Y-266556D01*
G01X6884521Y-253999D01*
G01X6884521Y-152400D01*
G01X6882868Y-139843D01*
G01X6878021Y-128143D01*
G01X6870311Y-118095D01*
G01X6844911Y-92695D01*
G01X6834864Y-84985D01*
G01X6823163Y-80139D01*
G01X6810607Y-78486D01*
G01X6354897Y-78486D01*
G01X6342341Y-80139D01*
G01X6330640Y-84985D01*
G01X6320593Y-92695D01*
G01X6318802Y-94485D01*
G01X6244102Y-94485D01*
G01X6233035Y-96238D01*
G01X6223051Y-101325D01*
G01X6215128Y-109249D01*
G01X6210041Y-119232D01*
G01X6208288Y-130299D01*
G01X6208288Y-204886D01*
G01X6059912Y-204886D01*
G01X6059912Y-130299D01*
G01X6058159Y-119232D01*
G01X6053072Y-109249D01*
G01X6045149Y-101325D01*
G01X6035165Y-96238D01*
G01X6024098Y-94485D01*
G01X5904098Y-94485D01*
G01X5893224Y-96176D01*
G01X5883376Y-101089D01*
G01X5875486Y-108759D01*
G01X5870296Y-118464D01*
G01X5868298Y-129286D01*
G01X4223632Y-129286D01*
G01X4211075Y-130939D01*
G01X4199375Y-135785D01*
G01X4189327Y-143495D01*
G01X4145095Y-187727D01*
G01X4130138Y-189980D01*
G01X4116080Y-195565D01*
G01X4103654Y-204189D01*
G01X4093505Y-215406D01*
G01X4086162Y-228630D01*
G01X4082007Y-243174D01*
G01X4081256Y-258282D01*
G01X4083948Y-273166D01*
G01X4074921Y-279003D01*
G01X4062062Y-270479D01*
G01X4047580Y-265157D01*
G01X4032261Y-263325D01*
G01X4016933Y-265083D01*
G01X4002426Y-270336D01*
G01X3989525Y-278798D01*
G01X3976110Y-270896D01*
G01X3961221Y-266339D01*
G01X3945680Y-265379D01*
G01X3930344Y-268070D01*
G01X3916058Y-274262D01*
G01X3903610Y-283615D01*
G01X3893685Y-295613D01*
G01X3886832Y-309594D01*
G01X3883428Y-324787D01*
G01X3883660Y-340356D01*
G01X3887516Y-355441D01*
G01X3894783Y-369212D01*
G01X3905061Y-380908D01*
G01X3917783Y-389885D01*
G01X3268719Y-389885D01*
G01X3371696Y-286908D01*
G01X3379406Y-276860D01*
G01X3384253Y-265159D01*
G01X3385796Y-253439D01*
G01X3533989Y-253439D01*
G01X3535916Y-269309D01*
G01X3541585Y-284257D01*
G01X3550666Y-297413D01*
G01X3562632Y-308014D01*
G01X3576788Y-315444D01*
G01X3592310Y-319270D01*
G01X3608296Y-319270D01*
G01X3623818Y-315444D01*
G01X3637973Y-308014D01*
G01X3649939Y-297413D01*
G01X3659021Y-284257D01*
G01X3664690Y-269309D01*
G01X3666617Y-253439D01*
G01X3664690Y-237569D01*
G01X3659021Y-222622D01*
G01X3649939Y-209465D01*
G01X3637973Y-198864D01*
G01X3623818Y-191435D01*
G01X3608296Y-187609D01*
G01X3592310Y-187609D01*
G01X3576788Y-191435D01*
G01X3562632Y-198864D01*
G01X3550666Y-209465D01*
G01X3541585Y-222622D01*
G01X3535916Y-237569D01*
G01X3533989Y-253439D01*
G01X3533989Y-253439D01*
G01X3385796Y-253439D01*
G01X3385906Y-252603D01*
G01X3385906Y-206024D01*
G01X3397222Y-194709D01*
G01X3404931Y-184661D01*
G01X3409778Y-172960D01*
G01X3411431Y-160404D01*
G01X3411431Y-128112D01*
G01X3409778Y-115555D01*
G01X3405381Y-104940D01*
G01X3874988Y-104940D01*
G01X3876915Y-120810D01*
G01X3882584Y-135758D01*
G01X3891665Y-148914D01*
G01X3903632Y-159515D01*
G01X3917787Y-166945D01*
G01X3933309Y-170771D01*
G01X3949295Y-170771D01*
G01X3964817Y-166945D01*
G01X3978973Y-159515D01*
G01X3990939Y-148914D01*
G01X4000020Y-135758D01*
G01X4005689Y-120810D01*
G01X4007616Y-104940D01*
G01X4005689Y-89070D01*
G01X4000020Y-74122D01*
G01X3990939Y-60966D01*
G01X3978973Y-50365D01*
G01X3964817Y-42935D01*
G01X3949295Y-39110D01*
G01X3933309Y-39110D01*
G01X3917787Y-42935D01*
G01X3903632Y-50365D01*
G01X3891665Y-60966D01*
G01X3882584Y-74122D01*
G01X3876915Y-89070D01*
G01X3874988Y-104940D01*
G01X3874988Y-104940D01*
G01X3405381Y-104940D01*
G01X3404931Y-103855D01*
G01X3397222Y-93807D01*
G01X3375268Y-71853D01*
G01X3364919Y-63971D01*
G01X3352849Y-59122D01*
G01X3347092Y-46748D01*
G01X3338924Y-35814D01*
G01X7284986Y-35814D01*
G37*
G36*
G01X4244506Y-1316746D02*
G01X4258029Y-1318030D01*
G01X4271530Y-1316531D01*
G01X4284442Y-1312313D01*
G01X4296224Y-1305552D01*
G01X4306381Y-1296532D01*
G01X4465055Y-1296532D01*
G01X4460919Y-1312133D01*
G01X4460675Y-1328271D01*
G01X4464337Y-1343989D01*
G01X4471687Y-1358358D01*
G01X4482291Y-1370526D01*
G01X4495520Y-1379771D01*
G01X4510591Y-1385547D01*
G01X4526611Y-1387511D01*
G01X4542631Y-1385547D01*
G01X4557702Y-1379771D01*
G01X4570931Y-1370526D01*
G01X4581535Y-1358358D01*
G01X4588885Y-1343989D01*
G01X4592547Y-1328271D01*
G01X4592302Y-1312133D01*
G01X4588167Y-1296532D01*
G01X4674086Y-1296532D01*
G01X4674086Y-1332507D01*
G01X4674816Y-1339701D01*
G01X4676976Y-1346601D01*
G01X4676976Y-1828399D01*
G01X4674816Y-1835299D01*
G01X4674086Y-1842493D01*
G01X4674086Y-1940185D01*
G01X4244506Y-1510604D01*
G01X4244506Y-1316746D01*
G37*
G36*
G01X4918885Y-334513D02*
G01X5183802Y-334513D01*
G01X5170236Y-348485D01*
G01X5159775Y-364912D01*
G01X5152852Y-383114D01*
G01X5149752Y-402340D01*
G01X5150604Y-421796D01*
G01X5155373Y-440678D01*
G01X5163860Y-458206D01*
G01X5175717Y-473655D01*
G01X5190452Y-486388D01*
G01X5207458Y-495878D01*
G01X5226031Y-501733D01*
G01X5245405Y-503712D01*
G01X5264778Y-501733D01*
G01X5283352Y-495878D01*
G01X5300357Y-486388D01*
G01X5315093Y-473655D01*
G01X5326949Y-458206D01*
G01X5335437Y-440678D01*
G01X5340205Y-421796D01*
G01X5341057Y-402340D01*
G01X5337958Y-383114D01*
G01X5331034Y-364912D01*
G01X5320574Y-348485D01*
G01X5307008Y-334513D01*
G01X5983800Y-334513D01*
G01X5970234Y-348485D01*
G01X5959774Y-364912D01*
G01X5952850Y-383114D01*
G01X5949751Y-402340D01*
G01X5950603Y-421796D01*
G01X5955371Y-440678D01*
G01X5963859Y-458206D01*
G01X5975715Y-473655D01*
G01X5990451Y-486388D01*
G01X6007456Y-495878D01*
G01X6026030Y-501733D01*
G01X6045403Y-503712D01*
G01X6064777Y-501733D01*
G01X6083350Y-495878D01*
G01X6100356Y-486388D01*
G01X6115091Y-473655D01*
G01X6126948Y-458206D01*
G01X6135435Y-440678D01*
G01X6140204Y-421796D01*
G01X6141056Y-402340D01*
G01X6137956Y-383114D01*
G01X6131033Y-364912D01*
G01X6120572Y-348485D01*
G01X6107006Y-334513D01*
G01X6341992Y-334513D01*
G01X6425076Y-417597D01*
G01X6425076Y-465004D01*
G01X6426800Y-475981D01*
G01X6431805Y-485902D01*
G01X6426800Y-495823D01*
G01X6425076Y-506800D01*
G01X6425076Y-560000D01*
G01X6426616Y-570389D01*
G01X6431103Y-579885D01*
G01X4720990Y-579885D01*
G01X4708434Y-581538D01*
G01X4696733Y-586384D01*
G01X4686686Y-594094D01*
G01X4615275Y-665505D01*
G01X4609621Y-657563D01*
G01X4602863Y-650535D01*
G01X4918885Y-334513D01*
G37*
G36*
G01X4774004Y-1465871D02*
G01X4789095Y-1467163D01*
G01X4794537Y-1482602D01*
G01X4803595Y-1496238D01*
G01X4815717Y-1507239D01*
G01X4830165Y-1514935D01*
G01X4846058Y-1518858D01*
G01X4862428Y-1518768D01*
G01X4878277Y-1514671D01*
G01X4892639Y-1506815D01*
G01X4904639Y-1495682D01*
G01X4913546Y-1481947D01*
G01X4918818Y-1466449D01*
G01X4920132Y-1450132D01*
G01X5002679Y-1367585D01*
G01X5009900Y-1368321D01*
G01X5119900Y-1368321D01*
G01X5130967Y-1366568D01*
G01X5140951Y-1361481D01*
G01X5148874Y-1353558D01*
G01X5153961Y-1343574D01*
G01X5155714Y-1332507D01*
G01X5155714Y-1193022D01*
G01X5326687Y-1193022D01*
G01X5326687Y-1213207D01*
G01X5328440Y-1224274D01*
G01X5333527Y-1234258D01*
G01X5341450Y-1242181D01*
G01X5351434Y-1247268D01*
G01X5362501Y-1249021D01*
G01X5504355Y-1249021D01*
G01X5504355Y-1392974D01*
G01X5479935Y-1417395D01*
G01X5362501Y-1417395D01*
G01X5351434Y-1419148D01*
G01X5341450Y-1424235D01*
G01X5333527Y-1432158D01*
G01X5328440Y-1442142D01*
G01X5326687Y-1453209D01*
G01X5326687Y-1559810D01*
G01X5311213Y-1562641D01*
G01X5296841Y-1569038D01*
G01X5284379Y-1578639D01*
G01X5274530Y-1590906D01*
G01X5267848Y-1605148D01*
G01X5264708Y-1620563D01*
G01X5265288Y-1636283D01*
G01X5269554Y-1651425D01*
G01X5277267Y-1665136D01*
G01X5287993Y-1676644D01*
G01X5301127Y-1685302D01*
G01X5315932Y-1690623D01*
G01X5331573Y-1692306D01*
G01X5347170Y-1690258D01*
G01X5361846Y-1684594D01*
G01X5374775Y-1675632D01*
G01X5385230Y-1663877D01*
G01X5392621Y-1649990D01*
G01X5396533Y-1634753D01*
G01X5396746Y-1619023D01*
G01X5425125Y-1619023D01*
G01X5419595Y-1631970D01*
G01X5416922Y-1645793D01*
G01X5417228Y-1659868D01*
G01X5420499Y-1673561D01*
G01X5426586Y-1686256D01*
G01X5435217Y-1697379D01*
G01X5362501Y-1697379D01*
G01X5351434Y-1699132D01*
G01X5341450Y-1704219D01*
G01X5333527Y-1712142D01*
G01X5328440Y-1722126D01*
G01X5326687Y-1733193D01*
G01X5326687Y-1850622D01*
G01X5210357Y-1966952D01*
G01X5155714Y-1966952D01*
G01X5155714Y-1842493D01*
G01X5153961Y-1831426D01*
G01X5148874Y-1821442D01*
G01X5140951Y-1813519D01*
G01X5130967Y-1808432D01*
G01X5119900Y-1806679D01*
G01X5009900Y-1806679D01*
G01X4998833Y-1808432D01*
G01X4988849Y-1813519D01*
G01X4980926Y-1821442D01*
G01X4975839Y-1831426D01*
G01X4974086Y-1842493D01*
G01X4974086Y-1966952D01*
G01X4855714Y-1966952D01*
G01X4855714Y-1842493D01*
G01X4853961Y-1831426D01*
G01X4848874Y-1821442D01*
G01X4840951Y-1813519D01*
G01X4830967Y-1808432D01*
G01X4819900Y-1806679D01*
G01X4774004Y-1806679D01*
G01X4774004Y-1625997D01*
G01X5129106Y-1625997D01*
G01X5131033Y-1641867D01*
G01X5136702Y-1656814D01*
G01X5145783Y-1669971D01*
G01X5157749Y-1680572D01*
G01X5171904Y-1688001D01*
G01X5187426Y-1691827D01*
G01X5203413Y-1691827D01*
G01X5218935Y-1688001D01*
G01X5233090Y-1680572D01*
G01X5245056Y-1669971D01*
G01X5254138Y-1656814D01*
G01X5259807Y-1641867D01*
G01X5261734Y-1625997D01*
G01X5259807Y-1610127D01*
G01X5254138Y-1595179D01*
G01X5245056Y-1582022D01*
G01X5233090Y-1571421D01*
G01X5218935Y-1563992D01*
G01X5203413Y-1560166D01*
G01X5187426Y-1560166D01*
G01X5171904Y-1563992D01*
G01X5157749Y-1571421D01*
G01X5145783Y-1582022D01*
G01X5136702Y-1595179D01*
G01X5131033Y-1610127D01*
G01X5129106Y-1625997D01*
G01X5129106Y-1625997D01*
G01X4774004Y-1625997D01*
G01X4774004Y-1465871D01*
G37*
G36*
G01X6438372Y-895474D02*
G01X6428324Y-887764D01*
G01X6416624Y-882917D01*
G01X6404067Y-881264D01*
G01X6299227Y-881264D01*
G01X6300023Y-868190D01*
G01X6298233Y-855215D01*
G01X6308553Y-850264D01*
G01X6316784Y-842309D01*
G01X6322085Y-832164D01*
G01X6323914Y-820864D01*
G01X6323914Y-764299D01*
G01X6323082Y-756621D01*
G01X6320622Y-749300D01*
G01X6323082Y-741979D01*
G01X6323914Y-734301D01*
G01X6323914Y-677735D01*
G01X6323905Y-676913D01*
G01X6432565Y-676913D01*
G01X6440427Y-684388D01*
G01X6450166Y-689167D01*
G01X6460890Y-690810D01*
G01X6568091Y-690810D01*
G01X6577719Y-689492D01*
G01X6586639Y-685633D01*
G01X6594193Y-679518D01*
G01X6594193Y-743199D01*
G01X6595846Y-755755D01*
G01X6600692Y-767456D01*
G01X6608402Y-777503D01*
G01X6721192Y-890293D01*
G01X6721192Y-1052659D01*
G01X6712209Y-1048735D01*
G01X6702499Y-1047393D01*
G01X6590291Y-1047393D01*
G01X6438372Y-895474D01*
G37*
G36*
G01X6597175Y-485902D02*
G01X6602181Y-475981D01*
G01X6603905Y-465004D01*
G01X6603905Y-411804D01*
G01X6602152Y-400737D01*
G01X6597065Y-390753D01*
G01X6589142Y-382830D01*
G01X6579158Y-377743D01*
G01X6568091Y-375990D01*
G01X6520687Y-375990D01*
G01X6433910Y-289213D01*
G01X6444456Y-281388D01*
G01X6495710Y-230134D01*
G01X6543813Y-230134D01*
G01X6541849Y-236739D01*
G01X6541186Y-243599D01*
G01X6541186Y-300164D01*
G01X6542939Y-311232D01*
G01X6548026Y-321215D01*
G01X6555949Y-329139D01*
G01X6565933Y-334226D01*
G01X6577000Y-335978D01*
G01X6631000Y-335978D01*
G01X6642067Y-334226D01*
G01X6652051Y-329139D01*
G01X6659974Y-321215D01*
G01X6665061Y-311232D01*
G01X6666814Y-300164D01*
G01X6666814Y-243599D01*
G01X6665457Y-233834D01*
G01X6707643Y-233834D01*
G01X6706286Y-243599D01*
G01X6706286Y-300164D01*
G01X6707719Y-310194D01*
G01X6711904Y-319421D01*
G01X6718505Y-327107D01*
G01X6726994Y-332637D01*
G01X6736693Y-335568D01*
G01X6736693Y-355599D01*
G01X6737830Y-366039D01*
G01X6741186Y-375990D01*
G01X6690709Y-375990D01*
G01X6679642Y-377743D01*
G01X6669658Y-382830D01*
G01X6661735Y-390753D01*
G01X6656648Y-400737D01*
G01X6654895Y-411804D01*
G01X6654895Y-433801D01*
G01X6608402Y-480294D01*
G01X6600272Y-491084D01*
G01X6597175Y-485902D01*
G37*
G54D10*
G01X1601817Y-1876896D02*
G01X1812807Y-2087886D01*
G01X23114Y-2087886D01*
G01X23114Y-1578243D01*
G03X69299Y-1590109I46185J83948D01*
G01X189299Y-1590109D01*
G03X242186Y-1574189I0J95814D01*
G01X242186Y-1989000D01*
G03X278000Y-2024814I35814J0D01*
G01X490400Y-2024814D01*
G03X526214Y-1989000I0J35814D01*
G01X526214Y-1567000D01*
G03X490400Y-1531186I-35814J0D01*
G01X476610Y-1531186D01*
G01X509881Y-1497914D01*
G01X529088Y-1497914D01*
G03X546100Y-1493616I0J35814D01*
G03X563112Y-1497914I17012J31516D01*
G01X613112Y-1497914D01*
G03X648926Y-1462100I0J35814D01*
G01X648926Y-1442890D01*
G01X675010Y-1416805D01*
G03X701311Y-1428311I26301J24309D01*
G01X811310Y-1428311D01*
G03X847124Y-1392497I0J35814D01*
G01X847124Y-1337495D01*
G03X841021Y-1317498I-35814J0D01*
G03X847124Y-1297501I-29711J19997D01*
G01X847124Y-1242499D01*
G03X841021Y-1222502I-35814J0D01*
G03X847124Y-1202505I-29711J19997D01*
G01X847124Y-1147503D01*
G03X811310Y-1111689I-35814J0D01*
G01X701311Y-1111689D01*
G03X665497Y-1147503I0J-35814D01*
G01X665497Y-1202505D01*
G03X671599Y-1222502I35814J0D01*
G03X667961Y-1229444I29711J-19997D01*
G03X660284Y-1235693I26628J-40553D01*
G01X634314Y-1261663D01*
G01X634314Y-1259599D01*
G03X631022Y-1244600I-35814J0D01*
G03X634314Y-1229601I-32522J14999D01*
G01X634314Y-1173035D01*
G03X630094Y-1156169I-35814J0D01*
G03X631438Y-1096749I-58595J31051D01*
G03X654036Y-1083312I-5729J35353D01*
G01X663809Y-1083312D01*
G03X698114Y-1069102I0J48514D01*
G01X716945Y-1050271D01*
G03X773377Y-953276I-2336J66273D01*
G03X661524Y-944255I-58768J-30722D01*
G01X661524Y-913200D01*
G03X654795Y-892302I-35814J0D01*
G03X661524Y-871404I-29085J20898D01*
G01X661524Y-818204D01*
G03X636123Y-783937I-35814J0D01*
G01X636123Y-350015D01*
G01X720445Y-350015D01*
G01X758094Y-387664D01*
G01X758094Y-469169D01*
G03X772304Y-503474I48514J0D01*
G01X808894Y-540064D01*
G01X808894Y-592587D01*
G03X787410Y-607816I8518J-34786D01*
G03X757408Y-591560I-30002J-19557D01*
G01X677408Y-591560D01*
G03X641594Y-627374I0J-35814D01*
G01X641594Y-717373D01*
G03X677408Y-753187I35814J0D01*
G01X757408Y-753187D01*
G03X780894Y-744411I0J35814D01*
G01X780894Y-776961D01*
G03X770388Y-775386I-10506J-34238D01*
G01X720388Y-775386D01*
G03X684574Y-811200I0J-35814D01*
G01X684574Y-865200D01*
G03X720388Y-901014I35814J0D01*
G01X770388Y-901014D01*
G03X787400Y-896716I0J35814D01*
G03X804412Y-901014I17012J31516D01*
G01X823615Y-901014D01*
G01X947774Y-1025173D01*
G01X947774Y-1111689D01*
G01X941290Y-1111689D01*
G03X905476Y-1147503I0J-35814D01*
G01X905476Y-1202505D01*
G03X911579Y-1222502I35814J0D01*
G03X905476Y-1242499I29711J-19997D01*
G01X905476Y-1297501D01*
G03X911579Y-1317498I35814J0D01*
G03X905476Y-1337495I29711J-19997D01*
G01X905476Y-1392497D01*
G03X941290Y-1428311I35814J0D01*
G01X973984Y-1428311D01*
G01X973984Y-1461059D01*
G03X941688Y-1496700I3519J-35641D01*
G01X941688Y-1576700D01*
G03X957945Y-1606702I35814J0D01*
G03X941688Y-1636705I19557J-30002D01*
G01X941688Y-1716705D01*
G03X977502Y-1752519I35814J0D01*
G01X1049884Y-1752519D01*
G01X1049884Y-1765686D01*
G01X977198Y-1765686D01*
G03X941384Y-1801500I0J-35814D01*
G01X941384Y-1832083D01*
G01X926214Y-1816913D01*
G01X926214Y-1567000D01*
G03X890400Y-1531186I-35814J0D01*
G01X678000Y-1531186D01*
G03X642186Y-1567000I0J-35814D01*
G01X642186Y-1989000D01*
G03X678000Y-2024814I35814J0D01*
G01X890400Y-2024814D01*
G03X926214Y-1989000I0J35814D01*
G01X926214Y-1954131D01*
G01X941384Y-1969301D01*
G01X941384Y-2021505D01*
G03X977198Y-2057319I35814J0D01*
G01X1067198Y-2057319D01*
G03X1094036Y-2045218I0J35814D01*
G03X1123798Y-2055420I29762J38312D01*
G01X1403197Y-2055420D01*
G03X1437502Y-2041211I0J48514D01*
G01X1601817Y-1876896D01*
G01X23114Y-1359498D02*
G01X23114Y-1027232D01*
G03X29876Y-1035808I55276J36634D01*
G01X29876Y-1156698D01*
G03X44086Y-1191003I48514J0D01*
G01X79195Y-1226112D01*
G03X83486Y-1229923I34305J34305D01*
G01X83486Y-1256793D01*
G03X84912Y-1266800I35814J0D01*
G03X83486Y-1276806I34388J-10006D01*
G01X83486Y-1306806D01*
G03X84909Y-1316799I35814J0D01*
G03X83486Y-1326793I34391J-9994D01*
G01X83486Y-1356793D01*
G03X83588Y-1359498I35814J0D01*
G01X23114Y-1359498D01*
G01X44129Y-842337D02*
G03X23114Y-879575I44161J-49471D01*
G01X23114Y-774127D01*
G01X83586Y-774127D01*
G03X83486Y-776807I35714J-2680D01*
G01X83486Y-806807D01*
G03X84909Y-816800I35814J0D01*
G03X83504Y-825667I34391J-9994D01*
G03X44129Y-842337I4786J-66141D01*
G01X69299Y-543491D02*
G03X23114Y-555357I0J-95814D01*
G01X23114Y-35814D01*
G01X3241403Y-35814D01*
G03X3227176Y-60018I48760J-44944D01*
G03X3115117Y-104673I-45826J-47932D01*
G01X2143891Y-104673D01*
G03X2094098Y-53386I-49793J1473D01*
G01X1960098Y-53386D01*
G03X1910305Y-104676I0J-49814D01*
G01X1864700Y-104676D01*
G03X1830395Y-118885I0J-48514D01*
G01X1810490Y-138790D01*
G03X1796870Y-165558I34305J-34305D01*
G03X1776972Y-162289I-20573J-63042D01*
G03X1750896Y-154686I-26076J-40911D01*
G01X1721894Y-154686D01*
G03X1715193Y-128194I-49792J1498D01*
G03X1672102Y-53386I-43091J24994D01*
G01X1538102Y-53386D01*
G03X1526796Y-54686I0J-49814D01*
G01X694209Y-54686D01*
G03X659905Y-68895I0J-48514D01*
G01X553305Y-175495D01*
G03X539095Y-209800I34305J-34305D01*
G01X539095Y-594086D01*
G01X492403Y-594086D01*
G01X492403Y-372589D01*
G03X478194Y-338285I-48514J0D01*
G01X433812Y-293903D01*
G01X433812Y-219199D01*
G03X397998Y-183385I-35814J0D01*
G01X277998Y-183385D01*
G03X242184Y-219199I0J-35814D01*
G01X242184Y-314201D01*
G03X277998Y-350015I35814J0D01*
G01X352705Y-350015D01*
G01X395375Y-392684D01*
G01X395375Y-594086D01*
G01X327113Y-594086D01*
G03X291299Y-629900I0J-35814D01*
G01X291299Y-716300D01*
G03X304299Y-743908I35814J0D01*
G03X303790Y-782390I63200J-20081D01*
G01X288690Y-782390D01*
G03X260367Y-796284I0J-35814D01*
G01X245114Y-796284D01*
G01X245114Y-776807D01*
G03X209300Y-740993I-35814J0D01*
G01X150014Y-740993D01*
G03X150114Y-738313I-35714J2680D01*
G01X150114Y-735119D01*
G01X189299Y-735119D01*
G03X189299Y-543491I0J95814D01*
G01X69299Y-543491D01*
G01X189299Y-1398481D02*
G01X150114Y-1398481D01*
G01X150114Y-1395312D01*
G03X150012Y-1392607I-35814J0D01*
G01X209300Y-1392607D01*
G03X245114Y-1356793I0J35814D01*
G01X245114Y-1326793D01*
G03X243691Y-1316799I-35814J0D01*
G03X245114Y-1306806I-34391J9994D01*
G01X245114Y-1276806D01*
G03X243688Y-1266800I-35814J0D01*
G03X245114Y-1256793I-34388J10006D01*
G01X245114Y-1240322D01*
G01X301386Y-1240322D01*
G03X327317Y-1251433I25931J24703D01*
G01X383883Y-1251433D01*
G03X398882Y-1248141I0J35814D01*
G03X413880Y-1251433I14999J32522D01*
G01X470446Y-1251433D01*
G03X505159Y-1224432I0J35814D01*
G01X508686Y-1224432D01*
G01X508686Y-1229601D01*
G03X511978Y-1244600I35814J0D01*
G03X508686Y-1259599I32522J-14999D01*
G01X508686Y-1316164D01*
G03X512645Y-1332532I35814J0D01*
G01X472228Y-1372949D01*
G03X443274Y-1408100I6860J-35151D01*
G01X443274Y-1427303D01*
G01X349895Y-1520682D01*
G03X341925Y-1531186I34305J-34305D01*
G01X278000Y-1531186D01*
G01X277725Y-1531187D01*
G03X189299Y-1398481I-88427J36892D01*
G01X395891Y-1097210D02*
G03X431705Y-1061396I0J35814D01*
G01X431705Y-1008196D01*
G01X431642Y-1006070D01*
G03X485858Y-981116I2348J66272D01*
G03X489425Y-987298I32651J14716D01*
G03X482695Y-1008196I29085J-20898D01*
G01X482695Y-1061396D01*
G03X511655Y-1096548I35814J0D01*
G03X505224Y-1127404I59844J-28570D01*
G01X481030Y-1127404D01*
G03X470446Y-1125804I-10583J-34215D01*
G01X413880Y-1125804D01*
G03X398882Y-1129096I0J-35814D01*
G03X383883Y-1125804I-14999J-32522D01*
G01X327317Y-1125804D01*
G03X317822Y-1127086I0J-35814D01*
G03X331379Y-1097210I-51733J41488D01*
G01X395891Y-1097210D01*
G01X489425Y-892302D02*
G03X485859Y-898482I29085J-20898D01*
G03X481811Y-893856I-51870J-41317D01*
G03X486324Y-887112I-37922J30258D01*
G03X489425Y-892302I32185J15708D01*
G01X539095Y-782390D02*
G01X518509Y-782390D01*
G03X492403Y-793686I0J-35814D01*
G01X492403Y-752114D01*
G01X539095Y-752114D01*
G01X539095Y-782390D01*
G01X1311513Y-201704D02*
G01X1488310Y-201704D01*
G03X1495011Y-228194I49792J-1496D01*
G03X1488384Y-250095I43091J-24994D01*
G03X1455865Y-229286I-32519J-15005D01*
G01X1399299Y-229286D01*
G03X1384300Y-232578I0J-35814D01*
G03X1369301Y-229286I-14999J-32522D01*
G01X1312736Y-229286D01*
G03X1276922Y-265100I0J-35814D01*
G01X1276922Y-319100D01*
G03X1285199Y-341999I35814J0D01*
G01X1171217Y-341999D01*
G01X1311513Y-201704D01*
G01X7284986Y-553530D02*
G01X7284986Y-1656270D01*
G03X6968312Y-1535360I-199986J-48629D01*
G03X6812650Y-1364478I-83312J80448D01*
G03X6945203Y-1553849I72351J-90434D01*
G03X6980723Y-1882341I139797J-151050D01*
G03X7284986Y-1753528I104277J177442D01*
G01X7284986Y-2087886D01*
G01X2602014Y-2087886D01*
G01X2638995Y-2050905D01*
G03X2673625Y-1947669I-8373J60235D01*
G03X2570387Y-1982294I-43003J-43001D01*
G01X2534330Y-2018352D01*
G01X2494082Y-2018352D01*
G03X2492815Y-1966745I-55682J24452D01*
G03X2452339Y-1934705I-54415J-27155D01*
G03X2461463Y-1927674I-22564J38719D01*
G01X3067206Y-1321932D01*
G01X3790822Y-1321932D01*
G03X3904680Y-1263872I48880J44814D01*
G01X3915050Y-1274243D01*
G03X4028193Y-1324009I66252J-2875D01*
G03X3978427Y-1210866I-46891J46891D01*
G01X3936790Y-1169230D01*
G03X3905102Y-1156104I-31688J-31688D01*
G01X3720359Y-1156104D01*
G03X3716820Y-1081644I-56556J34626D01*
G03X3646287Y-1057519I-53017J-39834D01*
G03X3599422Y-965799I-60635J26851D01*
G03X3596138Y-925358I-64569J15111D01*
G03X3618028Y-802004I-10486J65480D01*
G03X3524367Y-885208I-32375J-57874D01*
G03X3468560Y-949018I10486J-65480D01*
G03X3521083Y-1015557I66293J-1670D01*
G03X3603168Y-1094627I64569J-15111D01*
G03X3600394Y-1102064I60635J-26851D01*
G01X2407628Y-1102064D01*
G01X2339174Y-1033610D01*
G03X2307485Y-1020484I-31688J-31688D01*
G01X2305565Y-1020484D01*
G03X2206584Y-1021854I-48880J-44814D01*
G03X2219246Y-1120032I50102J-43444D01*
G03X2216522Y-1143428I63460J-19246D01*
G03X2191016Y-1247193I25394J-61259D01*
G01X2114396Y-1247193D01*
G03X2080091Y-1261403I0J-48514D01*
G01X1432397Y-1909097D01*
G01X1432397Y-377813D01*
G03X1424120Y-354914I-35814J0D01*
G01X1455865Y-354914D01*
G03X1470664Y-351713I0J35814D01*
G01X1526792Y-351713D01*
G03X1538102Y-353014I11310J48514D01*
G01X1591535Y-353014D01*
G01X1592763Y-354242D01*
G03X1710070Y-396392I66313J243D01*
G03X1773960Y-466072I66226J-3407D01*
G01X1945191Y-637303D01*
G03X1979496Y-651513I34305J34305D01*
G01X3120793Y-651513D01*
G03X3155098Y-637303I0J48514D01*
G01X3267888Y-524513D01*
G01X3794366Y-524513D01*
G03X3805279Y-623290I49106J-44566D01*
G03X3901966Y-600320I38193J54211D01*
G03X3959056Y-581637I10157J65532D01*
G03X3977635Y-524513I-46934J46848D01*
G01X4028525Y-524513D01*
G03X4074554Y-600229I65177J-12226D01*
G03X4154771Y-562588I19148J63489D01*
G01X4328440Y-736257D01*
G03X4250677Y-838561I-25819J-61081D01*
G03X4309684Y-940712I55745J-35917D01*
G03X4358366Y-833256I-3263J66234D01*
G03X4363703Y-771520I-55745J35917D01*
G01X4407286Y-815103D01*
G03X4441591Y-829312I34305J34305D01*
G01X4568590Y-829312D01*
G03X4602895Y-815103I0J48514D01*
G01X4741085Y-676913D01*
G01X5026617Y-676913D01*
G01X4777770Y-925759D01*
G01X4755282Y-925759D01*
G03X4723827Y-944451I0J-35814D01*
G03X4643015Y-947543I-38396J-54067D01*
G03X4583854Y-943480I-33644J-57145D01*
G03X4493389Y-878470I-66233J3282D01*
G03X4471309Y-987661I24232J-61728D01*
G03X4492931Y-1070230I59912J-28427D01*
G03X4577986Y-1063105I38290J54142D01*
G03X4651786Y-1055663I31385J58417D01*
G03X4719468Y-1055430I33644J57145D01*
G01X4719468Y-1070621D01*
G01X4705796Y-1084293D01*
G03X4691587Y-1118598I34305J-34305D01*
G01X4691587Y-1161730D01*
G03X4674086Y-1192507I18314J-30777D01*
G01X4674086Y-1206904D01*
G01X4522937Y-1206904D01*
G03X4506482Y-1124168I-58416J31386D01*
G03X4422127Y-1124525I-41961J-51350D01*
G03X4328611Y-1128754I-44636J-49043D01*
G01X4250491Y-1128754D01*
G03X4218803Y-1141879I0J-44814D01*
G01X4168003Y-1192679D01*
G03X4154878Y-1224368I31688J-31688D01*
G01X4154878Y-1529167D01*
G03X4168003Y-1560855I44814J0D01*
G01X4650602Y-2043454D01*
G03X4682291Y-2056580I31688J31688D01*
G01X5228920Y-2056580D01*
G03X5260608Y-2043454I0J44814D01*
G01X5405055Y-1899007D01*
G01X5522501Y-1899007D01*
G03X5558315Y-1863193I0J35814D01*
G01X5558315Y-1750980D01*
G01X5628411Y-1680884D01*
G03X5736795Y-1727953I66188J4087D01*
G03X5754078Y-1752577I75715J34764D01*
G03X5786523Y-1869401I42121J-51219D01*
G03X5851312Y-1766917I9675J65604D01*
G03X5877593Y-1641174I-38801J73728D01*
G03X5749149Y-1639091I-65082J-52015D01*
G03X5698686Y-1610609I-54551J-37706D01*
G01X5729083Y-1580211D01*
G03X5743293Y-1545907I-34305J34305D01*
G01X5743293Y-1006435D01*
G03X5813489Y-993522I24986J61427D01*
G01X5816568Y-993522D01*
G03X5850873Y-979313I0J48514D01*
G01X5978689Y-851497D01*
G01X6001182Y-851497D01*
G03X6013695Y-849240I0J35814D01*
G03X6073984Y-853652I34453J56662D01*
G03X6087093Y-877683I47414J10274D01*
G01X6173493Y-964083D01*
G03X6207798Y-978292I34305J34305D01*
G01X6297352Y-978292D01*
G03X6312243Y-1042928I63405J-19426D01*
G01X6312243Y-1256467D01*
G03X6326452Y-1290772I48514J0D01*
G01X6506685Y-1471004D01*
G01X6506685Y-1583209D01*
G03X6542499Y-1619023I35814J0D01*
G01X6702499Y-1619023D01*
G03X6738313Y-1583209I0J35814D01*
G01X6738313Y-1453209D01*
G03X6702499Y-1417395I-35814J0D01*
G01X6590294Y-1417395D01*
G01X6409271Y-1236372D01*
G01X6409271Y-1042928D01*
G03X6423841Y-1018161I-48514J45210D01*
G01X6506685Y-1101005D01*
G01X6506685Y-1213207D01*
G03X6542499Y-1249021I35814J0D01*
G01X6702499Y-1249021D01*
G03X6738313Y-1213207I0J35814D01*
G01X6738313Y-1126823D01*
G01X6776334Y-1164844D01*
G03X6924109Y-1313911I108666J-40056D01*
G03X6943420Y-1104900I-39109J109011D01*
G03X6999810Y-989683I-58420J100000D01*
G03X6915352Y-893134I-114810J-15217D01*
G01X6892689Y-870472D01*
G03X6993070Y-796552I-7689J115558D01*
G03X6968239Y-674389I-108070J41639D01*
G03X7284986Y-553530I116761J169488D01*
G01X2592981Y-732689D02*
G03X2725609Y-732689I66314J0D01*
G03X2592981Y-732689I-66314J0D01*
G01X2740290Y-1009898D02*
G03X2872918Y-1009898I66314J0D01*
G03X2740290Y-1009898I-66314J0D01*
G01X2766155Y-1986152D02*
G03X2887783Y-1986152I60814J0D01*
G03X2766155Y-1986152I-60814J0D01*
G01X3746297Y-834930D02*
G03X3717961Y-893893I37825J-54468D01*
G03X3754012Y-948482I66161J4495D01*
G03X3763112Y-1002305I64141J-16836D01*
G03X3807883Y-1112721I49380J-44262D01*
G03X3867533Y-1009581I4609J66154D01*
G03X3884056Y-972688I-49380J44262D01*
G01X3891218Y-979851D01*
G01X3891218Y-1012088D01*
G03X3904344Y-1043776I44814J0D01*
G01X3955144Y-1094576D01*
G03X3986832Y-1107702I31688J31688D01*
G01X3997832Y-1107702D01*
G03X4112972Y-1065562I48880J44814D01*
G03X4001602Y-1014281I-66260J2674D01*
G01X3980846Y-993525D01*
G01X3980846Y-961288D01*
G03X3967720Y-929600I-44814J0D01*
G01X3662921Y-624800D01*
G03X3631233Y-611675I-31688J-31688D01*
G01X3495573Y-611675D01*
G03X3380379Y-656489I-48880J-44814D01*
G03X3495573Y-701303I66314J0D01*
G01X3612670Y-701303D01*
G01X3746297Y-834930D01*
G01X4231197Y-1044618D02*
G03X4363825Y-1044618I66314J0D01*
G03X4231197Y-1044618I-66314J0D01*
G01X5569085Y-1854596D02*
G03X5701713Y-1854596I66314J0D01*
G03X5569085Y-1854596I-66314J0D01*
G01X5899104Y-1625997D02*
G03X6031732Y-1625997I66314J0D01*
G03X5899104Y-1625997I-66314J0D01*
G01X6169175Y-1693189D02*
G03X6335804Y-1693189I83315J0D01*
G03X6169175Y-1693189I-83315J0D01*
G01X6506685Y-1863193D02*
G03X6542499Y-1899007I35814J0D01*
G01X6702499Y-1899007D01*
G03X6738313Y-1863193I0J35814D01*
G01X6738313Y-1733193D01*
G03X6702499Y-1697379I-35814J0D01*
G01X6542499Y-1697379D01*
G03X6506685Y-1733193I0J-35814D01*
G01X6506685Y-1863193D01*
G01X7016687Y-1329919D02*
G03X7188314Y-1329919I85814J0D01*
G03X7016687Y-1329919I-85814J0D01*
G01X7016687Y-879907D02*
G03X7188314Y-879907I85814J0D01*
G03X7016687Y-879907I-85814J0D01*
G01X2165071Y-360600D02*
G03X2197062Y-380314I31991J16100D01*
G01X2253628Y-380314D01*
G03X2268626Y-377022I0J35814D01*
G03X2283625Y-380314I14999J32522D01*
G01X2340191Y-380314D01*
G03X2367097Y-368137I0J35814D01*
G01X2367217Y-368361D01*
G03X2362886Y-385312I31378J-17046D01*
G01X2362886Y-435312D01*
G03X2363118Y-439380I35814J0D01*
G01X2091598Y-439380D01*
G01X2072706Y-420488D01*
G03X2165071Y-360600I26060J60979D01*
G01X3020602Y-286113D02*
G01X3049113Y-314624D01*
G03X3086680Y-377289I66252J-2875D01*
G01X3054077Y-409892D01*
G03X3014025Y-349417I-66313J-417D01*
G03X2942554Y-361795I-26261J-60892D01*
G01X2486938Y-361795D01*
G03X2488514Y-351288I-34238J10507D01*
G01X2488514Y-301288D01*
G03X2485140Y-286113I-35814J0D01*
G01X3020602Y-286113D01*
G01X7284986Y-35814D02*
G01X7284986Y-456272D01*
G03X7083934Y-299090I-199986J-48629D01*
G03X6884521Y-458346I1066J-205811D01*
G01X6884521Y-406399D01*
G03X6870311Y-372095I-48514J0D01*
G01X6833721Y-335504D01*
G01X6833721Y-324895D01*
G01X6870311Y-288304D01*
G03X6884521Y-253999I-34305J34305D01*
G01X6884521Y-152400D01*
G03X6870311Y-118095I-48514J0D01*
G01X6844911Y-92695D01*
G03X6810607Y-78486I-34305J-34305D01*
G01X6354897Y-78486D01*
G03X6320593Y-92695I0J-48514D01*
G01X6318802Y-94485D01*
G01X6244102Y-94485D01*
G03X6208288Y-130299I0J-35814D01*
G01X6208288Y-204886D01*
G01X6059912Y-204886D01*
G01X6059912Y-130299D01*
G03X6024098Y-94485I-35814J0D01*
G01X5904098Y-94485D01*
G03X5868298Y-129286I0J-35814D01*
G01X4223632Y-129286D01*
G03X4189327Y-143495I0J-48514D01*
G01X4145095Y-187727D01*
G03X4083948Y-273166I2336J-66273D01*
G03X4074921Y-279003I31374J-58423D01*
G03X3989525Y-278798I-42819J-50636D01*
G03X3893685Y-295613I-40133J-52791D01*
G03X3917783Y-389885I55707J-35977D01*
G01X3268719Y-389885D01*
G01X3371696Y-286908D01*
G03X3385906Y-252603I-34305J34305D01*
G01X3385906Y-206024D01*
G01X3397222Y-194709D01*
G03X3411431Y-160404I-34305J34305D01*
G01X3411431Y-128112D01*
G03X3397222Y-93807I-48514J0D01*
G01X3375268Y-71853D01*
G03X3352849Y-59122I-34305J-34305D01*
G03X3338924Y-35814I-62685J-21636D01*
G01X7284986Y-35814D01*
G01X3533989Y-253439D02*
G03X3666617Y-253439I66314J0D01*
G03X3533989Y-253439I-66314J0D01*
G01X3874988Y-104940D02*
G03X4007616Y-104940I66314J0D01*
G03X3874988Y-104940I-66314J0D01*
G01X4244506Y-1316746D02*
G03X4306381Y-1296532I12996J65028D01*
G01X4465055Y-1296532D01*
G03X4526611Y-1387511I61556J-24666D01*
G03X4588167Y-1296532I0J66314D01*
G01X4674086Y-1296532D01*
G01X4674086Y-1332507D01*
G03X4676976Y-1346601I35814J0D01*
G01X4676976Y-1828399D01*
G03X4674086Y-1842493I32924J-14094D01*
G01X4674086Y-1940185D01*
G01X4244506Y-1510604D01*
G01X4244506Y-1316746D01*
G01X4918885Y-334513D02*
G01X5183802Y-334513D01*
G03X5245405Y-503712I61603J-73385D01*
G03X5307008Y-334513I0J95814D01*
G01X5983800Y-334513D01*
G03X6045403Y-503712I61603J-73385D01*
G03X6107006Y-334513I0J95814D01*
G01X6341992Y-334513D01*
G01X6425076Y-417597D01*
G01X6425076Y-465004D01*
G03X6431805Y-485902I35814J0D01*
G03X6425076Y-506800I29085J-20898D01*
G01X6425076Y-560000D01*
G03X6431103Y-579885I35814J0D01*
G01X4720990Y-579885D01*
G03X4686686Y-594094I0J-48514D01*
G01X4615275Y-665505D01*
G03X4602863Y-650535I-56704J-34384D01*
G01X4918885Y-334513D01*
G01X4774004Y-1465871D02*
G03X4789095Y-1467163I13167J64994D01*
G03X4862428Y-1518768I64785J14156D01*
G03X4920132Y-1450132I-8547J65761D01*
G01X5002679Y-1367585D01*
G03X5009900Y-1368321I7221J35078D01*
G01X5119900Y-1368321D01*
G03X5155714Y-1332507I0J35814D01*
G01X5155714Y-1193022D01*
G01X5326687Y-1193022D01*
G01X5326687Y-1213207D01*
G03X5362501Y-1249021I35814J0D01*
G01X5504355Y-1249021D01*
G01X5504355Y-1392974D01*
G01X5479935Y-1417395D01*
G01X5362501Y-1417395D01*
G03X5326687Y-1453209I0J-35814D01*
G01X5326687Y-1559810D01*
G03X5287993Y-1676644I4112J-66186D01*
G03X5396746Y-1619023I42806J50647D01*
G01X5425125Y-1619023D01*
G03X5435217Y-1697379I57875J-32374D01*
G01X5362501Y-1697379D01*
G03X5326687Y-1733193I0J-35814D01*
G01X5326687Y-1850622D01*
G01X5210357Y-1966952D01*
G01X5155714Y-1966952D01*
G01X5155714Y-1842493D01*
G03X5119900Y-1806679I-35814J0D01*
G01X5009900Y-1806679D01*
G03X4974086Y-1842493I0J-35814D01*
G01X4974086Y-1966952D01*
G01X4855714Y-1966952D01*
G01X4855714Y-1842493D01*
G03X4819900Y-1806679I-35814J0D01*
G01X4774004Y-1806679D01*
G01X4774004Y-1465871D01*
G01X5129106Y-1625997D02*
G03X5261734Y-1625997I66314J0D01*
G03X5129106Y-1625997I-66314J0D01*
G01X6438372Y-895474D02*
G03X6404067Y-881264I-34305J-34305D01*
G01X6299227Y-881264D01*
G03X6298233Y-855215I-65470J10546D01*
G03X6323914Y-820864I-10133J34351D01*
G01X6323914Y-764299D01*
G03X6320622Y-749300I-35814J0D01*
G03X6323914Y-734301I-32522J14999D01*
G01X6323914Y-677735D01*
G01X6323905Y-676913D01*
G01X6432565Y-676913D01*
G03X6460890Y-690810I28325J21917D01*
G01X6568091Y-690810D01*
G03X6594193Y-679518I0J35814D01*
G01X6594193Y-743199D01*
G03X6608402Y-777503I48514J0D01*
G01X6721192Y-890293D01*
G01X6721192Y-1052659D01*
G03X6702499Y-1047393I-18694J-30548D01*
G01X6590291Y-1047393D01*
G01X6438372Y-895474D01*
G01X6597175Y-485902D02*
G03X6603905Y-465004I-29085J20898D01*
G01X6603905Y-411804D01*
G03X6568091Y-375990I-35814J0D01*
G01X6520687Y-375990D01*
G01X6433910Y-289213D01*
G03X6444456Y-281388I-21142J39513D01*
G01X6495710Y-230134D01*
G01X6543813Y-230134D01*
G03X6541186Y-243599I33186J-13465D01*
G01X6541186Y-300164D01*
G03X6577000Y-335978I35814J0D01*
G01X6631000Y-335978D01*
G03X6666814Y-300164I0J35814D01*
G01X6666814Y-243599D01*
G03X6665457Y-233834I-35814J0D01*
G01X6707643Y-233834D01*
G03X6706286Y-243599I34457J-9765D01*
G01X6706286Y-300164D01*
G03X6736693Y-335568I35814J0D01*
G01X6736693Y-355599D01*
G03X6741186Y-375990I48514J0D01*
G01X6690709Y-375990D01*
G03X6654895Y-411804I0J-35814D01*
G01X6654895Y-433801D01*
G01X6608402Y-480294D01*
G03X6600272Y-491084I34305J-34305D01*
G03X6597175Y-485902I-32182J-15716D01*
G54D11*
G01X6604000Y-271882D02*
G01X6604000Y-325818D01*
G01X6604000Y-271882D02*
G01X6551346Y-271882D01*
G01X6604000Y-271882D02*
G01X6656654Y-271882D01*
G01X6514490Y-533400D02*
G01X6435236Y-533400D01*
G01X2826969Y-1986152D02*
G01X2776315Y-1986152D01*
G01X2826969Y-1986152D02*
G01X2877623Y-1986152D01*
G01X2826969Y-1986152D02*
G01X2826969Y-1935498D01*
G01X2826969Y-1986152D02*
G01X2826969Y-2036806D01*
G01X2027098Y-89200D02*
G01X2027098Y-63546D01*
G01X2311908Y-317500D02*
G01X2311908Y-370154D01*
G01X2425700Y-326288D02*
G01X2478354Y-326288D01*
G01X64300Y-666813D02*
G01X64300Y-763967D01*
G01X164300Y-1356793D02*
G01X164300Y-1382447D01*
G01X164300Y-776807D02*
G01X164300Y-751153D01*
G01X64300Y-1466812D02*
G01X64300Y-1369658D01*
G01X518109Y-673100D02*
G01X518109Y-604246D01*
G01X518109Y-673100D02*
G01X518109Y-741954D01*
G01X1022502Y-1676705D02*
G01X1022502Y-1742359D01*
G01X1022502Y-1676705D02*
G01X951848Y-1676705D01*
G01X1022198Y-1841500D02*
G01X1022198Y-1775846D01*
G01X572110Y-939800D02*
G01X651364Y-939800D01*
G01X717408Y-672374D02*
G01X651754Y-672374D01*
G01X717408Y-672374D02*
G01X717408Y-601720D01*
G01X717408Y-672374D02*
G01X717408Y-743027D01*
G01X745388Y-838200D02*
G01X694734Y-838200D01*
G01X745388Y-838200D02*
G01X745388Y-890854D01*
G01X745388Y-838200D02*
G01X745388Y-785546D01*
G01X756310Y-1175004D02*
G01X756310Y-1121849D01*
G01X756310Y-1175004D02*
G01X836964Y-1175004D01*
G01X756310Y-1175004D02*
G01X675657Y-1175004D01*
G01X571500Y-1287882D02*
G01X518846Y-1287882D01*
G01X1341018Y-292100D02*
G01X1287082Y-292100D01*
G01X1341018Y-292100D02*
G01X1341018Y-239446D01*
G01X5064900Y-1262507D02*
G01X5064900Y-1358161D01*
G01X5064900Y-1262507D02*
G01X5145554Y-1262507D01*
G01X5064900Y-1912493D02*
G01X5064900Y-1816839D01*
G01X5064900Y-1912493D02*
G01X5145554Y-1912493D01*
G01X5064900Y-1912493D02*
G01X4984246Y-1912493D01*
G01X6622499Y-1798193D02*
G01X6516845Y-1798193D01*
G01X6622499Y-1798193D02*
G01X6728153Y-1798193D01*
G01X6622499Y-1798193D02*
G01X6622499Y-1707539D01*
G01X6622499Y-1798193D02*
G01X6622499Y-1888847D01*
G01X129299Y-639305D02*
G01X129299Y-553651D01*
G01X129299Y-639305D02*
G01X274952Y-639305D01*
G01X129299Y-1494295D02*
G01X129299Y-1579949D01*
G01X129299Y-1494295D02*
G01X274952Y-1494295D01*
G01X6885000Y-1454912D02*
G01X6779346Y-1454912D01*
G01X6885000Y-1454912D02*
G01X6990654Y-1454912D01*
G01X6885000Y-1454912D02*
G01X6885000Y-1349258D01*
G01X6885000Y-1454912D02*
G01X6885000Y-1560566D01*
G01X7085000Y-504901D02*
G01X7085000Y-309248D01*
G01X7085000Y-504901D02*
G01X7085000Y-700555D01*
G01X7085000Y-1704899D02*
G01X6889346Y-1704899D01*
G01X7085000Y-1704899D02*
G01X7085000Y-1509245D01*
G01X7085000Y-1704899D02*
G01X7085000Y-1900552D01*
G04 Copper End*

G04 PolygonModel Start*
G36*
G01X4393699Y-440681D02*
G02X4399693Y-440681I2997J0D01*
G02X4393699Y-440681I-2997J0D01*
G37*

G04 Pad Start*
G54D12*
G01X2425700Y-410312D03*
G01X2425700Y-326288D03*
G54D13*
G01X504088Y-1435100D03*
G01X588112Y-1435100D03*
G54D14*
G01X1022502Y-1536700D03*
G01X1022502Y-1676705D03*
G01X1022198Y-1981505D03*
G01X1022198Y-1841500D03*
G54D13*
G01X745388Y-838200D03*
G01X829412Y-838200D03*
G54D15*
G01X857413Y-672374D03*
G01X717408Y-672374D03*
G54D16*
G01X337998Y-266700D03*
G01X678002Y-266700D03*
G01X6304102Y-177800D03*
G01X5964098Y-177800D03*
G54D18*
G01X6514490Y-438404D03*
G01X6514490Y-533400D03*
G01X6514490Y-628396D03*
G01X6744310Y-628396D03*
G01X6744310Y-533400D03*
G01X6744310Y-438404D03*
G01X572110Y-1034796D03*
G01X572110Y-939800D03*
G01X572110Y-844804D03*
G01X342290Y-844804D03*
G01X342290Y-939800D03*
G01X342290Y-1034796D03*
G54D19*
G01X6885000Y-754913D03*
G01X6885000Y-1004900D03*
G01X6885000Y-1204900D03*
G01X6885000Y-1454912D03*
G54D20*
G01X7085000Y-504901D03*
G01X7085000Y-1704899D03*
G54D21*
G01X164300Y-1341793D03*
G01X164300Y-1291806D03*
G01X164300Y-1241793D03*
G01X164300Y-1191806D03*
G01X164300Y-1141793D03*
G01X164300Y-1091806D03*
G01X164300Y-1041794D03*
G01X164300Y-991806D03*
G01X164300Y-941794D03*
G01X164300Y-891807D03*
G01X164300Y-841794D03*
G01X164300Y-791807D03*
G54D22*
G01X64300Y-666813D03*
G01X64300Y-1466812D03*
G54D23*
G01X129299Y-639305D03*
G01X129299Y-1494295D03*
G54D24*
G01X784200Y-1778000D03*
G01X384200Y-1778000D03*
G54D25*
G01X6769100Y-271882D03*
G01X6769100Y-185318D03*
G54D26*
G01X355600Y-1188618D03*
G01X442163Y-1188618D03*
G54D25*
G01X571500Y-1201318D03*
G01X571500Y-1287882D03*
G01X6604000Y-185318D03*
G01X6604000Y-271882D03*
G54D26*
G01X2225345Y-317500D03*
G01X2311908Y-317500D03*
G01X1427582Y-292100D03*
G01X1341018Y-292100D03*
G54D27*
G01X518109Y-673100D03*
G01X367436Y-673100D03*
G54D25*
G01X5974182Y-700837D03*
G01X5974182Y-787400D03*
G01X5834482Y-700837D03*
G01X5834482Y-787400D03*
G01X5694782Y-700837D03*
G01X5694782Y-787400D03*
G01X6261100Y-706018D03*
G01X6261100Y-792582D03*
G01X6121400Y-706018D03*
G01X6121400Y-792582D03*
G01X4782283Y-989856D03*
G01X4782283Y-1076419D03*
G54D28*
G01X5442501Y-1148207D03*
G01X5442501Y-1518209D03*
G01X5442501Y-1798193D03*
G01X6622499Y-1798193D03*
G01X6622499Y-1518209D03*
G01X6622499Y-1148207D03*
G54D29*
G01X5064900Y-1262507D03*
G01X5064900Y-1912493D03*
G01X4764900Y-1262507D03*
G01X4764900Y-1912493D03*
G54D30*
G01X1865725Y-1995983D03*
G01X2056225Y-1997583D03*
G01X2247132Y-1992099D03*
G01X2438400Y-1993900D03*
G01X2630622Y-1990670D03*
G01X2826969Y-1986152D03*
G54D31*
G01X2027098Y-303200D03*
G01X2027098Y-253187D03*
G01X2027098Y-203200D03*
G01X2027098Y-153187D03*
G01X2027098Y-103200D03*
G01X1605102Y-303200D03*
G01X1605102Y-253187D03*
G01X1605102Y-203200D03*
G01X1605102Y-153187D03*
G01X1605102Y-103200D03*
G54D32*
G01X756310Y-1364996D03*
G01X756310Y-1270000D03*
G01X756310Y-1175004D03*
G01X996290Y-1175004D03*
G01X996290Y-1270000D03*
G01X996290Y-1364996D03*
G04 Pad End*

G04 Via Start*
G54D33*
G01X3181350Y-107950D03*
G01X3187700Y-228600D03*
G01X4257501Y-1251718D03*
G01X4507771Y-579899D03*
G01X2297935Y-1951526D03*
G01X3812492Y-1046568D03*
G01X2376986Y-1993896D03*
G01X4231182Y-342899D03*
G01X3290163Y-80758D03*
G01X3278170Y-229008D03*
G01X3839702Y-1277118D03*
G01X3843472Y-569079D03*
G01X571499Y-1125118D03*
G01X3981302Y-1277118D03*
G01X5482999Y-1651397D03*
G01X5635399Y-1854596D03*
G01X4297511Y-1044618D03*
G01X6048148Y-792578D03*
G01X4464521Y-1175518D03*
G01X6233757Y-870719D03*
G01X6360757Y-997718D03*
G01X4507771Y-499889D03*
G01X3115364Y-317499D03*
G01X4300671Y-539889D03*
G01X1659076Y-353999D03*
G01X4853881Y-1453007D03*
G01X5768279Y-945008D03*
G01X4787171Y-1400877D03*
G01X5754398Y-867478D03*
G01X4377491Y-1173568D03*
G01X266089Y-1085598D03*
G01X88290Y-891808D03*
G01X240500Y-941788D03*
G01X367499Y-763988D03*
G01X433990Y-939798D03*
G01X78390Y-990598D03*
G01X4093702Y-536739D03*
G01X3941302Y-104940D03*
G01X4032102Y-329639D03*
G01X3600303Y-253439D03*
G01X714609Y-983998D03*
G01X917809Y-780798D03*
G01X1060608Y-240570D03*
G01X4147432Y-253999D03*
G01X1776296Y-399799D03*
G01X1776296Y-228600D03*
G01X5195420Y-1625997D03*
G01X4306421Y-874478D03*
G01X5330799Y-1625997D03*
G01X4302621Y-797338D03*
G01X5626809Y-1215698D03*
G01X4531221Y-1016088D03*
G01X4558571Y-699889D03*
G01X4609371Y-1004688D03*
G01X5965418Y-1625997D03*
G01X4517621Y-940198D03*
G01X5694599Y-1676797D03*
G01X5796198Y-1803796D03*
G01X4526611Y-1321197D03*
G01X3784122Y-889398D03*
G01X2659295Y-732689D03*
G01X3446693Y-656489D03*
G01X3949392Y-331589D03*
G01X4046712Y-1062888D03*
G01X3818153Y-965318D03*
G01X2741565Y-1330707D03*
G01X3585653Y-859878D03*
G01X2282705Y-1139278D03*
G01X3663803Y-1121478D03*
G01X2256685Y-1065298D03*
G01X3534853Y-950688D03*
G01X2241916Y-1204688D03*
G01X3585653Y-1030668D03*
G01X2623855Y-1259267D03*
G01X2266795Y-1295707D03*
G01X2806604Y-1009898D03*
G01X3912122Y-534789D03*
G01X4115322Y-331589D03*
G01X4685431Y-998518D03*
G01X2987764Y-410309D03*
G01X2098766Y-359509D03*
G01X5390009Y-1389797D03*
G01X4659251Y-1637957D03*
G01X3124104Y-1855086D03*
G01X4774230Y-850898D03*
G01X4786930Y-723899D03*
G01X3327303Y-1067688D03*
G01X3998312Y-991488D03*
G01X2279895Y-404699D03*
G01X2154096Y-77800D03*
G01X1354497Y-227820D03*
G01X728998Y-373809D03*
G01X6622497Y-1630387D03*
G04 Via End*

G04 Track Start*
G54D11*
G01X2027098Y-153187D02*
G01X3136113Y-153187D01*
G01X3181350Y-107950D01*
G01X2027098Y-203200D02*
G01X3162300Y-203200D01*
G01X3187700Y-228600D01*
G54D34*
G01X4257501Y-1251718D02*
G01X4657501Y-1251718D01*
G01X4740101Y-1251718D01*
G01X4750890Y-1262507D01*
G01X4764900Y-1262507D01*
G54D11*
G01X4740101Y-1251718D02*
G01X4740101Y-1118598D01*
G01X4782280Y-1076418D01*
G01X4750890Y-1262507D02*
G01X4725490Y-1287907D01*
G01X4725490Y-1873076D01*
G01X4764900Y-1912486D01*
G54D34*
G01X4507771Y-579899D02*
G01X4837971Y-249700D01*
G01X6412767Y-249700D01*
G01X6477147Y-185320D01*
G01X6603997Y-185320D01*
G54D11*
G01X6603997Y-185320D02*
G01X6769096Y-185320D01*
G01X2297935Y-1951526D02*
G01X2287706Y-1951526D01*
G01X2247136Y-1992096D01*
G01X2376986Y-1993896D02*
G01X2438395Y-1993896D01*
G01X2027096Y-153190D02*
G01X1864700Y-153190D01*
G01X1844795Y-173095D01*
G01X1844795Y-223895D01*
G01X1844795Y-249295D01*
G01X1844795Y-274694D01*
G01X1844795Y-300094D01*
G01X1844795Y-318603D01*
G01X1862755Y-336563D01*
G01X1880716Y-354524D01*
G01X1898676Y-372484D01*
G01X1916637Y-390445D01*
G01X1934597Y-408405D01*
G01X1952558Y-426366D01*
G01X1970518Y-444326D01*
G01X1988479Y-462287D01*
G01X2006439Y-480247D01*
G01X2024400Y-498208D01*
G01X2042360Y-516168D01*
G01X2054686Y-528494D01*
G01X2080086Y-528494D01*
G01X2105486Y-528494D01*
G01X2130886Y-528494D01*
G01X2156286Y-528494D01*
G01X2181686Y-528494D01*
G01X2207086Y-528494D01*
G01X2232485Y-528494D01*
G01X2257885Y-528494D01*
G01X2283285Y-528494D01*
G01X2308685Y-528494D01*
G01X2334085Y-528494D01*
G01X2359485Y-528494D01*
G01X2384885Y-528494D01*
G01X2410285Y-528494D01*
G01X2435685Y-528494D01*
G01X2461085Y-528494D01*
G01X2486485Y-528494D01*
G01X2511885Y-528494D01*
G01X2537285Y-528494D01*
G01X2562685Y-528494D01*
G01X2588085Y-528494D01*
G01X2613485Y-528494D01*
G01X2638885Y-528494D01*
G01X2664285Y-528494D01*
G01X2689685Y-528494D01*
G01X2715085Y-528494D01*
G01X2740484Y-528494D01*
G01X2765884Y-528494D01*
G01X2791284Y-528494D01*
G01X2816684Y-528494D01*
G01X2842084Y-528494D01*
G01X2867484Y-528494D01*
G01X2892884Y-528494D01*
G01X2918284Y-528494D01*
G01X2943684Y-528494D01*
G01X2969084Y-528494D01*
G01X2994484Y-528494D01*
G01X3019884Y-528494D01*
G01X3045284Y-528494D01*
G01X3061501Y-528494D01*
G01X3079461Y-510533D01*
G01X3097422Y-492573D01*
G01X3115382Y-474613D01*
G01X3133343Y-456652D01*
G01X3151303Y-438692D01*
G01X3169264Y-420731D01*
G01X3187224Y-402771D01*
G01X3205185Y-384810D01*
G01X3223145Y-366850D01*
G01X3241106Y-348889D01*
G01X3259066Y-330929D01*
G01X3277027Y-312968D01*
G01X3294987Y-295008D01*
G01X3312948Y-277047D01*
G01X3330908Y-259087D01*
G01X3337392Y-252603D01*
G01X3337392Y-227203D01*
G01X3337392Y-201803D01*
G01X3337392Y-185929D01*
G01X3362917Y-160404D01*
G01X3362917Y-128112D01*
G01X3340963Y-106158D01*
G01X3315563Y-106158D01*
G01X3290163Y-80758D01*
G01X2027096Y-203200D02*
G01X2022391Y-198495D01*
G01X1898095Y-198495D01*
G01X1885395Y-211195D01*
G01X1885395Y-223895D01*
G01X1885395Y-249295D01*
G01X1885395Y-274694D01*
G01X1885395Y-300094D01*
G01X1885395Y-301786D01*
G01X1903355Y-319746D01*
G01X1921316Y-337707D01*
G01X1939276Y-355667D01*
G01X1957237Y-373628D01*
G01X1975197Y-391588D01*
G01X1993158Y-409549D01*
G01X2011118Y-427509D01*
G01X2029079Y-445470D01*
G01X2047039Y-463430D01*
G01X2064999Y-481391D01*
G01X2071503Y-487894D01*
G01X2096903Y-487894D01*
G01X2122303Y-487894D01*
G01X2147703Y-487894D01*
G01X2173103Y-487894D01*
G01X2198503Y-487894D01*
G01X2223903Y-487894D01*
G01X2249303Y-487894D01*
G01X2274702Y-487894D01*
G01X2300102Y-487894D01*
G01X2325502Y-487894D01*
G01X2350902Y-487894D01*
G01X2376302Y-487894D01*
G01X2401702Y-487894D01*
G01X2427102Y-487894D01*
G01X2452502Y-487894D01*
G01X2477902Y-487894D01*
G01X2503302Y-487894D01*
G01X2528702Y-487894D01*
G01X2554102Y-487894D01*
G01X2579502Y-487894D01*
G01X2604902Y-487894D01*
G01X2630302Y-487894D01*
G01X2655702Y-487894D01*
G01X2681102Y-487894D01*
G01X2706502Y-487894D01*
G01X2731902Y-487894D01*
G01X2757301Y-487894D01*
G01X2782701Y-487894D01*
G01X2808101Y-487894D01*
G01X2833501Y-487894D01*
G01X2858901Y-487894D01*
G01X2884301Y-487894D01*
G01X2909701Y-487894D01*
G01X2935101Y-487894D01*
G01X2960501Y-487894D01*
G01X2985901Y-487894D01*
G01X3011301Y-487894D01*
G01X3036701Y-487894D01*
G01X3044684Y-487894D01*
G01X3062644Y-469934D01*
G01X3080605Y-451973D01*
G01X3098565Y-434013D01*
G01X3116526Y-416052D01*
G01X3134486Y-398092D01*
G01X3152447Y-380131D01*
G01X3170407Y-362171D01*
G01X3188368Y-344210D01*
G01X3206328Y-326250D01*
G01X3224289Y-308289D01*
G01X3242249Y-290329D01*
G01X3260210Y-272368D01*
G01X3278170Y-254408D01*
G01X3278170Y-229008D01*
G54D34*
G01X3839702Y-1277118D02*
G01X3048643Y-1277118D01*
G01X2429775Y-1895986D01*
G01X2157826Y-1895986D01*
G01X2056226Y-1997586D01*
G01X571499Y-1125118D02*
G01X571499Y-1201318D01*
G54D11*
G01X571499Y-1175918D02*
G01X454859Y-1175918D01*
G01X442159Y-1188618D01*
G54D34*
G01X3981302Y-1277118D02*
G01X3905102Y-1200918D01*
G01X2762104Y-1200918D01*
G01X1967036Y-1995986D01*
G01X1865726Y-1995986D01*
G54D11*
G01X756308Y-1364997D02*
G01X658209Y-1364997D01*
G01X588109Y-1435097D01*
G01X384199Y-1777996D02*
G01X384199Y-1554987D01*
G01X504089Y-1435097D01*
G01X504089Y-1409697D01*
G01X554889Y-1358897D01*
G01X605689Y-1358897D01*
G01X694589Y-1269997D01*
G01X756308Y-1269997D01*
G01X6744307Y-628399D02*
G01X6744307Y-790698D01*
G01X6884996Y-931388D01*
G01X6884996Y-1004898D01*
G54D34*
G01X6048148Y-792578D02*
G01X6121398Y-792578D01*
G54D11*
G01X6121398Y-792578D02*
G01X6121398Y-843378D01*
G01X6207798Y-929778D01*
G01X6404067Y-929778D01*
G01X6622497Y-1148208D01*
G54D34*
G01X6233757Y-870719D02*
G01X6233757Y-819919D01*
G01X6261097Y-792578D01*
G54D11*
G01X6360757Y-997718D02*
G01X6360757Y-1256467D01*
G01X6622497Y-1518207D01*
G54D34*
G01X3115364Y-317499D02*
G01X3039164Y-241300D01*
G01X2277166Y-241300D01*
G01X2226366Y-292099D01*
G01X2225346Y-317499D01*
G54D11*
G01X2226366Y-292099D02*
G01X2187456Y-253189D01*
G01X2027096Y-253189D01*
G54D34*
G01X1659076Y-353999D02*
G01X1655897Y-353999D01*
G01X1605097Y-303199D01*
G54D11*
G01X1605097Y-303199D02*
G01X1438677Y-303199D01*
G01X1427577Y-292099D01*
G01X6744307Y-438399D02*
G01X6718907Y-438399D01*
G01X6642707Y-514599D01*
G01X6642707Y-743199D01*
G01X6769706Y-870198D01*
G01X6769706Y-1089608D01*
G01X6884996Y-1204898D01*
G01X6744307Y-533399D02*
G01X6810607Y-533399D01*
G01X6884996Y-607788D01*
G01X6884996Y-754908D01*
G01X6810607Y-533399D02*
G01X6836007Y-507999D01*
G01X6836007Y-406399D01*
G01X6785207Y-355599D01*
G01X6785207Y-287990D01*
G01X6769096Y-271879D01*
G01X6785207Y-304799D02*
G01X6836007Y-253999D01*
G01X6836007Y-152400D01*
G01X6810607Y-127000D01*
G01X6354897Y-127000D01*
G01X6304097Y-177800D01*
G54D34*
G01X4853881Y-1453007D02*
G01X4980880Y-1326007D01*
G01X4980880Y-1173608D01*
G01X5006280Y-1148208D01*
G01X5442499Y-1148208D01*
G54D11*
G01X5768279Y-945008D02*
G01X5816568Y-945008D01*
G01X5974178Y-787398D01*
G54D34*
G01X4787171Y-1400877D02*
G01X4939570Y-1248478D01*
G01X4939570Y-1172278D01*
G01X5066570Y-1045278D01*
G01X5523769Y-1045278D01*
G01X5549169Y-1070678D01*
G01X5549169Y-1411537D01*
G01X5442499Y-1518207D01*
G54D11*
G01X5754398Y-867478D02*
G01X5834478Y-787398D01*
G54D34*
G01X4377491Y-1173568D02*
G01X4250491Y-1173568D01*
G01X4199692Y-1224368D01*
G01X4199692Y-1529167D01*
G01X4682291Y-2011766D01*
G01X5228920Y-2011766D01*
G01X5442499Y-1798186D01*
G54D11*
G01X5442499Y-1798186D02*
G01X5694779Y-1545907D01*
G01X5694779Y-787398D01*
G01X342289Y-844798D02*
G01X167310Y-844798D01*
G01X164300Y-841788D01*
G01X342289Y-1034798D02*
G01X316889Y-1034798D01*
G01X266089Y-1085598D01*
G01X88290Y-891808D02*
G01X164300Y-891808D01*
G01X164300Y-941788D02*
G01X240500Y-941788D01*
G01X367499Y-763988D02*
G01X367429Y-673099D01*
G01X342289Y-939798D02*
G01X433990Y-939798D01*
G01X78390Y-990598D02*
G01X163090Y-990598D01*
G01X164300Y-991808D01*
G01X78390Y-990598D02*
G01X78390Y-1156698D01*
G01X113500Y-1191808D01*
G01X164300Y-1191808D01*
G01X352409Y-1191808D01*
G01X355599Y-1188618D01*
G01X342289Y-939798D02*
G01X367689Y-939798D01*
G01X443889Y-863598D01*
G01X443889Y-372589D01*
G01X337999Y-266699D01*
G01X572109Y-1034798D02*
G01X663809Y-1034798D01*
G01X714609Y-983998D01*
G01X917809Y-780798D02*
G01X1095608Y-602999D01*
G01X1095608Y-348999D01*
G01X1291418Y-153190D01*
G01X1605097Y-153190D01*
G01X572109Y-844798D02*
G01X587609Y-829298D01*
G01X587609Y-209800D01*
G01X694209Y-103200D01*
G01X1605097Y-103200D01*
G01X996288Y-1174998D02*
G01X996288Y-1269997D01*
G01X996288Y-1174998D02*
G01X996288Y-1005078D01*
G01X829408Y-838198D01*
G01X829408Y-700369D01*
G01X857408Y-672369D01*
G01X857408Y-519969D01*
G01X806608Y-469169D01*
G01X806608Y-367569D01*
G01X705739Y-266699D01*
G01X677999Y-266699D01*
G01X806608Y-367569D02*
G01X933608Y-367569D01*
G01X1060608Y-240570D01*
G01X4147432Y-253999D02*
G01X4223632Y-177800D01*
G01X5964098Y-177800D01*
G01X6514487Y-438399D02*
G01X6362087Y-285999D01*
G01X4898790Y-285999D01*
G01X4543190Y-641599D01*
G01X4485178Y-641599D01*
G01X4281978Y-438399D01*
G01X3222393Y-438399D01*
G01X3095393Y-565399D01*
G01X2028595Y-565399D01*
G01X1716386Y-253189D01*
G01X1605097Y-253189D01*
G01X6514487Y-628399D02*
G01X4720990Y-628399D01*
G01X4568590Y-780798D01*
G01X4441591Y-780798D01*
G01X4136791Y-475999D01*
G01X3247793Y-475999D01*
G01X3120793Y-602999D01*
G01X1979496Y-602999D01*
G01X1776296Y-399799D01*
G01X1776296Y-228600D02*
G01X1750896Y-203200D01*
G01X1605097Y-203200D01*
G54D34*
G01X3446693Y-656489D02*
G01X3631233Y-656489D01*
G01X3936032Y-961288D01*
G01X3936032Y-1012088D01*
G01X3986832Y-1062888D01*
G01X4046712Y-1062888D01*
G01X3663803Y-1121478D02*
G01X3638403Y-1146878D01*
G01X2389065Y-1146878D01*
G01X2307485Y-1065298D01*
G01X2256685Y-1065298D01*
G54D11*
G01X784198Y-1777996D02*
G01X818688Y-1777996D01*
G01X1022198Y-1981506D01*
G01X1098398Y-1905306D01*
G01X1098398Y-1612607D01*
G01X1022498Y-1536707D01*
G01X1022498Y-1391207D01*
G01X996288Y-1364997D01*
G01X1072998Y-1930706D02*
G01X1072998Y-1956106D01*
G01X1123798Y-2006906D01*
G01X1403197Y-2006906D01*
G01X2114396Y-1295707D01*
G01X2266795Y-1295707D01*
G01X4685431Y-998518D02*
G01X4773620Y-998518D01*
G01X4782280Y-989858D01*
G01X2987764Y-410309D02*
G01X2425695Y-410309D01*
G01X2098766Y-359509D02*
G01X2083406Y-359509D01*
G01X2027096Y-303199D01*
G01X1631797Y-1778306D02*
G01X1631797Y-1838266D01*
G01X1860396Y-2066866D01*
G01X2554425Y-2066866D01*
G01X2630625Y-1990666D01*
G01X4782280Y-989858D02*
G01X5071300Y-700839D01*
G01X5694779Y-700839D01*
G01X5834478Y-700839D01*
G01X5974178Y-700839D01*
G01X6116218Y-700839D01*
G01X6121398Y-706019D01*
G01X6261097Y-706019D01*
G01X5390009Y-1389797D02*
G01X5192190Y-1389797D01*
G01X5064900Y-1262507D01*
G01X5064900Y-1912486D01*
G01X3124104Y-1855086D02*
G01X2958034Y-1855086D01*
G01X2826964Y-1986156D01*
G01X4774230Y-850898D02*
G01X4774230Y-736599D01*
G01X4786930Y-723899D01*
G01X2279895Y-404699D02*
G01X2311905Y-372689D01*
G01X2311905Y-317499D01*
G01X2416905Y-317499D01*
G01X2425695Y-326289D01*
G01X2154096Y-77800D02*
G01X2052496Y-77800D01*
G01X2027096Y-103200D01*
G01X1354497Y-227820D02*
G01X1354497Y-278619D01*
G01X1341017Y-292099D01*
G01X728998Y-373809D02*
G01X728998Y-660779D01*
G01X717409Y-672369D01*
G01X717409Y-810218D01*
G01X745389Y-838198D01*
G01X734009Y-838198D01*
G01X708609Y-863598D01*
G01X708609Y-888998D01*
G01X657809Y-939798D01*
G01X607009Y-939798D01*
G01X581609Y-914398D01*
G01X505409Y-914398D01*
G01X480009Y-888998D01*
G01X480009Y-711199D01*
G01X518109Y-673099D01*
G01X581609Y-914398D02*
G01X581609Y-930298D01*
G01X572109Y-939798D01*
G01X708609Y-888998D02*
G01X781708Y-962098D01*
G01X781708Y-1149598D01*
G01X756308Y-1174998D01*
G01X714009Y-1174998D01*
G01X612409Y-1276597D01*
G01X587009Y-1276597D01*
G01X571499Y-1287877D01*
G01X518109Y-673099D02*
G01X518109Y-292099D01*
G01X416509Y-190500D01*
G01X264109Y-190500D01*
G01X162510Y-292099D01*
G01X162510Y-790018D01*
G01X164300Y-791808D01*
G01X162510Y-647699D02*
G01X137700Y-647699D01*
G01X129300Y-639299D01*
G01X91810Y-639299D01*
G01X64300Y-666809D01*
G01X587009Y-1276597D02*
G01X282209Y-1276597D01*
G01X206010Y-1352797D01*
G01X164300Y-1352797D01*
G01X415099Y-1352797D01*
G01X491299Y-1276597D01*
G01X596099Y-1276597D01*
G01X773898Y-1098798D01*
G01X773898Y-946398D01*
G01X748499Y-920998D01*
G01X545299Y-920998D01*
G01X443699Y-1022598D01*
G01X443699Y-1073398D01*
G01X392899Y-1124198D01*
G01X316699Y-1124198D01*
G01X291299Y-1149598D01*
G01X240500Y-1149598D01*
G01X232690Y-1141788D01*
G01X164300Y-1141788D01*
G01X164300Y-1352797D02*
G01X164300Y-1341787D01*
G01X164300Y-1352797D02*
G01X164300Y-1459297D01*
G01X129300Y-1494297D01*
G01X91790Y-1494297D01*
G01X64300Y-1466807D01*
G01X756308Y-1174998D02*
G01X807108Y-1174998D01*
G01X908708Y-1276597D01*
G01X908708Y-1403597D01*
G01X934108Y-1428997D01*
G01X934108Y-1581397D01*
G01X1022498Y-1669787D01*
G01X1022498Y-1676707D01*
G01X1022498Y-1669787D02*
G01X1022498Y-1841206D01*
G01X6622497Y-1630387D02*
G01X6622497Y-1798186D01*
G01X6884996Y-1454907D02*
G01X6732597Y-1302507D01*
G01X6732597Y-1048508D01*
G01X6605597Y-921508D01*
G01X6605597Y-599109D01*
G01X6554797Y-548309D01*
G01X6529397Y-548309D01*
G01X6514487Y-533399D01*
G01X6554797Y-548309D02*
G01X6603997Y-499109D01*
G01X6603997Y-271879D01*
G04 Track End*

M02*

