G04 Layer: DrillDrawingLayer*
G04 EasyEDA Pro v3.2.149.88089769, 2026-09-16 20:40:31*
G04 Gerber Generator version 0.3*
G04 Scale: 100 percent, Rotated: No, Reflected: No*
G04 Dimensions in millimeters*
G04 Leading zeros omitted, absolute positions, 4 integers and 5 decimals*
G04 Generated by one-click*
G04 Object Configs: Pad,Via,Track,Text,Image,Dimension,BoardOutline,BoardCutout,CopperFilled,SolidRegion,FPCStiffener,Line,PlaneZone,ComponentProperty,ComponentSilkscreen,TearDrop*
G04 Layer Configs: 1,15,16,2,3,4,5,6,7,8,9,10,11,13,14,56*
G04 Copper Areas: 0*
%FSLAX45Y45*%
%MOMM*%
%AMIconRect*4,1,4,0.28,-0.28,-0.28,-0.28,-0.28,0.28,0.28,0.28,0.28,-0.28,0*4,0,4,0.233333,-0.233333,0.233333,0.233333,-0.233333,0.233333,-0.233333,-0.233333,0.233333,-0.233333,0*%
%AMIconTriangle*4,1,3,-0.339593,0.240473,0.339593,0.240473,0,-0.37884,-0.339593,0.240473,0*4,0,3,-0.265673,0.19404,0,-0.27342,0.266233,0.19404,-0.265673,0.19404,0*%
%AMIconStar6*4,1,12,0.12068,0.20888,0.298527,0.172713,0.241313,0,0.298527,-0.17206,0.12068,-0.208227,0,-0.344073,-0.120073,-0.208227,-0.298573,-0.17206,-0.240707,0,-0.298573,0.17206,-0.120073,0.20888,0,0.344073,0.12068,0.20888,0*4,0,12,-0.000467,0.273467,-0.090067,0.171733,-0.237533,0.136733,-0.193667,-0.007467,-0.237533,-0.1372,-0.090067,-0.171733,-0.000467,-0.273933,0.090067,-0.171733,0.237533,-0.1372,0.194133,0.007,0.237533,0.1372,0.090067,0.171267,-0.000467,0.273467,0*%
%AMIconStar4*4,1,8,-0.311733,0.311733,0,0.202533,0.311733,0.311733,0.202533,0,0.311733,-0.311733,0,-0.202533,-0.304407,-0.311733,-0.202533,0,-0.311733,0.311733,0*4,0,8,0.233333,-0.233333,0.1512,0,0.233333,0.233333,0,0.1512,-0.233333,0.233333,-0.1512,0,-0.233333,-0.233333,0,-0.1512,0.233333,-0.233333,0*%
%AMIconPlus*4,1,12,0.1736,-0.28,-0.1736,-0.28,-0.1736,-0.1736,-0.28,-0.1736,-0.28,0.1736,-0.1736,0.1736,-0.1736,0.28,0.1736,0.28,0.1736,0.1736,0.28,0.1736,0.28,-0.1736,0.1736,-0.1736,0.1736,-0.28,0*4,0,12,0.126933,-0.233333,0.126933,-0.126933,0.233333,-0.126933,0.233333,0.126933,0.126933,0.126933,0.126933,0.233333,-0.126933,0.233333,-0.126933,0.126933,-0.233333,0.126933,-0.233333,-0.126933,-0.126933,-0.126933,-0.126933,-0.233333,0.126933,-0.233333,0*%
%AMIconX*4,1,16,0.28,-0.28,0.076347,-0.28,0,-0.203653,-0.076347,-0.28,-0.28,-0.28,-0.28,-0.076347,-0.203653,0,-0.28,0.076347,-0.28,0.28,-0.076347,0.28,0,0.203653,0.076347,0.28,0.28,0.28,0.28,0.076347,0.203653,0,0.28,-0.076347,0.28,-0.28,0*4,0,16,0.23352,-0.23296,0.23352,-0.095853,0.137107,0.000093,0.23352,0.095853,0.23352,0.2331,0.095853,0.2331,0,0.137107,-0.095853,0.2331,-0.23352,0.2331,-0.23352,0.095853,-0.137107,0.000093,-0.23352,-0.095853,-0.23352,-0.23296,-0.095853,-0.23296,0,-0.137107,0.095853,-0.23296,0.23352,-0.23296,0*%
%ADD10IconRect*%
%ADD11C,0.616X0.522667*%
%ADD12IconTriangle*%
%ADD13IconStar6*%
%ADD14IconStar4*%
%ADD15IconPlus*%
%ADD16IconX*%
%ADD17C,0.2032*%
%ADD18C,0.254*%
G75*


G04 Drill Drawing Start*
G54D10*
G01X7084982Y-1704904D03*
G01X7084982Y-504906D03*
G54D11*
G01X129299Y-639305D03*
G01X129299Y-1494295D03*
G54D12*
G01X5245405Y-407899D03*
G01X6045403Y-407899D03*
G54D13*
G01X7102500Y-1329919D03*
G01X7102500Y-879907D03*
G54D14*
G01X5812511Y-1693189D03*
G01X6252489Y-1693189D03*
G54D15*
G01X6885005Y-1454904D03*
G01X6885005Y-1204905D03*
G01X6885005Y-1004905D03*
G01X6885005Y-754906D03*
G54D16*
G01X78390Y-990598D03*
G01X88290Y-891808D03*
G01X240500Y-941788D03*
G01X266089Y-1085598D03*
G01X367499Y-763988D03*
G01X433990Y-939798D03*
G01X571499Y-1125118D03*
G01X714609Y-983998D03*
G01X728998Y-373809D03*
G01X917809Y-780798D03*
G01X1060608Y-240570D03*
G01X1354497Y-227820D03*
G01X1659076Y-353999D03*
G01X1776296Y-399799D03*
G01X1776296Y-228600D03*
G01X2098766Y-359509D03*
G01X2154096Y-77800D03*
G01X2241916Y-1204688D03*
G01X2256685Y-1065298D03*
G01X2266795Y-1295707D03*
G01X2279895Y-404699D03*
G01X2282705Y-1139278D03*
G01X2297935Y-1951526D03*
G01X2376986Y-1993896D03*
G01X2623855Y-1259267D03*
G01X2659295Y-732689D03*
G01X2741565Y-1330707D03*
G01X2806604Y-1009898D03*
G01X2987764Y-410309D03*
G01X3115364Y-317499D03*
G01X3124104Y-1855086D03*
G01X3181350Y-107950D03*
G01X3187700Y-228600D03*
G01X3278170Y-229008D03*
G01X3290163Y-80758D03*
G01X3327303Y-1067688D03*
G01X3446693Y-656489D03*
G01X3534853Y-950688D03*
G01X3585653Y-1030668D03*
G01X3585653Y-859878D03*
G01X3600303Y-253439D03*
G01X3663803Y-1121478D03*
G01X3784122Y-889398D03*
G01X3812492Y-1046568D03*
G01X3818153Y-965318D03*
G01X3839702Y-1277118D03*
G01X3843472Y-569079D03*
G01X3912122Y-534789D03*
G01X3941302Y-104940D03*
G01X3949392Y-331589D03*
G01X3981302Y-1277118D03*
G01X3998312Y-991488D03*
G01X4032102Y-329639D03*
G01X4046712Y-1062888D03*
G01X4093702Y-536739D03*
G01X4115322Y-331589D03*
G01X4147432Y-253999D03*
G01X4231182Y-342899D03*
G01X4257501Y-1251718D03*
G01X4297511Y-1044618D03*
G01X4300671Y-539889D03*
G01X4302621Y-797338D03*
G01X4306421Y-874478D03*
G01X4377491Y-1173568D03*
G01X4464521Y-1175518D03*
G01X4507771Y-579899D03*
G01X4507771Y-499889D03*
G01X4517621Y-940198D03*
G01X4526611Y-1321197D03*
G01X4531221Y-1016088D03*
G01X4558571Y-699889D03*
G01X4609371Y-1004688D03*
G01X4659251Y-1637957D03*
G01X4685431Y-998518D03*
G01X4774230Y-850898D03*
G01X4786930Y-723899D03*
G01X4787171Y-1400877D03*
G01X4853881Y-1453007D03*
G01X5195420Y-1625997D03*
G01X5330799Y-1625997D03*
G01X5390009Y-1389797D03*
G01X5482999Y-1651397D03*
G01X5626809Y-1215698D03*
G01X5635399Y-1854596D03*
G01X5694599Y-1676797D03*
G01X5754398Y-867478D03*
G01X5768279Y-945008D03*
G01X5796198Y-1803796D03*
G01X5965418Y-1625997D03*
G01X6048148Y-792578D03*
G01X6233757Y-870719D03*
G01X6360757Y-997718D03*
G01X6622497Y-1630387D03*
G04 Drill Drawing End*

G04 Text Start*
G54D17*
G01X9621246Y-221706D02*
G01X9621246Y-341848D01*
G01X9621246Y-221706D02*
G01X9666966Y-341848D01*
G01X9712686Y-221706D02*
G01X9666966Y-341848D01*
G01X9712686Y-221706D02*
G01X9712686Y-341848D01*
G01X9829018Y-261838D02*
G01X9829018Y-341848D01*
G01X9829018Y-278856D02*
G01X9817588Y-267426D01*
G01X9806158Y-261838D01*
G01X9789140Y-261838D01*
G01X9777710Y-267426D01*
G01X9766280Y-278856D01*
G01X9760438Y-296128D01*
G01X9760438Y-307558D01*
G01X9766280Y-324576D01*
G01X9777710Y-336006D01*
G01X9789140Y-341848D01*
G01X9806158Y-341848D01*
G01X9817588Y-336006D01*
G01X9829018Y-324576D01*
G01X9876770Y-261838D02*
G01X9876770Y-341848D01*
G01X9876770Y-296128D02*
G01X9882612Y-278856D01*
G01X9894042Y-267426D01*
G01X9905472Y-261838D01*
G01X9922490Y-261838D01*
G01X9970242Y-221706D02*
G01X9970242Y-341848D01*
G01X10027392Y-261838D02*
G01X9970242Y-318988D01*
G01X9993102Y-296128D02*
G01X10033234Y-341848D01*
G01X11158526Y-250408D02*
G01X11152684Y-238978D01*
G01X11141254Y-227548D01*
G01X11129824Y-221706D01*
G01X11106964Y-221706D01*
G01X11095534Y-227548D01*
G01X11084104Y-238978D01*
G01X11078516Y-250408D01*
G01X11072674Y-267426D01*
G01X11072674Y-296128D01*
G01X11078516Y-313146D01*
G01X11084104Y-324576D01*
G01X11095534Y-336006D01*
G01X11106964Y-341848D01*
G01X11129824Y-341848D01*
G01X11141254Y-336006D01*
G01X11152684Y-324576D01*
G01X11158526Y-313146D01*
G01X11234980Y-261838D02*
G01X11223550Y-267426D01*
G01X11212120Y-278856D01*
G01X11206278Y-296128D01*
G01X11206278Y-307558D01*
G01X11212120Y-324576D01*
G01X11223550Y-336006D01*
G01X11234980Y-341848D01*
G01X11251998Y-341848D01*
G01X11263428Y-336006D01*
G01X11274858Y-324576D01*
G01X11280700Y-307558D01*
G01X11280700Y-296128D01*
G01X11274858Y-278856D01*
G01X11263428Y-267426D01*
G01X11251998Y-261838D01*
G01X11234980Y-261838D01*
G01X11328452Y-261838D02*
G01X11328452Y-318988D01*
G01X11334294Y-336006D01*
G01X11345724Y-341848D01*
G01X11362742Y-341848D01*
G01X11374172Y-336006D01*
G01X11391444Y-318988D01*
G01X11391444Y-261838D02*
G01X11391444Y-341848D01*
G01X11439196Y-261838D02*
G01X11439196Y-341848D01*
G01X11439196Y-284698D02*
G01X11456468Y-267426D01*
G01X11467898Y-261838D01*
G01X11484916Y-261838D01*
G01X11496346Y-267426D01*
G01X11502188Y-284698D01*
G01X11502188Y-341848D01*
G01X11567212Y-221706D02*
G01X11567212Y-318988D01*
G01X11572800Y-336006D01*
G01X11584230Y-341848D01*
G01X11595660Y-341848D01*
G01X11549940Y-261838D02*
G01X11590072Y-261838D01*
G01X12566847Y-238978D02*
G01X12555417Y-227548D01*
G01X12538399Y-221706D01*
G01X12515539Y-221706D01*
G01X12498267Y-227548D01*
G01X12486837Y-238978D01*
G01X12486837Y-250408D01*
G01X12492679Y-261838D01*
G01X12498267Y-267426D01*
G01X12509697Y-273268D01*
G01X12543987Y-284698D01*
G01X12555417Y-290286D01*
G01X12561259Y-296128D01*
G01X12566847Y-307558D01*
G01X12566847Y-324576D01*
G01X12555417Y-336006D01*
G01X12538399Y-341848D01*
G01X12515539Y-341848D01*
G01X12498267Y-336006D01*
G01X12486837Y-324576D01*
G01X12614599Y-221706D02*
G01X12620441Y-227548D01*
G01X12626029Y-221706D01*
G01X12620441Y-216118D01*
G01X12614599Y-221706D01*
G01X12620441Y-261838D02*
G01X12620441Y-341848D01*
G01X12736773Y-261838D02*
G01X12673781Y-341848D01*
G01X12673781Y-261838D02*
G01X12736773Y-261838D01*
G01X12673781Y-341848D02*
G01X12736773Y-341848D01*
G01X12784525Y-296128D02*
G01X12853105Y-296128D01*
G01X12853105Y-284698D01*
G01X12847517Y-273268D01*
G01X12841675Y-267426D01*
G01X12830245Y-261838D01*
G01X12813227Y-261838D01*
G01X12801797Y-267426D01*
G01X12790367Y-278856D01*
G01X12784525Y-296128D01*
G01X12784525Y-307558D01*
G01X12790367Y-324576D01*
G01X12801797Y-336006D01*
G01X12813227Y-341848D01*
G01X12830245Y-341848D01*
G01X12841675Y-336006D01*
G01X12853105Y-324576D01*
G01X16533710Y-221706D02*
G01X16533710Y-341848D01*
G01X16533710Y-221706D02*
G01X16585272Y-221706D01*
G01X16602290Y-227548D01*
G01X16608132Y-233136D01*
G01X16613720Y-244566D01*
G01X16613720Y-261838D01*
G01X16608132Y-273268D01*
G01X16602290Y-278856D01*
G01X16585272Y-284698D01*
G01X16533710Y-284698D01*
G01X16661472Y-221706D02*
G01X16661472Y-341848D01*
G01X16777804Y-261838D02*
G01X16777804Y-341848D01*
G01X16777804Y-278856D02*
G01X16766374Y-267426D01*
G01X16754944Y-261838D01*
G01X16737926Y-261838D01*
G01X16726496Y-267426D01*
G01X16715066Y-278856D01*
G01X16709224Y-296128D01*
G01X16709224Y-307558D01*
G01X16715066Y-324576D01*
G01X16726496Y-336006D01*
G01X16737926Y-341848D01*
G01X16754944Y-341848D01*
G01X16766374Y-336006D01*
G01X16777804Y-324576D01*
G01X16842828Y-221706D02*
G01X16842828Y-318988D01*
G01X16848416Y-336006D01*
G01X16859846Y-341848D01*
G01X16871276Y-341848D01*
G01X16825556Y-261838D02*
G01X16865688Y-261838D01*
G01X16919028Y-296128D02*
G01X16987608Y-296128D01*
G01X16987608Y-284698D01*
G01X16982020Y-273268D01*
G01X16976178Y-267426D01*
G01X16964748Y-261838D01*
G01X16947730Y-261838D01*
G01X16936300Y-267426D01*
G01X16924870Y-278856D01*
G01X16919028Y-296128D01*
G01X16919028Y-307558D01*
G01X16924870Y-324576D01*
G01X16936300Y-336006D01*
G01X16947730Y-341848D01*
G01X16964748Y-341848D01*
G01X16976178Y-336006D01*
G01X16987608Y-324576D01*
G01X17103940Y-221706D02*
G01X17103940Y-341848D01*
G01X17103940Y-278856D02*
G01X17092510Y-267426D01*
G01X17081080Y-261838D01*
G01X17064062Y-261838D01*
G01X17052632Y-267426D01*
G01X17041202Y-278856D01*
G01X17035360Y-296128D01*
G01X17035360Y-307558D01*
G01X17041202Y-324576D01*
G01X17052632Y-336006D01*
G01X17064062Y-341848D01*
G01X17081080Y-341848D01*
G01X17092510Y-336006D01*
G01X17103940Y-324576D01*
G01X18075128Y-238978D02*
G01X18063698Y-227548D01*
G01X18046680Y-221706D01*
G01X18023820Y-221706D01*
G01X18006548Y-227548D01*
G01X17995118Y-238978D01*
G01X17995118Y-250408D01*
G01X18000960Y-261838D01*
G01X18006548Y-267426D01*
G01X18017978Y-273268D01*
G01X18052268Y-284698D01*
G01X18063698Y-290286D01*
G01X18069540Y-296128D01*
G01X18075128Y-307558D01*
G01X18075128Y-324576D01*
G01X18063698Y-336006D01*
G01X18046680Y-341848D01*
G01X18023820Y-341848D01*
G01X18006548Y-336006D01*
G01X17995118Y-324576D01*
G01X18122880Y-221706D02*
G01X18122880Y-341848D01*
G01X18122880Y-284698D02*
G01X18140152Y-267426D01*
G01X18151582Y-261838D01*
G01X18168600Y-261838D01*
G01X18180030Y-267426D01*
G01X18185872Y-284698D01*
G01X18185872Y-341848D01*
G01X18302204Y-261838D02*
G01X18302204Y-341848D01*
G01X18302204Y-278856D02*
G01X18290774Y-267426D01*
G01X18279344Y-261838D01*
G01X18262326Y-261838D01*
G01X18250896Y-267426D01*
G01X18239466Y-278856D01*
G01X18233624Y-296128D01*
G01X18233624Y-307558D01*
G01X18239466Y-324576D01*
G01X18250896Y-336006D01*
G01X18262326Y-341848D01*
G01X18279344Y-341848D01*
G01X18290774Y-336006D01*
G01X18302204Y-324576D01*
G01X18349956Y-261838D02*
G01X18349956Y-381726D01*
G01X18349956Y-278856D02*
G01X18361386Y-267426D01*
G01X18372816Y-261838D01*
G01X18390088Y-261838D01*
G01X18401518Y-267426D01*
G01X18412948Y-278856D01*
G01X18418536Y-296128D01*
G01X18418536Y-307558D01*
G01X18412948Y-324576D01*
G01X18401518Y-336006D01*
G01X18390088Y-341848D01*
G01X18372816Y-341848D01*
G01X18361386Y-336006D01*
G01X18349956Y-324576D01*
G01X18466288Y-296128D02*
G01X18534868Y-296128D01*
G01X18534868Y-284698D01*
G01X18529280Y-273268D01*
G01X18523438Y-267426D01*
G01X18512008Y-261838D01*
G01X18494990Y-261838D01*
G01X18483560Y-267426D01*
G01X18472130Y-278856D01*
G01X18466288Y-296128D01*
G01X18466288Y-307558D01*
G01X18472130Y-324576D01*
G01X18483560Y-336006D01*
G01X18494990Y-341848D01*
G01X18512008Y-341848D01*
G01X18523438Y-336006D01*
G01X18534868Y-324576D01*
G01X19426299Y-221706D02*
G01X19472019Y-341848D01*
G01X19517739Y-221706D02*
G01X19472019Y-341848D01*
G01X19565491Y-221706D02*
G01X19571333Y-227548D01*
G01X19576921Y-221706D01*
G01X19571333Y-216118D01*
G01X19565491Y-221706D01*
G01X19571333Y-261838D02*
G01X19571333Y-341848D01*
G01X19693253Y-261838D02*
G01X19693253Y-341848D01*
G01X19693253Y-278856D02*
G01X19681823Y-267426D01*
G01X19670393Y-261838D01*
G01X19653375Y-261838D01*
G01X19641945Y-267426D01*
G01X19630515Y-278856D01*
G01X19624673Y-296128D01*
G01X19624673Y-307558D01*
G01X19630515Y-324576D01*
G01X19641945Y-336006D01*
G01X19653375Y-341848D01*
G01X19670393Y-341848D01*
G01X19681823Y-336006D01*
G01X19693253Y-324576D01*
G01X19843875Y-198846D02*
G01X19741005Y-381726D01*
G01X19891627Y-221706D02*
G01X19891627Y-341848D01*
G01X19891627Y-221706D02*
G01X19943189Y-221706D01*
G01X19960207Y-227548D01*
G01X19966049Y-233136D01*
G01X19971637Y-244566D01*
G01X19971637Y-261838D01*
G01X19966049Y-273268D01*
G01X19960207Y-278856D01*
G01X19943189Y-284698D01*
G01X19891627Y-284698D01*
G01X20087969Y-261838D02*
G01X20087969Y-341848D01*
G01X20087969Y-278856D02*
G01X20076539Y-267426D01*
G01X20065109Y-261838D01*
G01X20048091Y-261838D01*
G01X20036661Y-267426D01*
G01X20025231Y-278856D01*
G01X20019389Y-296128D01*
G01X20019389Y-307558D01*
G01X20025231Y-324576D01*
G01X20036661Y-336006D01*
G01X20048091Y-341848D01*
G01X20065109Y-341848D01*
G01X20076539Y-336006D01*
G01X20087969Y-324576D01*
G01X20204301Y-221706D02*
G01X20204301Y-341848D01*
G01X20204301Y-278856D02*
G01X20192871Y-267426D01*
G01X20181441Y-261838D01*
G01X20164423Y-261838D01*
G01X20152993Y-267426D01*
G01X20141563Y-278856D01*
G01X20135721Y-296128D01*
G01X20135721Y-307558D01*
G01X20141563Y-324576D01*
G01X20152993Y-336006D01*
G01X20164423Y-341848D01*
G01X20181441Y-341848D01*
G01X20192871Y-336006D01*
G01X20204301Y-324576D01*
G01X21095478Y-221706D02*
G01X21095478Y-341848D01*
G01X21095478Y-221706D02*
G01X21147040Y-221706D01*
G01X21164058Y-227548D01*
G01X21169900Y-233136D01*
G01X21175488Y-244566D01*
G01X21175488Y-261838D01*
G01X21169900Y-273268D01*
G01X21164058Y-278856D01*
G01X21147040Y-284698D01*
G01X21095478Y-284698D01*
G01X21291820Y-261838D02*
G01X21291820Y-341848D01*
G01X21291820Y-278856D02*
G01X21280390Y-267426D01*
G01X21268960Y-261838D01*
G01X21251942Y-261838D01*
G01X21240512Y-267426D01*
G01X21229082Y-278856D01*
G01X21223240Y-296128D01*
G01X21223240Y-307558D01*
G01X21229082Y-324576D01*
G01X21240512Y-336006D01*
G01X21251942Y-341848D01*
G01X21268960Y-341848D01*
G01X21280390Y-336006D01*
G01X21291820Y-324576D01*
G01X21408152Y-221706D02*
G01X21408152Y-341848D01*
G01X21408152Y-278856D02*
G01X21396722Y-267426D01*
G01X21385292Y-261838D01*
G01X21368274Y-261838D01*
G01X21356844Y-267426D01*
G01X21345414Y-278856D01*
G01X21339572Y-296128D01*
G01X21339572Y-307558D01*
G01X21345414Y-324576D01*
G01X21356844Y-336006D01*
G01X21368274Y-341848D01*
G01X21385292Y-341848D01*
G01X21396722Y-336006D01*
G01X21408152Y-324576D01*
G01X21663930Y-238978D02*
G01X21652500Y-227548D01*
G01X21635482Y-221706D01*
G01X21612622Y-221706D01*
G01X21595350Y-227548D01*
G01X21583920Y-238978D01*
G01X21583920Y-250408D01*
G01X21589762Y-261838D01*
G01X21595350Y-267426D01*
G01X21606780Y-273268D01*
G01X21641070Y-284698D01*
G01X21652500Y-290286D01*
G01X21658342Y-296128D01*
G01X21663930Y-307558D01*
G01X21663930Y-324576D01*
G01X21652500Y-336006D01*
G01X21635482Y-341848D01*
G01X21612622Y-341848D01*
G01X21595350Y-336006D01*
G01X21583920Y-324576D01*
G01X21711682Y-221706D02*
G01X21711682Y-341848D01*
G01X21711682Y-284698D02*
G01X21728954Y-267426D01*
G01X21740384Y-261838D01*
G01X21757402Y-261838D01*
G01X21768832Y-267426D01*
G01X21774674Y-284698D01*
G01X21774674Y-341848D01*
G01X21891006Y-261838D02*
G01X21891006Y-341848D01*
G01X21891006Y-278856D02*
G01X21879576Y-267426D01*
G01X21868146Y-261838D01*
G01X21851128Y-261838D01*
G01X21839698Y-267426D01*
G01X21828268Y-278856D01*
G01X21822426Y-296128D01*
G01X21822426Y-307558D01*
G01X21828268Y-324576D01*
G01X21839698Y-336006D01*
G01X21851128Y-341848D01*
G01X21868146Y-341848D01*
G01X21879576Y-336006D01*
G01X21891006Y-324576D01*
G01X21938758Y-261838D02*
G01X21938758Y-381726D01*
G01X21938758Y-278856D02*
G01X21950188Y-267426D01*
G01X21961618Y-261838D01*
G01X21978890Y-261838D01*
G01X21990320Y-267426D01*
G01X22001750Y-278856D01*
G01X22007338Y-296128D01*
G01X22007338Y-307558D01*
G01X22001750Y-324576D01*
G01X21990320Y-336006D01*
G01X21978890Y-341848D01*
G01X21961618Y-341848D01*
G01X21950188Y-336006D01*
G01X21938758Y-324576D01*
G01X22055090Y-296128D02*
G01X22123670Y-296128D01*
G01X22123670Y-284698D01*
G01X22118082Y-273268D01*
G01X22112240Y-267426D01*
G01X22100810Y-261838D01*
G01X22083792Y-261838D01*
G01X22072362Y-267426D01*
G01X22060932Y-278856D01*
G01X22055090Y-296128D01*
G01X22055090Y-307558D01*
G01X22060932Y-324576D01*
G01X22072362Y-336006D01*
G01X22083792Y-341848D01*
G01X22100810Y-341848D01*
G01X22112240Y-336006D01*
G01X22123670Y-324576D01*
G01X23014847Y-221706D02*
G01X23014847Y-341848D01*
G01X23014847Y-341848D02*
G01X23083427Y-341848D01*
G01X23199759Y-261838D02*
G01X23199759Y-341848D01*
G01X23199759Y-278856D02*
G01X23188329Y-267426D01*
G01X23176899Y-261838D01*
G01X23159881Y-261838D01*
G01X23148451Y-267426D01*
G01X23137021Y-278856D01*
G01X23131179Y-296128D01*
G01X23131179Y-307558D01*
G01X23137021Y-324576D01*
G01X23148451Y-336006D01*
G01X23159881Y-341848D01*
G01X23176899Y-341848D01*
G01X23188329Y-336006D01*
G01X23199759Y-324576D01*
G01X23253353Y-261838D02*
G01X23287643Y-341848D01*
G01X23321933Y-261838D02*
G01X23287643Y-341848D01*
G01X23276213Y-364708D01*
G01X23264783Y-376138D01*
G01X23253353Y-381726D01*
G01X23247511Y-381726D01*
G01X23369685Y-296128D02*
G01X23438265Y-296128D01*
G01X23438265Y-284698D01*
G01X23432677Y-273268D01*
G01X23426835Y-267426D01*
G01X23415405Y-261838D01*
G01X23398387Y-261838D01*
G01X23386957Y-267426D01*
G01X23375527Y-278856D01*
G01X23369685Y-296128D01*
G01X23369685Y-307558D01*
G01X23375527Y-324576D01*
G01X23386957Y-336006D01*
G01X23398387Y-341848D01*
G01X23415405Y-341848D01*
G01X23426835Y-336006D01*
G01X23438265Y-324576D01*
G01X23486017Y-261838D02*
G01X23486017Y-341848D01*
G01X23486017Y-296128D02*
G01X23491859Y-278856D01*
G01X23503289Y-267426D01*
G01X23514719Y-261838D01*
G01X23531737Y-261838D01*
G01X23707505Y-221706D02*
G01X23707505Y-341848D01*
G01X23707505Y-221706D02*
G01X23759067Y-221706D01*
G01X23776085Y-227548D01*
G01X23781927Y-233136D01*
G01X23787515Y-244566D01*
G01X23787515Y-261838D01*
G01X23781927Y-273268D01*
G01X23776085Y-278856D01*
G01X23759067Y-284698D01*
G01X23707505Y-284698D01*
G01X23903847Y-261838D02*
G01X23903847Y-341848D01*
G01X23903847Y-278856D02*
G01X23892417Y-267426D01*
G01X23880987Y-261838D01*
G01X23863969Y-261838D01*
G01X23852539Y-267426D01*
G01X23841109Y-278856D01*
G01X23835267Y-296128D01*
G01X23835267Y-307558D01*
G01X23841109Y-324576D01*
G01X23852539Y-336006D01*
G01X23863969Y-341848D01*
G01X23880987Y-341848D01*
G01X23892417Y-336006D01*
G01X23903847Y-324576D01*
G01X23951599Y-221706D02*
G01X23957441Y-227548D01*
G01X23963029Y-221706D01*
G01X23957441Y-216118D01*
G01X23951599Y-221706D01*
G01X23957441Y-261838D02*
G01X23957441Y-341848D01*
G01X24010781Y-261838D02*
G01X24010781Y-341848D01*
G01X24010781Y-296128D02*
G01X24016623Y-278856D01*
G01X24028053Y-267426D01*
G01X24039483Y-261838D01*
G01X24056501Y-261838D01*
G01X11078516Y-830979D02*
G01X11078516Y-825137D01*
G01X11084104Y-813707D01*
G01X11089946Y-808119D01*
G01X11101376Y-802277D01*
G01X11124236Y-802277D01*
G01X11135666Y-808119D01*
G01X11141254Y-813707D01*
G01X11147096Y-825137D01*
G01X11147096Y-836567D01*
G01X11141254Y-847997D01*
G01X11129824Y-865269D01*
G01X11072674Y-922419D01*
G01X11152684Y-922419D01*
G01X12486837Y-825137D02*
G01X12498267Y-819549D01*
G01X12515539Y-802277D01*
G01X12515539Y-922419D01*
G01X12597581Y-802277D02*
G01X12580563Y-808119D01*
G01X12569133Y-825137D01*
G01X12563291Y-853839D01*
G01X12563291Y-870857D01*
G01X12569133Y-899559D01*
G01X12580563Y-916577D01*
G01X12597581Y-922419D01*
G01X12609011Y-922419D01*
G01X12626283Y-916577D01*
G01X12637713Y-899559D01*
G01X12643301Y-870857D01*
G01X12643301Y-853839D01*
G01X12637713Y-825137D01*
G01X12626283Y-808119D01*
G01X12609011Y-802277D01*
G01X12597581Y-802277D01*
G01X12696895Y-830979D02*
G01X12696895Y-825137D01*
G01X12702483Y-813707D01*
G01X12708325Y-808119D01*
G01X12719755Y-802277D01*
G01X12742615Y-802277D01*
G01X12754045Y-808119D01*
G01X12759633Y-813707D01*
G01X12765475Y-825137D01*
G01X12765475Y-836567D01*
G01X12759633Y-847997D01*
G01X12748203Y-865269D01*
G01X12691053Y-922419D01*
G01X12771063Y-922419D01*
G01X12824657Y-893717D02*
G01X12818815Y-899559D01*
G01X12824657Y-905147D01*
G01X12830245Y-899559D01*
G01X12824657Y-893717D01*
G01X12935147Y-802277D02*
G01X12877997Y-882287D01*
G01X12963849Y-882287D01*
G01X12935147Y-802277D02*
G01X12935147Y-922419D01*
G01X13011601Y-842409D02*
G01X13074593Y-922419D01*
G01X13074593Y-842409D02*
G01X13011601Y-922419D01*
G01X13122345Y-825137D02*
G01X13133775Y-819549D01*
G01X13151047Y-802277D01*
G01X13151047Y-922419D01*
G01X13233089Y-802277D02*
G01X13216071Y-808119D01*
G01X13204641Y-825137D01*
G01X13198799Y-853839D01*
G01X13198799Y-870857D01*
G01X13204641Y-899559D01*
G01X13216071Y-916577D01*
G01X13233089Y-922419D01*
G01X13244519Y-922419D01*
G01X13261791Y-916577D01*
G01X13273221Y-899559D01*
G01X13278809Y-870857D01*
G01X13278809Y-853839D01*
G01X13273221Y-825137D01*
G01X13261791Y-808119D01*
G01X13244519Y-802277D01*
G01X13233089Y-802277D01*
G01X13332403Y-830979D02*
G01X13332403Y-825137D01*
G01X13337991Y-813707D01*
G01X13343833Y-808119D01*
G01X13355263Y-802277D01*
G01X13378123Y-802277D01*
G01X13389553Y-808119D01*
G01X13395141Y-813707D01*
G01X13400983Y-825137D01*
G01X13400983Y-836567D01*
G01X13395141Y-847997D01*
G01X13383711Y-865269D01*
G01X13326561Y-922419D01*
G01X13406571Y-922419D01*
G01X13460165Y-893717D02*
G01X13454323Y-899559D01*
G01X13460165Y-905147D01*
G01X13465753Y-899559D01*
G01X13460165Y-893717D01*
G01X13570655Y-802277D02*
G01X13513505Y-882287D01*
G01X13599357Y-882287D01*
G01X13570655Y-802277D02*
G01X13570655Y-922419D01*
G01X13647109Y-842409D02*
G01X13647109Y-922419D01*
G01X13647109Y-865269D02*
G01X13664381Y-847997D01*
G01X13675811Y-842409D01*
G01X13692829Y-842409D01*
G01X13704259Y-847997D01*
G01X13710101Y-865269D01*
G01X13710101Y-922419D01*
G01X13710101Y-865269D02*
G01X13727119Y-847997D01*
G01X13738549Y-842409D01*
G01X13755821Y-842409D01*
G01X13767251Y-847997D01*
G01X13772839Y-865269D01*
G01X13772839Y-922419D01*
G01X13820591Y-802277D02*
G01X13826433Y-808119D01*
G01X13832021Y-802277D01*
G01X13826433Y-796689D01*
G01X13820591Y-802277D01*
G01X13826433Y-842409D02*
G01X13826433Y-922419D01*
G01X13879773Y-802277D02*
G01X13879773Y-922419D01*
G01X13967657Y-779417D02*
G01X13956227Y-790847D01*
G01X13944797Y-808119D01*
G01X13933367Y-830979D01*
G01X13927525Y-859427D01*
G01X13927525Y-882287D01*
G01X13933367Y-910989D01*
G01X13944797Y-933849D01*
G01X13956227Y-950867D01*
G01X13967657Y-962297D01*
G01X14021251Y-830979D02*
G01X14021251Y-825137D01*
G01X14026839Y-813707D01*
G01X14032681Y-808119D01*
G01X14044111Y-802277D01*
G01X14066971Y-802277D01*
G01X14078401Y-808119D01*
G01X14083989Y-813707D01*
G01X14089831Y-825137D01*
G01X14089831Y-836567D01*
G01X14083989Y-847997D01*
G01X14072559Y-865269D01*
G01X14015409Y-922419D01*
G01X14095419Y-922419D01*
G01X14149013Y-893717D02*
G01X14143171Y-899559D01*
G01X14149013Y-905147D01*
G01X14154601Y-899559D01*
G01X14149013Y-893717D01*
G01X14270933Y-819549D02*
G01X14265345Y-808119D01*
G01X14248073Y-802277D01*
G01X14236643Y-802277D01*
G01X14219625Y-808119D01*
G01X14208195Y-825137D01*
G01X14202353Y-853839D01*
G01X14202353Y-882287D01*
G01X14208195Y-905147D01*
G01X14219625Y-916577D01*
G01X14236643Y-922419D01*
G01X14242485Y-922419D01*
G01X14259503Y-916577D01*
G01X14270933Y-905147D01*
G01X14276775Y-888129D01*
G01X14276775Y-882287D01*
G01X14270933Y-865269D01*
G01X14259503Y-853839D01*
G01X14242485Y-847997D01*
G01X14236643Y-847997D01*
G01X14219625Y-853839D01*
G01X14208195Y-865269D01*
G01X14202353Y-882287D01*
G01X14358817Y-802277D02*
G01X14341799Y-808119D01*
G01X14330369Y-825137D01*
G01X14324527Y-853839D01*
G01X14324527Y-870857D01*
G01X14330369Y-899559D01*
G01X14341799Y-916577D01*
G01X14358817Y-922419D01*
G01X14370247Y-922419D01*
G01X14387519Y-916577D01*
G01X14398949Y-899559D01*
G01X14404537Y-870857D01*
G01X14404537Y-853839D01*
G01X14398949Y-825137D01*
G01X14387519Y-808119D01*
G01X14370247Y-802277D01*
G01X14358817Y-802277D01*
G01X14486579Y-802277D02*
G01X14469561Y-808119D01*
G01X14458131Y-825137D01*
G01X14452289Y-853839D01*
G01X14452289Y-870857D01*
G01X14458131Y-899559D01*
G01X14469561Y-916577D01*
G01X14486579Y-922419D01*
G01X14498009Y-922419D01*
G01X14515281Y-916577D01*
G01X14526711Y-899559D01*
G01X14532299Y-870857D01*
G01X14532299Y-853839D01*
G01X14526711Y-825137D01*
G01X14515281Y-808119D01*
G01X14498009Y-802277D01*
G01X14486579Y-802277D01*
G01X14580051Y-842409D02*
G01X14643043Y-922419D01*
G01X14643043Y-842409D02*
G01X14580051Y-922419D01*
G01X14696637Y-830979D02*
G01X14696637Y-825137D01*
G01X14702225Y-813707D01*
G01X14708067Y-808119D01*
G01X14719497Y-802277D01*
G01X14742357Y-802277D01*
G01X14753787Y-808119D01*
G01X14759375Y-813707D01*
G01X14765217Y-825137D01*
G01X14765217Y-836567D01*
G01X14759375Y-847997D01*
G01X14747945Y-865269D01*
G01X14690795Y-922419D01*
G01X14770805Y-922419D01*
G01X14824399Y-893717D02*
G01X14818557Y-899559D01*
G01X14824399Y-905147D01*
G01X14829987Y-899559D01*
G01X14824399Y-893717D01*
G01X14946319Y-819549D02*
G01X14940731Y-808119D01*
G01X14923459Y-802277D01*
G01X14912029Y-802277D01*
G01X14895011Y-808119D01*
G01X14883581Y-825137D01*
G01X14877739Y-853839D01*
G01X14877739Y-882287D01*
G01X14883581Y-905147D01*
G01X14895011Y-916577D01*
G01X14912029Y-922419D01*
G01X14917871Y-922419D01*
G01X14934889Y-916577D01*
G01X14946319Y-905147D01*
G01X14952161Y-888129D01*
G01X14952161Y-882287D01*
G01X14946319Y-865269D01*
G01X14934889Y-853839D01*
G01X14917871Y-847997D01*
G01X14912029Y-847997D01*
G01X14895011Y-853839D01*
G01X14883581Y-865269D01*
G01X14877739Y-882287D01*
G01X15034203Y-802277D02*
G01X15017185Y-808119D01*
G01X15005755Y-825137D01*
G01X14999913Y-853839D01*
G01X14999913Y-870857D01*
G01X15005755Y-899559D01*
G01X15017185Y-916577D01*
G01X15034203Y-922419D01*
G01X15045633Y-922419D01*
G01X15062905Y-916577D01*
G01X15074335Y-899559D01*
G01X15079923Y-870857D01*
G01X15079923Y-853839D01*
G01X15074335Y-825137D01*
G01X15062905Y-808119D01*
G01X15045633Y-802277D01*
G01X15034203Y-802277D01*
G01X15161965Y-802277D02*
G01X15144947Y-808119D01*
G01X15133517Y-825137D01*
G01X15127675Y-853839D01*
G01X15127675Y-870857D01*
G01X15133517Y-899559D01*
G01X15144947Y-916577D01*
G01X15161965Y-922419D01*
G01X15173395Y-922419D01*
G01X15190667Y-916577D01*
G01X15202097Y-899559D01*
G01X15207685Y-870857D01*
G01X15207685Y-853839D01*
G01X15202097Y-825137D01*
G01X15190667Y-808119D01*
G01X15173395Y-802277D01*
G01X15161965Y-802277D01*
G01X15255437Y-842409D02*
G01X15255437Y-922419D01*
G01X15255437Y-865269D02*
G01X15272709Y-847997D01*
G01X15284139Y-842409D01*
G01X15301157Y-842409D01*
G01X15312587Y-847997D01*
G01X15318429Y-865269D01*
G01X15318429Y-922419D01*
G01X15318429Y-865269D02*
G01X15335447Y-847997D01*
G01X15346877Y-842409D01*
G01X15364149Y-842409D01*
G01X15375579Y-847997D01*
G01X15381167Y-865269D01*
G01X15381167Y-922419D01*
G01X15428919Y-842409D02*
G01X15428919Y-922419D01*
G01X15428919Y-865269D02*
G01X15446191Y-847997D01*
G01X15457621Y-842409D01*
G01X15474639Y-842409D01*
G01X15486069Y-847997D01*
G01X15491911Y-865269D01*
G01X15491911Y-922419D01*
G01X15491911Y-865269D02*
G01X15508929Y-847997D01*
G01X15520359Y-842409D01*
G01X15537631Y-842409D01*
G01X15549061Y-847997D01*
G01X15554649Y-865269D01*
G01X15554649Y-922419D01*
G01X15602401Y-779417D02*
G01X15613831Y-790847D01*
G01X15625261Y-808119D01*
G01X15636691Y-830979D01*
G01X15642533Y-859427D01*
G01X15642533Y-882287D01*
G01X15636691Y-910989D01*
G01X15625261Y-933849D01*
G01X15613831Y-950867D01*
G01X15602401Y-962297D01*
G01X16533710Y-802277D02*
G01X16533710Y-922419D01*
G01X16533710Y-802277D02*
G01X16585272Y-802277D01*
G01X16602290Y-808119D01*
G01X16608132Y-813707D01*
G01X16613720Y-825137D01*
G01X16613720Y-842409D01*
G01X16608132Y-853839D01*
G01X16602290Y-859427D01*
G01X16585272Y-865269D01*
G01X16533710Y-865269D01*
G01X16701604Y-802277D02*
G01X16701604Y-922419D01*
G01X16661472Y-802277D02*
G01X16741482Y-802277D01*
G01X16789234Y-802277D02*
G01X16789234Y-922419D01*
G01X16869244Y-802277D02*
G01X16869244Y-922419D01*
G01X16789234Y-859427D02*
G01X16869244Y-859427D01*
G01X17995118Y-802277D02*
G01X17995118Y-922419D01*
G01X17995118Y-802277D02*
G01X18046680Y-802277D01*
G01X18063698Y-808119D01*
G01X18069540Y-813707D01*
G01X18075128Y-825137D01*
G01X18075128Y-836567D01*
G01X18069540Y-847997D01*
G01X18063698Y-853839D01*
G01X18046680Y-859427D01*
G01X17995118Y-859427D01*
G01X18035250Y-859427D02*
G01X18075128Y-922419D01*
G01X18151582Y-842409D02*
G01X18140152Y-847997D01*
G01X18128722Y-859427D01*
G01X18122880Y-876699D01*
G01X18122880Y-888129D01*
G01X18128722Y-905147D01*
G01X18140152Y-916577D01*
G01X18151582Y-922419D01*
G01X18168600Y-922419D01*
G01X18180030Y-916577D01*
G01X18191460Y-905147D01*
G01X18197302Y-888129D01*
G01X18197302Y-876699D01*
G01X18191460Y-859427D01*
G01X18180030Y-847997D01*
G01X18168600Y-842409D01*
G01X18151582Y-842409D01*
G01X18245054Y-842409D02*
G01X18245054Y-899559D01*
G01X18250896Y-916577D01*
G01X18262326Y-922419D01*
G01X18279344Y-922419D01*
G01X18290774Y-916577D01*
G01X18308046Y-899559D01*
G01X18308046Y-842409D02*
G01X18308046Y-922419D01*
G01X18355798Y-842409D02*
G01X18355798Y-922419D01*
G01X18355798Y-865269D02*
G01X18373070Y-847997D01*
G01X18384500Y-842409D01*
G01X18401518Y-842409D01*
G01X18412948Y-847997D01*
G01X18418790Y-865269D01*
G01X18418790Y-922419D01*
G01X18535122Y-802277D02*
G01X18535122Y-922419D01*
G01X18535122Y-859427D02*
G01X18523692Y-847997D01*
G01X18512262Y-842409D01*
G01X18495244Y-842409D01*
G01X18483814Y-847997D01*
G01X18472384Y-859427D01*
G01X18466542Y-876699D01*
G01X18466542Y-888129D01*
G01X18472384Y-905147D01*
G01X18483814Y-916577D01*
G01X18495244Y-922419D01*
G01X18512262Y-922419D01*
G01X18523692Y-916577D01*
G01X18535122Y-905147D01*
G01X19426299Y-802277D02*
G01X19426299Y-922419D01*
G01X19426299Y-802277D02*
G01X19477861Y-802277D01*
G01X19494879Y-808119D01*
G01X19500721Y-813707D01*
G01X19506309Y-825137D01*
G01X19506309Y-842409D01*
G01X19500721Y-853839D01*
G01X19494879Y-859427D01*
G01X19477861Y-865269D01*
G01X19426299Y-865269D01*
G01X19622641Y-842409D02*
G01X19622641Y-922419D01*
G01X19622641Y-859427D02*
G01X19611211Y-847997D01*
G01X19599781Y-842409D01*
G01X19582763Y-842409D01*
G01X19571333Y-847997D01*
G01X19559903Y-859427D01*
G01X19554061Y-876699D01*
G01X19554061Y-888129D01*
G01X19559903Y-905147D01*
G01X19571333Y-916577D01*
G01X19582763Y-922419D01*
G01X19599781Y-922419D01*
G01X19611211Y-916577D01*
G01X19622641Y-905147D01*
G01X19738973Y-802277D02*
G01X19738973Y-922419D01*
G01X19738973Y-859427D02*
G01X19727543Y-847997D01*
G01X19716113Y-842409D01*
G01X19699095Y-842409D01*
G01X19687665Y-847997D01*
G01X19676235Y-859427D01*
G01X19670393Y-876699D01*
G01X19670393Y-888129D01*
G01X19676235Y-905147D01*
G01X19687665Y-916577D01*
G01X19699095Y-922419D01*
G01X19716113Y-922419D01*
G01X19727543Y-916577D01*
G01X19738973Y-905147D01*
G01X21095478Y-802277D02*
G01X21095478Y-922419D01*
G01X21095478Y-802277D02*
G01X21147040Y-802277D01*
G01X21164058Y-808119D01*
G01X21169900Y-813707D01*
G01X21175488Y-825137D01*
G01X21175488Y-836567D01*
G01X21169900Y-847997D01*
G01X21164058Y-853839D01*
G01X21147040Y-859427D01*
G01X21095478Y-859427D01*
G01X21135610Y-859427D02*
G01X21175488Y-922419D01*
G01X21251942Y-842409D02*
G01X21240512Y-847997D01*
G01X21229082Y-859427D01*
G01X21223240Y-876699D01*
G01X21223240Y-888129D01*
G01X21229082Y-905147D01*
G01X21240512Y-916577D01*
G01X21251942Y-922419D01*
G01X21268960Y-922419D01*
G01X21280390Y-916577D01*
G01X21291820Y-905147D01*
G01X21297662Y-888129D01*
G01X21297662Y-876699D01*
G01X21291820Y-859427D01*
G01X21280390Y-847997D01*
G01X21268960Y-842409D01*
G01X21251942Y-842409D01*
G01X21345414Y-842409D02*
G01X21345414Y-899559D01*
G01X21351256Y-916577D01*
G01X21362686Y-922419D01*
G01X21379704Y-922419D01*
G01X21391134Y-916577D01*
G01X21408406Y-899559D01*
G01X21408406Y-842409D02*
G01X21408406Y-922419D01*
G01X21456158Y-842409D02*
G01X21456158Y-922419D01*
G01X21456158Y-865269D02*
G01X21473430Y-847997D01*
G01X21484860Y-842409D01*
G01X21501878Y-842409D01*
G01X21513308Y-847997D01*
G01X21519150Y-865269D01*
G01X21519150Y-922419D01*
G01X21635482Y-802277D02*
G01X21635482Y-922419D01*
G01X21635482Y-859427D02*
G01X21624052Y-847997D01*
G01X21612622Y-842409D01*
G01X21595604Y-842409D01*
G01X21584174Y-847997D01*
G01X21572744Y-859427D01*
G01X21566902Y-876699D01*
G01X21566902Y-888129D01*
G01X21572744Y-905147D01*
G01X21584174Y-916577D01*
G01X21595604Y-922419D01*
G01X21612622Y-922419D01*
G01X21624052Y-916577D01*
G01X21635482Y-905147D01*
G01X23054979Y-802277D02*
G01X23054979Y-922419D01*
G01X23014847Y-802277D02*
G01X23094857Y-802277D01*
G01X23171311Y-842409D02*
G01X23159881Y-847997D01*
G01X23148451Y-859427D01*
G01X23142609Y-876699D01*
G01X23142609Y-888129D01*
G01X23148451Y-905147D01*
G01X23159881Y-916577D01*
G01X23171311Y-922419D01*
G01X23188329Y-922419D01*
G01X23199759Y-916577D01*
G01X23211189Y-905147D01*
G01X23217031Y-888129D01*
G01X23217031Y-876699D01*
G01X23211189Y-859427D01*
G01X23199759Y-847997D01*
G01X23188329Y-842409D01*
G01X23171311Y-842409D01*
G01X23264783Y-842409D02*
G01X23264783Y-962297D01*
G01X23264783Y-859427D02*
G01X23276213Y-847997D01*
G01X23287643Y-842409D01*
G01X23304915Y-842409D01*
G01X23316345Y-847997D01*
G01X23327775Y-859427D01*
G01X23333363Y-876699D01*
G01X23333363Y-888129D01*
G01X23327775Y-905147D01*
G01X23316345Y-916577D01*
G01X23304915Y-922419D01*
G01X23287643Y-922419D01*
G01X23276213Y-916577D01*
G01X23264783Y-905147D01*
G01X23509131Y-802277D02*
G01X23509131Y-922419D01*
G01X23509131Y-922419D02*
G01X23577711Y-922419D01*
G01X23694043Y-842409D02*
G01X23694043Y-922419D01*
G01X23694043Y-859427D02*
G01X23682613Y-847997D01*
G01X23671183Y-842409D01*
G01X23654165Y-842409D01*
G01X23642735Y-847997D01*
G01X23631305Y-859427D01*
G01X23625463Y-876699D01*
G01X23625463Y-888129D01*
G01X23631305Y-905147D01*
G01X23642735Y-916577D01*
G01X23654165Y-922419D01*
G01X23671183Y-922419D01*
G01X23682613Y-916577D01*
G01X23694043Y-905147D01*
G01X23747637Y-842409D02*
G01X23781927Y-922419D01*
G01X23816217Y-842409D02*
G01X23781927Y-922419D01*
G01X23770497Y-945279D01*
G01X23759067Y-956709D01*
G01X23747637Y-962297D01*
G01X23741795Y-962297D01*
G01X23863969Y-876699D02*
G01X23932549Y-876699D01*
G01X23932549Y-865269D01*
G01X23926961Y-853839D01*
G01X23921119Y-847997D01*
G01X23909689Y-842409D01*
G01X23892671Y-842409D01*
G01X23881241Y-847997D01*
G01X23869811Y-859427D01*
G01X23863969Y-876699D01*
G01X23863969Y-888129D01*
G01X23869811Y-905147D01*
G01X23881241Y-916577D01*
G01X23892671Y-922419D01*
G01X23909689Y-922419D01*
G01X23921119Y-916577D01*
G01X23932549Y-905147D01*
G01X23980301Y-842409D02*
G01X23980301Y-922419D01*
G01X23980301Y-876699D02*
G01X23986143Y-859427D01*
G01X23997573Y-847997D01*
G01X24009003Y-842409D01*
G01X24026021Y-842409D01*
G01X24073773Y-870857D02*
G01X24176643Y-870857D01*
G01X24224395Y-802277D02*
G01X24224395Y-922419D01*
G01X24224395Y-802277D02*
G01X24275957Y-802277D01*
G01X24292975Y-808119D01*
G01X24298817Y-813707D01*
G01X24304405Y-825137D01*
G01X24304405Y-836567D01*
G01X24298817Y-847997D01*
G01X24292975Y-853839D01*
G01X24275957Y-859427D01*
G01X24224395Y-859427D02*
G01X24275957Y-859427D01*
G01X24292975Y-865269D01*
G01X24298817Y-870857D01*
G01X24304405Y-882287D01*
G01X24304405Y-899559D01*
G01X24298817Y-910989D01*
G01X24292975Y-916577D01*
G01X24275957Y-922419D01*
G01X24224395Y-922419D01*
G01X24380859Y-842409D02*
G01X24369429Y-847997D01*
G01X24357999Y-859427D01*
G01X24352157Y-876699D01*
G01X24352157Y-888129D01*
G01X24357999Y-905147D01*
G01X24369429Y-916577D01*
G01X24380859Y-922419D01*
G01X24397877Y-922419D01*
G01X24409307Y-916577D01*
G01X24420737Y-905147D01*
G01X24426579Y-888129D01*
G01X24426579Y-876699D01*
G01X24420737Y-859427D01*
G01X24409307Y-847997D01*
G01X24397877Y-842409D01*
G01X24380859Y-842409D01*
G01X24491603Y-802277D02*
G01X24491603Y-899559D01*
G01X24497191Y-916577D01*
G01X24508621Y-922419D01*
G01X24520051Y-922419D01*
G01X24474331Y-842409D02*
G01X24514463Y-842409D01*
G01X24585075Y-802277D02*
G01X24585075Y-899559D01*
G01X24590663Y-916577D01*
G01X24602093Y-922419D01*
G01X24613523Y-922419D01*
G01X24567803Y-842409D02*
G01X24607935Y-842409D01*
G01X24689977Y-842409D02*
G01X24678547Y-847997D01*
G01X24667117Y-859427D01*
G01X24661275Y-876699D01*
G01X24661275Y-888129D01*
G01X24667117Y-905147D01*
G01X24678547Y-916577D01*
G01X24689977Y-922419D01*
G01X24706995Y-922419D01*
G01X24718425Y-916577D01*
G01X24729855Y-905147D01*
G01X24735697Y-888129D01*
G01X24735697Y-876699D01*
G01X24729855Y-859427D01*
G01X24718425Y-847997D01*
G01X24706995Y-842409D01*
G01X24689977Y-842409D01*
G01X24783449Y-842409D02*
G01X24783449Y-922419D01*
G01X24783449Y-865269D02*
G01X24800721Y-847997D01*
G01X24812151Y-842409D01*
G01X24829169Y-842409D01*
G01X24840599Y-847997D01*
G01X24846441Y-865269D01*
G01X24846441Y-922419D01*
G01X24846441Y-865269D02*
G01X24863459Y-847997D01*
G01X24874889Y-842409D01*
G01X24892161Y-842409D01*
G01X24903591Y-847997D01*
G01X24909179Y-865269D01*
G01X24909179Y-922419D01*
G01X25084947Y-802277D02*
G01X25084947Y-922419D01*
G01X25084947Y-922419D02*
G01X25153527Y-922419D01*
G01X25269859Y-842409D02*
G01X25269859Y-922419D01*
G01X25269859Y-859427D02*
G01X25258429Y-847997D01*
G01X25246999Y-842409D01*
G01X25229981Y-842409D01*
G01X25218551Y-847997D01*
G01X25207121Y-859427D01*
G01X25201279Y-876699D01*
G01X25201279Y-888129D01*
G01X25207121Y-905147D01*
G01X25218551Y-916577D01*
G01X25229981Y-922419D01*
G01X25246999Y-922419D01*
G01X25258429Y-916577D01*
G01X25269859Y-905147D01*
G01X25323453Y-842409D02*
G01X25357743Y-922419D01*
G01X25392033Y-842409D02*
G01X25357743Y-922419D01*
G01X25346313Y-945279D01*
G01X25334883Y-956709D01*
G01X25323453Y-962297D01*
G01X25317611Y-962297D01*
G01X25439785Y-876699D02*
G01X25508365Y-876699D01*
G01X25508365Y-865269D01*
G01X25502777Y-853839D01*
G01X25496935Y-847997D01*
G01X25485505Y-842409D01*
G01X25468487Y-842409D01*
G01X25457057Y-847997D01*
G01X25445627Y-859427D01*
G01X25439785Y-876699D01*
G01X25439785Y-888129D01*
G01X25445627Y-905147D01*
G01X25457057Y-916577D01*
G01X25468487Y-922419D01*
G01X25485505Y-922419D01*
G01X25496935Y-916577D01*
G01X25508365Y-905147D01*
G01X25556117Y-842409D02*
G01X25556117Y-922419D01*
G01X25556117Y-876699D02*
G01X25561959Y-859427D01*
G01X25573389Y-847997D01*
G01X25584819Y-842409D01*
G01X25601837Y-842409D01*
G01X11078516Y-1411551D02*
G01X11078516Y-1405709D01*
G01X11084104Y-1394279D01*
G01X11089946Y-1388691D01*
G01X11101376Y-1382849D01*
G01X11124236Y-1382849D01*
G01X11135666Y-1388691D01*
G01X11141254Y-1394279D01*
G01X11147096Y-1405709D01*
G01X11147096Y-1417139D01*
G01X11141254Y-1428569D01*
G01X11129824Y-1445841D01*
G01X11072674Y-1502991D01*
G01X11152684Y-1502991D01*
G01X12486837Y-1405709D02*
G01X12498267Y-1400121D01*
G01X12515539Y-1382849D01*
G01X12515539Y-1502991D01*
G01X12637713Y-1422981D02*
G01X12631871Y-1439999D01*
G01X12620441Y-1451429D01*
G01X12603423Y-1457271D01*
G01X12597581Y-1457271D01*
G01X12580563Y-1451429D01*
G01X12569133Y-1439999D01*
G01X12563291Y-1422981D01*
G01X12563291Y-1417139D01*
G01X12569133Y-1400121D01*
G01X12580563Y-1388691D01*
G01X12597581Y-1382849D01*
G01X12603423Y-1382849D01*
G01X12620441Y-1388691D01*
G01X12631871Y-1400121D01*
G01X12637713Y-1422981D01*
G01X12637713Y-1451429D01*
G01X12631871Y-1480131D01*
G01X12620441Y-1497149D01*
G01X12603423Y-1502991D01*
G01X12591993Y-1502991D01*
G01X12574721Y-1497149D01*
G01X12569133Y-1485719D01*
G01X12691307Y-1474289D02*
G01X12685465Y-1480131D01*
G01X12691307Y-1485719D01*
G01X12696895Y-1480131D01*
G01X12691307Y-1474289D01*
G01X12824657Y-1382849D02*
G01X12767507Y-1502991D01*
G01X12744647Y-1382849D02*
G01X12824657Y-1382849D01*
G01X12872409Y-1422981D02*
G01X12935401Y-1502991D01*
G01X12935401Y-1422981D02*
G01X12872409Y-1502991D01*
G01X13063163Y-1382849D02*
G01X13006013Y-1502991D01*
G01X12983153Y-1382849D02*
G01X13063163Y-1382849D01*
G01X13145205Y-1382849D02*
G01X13128187Y-1388691D01*
G01X13116757Y-1405709D01*
G01X13110915Y-1434411D01*
G01X13110915Y-1451429D01*
G01X13116757Y-1480131D01*
G01X13128187Y-1497149D01*
G01X13145205Y-1502991D01*
G01X13156635Y-1502991D01*
G01X13173907Y-1497149D01*
G01X13185337Y-1480131D01*
G01X13190925Y-1451429D01*
G01X13190925Y-1434411D01*
G01X13185337Y-1405709D01*
G01X13173907Y-1388691D01*
G01X13156635Y-1382849D01*
G01X13145205Y-1382849D01*
G01X13244519Y-1474289D02*
G01X13238677Y-1480131D01*
G01X13244519Y-1485719D01*
G01X13250107Y-1480131D01*
G01X13244519Y-1474289D01*
G01X13372281Y-1422981D02*
G01X13366439Y-1439999D01*
G01X13355009Y-1451429D01*
G01X13337991Y-1457271D01*
G01X13332149Y-1457271D01*
G01X13315131Y-1451429D01*
G01X13303701Y-1439999D01*
G01X13297859Y-1422981D01*
G01X13297859Y-1417139D01*
G01X13303701Y-1400121D01*
G01X13315131Y-1388691D01*
G01X13332149Y-1382849D01*
G01X13337991Y-1382849D01*
G01X13355009Y-1388691D01*
G01X13366439Y-1400121D01*
G01X13372281Y-1422981D01*
G01X13372281Y-1451429D01*
G01X13366439Y-1480131D01*
G01X13355009Y-1497149D01*
G01X13337991Y-1502991D01*
G01X13326561Y-1502991D01*
G01X13309289Y-1497149D01*
G01X13303701Y-1485719D01*
G01X13420033Y-1422981D02*
G01X13420033Y-1502991D01*
G01X13420033Y-1445841D02*
G01X13437305Y-1428569D01*
G01X13448735Y-1422981D01*
G01X13465753Y-1422981D01*
G01X13477183Y-1428569D01*
G01X13483025Y-1445841D01*
G01X13483025Y-1502991D01*
G01X13483025Y-1445841D02*
G01X13500043Y-1428569D01*
G01X13511473Y-1422981D01*
G01X13528745Y-1422981D01*
G01X13540175Y-1428569D01*
G01X13545763Y-1445841D01*
G01X13545763Y-1502991D01*
G01X13593515Y-1382849D02*
G01X13599357Y-1388691D01*
G01X13604945Y-1382849D01*
G01X13599357Y-1377261D01*
G01X13593515Y-1382849D01*
G01X13599357Y-1422981D02*
G01X13599357Y-1502991D01*
G01X13652697Y-1382849D02*
G01X13652697Y-1502991D01*
G01X13740581Y-1359989D02*
G01X13729151Y-1371419D01*
G01X13717721Y-1388691D01*
G01X13706291Y-1411551D01*
G01X13700449Y-1439999D01*
G01X13700449Y-1462859D01*
G01X13706291Y-1491561D01*
G01X13717721Y-1514421D01*
G01X13729151Y-1531439D01*
G01X13740581Y-1542869D01*
G01X13822623Y-1382849D02*
G01X13805605Y-1388691D01*
G01X13794175Y-1405709D01*
G01X13788333Y-1434411D01*
G01X13788333Y-1451429D01*
G01X13794175Y-1480131D01*
G01X13805605Y-1497149D01*
G01X13822623Y-1502991D01*
G01X13834053Y-1502991D01*
G01X13851325Y-1497149D01*
G01X13862755Y-1480131D01*
G01X13868343Y-1451429D01*
G01X13868343Y-1434411D01*
G01X13862755Y-1405709D01*
G01X13851325Y-1388691D01*
G01X13834053Y-1382849D01*
G01X13822623Y-1382849D01*
G01X13921937Y-1474289D02*
G01X13916095Y-1480131D01*
G01X13921937Y-1485719D01*
G01X13927525Y-1480131D01*
G01X13921937Y-1474289D01*
G01X14043857Y-1382849D02*
G01X13986707Y-1382849D01*
G01X13981119Y-1434411D01*
G01X13986707Y-1428569D01*
G01X14003979Y-1422981D01*
G01X14020997Y-1422981D01*
G01X14038269Y-1428569D01*
G01X14049699Y-1439999D01*
G01X14055287Y-1457271D01*
G01X14055287Y-1468701D01*
G01X14049699Y-1485719D01*
G01X14038269Y-1497149D01*
G01X14020997Y-1502991D01*
G01X14003979Y-1502991D01*
G01X13986707Y-1497149D01*
G01X13981119Y-1491561D01*
G01X13975277Y-1480131D01*
G01X14137329Y-1382849D02*
G01X14120311Y-1388691D01*
G01X14108881Y-1405709D01*
G01X14103039Y-1434411D01*
G01X14103039Y-1451429D01*
G01X14108881Y-1480131D01*
G01X14120311Y-1497149D01*
G01X14137329Y-1502991D01*
G01X14148759Y-1502991D01*
G01X14166031Y-1497149D01*
G01X14177461Y-1480131D01*
G01X14183049Y-1451429D01*
G01X14183049Y-1434411D01*
G01X14177461Y-1405709D01*
G01X14166031Y-1388691D01*
G01X14148759Y-1382849D01*
G01X14137329Y-1382849D01*
G01X14265091Y-1382849D02*
G01X14248073Y-1388691D01*
G01X14236643Y-1405709D01*
G01X14230801Y-1434411D01*
G01X14230801Y-1451429D01*
G01X14236643Y-1480131D01*
G01X14248073Y-1497149D01*
G01X14265091Y-1502991D01*
G01X14276521Y-1502991D01*
G01X14293793Y-1497149D01*
G01X14305223Y-1480131D01*
G01X14310811Y-1451429D01*
G01X14310811Y-1434411D01*
G01X14305223Y-1405709D01*
G01X14293793Y-1388691D01*
G01X14276521Y-1382849D01*
G01X14265091Y-1382849D01*
G01X14358563Y-1422981D02*
G01X14421555Y-1502991D01*
G01X14421555Y-1422981D02*
G01X14358563Y-1502991D01*
G01X14469307Y-1405709D02*
G01X14480737Y-1400121D01*
G01X14498009Y-1382849D01*
G01X14498009Y-1502991D01*
G01X14551603Y-1474289D02*
G01X14545761Y-1480131D01*
G01X14551603Y-1485719D01*
G01X14557191Y-1480131D01*
G01X14551603Y-1474289D01*
G01X14633645Y-1382849D02*
G01X14616373Y-1388691D01*
G01X14610785Y-1400121D01*
G01X14610785Y-1411551D01*
G01X14616373Y-1422981D01*
G01X14627803Y-1428569D01*
G01X14650663Y-1434411D01*
G01X14667935Y-1439999D01*
G01X14679365Y-1451429D01*
G01X14684953Y-1462859D01*
G01X14684953Y-1480131D01*
G01X14679365Y-1491561D01*
G01X14673523Y-1497149D01*
G01X14656505Y-1502991D01*
G01X14633645Y-1502991D01*
G01X14616373Y-1497149D01*
G01X14610785Y-1491561D01*
G01X14604943Y-1480131D01*
G01X14604943Y-1462859D01*
G01X14610785Y-1451429D01*
G01X14622215Y-1439999D01*
G01X14639233Y-1434411D01*
G01X14662093Y-1428569D01*
G01X14673523Y-1422981D01*
G01X14679365Y-1411551D01*
G01X14679365Y-1400121D01*
G01X14673523Y-1388691D01*
G01X14656505Y-1382849D01*
G01X14633645Y-1382849D01*
G01X14766995Y-1382849D02*
G01X14749977Y-1388691D01*
G01X14738547Y-1405709D01*
G01X14732705Y-1434411D01*
G01X14732705Y-1451429D01*
G01X14738547Y-1480131D01*
G01X14749977Y-1497149D01*
G01X14766995Y-1502991D01*
G01X14778425Y-1502991D01*
G01X14795697Y-1497149D01*
G01X14807127Y-1480131D01*
G01X14812715Y-1451429D01*
G01X14812715Y-1434411D01*
G01X14807127Y-1405709D01*
G01X14795697Y-1388691D01*
G01X14778425Y-1382849D01*
G01X14766995Y-1382849D01*
G01X14894757Y-1382849D02*
G01X14877739Y-1388691D01*
G01X14866309Y-1405709D01*
G01X14860467Y-1434411D01*
G01X14860467Y-1451429D01*
G01X14866309Y-1480131D01*
G01X14877739Y-1497149D01*
G01X14894757Y-1502991D01*
G01X14906187Y-1502991D01*
G01X14923459Y-1497149D01*
G01X14934889Y-1480131D01*
G01X14940477Y-1451429D01*
G01X14940477Y-1434411D01*
G01X14934889Y-1405709D01*
G01X14923459Y-1388691D01*
G01X14906187Y-1382849D01*
G01X14894757Y-1382849D01*
G01X14988229Y-1422981D02*
G01X14988229Y-1502991D01*
G01X14988229Y-1445841D02*
G01X15005501Y-1428569D01*
G01X15016931Y-1422981D01*
G01X15033949Y-1422981D01*
G01X15045379Y-1428569D01*
G01X15051221Y-1445841D01*
G01X15051221Y-1502991D01*
G01X15051221Y-1445841D02*
G01X15068239Y-1428569D01*
G01X15079669Y-1422981D01*
G01X15096941Y-1422981D01*
G01X15108371Y-1428569D01*
G01X15113959Y-1445841D01*
G01X15113959Y-1502991D01*
G01X15161711Y-1422981D02*
G01X15161711Y-1502991D01*
G01X15161711Y-1445841D02*
G01X15178983Y-1428569D01*
G01X15190413Y-1422981D01*
G01X15207431Y-1422981D01*
G01X15218861Y-1428569D01*
G01X15224703Y-1445841D01*
G01X15224703Y-1502991D01*
G01X15224703Y-1445841D02*
G01X15241721Y-1428569D01*
G01X15253151Y-1422981D01*
G01X15270423Y-1422981D01*
G01X15281853Y-1428569D01*
G01X15287441Y-1445841D01*
G01X15287441Y-1502991D01*
G01X15335193Y-1359989D02*
G01X15346623Y-1371419D01*
G01X15358053Y-1388691D01*
G01X15369483Y-1411551D01*
G01X15375325Y-1439999D01*
G01X15375325Y-1462859D01*
G01X15369483Y-1491561D01*
G01X15358053Y-1514421D01*
G01X15346623Y-1531439D01*
G01X15335193Y-1542869D01*
G01X16533710Y-1382849D02*
G01X16533710Y-1502991D01*
G01X16533710Y-1382849D02*
G01X16585272Y-1382849D01*
G01X16602290Y-1388691D01*
G01X16608132Y-1394279D01*
G01X16613720Y-1405709D01*
G01X16613720Y-1422981D01*
G01X16608132Y-1434411D01*
G01X16602290Y-1439999D01*
G01X16585272Y-1445841D01*
G01X16533710Y-1445841D01*
G01X16701604Y-1382849D02*
G01X16701604Y-1502991D01*
G01X16661472Y-1382849D02*
G01X16741482Y-1382849D01*
G01X16789234Y-1382849D02*
G01X16789234Y-1502991D01*
G01X16869244Y-1382849D02*
G01X16869244Y-1502991D01*
G01X16789234Y-1439999D02*
G01X16869244Y-1439999D01*
G01X18075128Y-1400121D02*
G01X18063698Y-1388691D01*
G01X18046680Y-1382849D01*
G01X18023820Y-1382849D01*
G01X18006548Y-1388691D01*
G01X17995118Y-1400121D01*
G01X17995118Y-1411551D01*
G01X18000960Y-1422981D01*
G01X18006548Y-1428569D01*
G01X18017978Y-1434411D01*
G01X18052268Y-1445841D01*
G01X18063698Y-1451429D01*
G01X18069540Y-1457271D01*
G01X18075128Y-1468701D01*
G01X18075128Y-1485719D01*
G01X18063698Y-1497149D01*
G01X18046680Y-1502991D01*
G01X18023820Y-1502991D01*
G01X18006548Y-1497149D01*
G01X17995118Y-1485719D01*
G01X18122880Y-1382849D02*
G01X18122880Y-1502991D01*
G01X18199334Y-1422981D02*
G01X18187904Y-1428569D01*
G01X18176474Y-1439999D01*
G01X18170632Y-1457271D01*
G01X18170632Y-1468701D01*
G01X18176474Y-1485719D01*
G01X18187904Y-1497149D01*
G01X18199334Y-1502991D01*
G01X18216352Y-1502991D01*
G01X18227782Y-1497149D01*
G01X18239212Y-1485719D01*
G01X18245054Y-1468701D01*
G01X18245054Y-1457271D01*
G01X18239212Y-1439999D01*
G01X18227782Y-1428569D01*
G01X18216352Y-1422981D01*
G01X18199334Y-1422981D01*
G01X18310078Y-1382849D02*
G01X18310078Y-1480131D01*
G01X18315666Y-1497149D01*
G01X18327096Y-1502991D01*
G01X18338526Y-1502991D01*
G01X18292806Y-1422981D02*
G01X18332938Y-1422981D01*
G01X19426299Y-1382849D02*
G01X19426299Y-1502991D01*
G01X19426299Y-1382849D02*
G01X19477861Y-1382849D01*
G01X19494879Y-1388691D01*
G01X19500721Y-1394279D01*
G01X19506309Y-1405709D01*
G01X19506309Y-1422981D01*
G01X19500721Y-1434411D01*
G01X19494879Y-1439999D01*
G01X19477861Y-1445841D01*
G01X19426299Y-1445841D01*
G01X19622641Y-1422981D02*
G01X19622641Y-1502991D01*
G01X19622641Y-1439999D02*
G01X19611211Y-1428569D01*
G01X19599781Y-1422981D01*
G01X19582763Y-1422981D01*
G01X19571333Y-1428569D01*
G01X19559903Y-1439999D01*
G01X19554061Y-1457271D01*
G01X19554061Y-1468701D01*
G01X19559903Y-1485719D01*
G01X19571333Y-1497149D01*
G01X19582763Y-1502991D01*
G01X19599781Y-1502991D01*
G01X19611211Y-1497149D01*
G01X19622641Y-1485719D01*
G01X19738973Y-1382849D02*
G01X19738973Y-1502991D01*
G01X19738973Y-1439999D02*
G01X19727543Y-1428569D01*
G01X19716113Y-1422981D01*
G01X19699095Y-1422981D01*
G01X19687665Y-1428569D01*
G01X19676235Y-1439999D01*
G01X19670393Y-1457271D01*
G01X19670393Y-1468701D01*
G01X19676235Y-1485719D01*
G01X19687665Y-1497149D01*
G01X19699095Y-1502991D01*
G01X19716113Y-1502991D01*
G01X19727543Y-1497149D01*
G01X19738973Y-1485719D01*
G01X21129768Y-1382849D02*
G01X21118338Y-1388691D01*
G01X21106908Y-1400121D01*
G01X21101320Y-1411551D01*
G01X21095478Y-1428569D01*
G01X21095478Y-1457271D01*
G01X21101320Y-1474289D01*
G01X21106908Y-1485719D01*
G01X21118338Y-1497149D01*
G01X21129768Y-1502991D01*
G01X21152628Y-1502991D01*
G01X21164058Y-1497149D01*
G01X21175488Y-1485719D01*
G01X21181330Y-1474289D01*
G01X21186918Y-1457271D01*
G01X21186918Y-1428569D01*
G01X21181330Y-1411551D01*
G01X21175488Y-1400121D01*
G01X21164058Y-1388691D01*
G01X21152628Y-1382849D01*
G01X21129768Y-1382849D01*
G01X21234670Y-1422981D02*
G01X21268960Y-1502991D01*
G01X21303250Y-1422981D02*
G01X21268960Y-1502991D01*
G01X21419582Y-1422981D02*
G01X21419582Y-1502991D01*
G01X21419582Y-1439999D02*
G01X21408152Y-1428569D01*
G01X21396722Y-1422981D01*
G01X21379704Y-1422981D01*
G01X21368274Y-1428569D01*
G01X21356844Y-1439999D01*
G01X21351002Y-1457271D01*
G01X21351002Y-1468701D01*
G01X21356844Y-1485719D01*
G01X21368274Y-1497149D01*
G01X21379704Y-1502991D01*
G01X21396722Y-1502991D01*
G01X21408152Y-1497149D01*
G01X21419582Y-1485719D01*
G01X21467334Y-1382849D02*
G01X21467334Y-1502991D01*
G01X23054979Y-1382849D02*
G01X23054979Y-1502991D01*
G01X23014847Y-1382849D02*
G01X23094857Y-1382849D01*
G01X23171311Y-1422981D02*
G01X23159881Y-1428569D01*
G01X23148451Y-1439999D01*
G01X23142609Y-1457271D01*
G01X23142609Y-1468701D01*
G01X23148451Y-1485719D01*
G01X23159881Y-1497149D01*
G01X23171311Y-1502991D01*
G01X23188329Y-1502991D01*
G01X23199759Y-1497149D01*
G01X23211189Y-1485719D01*
G01X23217031Y-1468701D01*
G01X23217031Y-1457271D01*
G01X23211189Y-1439999D01*
G01X23199759Y-1428569D01*
G01X23188329Y-1422981D01*
G01X23171311Y-1422981D01*
G01X23264783Y-1422981D02*
G01X23264783Y-1542869D01*
G01X23264783Y-1439999D02*
G01X23276213Y-1428569D01*
G01X23287643Y-1422981D01*
G01X23304915Y-1422981D01*
G01X23316345Y-1428569D01*
G01X23327775Y-1439999D01*
G01X23333363Y-1457271D01*
G01X23333363Y-1468701D01*
G01X23327775Y-1485719D01*
G01X23316345Y-1497149D01*
G01X23304915Y-1502991D01*
G01X23287643Y-1502991D01*
G01X23276213Y-1497149D01*
G01X23264783Y-1485719D01*
G01X23509131Y-1382849D02*
G01X23509131Y-1502991D01*
G01X23509131Y-1502991D02*
G01X23577711Y-1502991D01*
G01X23694043Y-1422981D02*
G01X23694043Y-1502991D01*
G01X23694043Y-1439999D02*
G01X23682613Y-1428569D01*
G01X23671183Y-1422981D01*
G01X23654165Y-1422981D01*
G01X23642735Y-1428569D01*
G01X23631305Y-1439999D01*
G01X23625463Y-1457271D01*
G01X23625463Y-1468701D01*
G01X23631305Y-1485719D01*
G01X23642735Y-1497149D01*
G01X23654165Y-1502991D01*
G01X23671183Y-1502991D01*
G01X23682613Y-1497149D01*
G01X23694043Y-1485719D01*
G01X23747637Y-1422981D02*
G01X23781927Y-1502991D01*
G01X23816217Y-1422981D02*
G01X23781927Y-1502991D01*
G01X23770497Y-1525851D01*
G01X23759067Y-1537281D01*
G01X23747637Y-1542869D01*
G01X23741795Y-1542869D01*
G01X23863969Y-1457271D02*
G01X23932549Y-1457271D01*
G01X23932549Y-1445841D01*
G01X23926961Y-1434411D01*
G01X23921119Y-1428569D01*
G01X23909689Y-1422981D01*
G01X23892671Y-1422981D01*
G01X23881241Y-1428569D01*
G01X23869811Y-1439999D01*
G01X23863969Y-1457271D01*
G01X23863969Y-1468701D01*
G01X23869811Y-1485719D01*
G01X23881241Y-1497149D01*
G01X23892671Y-1502991D01*
G01X23909689Y-1502991D01*
G01X23921119Y-1497149D01*
G01X23932549Y-1485719D01*
G01X23980301Y-1422981D02*
G01X23980301Y-1502991D01*
G01X23980301Y-1457271D02*
G01X23986143Y-1439999D01*
G01X23997573Y-1428569D01*
G01X24009003Y-1422981D01*
G01X24026021Y-1422981D01*
G01X24073773Y-1451429D02*
G01X24176643Y-1451429D01*
G01X24224395Y-1382849D02*
G01X24224395Y-1502991D01*
G01X24224395Y-1382849D02*
G01X24275957Y-1382849D01*
G01X24292975Y-1388691D01*
G01X24298817Y-1394279D01*
G01X24304405Y-1405709D01*
G01X24304405Y-1417139D01*
G01X24298817Y-1428569D01*
G01X24292975Y-1434411D01*
G01X24275957Y-1439999D01*
G01X24224395Y-1439999D02*
G01X24275957Y-1439999D01*
G01X24292975Y-1445841D01*
G01X24298817Y-1451429D01*
G01X24304405Y-1462859D01*
G01X24304405Y-1480131D01*
G01X24298817Y-1491561D01*
G01X24292975Y-1497149D01*
G01X24275957Y-1502991D01*
G01X24224395Y-1502991D01*
G01X24380859Y-1422981D02*
G01X24369429Y-1428569D01*
G01X24357999Y-1439999D01*
G01X24352157Y-1457271D01*
G01X24352157Y-1468701D01*
G01X24357999Y-1485719D01*
G01X24369429Y-1497149D01*
G01X24380859Y-1502991D01*
G01X24397877Y-1502991D01*
G01X24409307Y-1497149D01*
G01X24420737Y-1485719D01*
G01X24426579Y-1468701D01*
G01X24426579Y-1457271D01*
G01X24420737Y-1439999D01*
G01X24409307Y-1428569D01*
G01X24397877Y-1422981D01*
G01X24380859Y-1422981D01*
G01X24491603Y-1382849D02*
G01X24491603Y-1480131D01*
G01X24497191Y-1497149D01*
G01X24508621Y-1502991D01*
G01X24520051Y-1502991D01*
G01X24474331Y-1422981D02*
G01X24514463Y-1422981D01*
G01X24585075Y-1382849D02*
G01X24585075Y-1480131D01*
G01X24590663Y-1497149D01*
G01X24602093Y-1502991D01*
G01X24613523Y-1502991D01*
G01X24567803Y-1422981D02*
G01X24607935Y-1422981D01*
G01X24689977Y-1422981D02*
G01X24678547Y-1428569D01*
G01X24667117Y-1439999D01*
G01X24661275Y-1457271D01*
G01X24661275Y-1468701D01*
G01X24667117Y-1485719D01*
G01X24678547Y-1497149D01*
G01X24689977Y-1502991D01*
G01X24706995Y-1502991D01*
G01X24718425Y-1497149D01*
G01X24729855Y-1485719D01*
G01X24735697Y-1468701D01*
G01X24735697Y-1457271D01*
G01X24729855Y-1439999D01*
G01X24718425Y-1428569D01*
G01X24706995Y-1422981D01*
G01X24689977Y-1422981D01*
G01X24783449Y-1422981D02*
G01X24783449Y-1502991D01*
G01X24783449Y-1445841D02*
G01X24800721Y-1428569D01*
G01X24812151Y-1422981D01*
G01X24829169Y-1422981D01*
G01X24840599Y-1428569D01*
G01X24846441Y-1445841D01*
G01X24846441Y-1502991D01*
G01X24846441Y-1445841D02*
G01X24863459Y-1428569D01*
G01X24874889Y-1422981D01*
G01X24892161Y-1422981D01*
G01X24903591Y-1428569D01*
G01X24909179Y-1445841D01*
G01X24909179Y-1502991D01*
G01X25084947Y-1382849D02*
G01X25084947Y-1502991D01*
G01X25084947Y-1502991D02*
G01X25153527Y-1502991D01*
G01X25269859Y-1422981D02*
G01X25269859Y-1502991D01*
G01X25269859Y-1439999D02*
G01X25258429Y-1428569D01*
G01X25246999Y-1422981D01*
G01X25229981Y-1422981D01*
G01X25218551Y-1428569D01*
G01X25207121Y-1439999D01*
G01X25201279Y-1457271D01*
G01X25201279Y-1468701D01*
G01X25207121Y-1485719D01*
G01X25218551Y-1497149D01*
G01X25229981Y-1502991D01*
G01X25246999Y-1502991D01*
G01X25258429Y-1497149D01*
G01X25269859Y-1485719D01*
G01X25323453Y-1422981D02*
G01X25357743Y-1502991D01*
G01X25392033Y-1422981D02*
G01X25357743Y-1502991D01*
G01X25346313Y-1525851D01*
G01X25334883Y-1537281D01*
G01X25323453Y-1542869D01*
G01X25317611Y-1542869D01*
G01X25439785Y-1457271D02*
G01X25508365Y-1457271D01*
G01X25508365Y-1445841D01*
G01X25502777Y-1434411D01*
G01X25496935Y-1428569D01*
G01X25485505Y-1422981D01*
G01X25468487Y-1422981D01*
G01X25457057Y-1428569D01*
G01X25445627Y-1439999D01*
G01X25439785Y-1457271D01*
G01X25439785Y-1468701D01*
G01X25445627Y-1485719D01*
G01X25457057Y-1497149D01*
G01X25468487Y-1502991D01*
G01X25485505Y-1502991D01*
G01X25496935Y-1497149D01*
G01X25508365Y-1485719D01*
G01X25556117Y-1422981D02*
G01X25556117Y-1502991D01*
G01X25556117Y-1457271D02*
G01X25561959Y-1439999D01*
G01X25573389Y-1428569D01*
G01X25584819Y-1422981D01*
G01X25601837Y-1422981D01*
G01X11078516Y-1992122D02*
G01X11078516Y-1986280D01*
G01X11084104Y-1974850D01*
G01X11089946Y-1969262D01*
G01X11101376Y-1963420D01*
G01X11124236Y-1963420D01*
G01X11135666Y-1969262D01*
G01X11141254Y-1974850D01*
G01X11147096Y-1986280D01*
G01X11147096Y-1997710D01*
G01X11141254Y-2009140D01*
G01X11129824Y-2026412D01*
G01X11072674Y-2083562D01*
G01X11152684Y-2083562D01*
G01X12543987Y-1963420D02*
G01X12486837Y-2043430D01*
G01X12572689Y-2043430D01*
G01X12543987Y-1963420D02*
G01X12543987Y-2083562D01*
G01X12700451Y-1963420D02*
G01X12643301Y-2083562D01*
G01X12620441Y-1963420D02*
G01X12700451Y-1963420D01*
G01X12754045Y-2054860D02*
G01X12748203Y-2060702D01*
G01X12754045Y-2066290D01*
G01X12759633Y-2060702D01*
G01X12754045Y-2054860D01*
G01X12813227Y-1992122D02*
G01X12813227Y-1986280D01*
G01X12818815Y-1974850D01*
G01X12824657Y-1969262D01*
G01X12836087Y-1963420D01*
G01X12858947Y-1963420D01*
G01X12870377Y-1969262D01*
G01X12875965Y-1974850D01*
G01X12881807Y-1986280D01*
G01X12881807Y-1997710D01*
G01X12875965Y-2009140D01*
G01X12864535Y-2026412D01*
G01X12807385Y-2083562D01*
G01X12887395Y-2083562D01*
G01X12935147Y-2003552D02*
G01X12935147Y-2083562D01*
G01X12935147Y-2026412D02*
G01X12952419Y-2009140D01*
G01X12963849Y-2003552D01*
G01X12980867Y-2003552D01*
G01X12992297Y-2009140D01*
G01X12998139Y-2026412D01*
G01X12998139Y-2083562D01*
G01X12998139Y-2026412D02*
G01X13015157Y-2009140D01*
G01X13026587Y-2003552D01*
G01X13043859Y-2003552D01*
G01X13055289Y-2009140D01*
G01X13060877Y-2026412D01*
G01X13060877Y-2083562D01*
G01X13108629Y-1963420D02*
G01X13114471Y-1969262D01*
G01X13120059Y-1963420D01*
G01X13114471Y-1957832D01*
G01X13108629Y-1963420D01*
G01X13114471Y-2003552D02*
G01X13114471Y-2083562D01*
G01X13167811Y-1963420D02*
G01X13167811Y-2083562D01*
G01X13255695Y-1940560D02*
G01X13244265Y-1951990D01*
G01X13232835Y-1969262D01*
G01X13221405Y-1992122D01*
G01X13215563Y-2020570D01*
G01X13215563Y-2043430D01*
G01X13221405Y-2072132D01*
G01X13232835Y-2094992D01*
G01X13244265Y-2112010D01*
G01X13255695Y-2123440D01*
G01X13303447Y-1986280D02*
G01X13314877Y-1980692D01*
G01X13332149Y-1963420D01*
G01X13332149Y-2083562D01*
G01X13385743Y-2054860D02*
G01X13379901Y-2060702D01*
G01X13385743Y-2066290D01*
G01X13391331Y-2060702D01*
G01X13385743Y-2054860D01*
G01X13444925Y-1992122D02*
G01X13444925Y-1986280D01*
G01X13450513Y-1974850D01*
G01X13456355Y-1969262D01*
G01X13467785Y-1963420D01*
G01X13490645Y-1963420D01*
G01X13502075Y-1969262D01*
G01X13507663Y-1974850D01*
G01X13513505Y-1986280D01*
G01X13513505Y-1997710D01*
G01X13507663Y-2009140D01*
G01X13496233Y-2026412D01*
G01X13439083Y-2083562D01*
G01X13519093Y-2083562D01*
G01X13601135Y-1963420D02*
G01X13584117Y-1969262D01*
G01X13572687Y-1986280D01*
G01X13566845Y-2014982D01*
G01X13566845Y-2032000D01*
G01X13572687Y-2060702D01*
G01X13584117Y-2077720D01*
G01X13601135Y-2083562D01*
G01X13612565Y-2083562D01*
G01X13629837Y-2077720D01*
G01X13641267Y-2060702D01*
G01X13646855Y-2032000D01*
G01X13646855Y-2014982D01*
G01X13641267Y-1986280D01*
G01X13629837Y-1969262D01*
G01X13612565Y-1963420D01*
G01X13601135Y-1963420D01*
G01X13728897Y-1963420D02*
G01X13711879Y-1969262D01*
G01X13700449Y-1986280D01*
G01X13694607Y-2014982D01*
G01X13694607Y-2032000D01*
G01X13700449Y-2060702D01*
G01X13711879Y-2077720D01*
G01X13728897Y-2083562D01*
G01X13740327Y-2083562D01*
G01X13757599Y-2077720D01*
G01X13769029Y-2060702D01*
G01X13774617Y-2032000D01*
G01X13774617Y-2014982D01*
G01X13769029Y-1986280D01*
G01X13757599Y-1969262D01*
G01X13740327Y-1963420D01*
G01X13728897Y-1963420D01*
G01X13822369Y-2003552D02*
G01X13822369Y-2083562D01*
G01X13822369Y-2026412D02*
G01X13839641Y-2009140D01*
G01X13851071Y-2003552D01*
G01X13868089Y-2003552D01*
G01X13879519Y-2009140D01*
G01X13885361Y-2026412D01*
G01X13885361Y-2083562D01*
G01X13885361Y-2026412D02*
G01X13902379Y-2009140D01*
G01X13913809Y-2003552D01*
G01X13931081Y-2003552D01*
G01X13942511Y-2009140D01*
G01X13948099Y-2026412D01*
G01X13948099Y-2083562D01*
G01X13995851Y-2003552D02*
G01X13995851Y-2083562D01*
G01X13995851Y-2026412D02*
G01X14013123Y-2009140D01*
G01X14024553Y-2003552D01*
G01X14041571Y-2003552D01*
G01X14053001Y-2009140D01*
G01X14058843Y-2026412D01*
G01X14058843Y-2083562D01*
G01X14058843Y-2026412D02*
G01X14075861Y-2009140D01*
G01X14087291Y-2003552D01*
G01X14104563Y-2003552D01*
G01X14115993Y-2009140D01*
G01X14121581Y-2026412D01*
G01X14121581Y-2083562D01*
G01X14169333Y-1940560D02*
G01X14180763Y-1951990D01*
G01X14192193Y-1969262D01*
G01X14203623Y-1992122D01*
G01X14209465Y-2020570D01*
G01X14209465Y-2043430D01*
G01X14203623Y-2072132D01*
G01X14192193Y-2094992D01*
G01X14180763Y-2112010D01*
G01X14169333Y-2123440D01*
G01X16533710Y-1963420D02*
G01X16533710Y-2083562D01*
G01X16533710Y-1963420D02*
G01X16613720Y-2083562D01*
G01X16613720Y-1963420D02*
G01X16613720Y-2083562D01*
G01X16661472Y-1963420D02*
G01X16661472Y-2083562D01*
G01X16661472Y-1963420D02*
G01X16713034Y-1963420D01*
G01X16730052Y-1969262D01*
G01X16735894Y-1974850D01*
G01X16741482Y-1986280D01*
G01X16741482Y-2003552D01*
G01X16735894Y-2014982D01*
G01X16730052Y-2020570D01*
G01X16713034Y-2026412D01*
G01X16661472Y-2026412D01*
G01X16829366Y-1963420D02*
G01X16829366Y-2083562D01*
G01X16789234Y-1963420D02*
G01X16869244Y-1963420D01*
G01X16916996Y-1963420D02*
G01X16916996Y-2083562D01*
G01X16997006Y-1963420D02*
G01X16997006Y-2083562D01*
G01X16916996Y-2020570D02*
G01X16997006Y-2020570D01*
G01X17995118Y-1963420D02*
G01X17995118Y-2083562D01*
G01X17995118Y-1963420D02*
G01X18046680Y-1963420D01*
G01X18063698Y-1969262D01*
G01X18069540Y-1974850D01*
G01X18075128Y-1986280D01*
G01X18075128Y-1997710D01*
G01X18069540Y-2009140D01*
G01X18063698Y-2014982D01*
G01X18046680Y-2020570D01*
G01X17995118Y-2020570D01*
G01X18035250Y-2020570D02*
G01X18075128Y-2083562D01*
G01X18151582Y-2003552D02*
G01X18140152Y-2009140D01*
G01X18128722Y-2020570D01*
G01X18122880Y-2037842D01*
G01X18122880Y-2049272D01*
G01X18128722Y-2066290D01*
G01X18140152Y-2077720D01*
G01X18151582Y-2083562D01*
G01X18168600Y-2083562D01*
G01X18180030Y-2077720D01*
G01X18191460Y-2066290D01*
G01X18197302Y-2049272D01*
G01X18197302Y-2037842D01*
G01X18191460Y-2020570D01*
G01X18180030Y-2009140D01*
G01X18168600Y-2003552D01*
G01X18151582Y-2003552D01*
G01X18245054Y-2003552D02*
G01X18245054Y-2060702D01*
G01X18250896Y-2077720D01*
G01X18262326Y-2083562D01*
G01X18279344Y-2083562D01*
G01X18290774Y-2077720D01*
G01X18308046Y-2060702D01*
G01X18308046Y-2003552D02*
G01X18308046Y-2083562D01*
G01X18355798Y-2003552D02*
G01X18355798Y-2083562D01*
G01X18355798Y-2026412D02*
G01X18373070Y-2009140D01*
G01X18384500Y-2003552D01*
G01X18401518Y-2003552D01*
G01X18412948Y-2009140D01*
G01X18418790Y-2026412D01*
G01X18418790Y-2083562D01*
G01X18535122Y-1963420D02*
G01X18535122Y-2083562D01*
G01X18535122Y-2020570D02*
G01X18523692Y-2009140D01*
G01X18512262Y-2003552D01*
G01X18495244Y-2003552D01*
G01X18483814Y-2009140D01*
G01X18472384Y-2020570D01*
G01X18466542Y-2037842D01*
G01X18466542Y-2049272D01*
G01X18472384Y-2066290D01*
G01X18483814Y-2077720D01*
G01X18495244Y-2083562D01*
G01X18512262Y-2083562D01*
G01X18523692Y-2077720D01*
G01X18535122Y-2066290D01*
G01X19426299Y-1963420D02*
G01X19472019Y-2083562D01*
G01X19517739Y-1963420D02*
G01X19472019Y-2083562D01*
G01X19565491Y-1963420D02*
G01X19571333Y-1969262D01*
G01X19576921Y-1963420D01*
G01X19571333Y-1957832D01*
G01X19565491Y-1963420D01*
G01X19571333Y-2003552D02*
G01X19571333Y-2083562D01*
G01X19693253Y-2003552D02*
G01X19693253Y-2083562D01*
G01X19693253Y-2020570D02*
G01X19681823Y-2009140D01*
G01X19670393Y-2003552D01*
G01X19653375Y-2003552D01*
G01X19641945Y-2009140D01*
G01X19630515Y-2020570D01*
G01X19624673Y-2037842D01*
G01X19624673Y-2049272D01*
G01X19630515Y-2066290D01*
G01X19641945Y-2077720D01*
G01X19653375Y-2083562D01*
G01X19670393Y-2083562D01*
G01X19681823Y-2077720D01*
G01X19693253Y-2066290D01*
G01X23054979Y-1963420D02*
G01X23054979Y-2083562D01*
G01X23014847Y-1963420D02*
G01X23094857Y-1963420D01*
G01X23171311Y-2003552D02*
G01X23159881Y-2009140D01*
G01X23148451Y-2020570D01*
G01X23142609Y-2037842D01*
G01X23142609Y-2049272D01*
G01X23148451Y-2066290D01*
G01X23159881Y-2077720D01*
G01X23171311Y-2083562D01*
G01X23188329Y-2083562D01*
G01X23199759Y-2077720D01*
G01X23211189Y-2066290D01*
G01X23217031Y-2049272D01*
G01X23217031Y-2037842D01*
G01X23211189Y-2020570D01*
G01X23199759Y-2009140D01*
G01X23188329Y-2003552D01*
G01X23171311Y-2003552D01*
G01X23264783Y-2003552D02*
G01X23264783Y-2123440D01*
G01X23264783Y-2020570D02*
G01X23276213Y-2009140D01*
G01X23287643Y-2003552D01*
G01X23304915Y-2003552D01*
G01X23316345Y-2009140D01*
G01X23327775Y-2020570D01*
G01X23333363Y-2037842D01*
G01X23333363Y-2049272D01*
G01X23327775Y-2066290D01*
G01X23316345Y-2077720D01*
G01X23304915Y-2083562D01*
G01X23287643Y-2083562D01*
G01X23276213Y-2077720D01*
G01X23264783Y-2066290D01*
G01X23509131Y-1963420D02*
G01X23509131Y-2083562D01*
G01X23509131Y-2083562D02*
G01X23577711Y-2083562D01*
G01X23694043Y-2003552D02*
G01X23694043Y-2083562D01*
G01X23694043Y-2020570D02*
G01X23682613Y-2009140D01*
G01X23671183Y-2003552D01*
G01X23654165Y-2003552D01*
G01X23642735Y-2009140D01*
G01X23631305Y-2020570D01*
G01X23625463Y-2037842D01*
G01X23625463Y-2049272D01*
G01X23631305Y-2066290D01*
G01X23642735Y-2077720D01*
G01X23654165Y-2083562D01*
G01X23671183Y-2083562D01*
G01X23682613Y-2077720D01*
G01X23694043Y-2066290D01*
G01X23747637Y-2003552D02*
G01X23781927Y-2083562D01*
G01X23816217Y-2003552D02*
G01X23781927Y-2083562D01*
G01X23770497Y-2106422D01*
G01X23759067Y-2117852D01*
G01X23747637Y-2123440D01*
G01X23741795Y-2123440D01*
G01X23863969Y-2037842D02*
G01X23932549Y-2037842D01*
G01X23932549Y-2026412D01*
G01X23926961Y-2014982D01*
G01X23921119Y-2009140D01*
G01X23909689Y-2003552D01*
G01X23892671Y-2003552D01*
G01X23881241Y-2009140D01*
G01X23869811Y-2020570D01*
G01X23863969Y-2037842D01*
G01X23863969Y-2049272D01*
G01X23869811Y-2066290D01*
G01X23881241Y-2077720D01*
G01X23892671Y-2083562D01*
G01X23909689Y-2083562D01*
G01X23921119Y-2077720D01*
G01X23932549Y-2066290D01*
G01X23980301Y-2003552D02*
G01X23980301Y-2083562D01*
G01X23980301Y-2037842D02*
G01X23986143Y-2020570D01*
G01X23997573Y-2009140D01*
G01X24009003Y-2003552D01*
G01X24026021Y-2003552D01*
G01X24073773Y-2032000D02*
G01X24176643Y-2032000D01*
G01X24224395Y-1963420D02*
G01X24224395Y-2083562D01*
G01X24224395Y-1963420D02*
G01X24275957Y-1963420D01*
G01X24292975Y-1969262D01*
G01X24298817Y-1974850D01*
G01X24304405Y-1986280D01*
G01X24304405Y-1997710D01*
G01X24298817Y-2009140D01*
G01X24292975Y-2014982D01*
G01X24275957Y-2020570D01*
G01X24224395Y-2020570D02*
G01X24275957Y-2020570D01*
G01X24292975Y-2026412D01*
G01X24298817Y-2032000D01*
G01X24304405Y-2043430D01*
G01X24304405Y-2060702D01*
G01X24298817Y-2072132D01*
G01X24292975Y-2077720D01*
G01X24275957Y-2083562D01*
G01X24224395Y-2083562D01*
G01X24380859Y-2003552D02*
G01X24369429Y-2009140D01*
G01X24357999Y-2020570D01*
G01X24352157Y-2037842D01*
G01X24352157Y-2049272D01*
G01X24357999Y-2066290D01*
G01X24369429Y-2077720D01*
G01X24380859Y-2083562D01*
G01X24397877Y-2083562D01*
G01X24409307Y-2077720D01*
G01X24420737Y-2066290D01*
G01X24426579Y-2049272D01*
G01X24426579Y-2037842D01*
G01X24420737Y-2020570D01*
G01X24409307Y-2009140D01*
G01X24397877Y-2003552D01*
G01X24380859Y-2003552D01*
G01X24491603Y-1963420D02*
G01X24491603Y-2060702D01*
G01X24497191Y-2077720D01*
G01X24508621Y-2083562D01*
G01X24520051Y-2083562D01*
G01X24474331Y-2003552D02*
G01X24514463Y-2003552D01*
G01X24585075Y-1963420D02*
G01X24585075Y-2060702D01*
G01X24590663Y-2077720D01*
G01X24602093Y-2083562D01*
G01X24613523Y-2083562D01*
G01X24567803Y-2003552D02*
G01X24607935Y-2003552D01*
G01X24689977Y-2003552D02*
G01X24678547Y-2009140D01*
G01X24667117Y-2020570D01*
G01X24661275Y-2037842D01*
G01X24661275Y-2049272D01*
G01X24667117Y-2066290D01*
G01X24678547Y-2077720D01*
G01X24689977Y-2083562D01*
G01X24706995Y-2083562D01*
G01X24718425Y-2077720D01*
G01X24729855Y-2066290D01*
G01X24735697Y-2049272D01*
G01X24735697Y-2037842D01*
G01X24729855Y-2020570D01*
G01X24718425Y-2009140D01*
G01X24706995Y-2003552D01*
G01X24689977Y-2003552D01*
G01X24783449Y-2003552D02*
G01X24783449Y-2083562D01*
G01X24783449Y-2026412D02*
G01X24800721Y-2009140D01*
G01X24812151Y-2003552D01*
G01X24829169Y-2003552D01*
G01X24840599Y-2009140D01*
G01X24846441Y-2026412D01*
G01X24846441Y-2083562D01*
G01X24846441Y-2026412D02*
G01X24863459Y-2009140D01*
G01X24874889Y-2003552D01*
G01X24892161Y-2003552D01*
G01X24903591Y-2009140D01*
G01X24909179Y-2026412D01*
G01X24909179Y-2083562D01*
G01X25084947Y-1963420D02*
G01X25084947Y-2083562D01*
G01X25084947Y-2083562D02*
G01X25153527Y-2083562D01*
G01X25269859Y-2003552D02*
G01X25269859Y-2083562D01*
G01X25269859Y-2020570D02*
G01X25258429Y-2009140D01*
G01X25246999Y-2003552D01*
G01X25229981Y-2003552D01*
G01X25218551Y-2009140D01*
G01X25207121Y-2020570D01*
G01X25201279Y-2037842D01*
G01X25201279Y-2049272D01*
G01X25207121Y-2066290D01*
G01X25218551Y-2077720D01*
G01X25229981Y-2083562D01*
G01X25246999Y-2083562D01*
G01X25258429Y-2077720D01*
G01X25269859Y-2066290D01*
G01X25323453Y-2003552D02*
G01X25357743Y-2083562D01*
G01X25392033Y-2003552D02*
G01X25357743Y-2083562D01*
G01X25346313Y-2106422D01*
G01X25334883Y-2117852D01*
G01X25323453Y-2123440D01*
G01X25317611Y-2123440D01*
G01X25439785Y-2037842D02*
G01X25508365Y-2037842D01*
G01X25508365Y-2026412D01*
G01X25502777Y-2014982D01*
G01X25496935Y-2009140D01*
G01X25485505Y-2003552D01*
G01X25468487Y-2003552D01*
G01X25457057Y-2009140D01*
G01X25445627Y-2020570D01*
G01X25439785Y-2037842D01*
G01X25439785Y-2049272D01*
G01X25445627Y-2066290D01*
G01X25457057Y-2077720D01*
G01X25468487Y-2083562D01*
G01X25485505Y-2083562D01*
G01X25496935Y-2077720D01*
G01X25508365Y-2066290D01*
G01X25556117Y-2003552D02*
G01X25556117Y-2083562D01*
G01X25556117Y-2037842D02*
G01X25561959Y-2020570D01*
G01X25573389Y-2009140D01*
G01X25584819Y-2003552D01*
G01X25601837Y-2003552D01*
G01X11078516Y-2572693D02*
G01X11078516Y-2566851D01*
G01X11084104Y-2555421D01*
G01X11089946Y-2549833D01*
G01X11101376Y-2543991D01*
G01X11124236Y-2543991D01*
G01X11135666Y-2549833D01*
G01X11141254Y-2555421D01*
G01X11147096Y-2566851D01*
G01X11147096Y-2578281D01*
G01X11141254Y-2589711D01*
G01X11129824Y-2606983D01*
G01X11072674Y-2664133D01*
G01X11152684Y-2664133D01*
G01X12498267Y-2543991D02*
G01X12561259Y-2543991D01*
G01X12526969Y-2589711D01*
G01X12543987Y-2589711D01*
G01X12555417Y-2595553D01*
G01X12561259Y-2601141D01*
G01X12566847Y-2618413D01*
G01X12566847Y-2629843D01*
G01X12561259Y-2646861D01*
G01X12549829Y-2658291D01*
G01X12532557Y-2664133D01*
G01X12515539Y-2664133D01*
G01X12498267Y-2658291D01*
G01X12492679Y-2652703D01*
G01X12486837Y-2641273D01*
G01X12689021Y-2584123D02*
G01X12683179Y-2601141D01*
G01X12671749Y-2612571D01*
G01X12654731Y-2618413D01*
G01X12648889Y-2618413D01*
G01X12631871Y-2612571D01*
G01X12620441Y-2601141D01*
G01X12614599Y-2584123D01*
G01X12614599Y-2578281D01*
G01X12620441Y-2561263D01*
G01X12631871Y-2549833D01*
G01X12648889Y-2543991D01*
G01X12654731Y-2543991D01*
G01X12671749Y-2549833D01*
G01X12683179Y-2561263D01*
G01X12689021Y-2584123D01*
G01X12689021Y-2612571D01*
G01X12683179Y-2641273D01*
G01X12671749Y-2658291D01*
G01X12654731Y-2664133D01*
G01X12643301Y-2664133D01*
G01X12626029Y-2658291D01*
G01X12620441Y-2646861D01*
G01X12742615Y-2635431D02*
G01X12736773Y-2641273D01*
G01X12742615Y-2646861D01*
G01X12748203Y-2641273D01*
G01X12742615Y-2635431D01*
G01X12853105Y-2543991D02*
G01X12795955Y-2624001D01*
G01X12881807Y-2624001D01*
G01X12853105Y-2543991D02*
G01X12853105Y-2664133D01*
G01X12929559Y-2584123D02*
G01X12929559Y-2664133D01*
G01X12929559Y-2606983D02*
G01X12946831Y-2589711D01*
G01X12958261Y-2584123D01*
G01X12975279Y-2584123D01*
G01X12986709Y-2589711D01*
G01X12992551Y-2606983D01*
G01X12992551Y-2664133D01*
G01X12992551Y-2606983D02*
G01X13009569Y-2589711D01*
G01X13020999Y-2584123D01*
G01X13038271Y-2584123D01*
G01X13049701Y-2589711D01*
G01X13055289Y-2606983D01*
G01X13055289Y-2664133D01*
G01X13103041Y-2543991D02*
G01X13108883Y-2549833D01*
G01X13114471Y-2543991D01*
G01X13108883Y-2538403D01*
G01X13103041Y-2543991D01*
G01X13108883Y-2584123D02*
G01X13108883Y-2664133D01*
G01X13162223Y-2543991D02*
G01X13162223Y-2664133D01*
G01X13250107Y-2521131D02*
G01X13238677Y-2532561D01*
G01X13227247Y-2549833D01*
G01X13215817Y-2572693D01*
G01X13209975Y-2601141D01*
G01X13209975Y-2624001D01*
G01X13215817Y-2652703D01*
G01X13227247Y-2675563D01*
G01X13238677Y-2692581D01*
G01X13250107Y-2704011D01*
G01X13297859Y-2566851D02*
G01X13309289Y-2561263D01*
G01X13326561Y-2543991D01*
G01X13326561Y-2664133D01*
G01X13380155Y-2635431D02*
G01X13374313Y-2641273D01*
G01X13380155Y-2646861D01*
G01X13385743Y-2641273D01*
G01X13380155Y-2635431D01*
G01X13467785Y-2543991D02*
G01X13450767Y-2549833D01*
G01X13439337Y-2566851D01*
G01X13433495Y-2595553D01*
G01X13433495Y-2612571D01*
G01X13439337Y-2641273D01*
G01X13450767Y-2658291D01*
G01X13467785Y-2664133D01*
G01X13479215Y-2664133D01*
G01X13496487Y-2658291D01*
G01X13507917Y-2641273D01*
G01X13513505Y-2612571D01*
G01X13513505Y-2595553D01*
G01X13507917Y-2566851D01*
G01X13496487Y-2549833D01*
G01X13479215Y-2543991D01*
G01X13467785Y-2543991D01*
G01X13595547Y-2543991D02*
G01X13578529Y-2549833D01*
G01X13567099Y-2566851D01*
G01X13561257Y-2595553D01*
G01X13561257Y-2612571D01*
G01X13567099Y-2641273D01*
G01X13578529Y-2658291D01*
G01X13595547Y-2664133D01*
G01X13606977Y-2664133D01*
G01X13624249Y-2658291D01*
G01X13635679Y-2641273D01*
G01X13641267Y-2612571D01*
G01X13641267Y-2595553D01*
G01X13635679Y-2566851D01*
G01X13624249Y-2549833D01*
G01X13606977Y-2543991D01*
G01X13595547Y-2543991D01*
G01X13723309Y-2543991D02*
G01X13706291Y-2549833D01*
G01X13694861Y-2566851D01*
G01X13689019Y-2595553D01*
G01X13689019Y-2612571D01*
G01X13694861Y-2641273D01*
G01X13706291Y-2658291D01*
G01X13723309Y-2664133D01*
G01X13734739Y-2664133D01*
G01X13752011Y-2658291D01*
G01X13763441Y-2641273D01*
G01X13769029Y-2612571D01*
G01X13769029Y-2595553D01*
G01X13763441Y-2566851D01*
G01X13752011Y-2549833D01*
G01X13734739Y-2543991D01*
G01X13723309Y-2543991D01*
G01X13816781Y-2584123D02*
G01X13816781Y-2664133D01*
G01X13816781Y-2606983D02*
G01X13834053Y-2589711D01*
G01X13845483Y-2584123D01*
G01X13862501Y-2584123D01*
G01X13873931Y-2589711D01*
G01X13879773Y-2606983D01*
G01X13879773Y-2664133D01*
G01X13879773Y-2606983D02*
G01X13896791Y-2589711D01*
G01X13908221Y-2584123D01*
G01X13925493Y-2584123D01*
G01X13936923Y-2589711D01*
G01X13942511Y-2606983D01*
G01X13942511Y-2664133D01*
G01X13990263Y-2584123D02*
G01X13990263Y-2664133D01*
G01X13990263Y-2606983D02*
G01X14007535Y-2589711D01*
G01X14018965Y-2584123D01*
G01X14035983Y-2584123D01*
G01X14047413Y-2589711D01*
G01X14053255Y-2606983D01*
G01X14053255Y-2664133D01*
G01X14053255Y-2606983D02*
G01X14070273Y-2589711D01*
G01X14081703Y-2584123D01*
G01X14098975Y-2584123D01*
G01X14110405Y-2589711D01*
G01X14115993Y-2606983D01*
G01X14115993Y-2664133D01*
G01X14163745Y-2521131D02*
G01X14175175Y-2532561D01*
G01X14186605Y-2549833D01*
G01X14198035Y-2572693D01*
G01X14203877Y-2601141D01*
G01X14203877Y-2624001D01*
G01X14198035Y-2652703D01*
G01X14186605Y-2675563D01*
G01X14175175Y-2692581D01*
G01X14163745Y-2704011D01*
G01X16533710Y-2543991D02*
G01X16533710Y-2664133D01*
G01X16533710Y-2543991D02*
G01X16613720Y-2664133D01*
G01X16613720Y-2543991D02*
G01X16613720Y-2664133D01*
G01X16661472Y-2543991D02*
G01X16661472Y-2664133D01*
G01X16661472Y-2543991D02*
G01X16713034Y-2543991D01*
G01X16730052Y-2549833D01*
G01X16735894Y-2555421D01*
G01X16741482Y-2566851D01*
G01X16741482Y-2584123D01*
G01X16735894Y-2595553D01*
G01X16730052Y-2601141D01*
G01X16713034Y-2606983D01*
G01X16661472Y-2606983D01*
G01X16829366Y-2543991D02*
G01X16829366Y-2664133D01*
G01X16789234Y-2543991D02*
G01X16869244Y-2543991D01*
G01X16916996Y-2543991D02*
G01X16916996Y-2664133D01*
G01X16997006Y-2543991D02*
G01X16997006Y-2664133D01*
G01X16916996Y-2601141D02*
G01X16997006Y-2601141D01*
G01X17995118Y-2543991D02*
G01X17995118Y-2664133D01*
G01X17995118Y-2543991D02*
G01X18046680Y-2543991D01*
G01X18063698Y-2549833D01*
G01X18069540Y-2555421D01*
G01X18075128Y-2566851D01*
G01X18075128Y-2578281D01*
G01X18069540Y-2589711D01*
G01X18063698Y-2595553D01*
G01X18046680Y-2601141D01*
G01X17995118Y-2601141D01*
G01X18035250Y-2601141D02*
G01X18075128Y-2664133D01*
G01X18151582Y-2584123D02*
G01X18140152Y-2589711D01*
G01X18128722Y-2601141D01*
G01X18122880Y-2618413D01*
G01X18122880Y-2629843D01*
G01X18128722Y-2646861D01*
G01X18140152Y-2658291D01*
G01X18151582Y-2664133D01*
G01X18168600Y-2664133D01*
G01X18180030Y-2658291D01*
G01X18191460Y-2646861D01*
G01X18197302Y-2629843D01*
G01X18197302Y-2618413D01*
G01X18191460Y-2601141D01*
G01X18180030Y-2589711D01*
G01X18168600Y-2584123D01*
G01X18151582Y-2584123D01*
G01X18245054Y-2584123D02*
G01X18245054Y-2641273D01*
G01X18250896Y-2658291D01*
G01X18262326Y-2664133D01*
G01X18279344Y-2664133D01*
G01X18290774Y-2658291D01*
G01X18308046Y-2641273D01*
G01X18308046Y-2584123D02*
G01X18308046Y-2664133D01*
G01X18355798Y-2584123D02*
G01X18355798Y-2664133D01*
G01X18355798Y-2606983D02*
G01X18373070Y-2589711D01*
G01X18384500Y-2584123D01*
G01X18401518Y-2584123D01*
G01X18412948Y-2589711D01*
G01X18418790Y-2606983D01*
G01X18418790Y-2664133D01*
G01X18535122Y-2543991D02*
G01X18535122Y-2664133D01*
G01X18535122Y-2601141D02*
G01X18523692Y-2589711D01*
G01X18512262Y-2584123D01*
G01X18495244Y-2584123D01*
G01X18483814Y-2589711D01*
G01X18472384Y-2601141D01*
G01X18466542Y-2618413D01*
G01X18466542Y-2629843D01*
G01X18472384Y-2646861D01*
G01X18483814Y-2658291D01*
G01X18495244Y-2664133D01*
G01X18512262Y-2664133D01*
G01X18523692Y-2658291D01*
G01X18535122Y-2646861D01*
G01X19426299Y-2543991D02*
G01X19472019Y-2664133D01*
G01X19517739Y-2543991D02*
G01X19472019Y-2664133D01*
G01X19565491Y-2543991D02*
G01X19571333Y-2549833D01*
G01X19576921Y-2543991D01*
G01X19571333Y-2538403D01*
G01X19565491Y-2543991D01*
G01X19571333Y-2584123D02*
G01X19571333Y-2664133D01*
G01X19693253Y-2584123D02*
G01X19693253Y-2664133D01*
G01X19693253Y-2601141D02*
G01X19681823Y-2589711D01*
G01X19670393Y-2584123D01*
G01X19653375Y-2584123D01*
G01X19641945Y-2589711D01*
G01X19630515Y-2601141D01*
G01X19624673Y-2618413D01*
G01X19624673Y-2629843D01*
G01X19630515Y-2646861D01*
G01X19641945Y-2658291D01*
G01X19653375Y-2664133D01*
G01X19670393Y-2664133D01*
G01X19681823Y-2658291D01*
G01X19693253Y-2646861D01*
G01X23054979Y-2543991D02*
G01X23054979Y-2664133D01*
G01X23014847Y-2543991D02*
G01X23094857Y-2543991D01*
G01X23171311Y-2584123D02*
G01X23159881Y-2589711D01*
G01X23148451Y-2601141D01*
G01X23142609Y-2618413D01*
G01X23142609Y-2629843D01*
G01X23148451Y-2646861D01*
G01X23159881Y-2658291D01*
G01X23171311Y-2664133D01*
G01X23188329Y-2664133D01*
G01X23199759Y-2658291D01*
G01X23211189Y-2646861D01*
G01X23217031Y-2629843D01*
G01X23217031Y-2618413D01*
G01X23211189Y-2601141D01*
G01X23199759Y-2589711D01*
G01X23188329Y-2584123D01*
G01X23171311Y-2584123D01*
G01X23264783Y-2584123D02*
G01X23264783Y-2704011D01*
G01X23264783Y-2601141D02*
G01X23276213Y-2589711D01*
G01X23287643Y-2584123D01*
G01X23304915Y-2584123D01*
G01X23316345Y-2589711D01*
G01X23327775Y-2601141D01*
G01X23333363Y-2618413D01*
G01X23333363Y-2629843D01*
G01X23327775Y-2646861D01*
G01X23316345Y-2658291D01*
G01X23304915Y-2664133D01*
G01X23287643Y-2664133D01*
G01X23276213Y-2658291D01*
G01X23264783Y-2646861D01*
G01X23509131Y-2543991D02*
G01X23509131Y-2664133D01*
G01X23509131Y-2664133D02*
G01X23577711Y-2664133D01*
G01X23694043Y-2584123D02*
G01X23694043Y-2664133D01*
G01X23694043Y-2601141D02*
G01X23682613Y-2589711D01*
G01X23671183Y-2584123D01*
G01X23654165Y-2584123D01*
G01X23642735Y-2589711D01*
G01X23631305Y-2601141D01*
G01X23625463Y-2618413D01*
G01X23625463Y-2629843D01*
G01X23631305Y-2646861D01*
G01X23642735Y-2658291D01*
G01X23654165Y-2664133D01*
G01X23671183Y-2664133D01*
G01X23682613Y-2658291D01*
G01X23694043Y-2646861D01*
G01X23747637Y-2584123D02*
G01X23781927Y-2664133D01*
G01X23816217Y-2584123D02*
G01X23781927Y-2664133D01*
G01X23770497Y-2686993D01*
G01X23759067Y-2698423D01*
G01X23747637Y-2704011D01*
G01X23741795Y-2704011D01*
G01X23863969Y-2618413D02*
G01X23932549Y-2618413D01*
G01X23932549Y-2606983D01*
G01X23926961Y-2595553D01*
G01X23921119Y-2589711D01*
G01X23909689Y-2584123D01*
G01X23892671Y-2584123D01*
G01X23881241Y-2589711D01*
G01X23869811Y-2601141D01*
G01X23863969Y-2618413D01*
G01X23863969Y-2629843D01*
G01X23869811Y-2646861D01*
G01X23881241Y-2658291D01*
G01X23892671Y-2664133D01*
G01X23909689Y-2664133D01*
G01X23921119Y-2658291D01*
G01X23932549Y-2646861D01*
G01X23980301Y-2584123D02*
G01X23980301Y-2664133D01*
G01X23980301Y-2618413D02*
G01X23986143Y-2601141D01*
G01X23997573Y-2589711D01*
G01X24009003Y-2584123D01*
G01X24026021Y-2584123D01*
G01X24073773Y-2612571D02*
G01X24176643Y-2612571D01*
G01X24224395Y-2543991D02*
G01X24224395Y-2664133D01*
G01X24224395Y-2543991D02*
G01X24275957Y-2543991D01*
G01X24292975Y-2549833D01*
G01X24298817Y-2555421D01*
G01X24304405Y-2566851D01*
G01X24304405Y-2578281D01*
G01X24298817Y-2589711D01*
G01X24292975Y-2595553D01*
G01X24275957Y-2601141D01*
G01X24224395Y-2601141D02*
G01X24275957Y-2601141D01*
G01X24292975Y-2606983D01*
G01X24298817Y-2612571D01*
G01X24304405Y-2624001D01*
G01X24304405Y-2641273D01*
G01X24298817Y-2652703D01*
G01X24292975Y-2658291D01*
G01X24275957Y-2664133D01*
G01X24224395Y-2664133D01*
G01X24380859Y-2584123D02*
G01X24369429Y-2589711D01*
G01X24357999Y-2601141D01*
G01X24352157Y-2618413D01*
G01X24352157Y-2629843D01*
G01X24357999Y-2646861D01*
G01X24369429Y-2658291D01*
G01X24380859Y-2664133D01*
G01X24397877Y-2664133D01*
G01X24409307Y-2658291D01*
G01X24420737Y-2646861D01*
G01X24426579Y-2629843D01*
G01X24426579Y-2618413D01*
G01X24420737Y-2601141D01*
G01X24409307Y-2589711D01*
G01X24397877Y-2584123D01*
G01X24380859Y-2584123D01*
G01X24491603Y-2543991D02*
G01X24491603Y-2641273D01*
G01X24497191Y-2658291D01*
G01X24508621Y-2664133D01*
G01X24520051Y-2664133D01*
G01X24474331Y-2584123D02*
G01X24514463Y-2584123D01*
G01X24585075Y-2543991D02*
G01X24585075Y-2641273D01*
G01X24590663Y-2658291D01*
G01X24602093Y-2664133D01*
G01X24613523Y-2664133D01*
G01X24567803Y-2584123D02*
G01X24607935Y-2584123D01*
G01X24689977Y-2584123D02*
G01X24678547Y-2589711D01*
G01X24667117Y-2601141D01*
G01X24661275Y-2618413D01*
G01X24661275Y-2629843D01*
G01X24667117Y-2646861D01*
G01X24678547Y-2658291D01*
G01X24689977Y-2664133D01*
G01X24706995Y-2664133D01*
G01X24718425Y-2658291D01*
G01X24729855Y-2646861D01*
G01X24735697Y-2629843D01*
G01X24735697Y-2618413D01*
G01X24729855Y-2601141D01*
G01X24718425Y-2589711D01*
G01X24706995Y-2584123D01*
G01X24689977Y-2584123D01*
G01X24783449Y-2584123D02*
G01X24783449Y-2664133D01*
G01X24783449Y-2606983D02*
G01X24800721Y-2589711D01*
G01X24812151Y-2584123D01*
G01X24829169Y-2584123D01*
G01X24840599Y-2589711D01*
G01X24846441Y-2606983D01*
G01X24846441Y-2664133D01*
G01X24846441Y-2606983D02*
G01X24863459Y-2589711D01*
G01X24874889Y-2584123D01*
G01X24892161Y-2584123D01*
G01X24903591Y-2589711D01*
G01X24909179Y-2606983D01*
G01X24909179Y-2664133D01*
G01X25084947Y-2543991D02*
G01X25084947Y-2664133D01*
G01X25084947Y-2664133D02*
G01X25153527Y-2664133D01*
G01X25269859Y-2584123D02*
G01X25269859Y-2664133D01*
G01X25269859Y-2601141D02*
G01X25258429Y-2589711D01*
G01X25246999Y-2584123D01*
G01X25229981Y-2584123D01*
G01X25218551Y-2589711D01*
G01X25207121Y-2601141D01*
G01X25201279Y-2618413D01*
G01X25201279Y-2629843D01*
G01X25207121Y-2646861D01*
G01X25218551Y-2658291D01*
G01X25229981Y-2664133D01*
G01X25246999Y-2664133D01*
G01X25258429Y-2658291D01*
G01X25269859Y-2646861D01*
G01X25323453Y-2584123D02*
G01X25357743Y-2664133D01*
G01X25392033Y-2584123D02*
G01X25357743Y-2664133D01*
G01X25346313Y-2686993D01*
G01X25334883Y-2698423D01*
G01X25323453Y-2704011D01*
G01X25317611Y-2704011D01*
G01X25439785Y-2618413D02*
G01X25508365Y-2618413D01*
G01X25508365Y-2606983D01*
G01X25502777Y-2595553D01*
G01X25496935Y-2589711D01*
G01X25485505Y-2584123D01*
G01X25468487Y-2584123D01*
G01X25457057Y-2589711D01*
G01X25445627Y-2601141D01*
G01X25439785Y-2618413D01*
G01X25439785Y-2629843D01*
G01X25445627Y-2646861D01*
G01X25457057Y-2658291D01*
G01X25468487Y-2664133D01*
G01X25485505Y-2664133D01*
G01X25496935Y-2658291D01*
G01X25508365Y-2646861D01*
G01X25556117Y-2584123D02*
G01X25556117Y-2664133D01*
G01X25556117Y-2618413D02*
G01X25561959Y-2601141D01*
G01X25573389Y-2589711D01*
G01X25584819Y-2584123D01*
G01X25601837Y-2584123D01*
G01X11078516Y-3153265D02*
G01X11078516Y-3147423D01*
G01X11084104Y-3135993D01*
G01X11089946Y-3130405D01*
G01X11101376Y-3124563D01*
G01X11124236Y-3124563D01*
G01X11135666Y-3130405D01*
G01X11141254Y-3135993D01*
G01X11147096Y-3147423D01*
G01X11147096Y-3158853D01*
G01X11141254Y-3170283D01*
G01X11129824Y-3187555D01*
G01X11072674Y-3244705D01*
G01X11152684Y-3244705D01*
G01X12498267Y-3124563D02*
G01X12561259Y-3124563D01*
G01X12526969Y-3170283D01*
G01X12543987Y-3170283D01*
G01X12555417Y-3176125D01*
G01X12561259Y-3181713D01*
G01X12566847Y-3198985D01*
G01X12566847Y-3210415D01*
G01X12561259Y-3227433D01*
G01X12549829Y-3238863D01*
G01X12532557Y-3244705D01*
G01X12515539Y-3244705D01*
G01X12498267Y-3238863D01*
G01X12492679Y-3233275D01*
G01X12486837Y-3221845D01*
G01X12694609Y-3124563D02*
G01X12637459Y-3244705D01*
G01X12614599Y-3124563D02*
G01X12694609Y-3124563D01*
G01X12748203Y-3216003D02*
G01X12742361Y-3221845D01*
G01X12748203Y-3227433D01*
G01X12753791Y-3221845D01*
G01X12748203Y-3216003D01*
G01X12858693Y-3124563D02*
G01X12801543Y-3204573D01*
G01X12887395Y-3204573D01*
G01X12858693Y-3124563D02*
G01X12858693Y-3244705D01*
G01X12935147Y-3164695D02*
G01X12935147Y-3244705D01*
G01X12935147Y-3187555D02*
G01X12952419Y-3170283D01*
G01X12963849Y-3164695D01*
G01X12980867Y-3164695D01*
G01X12992297Y-3170283D01*
G01X12998139Y-3187555D01*
G01X12998139Y-3244705D01*
G01X12998139Y-3187555D02*
G01X13015157Y-3170283D01*
G01X13026587Y-3164695D01*
G01X13043859Y-3164695D01*
G01X13055289Y-3170283D01*
G01X13060877Y-3187555D01*
G01X13060877Y-3244705D01*
G01X13108629Y-3124563D02*
G01X13114471Y-3130405D01*
G01X13120059Y-3124563D01*
G01X13114471Y-3118975D01*
G01X13108629Y-3124563D01*
G01X13114471Y-3164695D02*
G01X13114471Y-3244705D01*
G01X13167811Y-3124563D02*
G01X13167811Y-3244705D01*
G01X13255695Y-3101703D02*
G01X13244265Y-3113133D01*
G01X13232835Y-3130405D01*
G01X13221405Y-3153265D01*
G01X13215563Y-3181713D01*
G01X13215563Y-3204573D01*
G01X13221405Y-3233275D01*
G01X13232835Y-3256135D01*
G01X13244265Y-3273153D01*
G01X13255695Y-3284583D01*
G01X13337737Y-3124563D02*
G01X13320719Y-3130405D01*
G01X13309289Y-3147423D01*
G01X13303447Y-3176125D01*
G01X13303447Y-3193143D01*
G01X13309289Y-3221845D01*
G01X13320719Y-3238863D01*
G01X13337737Y-3244705D01*
G01X13349167Y-3244705D01*
G01X13366439Y-3238863D01*
G01X13377869Y-3221845D01*
G01X13383457Y-3193143D01*
G01X13383457Y-3176125D01*
G01X13377869Y-3147423D01*
G01X13366439Y-3130405D01*
G01X13349167Y-3124563D01*
G01X13337737Y-3124563D01*
G01X13437051Y-3216003D02*
G01X13431209Y-3221845D01*
G01X13437051Y-3227433D01*
G01X13442639Y-3221845D01*
G01X13437051Y-3216003D01*
G01X13564813Y-3164695D02*
G01X13558971Y-3181713D01*
G01X13547541Y-3193143D01*
G01X13530523Y-3198985D01*
G01X13524681Y-3198985D01*
G01X13507663Y-3193143D01*
G01X13496233Y-3181713D01*
G01X13490391Y-3164695D01*
G01X13490391Y-3158853D01*
G01X13496233Y-3141835D01*
G01X13507663Y-3130405D01*
G01X13524681Y-3124563D01*
G01X13530523Y-3124563D01*
G01X13547541Y-3130405D01*
G01X13558971Y-3141835D01*
G01X13564813Y-3164695D01*
G01X13564813Y-3193143D01*
G01X13558971Y-3221845D01*
G01X13547541Y-3238863D01*
G01X13530523Y-3244705D01*
G01X13519093Y-3244705D01*
G01X13501821Y-3238863D01*
G01X13496233Y-3227433D01*
G01X13681145Y-3124563D02*
G01X13623995Y-3124563D01*
G01X13618407Y-3176125D01*
G01X13623995Y-3170283D01*
G01X13641267Y-3164695D01*
G01X13658285Y-3164695D01*
G01X13675557Y-3170283D01*
G01X13686987Y-3181713D01*
G01X13692575Y-3198985D01*
G01X13692575Y-3210415D01*
G01X13686987Y-3227433D01*
G01X13675557Y-3238863D01*
G01X13658285Y-3244705D01*
G01X13641267Y-3244705D01*
G01X13623995Y-3238863D01*
G01X13618407Y-3233275D01*
G01X13612565Y-3221845D01*
G01X13774617Y-3124563D02*
G01X13757599Y-3130405D01*
G01X13746169Y-3147423D01*
G01X13740327Y-3176125D01*
G01X13740327Y-3193143D01*
G01X13746169Y-3221845D01*
G01X13757599Y-3238863D01*
G01X13774617Y-3244705D01*
G01X13786047Y-3244705D01*
G01X13803319Y-3238863D01*
G01X13814749Y-3221845D01*
G01X13820337Y-3193143D01*
G01X13820337Y-3176125D01*
G01X13814749Y-3147423D01*
G01X13803319Y-3130405D01*
G01X13786047Y-3124563D01*
G01X13774617Y-3124563D01*
G01X13868089Y-3164695D02*
G01X13868089Y-3244705D01*
G01X13868089Y-3187555D02*
G01X13885361Y-3170283D01*
G01X13896791Y-3164695D01*
G01X13913809Y-3164695D01*
G01X13925239Y-3170283D01*
G01X13931081Y-3187555D01*
G01X13931081Y-3244705D01*
G01X13931081Y-3187555D02*
G01X13948099Y-3170283D01*
G01X13959529Y-3164695D01*
G01X13976801Y-3164695D01*
G01X13988231Y-3170283D01*
G01X13993819Y-3187555D01*
G01X13993819Y-3244705D01*
G01X14041571Y-3164695D02*
G01X14041571Y-3244705D01*
G01X14041571Y-3187555D02*
G01X14058843Y-3170283D01*
G01X14070273Y-3164695D01*
G01X14087291Y-3164695D01*
G01X14098721Y-3170283D01*
G01X14104563Y-3187555D01*
G01X14104563Y-3244705D01*
G01X14104563Y-3187555D02*
G01X14121581Y-3170283D01*
G01X14133011Y-3164695D01*
G01X14150283Y-3164695D01*
G01X14161713Y-3170283D01*
G01X14167301Y-3187555D01*
G01X14167301Y-3244705D01*
G01X14215053Y-3101703D02*
G01X14226483Y-3113133D01*
G01X14237913Y-3130405D01*
G01X14249343Y-3153265D01*
G01X14255185Y-3181713D01*
G01X14255185Y-3204573D01*
G01X14249343Y-3233275D01*
G01X14237913Y-3256135D01*
G01X14226483Y-3273153D01*
G01X14215053Y-3284583D01*
G01X16533710Y-3124563D02*
G01X16533710Y-3244705D01*
G01X16533710Y-3124563D02*
G01X16613720Y-3244705D01*
G01X16613720Y-3124563D02*
G01X16613720Y-3244705D01*
G01X16661472Y-3124563D02*
G01X16661472Y-3244705D01*
G01X16661472Y-3124563D02*
G01X16713034Y-3124563D01*
G01X16730052Y-3130405D01*
G01X16735894Y-3135993D01*
G01X16741482Y-3147423D01*
G01X16741482Y-3164695D01*
G01X16735894Y-3176125D01*
G01X16730052Y-3181713D01*
G01X16713034Y-3187555D01*
G01X16661472Y-3187555D01*
G01X16829366Y-3124563D02*
G01X16829366Y-3244705D01*
G01X16789234Y-3124563D02*
G01X16869244Y-3124563D01*
G01X16916996Y-3124563D02*
G01X16916996Y-3244705D01*
G01X16997006Y-3124563D02*
G01X16997006Y-3244705D01*
G01X16916996Y-3181713D02*
G01X16997006Y-3181713D01*
G01X17995118Y-3124563D02*
G01X17995118Y-3244705D01*
G01X17995118Y-3124563D02*
G01X18046680Y-3124563D01*
G01X18063698Y-3130405D01*
G01X18069540Y-3135993D01*
G01X18075128Y-3147423D01*
G01X18075128Y-3158853D01*
G01X18069540Y-3170283D01*
G01X18063698Y-3176125D01*
G01X18046680Y-3181713D01*
G01X17995118Y-3181713D01*
G01X18035250Y-3181713D02*
G01X18075128Y-3244705D01*
G01X18151582Y-3164695D02*
G01X18140152Y-3170283D01*
G01X18128722Y-3181713D01*
G01X18122880Y-3198985D01*
G01X18122880Y-3210415D01*
G01X18128722Y-3227433D01*
G01X18140152Y-3238863D01*
G01X18151582Y-3244705D01*
G01X18168600Y-3244705D01*
G01X18180030Y-3238863D01*
G01X18191460Y-3227433D01*
G01X18197302Y-3210415D01*
G01X18197302Y-3198985D01*
G01X18191460Y-3181713D01*
G01X18180030Y-3170283D01*
G01X18168600Y-3164695D01*
G01X18151582Y-3164695D01*
G01X18245054Y-3164695D02*
G01X18245054Y-3221845D01*
G01X18250896Y-3238863D01*
G01X18262326Y-3244705D01*
G01X18279344Y-3244705D01*
G01X18290774Y-3238863D01*
G01X18308046Y-3221845D01*
G01X18308046Y-3164695D02*
G01X18308046Y-3244705D01*
G01X18355798Y-3164695D02*
G01X18355798Y-3244705D01*
G01X18355798Y-3187555D02*
G01X18373070Y-3170283D01*
G01X18384500Y-3164695D01*
G01X18401518Y-3164695D01*
G01X18412948Y-3170283D01*
G01X18418790Y-3187555D01*
G01X18418790Y-3244705D01*
G01X18535122Y-3124563D02*
G01X18535122Y-3244705D01*
G01X18535122Y-3181713D02*
G01X18523692Y-3170283D01*
G01X18512262Y-3164695D01*
G01X18495244Y-3164695D01*
G01X18483814Y-3170283D01*
G01X18472384Y-3181713D01*
G01X18466542Y-3198985D01*
G01X18466542Y-3210415D01*
G01X18472384Y-3227433D01*
G01X18483814Y-3238863D01*
G01X18495244Y-3244705D01*
G01X18512262Y-3244705D01*
G01X18523692Y-3238863D01*
G01X18535122Y-3227433D01*
G01X19426299Y-3124563D02*
G01X19472019Y-3244705D01*
G01X19517739Y-3124563D02*
G01X19472019Y-3244705D01*
G01X19565491Y-3124563D02*
G01X19571333Y-3130405D01*
G01X19576921Y-3124563D01*
G01X19571333Y-3118975D01*
G01X19565491Y-3124563D01*
G01X19571333Y-3164695D02*
G01X19571333Y-3244705D01*
G01X19693253Y-3164695D02*
G01X19693253Y-3244705D01*
G01X19693253Y-3181713D02*
G01X19681823Y-3170283D01*
G01X19670393Y-3164695D01*
G01X19653375Y-3164695D01*
G01X19641945Y-3170283D01*
G01X19630515Y-3181713D01*
G01X19624673Y-3198985D01*
G01X19624673Y-3210415D01*
G01X19630515Y-3227433D01*
G01X19641945Y-3238863D01*
G01X19653375Y-3244705D01*
G01X19670393Y-3244705D01*
G01X19681823Y-3238863D01*
G01X19693253Y-3227433D01*
G01X23054979Y-3124563D02*
G01X23054979Y-3244705D01*
G01X23014847Y-3124563D02*
G01X23094857Y-3124563D01*
G01X23171311Y-3164695D02*
G01X23159881Y-3170283D01*
G01X23148451Y-3181713D01*
G01X23142609Y-3198985D01*
G01X23142609Y-3210415D01*
G01X23148451Y-3227433D01*
G01X23159881Y-3238863D01*
G01X23171311Y-3244705D01*
G01X23188329Y-3244705D01*
G01X23199759Y-3238863D01*
G01X23211189Y-3227433D01*
G01X23217031Y-3210415D01*
G01X23217031Y-3198985D01*
G01X23211189Y-3181713D01*
G01X23199759Y-3170283D01*
G01X23188329Y-3164695D01*
G01X23171311Y-3164695D01*
G01X23264783Y-3164695D02*
G01X23264783Y-3284583D01*
G01X23264783Y-3181713D02*
G01X23276213Y-3170283D01*
G01X23287643Y-3164695D01*
G01X23304915Y-3164695D01*
G01X23316345Y-3170283D01*
G01X23327775Y-3181713D01*
G01X23333363Y-3198985D01*
G01X23333363Y-3210415D01*
G01X23327775Y-3227433D01*
G01X23316345Y-3238863D01*
G01X23304915Y-3244705D01*
G01X23287643Y-3244705D01*
G01X23276213Y-3238863D01*
G01X23264783Y-3227433D01*
G01X23509131Y-3124563D02*
G01X23509131Y-3244705D01*
G01X23509131Y-3244705D02*
G01X23577711Y-3244705D01*
G01X23694043Y-3164695D02*
G01X23694043Y-3244705D01*
G01X23694043Y-3181713D02*
G01X23682613Y-3170283D01*
G01X23671183Y-3164695D01*
G01X23654165Y-3164695D01*
G01X23642735Y-3170283D01*
G01X23631305Y-3181713D01*
G01X23625463Y-3198985D01*
G01X23625463Y-3210415D01*
G01X23631305Y-3227433D01*
G01X23642735Y-3238863D01*
G01X23654165Y-3244705D01*
G01X23671183Y-3244705D01*
G01X23682613Y-3238863D01*
G01X23694043Y-3227433D01*
G01X23747637Y-3164695D02*
G01X23781927Y-3244705D01*
G01X23816217Y-3164695D02*
G01X23781927Y-3244705D01*
G01X23770497Y-3267565D01*
G01X23759067Y-3278995D01*
G01X23747637Y-3284583D01*
G01X23741795Y-3284583D01*
G01X23863969Y-3198985D02*
G01X23932549Y-3198985D01*
G01X23932549Y-3187555D01*
G01X23926961Y-3176125D01*
G01X23921119Y-3170283D01*
G01X23909689Y-3164695D01*
G01X23892671Y-3164695D01*
G01X23881241Y-3170283D01*
G01X23869811Y-3181713D01*
G01X23863969Y-3198985D01*
G01X23863969Y-3210415D01*
G01X23869811Y-3227433D01*
G01X23881241Y-3238863D01*
G01X23892671Y-3244705D01*
G01X23909689Y-3244705D01*
G01X23921119Y-3238863D01*
G01X23932549Y-3227433D01*
G01X23980301Y-3164695D02*
G01X23980301Y-3244705D01*
G01X23980301Y-3198985D02*
G01X23986143Y-3181713D01*
G01X23997573Y-3170283D01*
G01X24009003Y-3164695D01*
G01X24026021Y-3164695D01*
G01X24073773Y-3193143D02*
G01X24176643Y-3193143D01*
G01X24224395Y-3124563D02*
G01X24224395Y-3244705D01*
G01X24224395Y-3124563D02*
G01X24275957Y-3124563D01*
G01X24292975Y-3130405D01*
G01X24298817Y-3135993D01*
G01X24304405Y-3147423D01*
G01X24304405Y-3158853D01*
G01X24298817Y-3170283D01*
G01X24292975Y-3176125D01*
G01X24275957Y-3181713D01*
G01X24224395Y-3181713D02*
G01X24275957Y-3181713D01*
G01X24292975Y-3187555D01*
G01X24298817Y-3193143D01*
G01X24304405Y-3204573D01*
G01X24304405Y-3221845D01*
G01X24298817Y-3233275D01*
G01X24292975Y-3238863D01*
G01X24275957Y-3244705D01*
G01X24224395Y-3244705D01*
G01X24380859Y-3164695D02*
G01X24369429Y-3170283D01*
G01X24357999Y-3181713D01*
G01X24352157Y-3198985D01*
G01X24352157Y-3210415D01*
G01X24357999Y-3227433D01*
G01X24369429Y-3238863D01*
G01X24380859Y-3244705D01*
G01X24397877Y-3244705D01*
G01X24409307Y-3238863D01*
G01X24420737Y-3227433D01*
G01X24426579Y-3210415D01*
G01X24426579Y-3198985D01*
G01X24420737Y-3181713D01*
G01X24409307Y-3170283D01*
G01X24397877Y-3164695D01*
G01X24380859Y-3164695D01*
G01X24491603Y-3124563D02*
G01X24491603Y-3221845D01*
G01X24497191Y-3238863D01*
G01X24508621Y-3244705D01*
G01X24520051Y-3244705D01*
G01X24474331Y-3164695D02*
G01X24514463Y-3164695D01*
G01X24585075Y-3124563D02*
G01X24585075Y-3221845D01*
G01X24590663Y-3238863D01*
G01X24602093Y-3244705D01*
G01X24613523Y-3244705D01*
G01X24567803Y-3164695D02*
G01X24607935Y-3164695D01*
G01X24689977Y-3164695D02*
G01X24678547Y-3170283D01*
G01X24667117Y-3181713D01*
G01X24661275Y-3198985D01*
G01X24661275Y-3210415D01*
G01X24667117Y-3227433D01*
G01X24678547Y-3238863D01*
G01X24689977Y-3244705D01*
G01X24706995Y-3244705D01*
G01X24718425Y-3238863D01*
G01X24729855Y-3227433D01*
G01X24735697Y-3210415D01*
G01X24735697Y-3198985D01*
G01X24729855Y-3181713D01*
G01X24718425Y-3170283D01*
G01X24706995Y-3164695D01*
G01X24689977Y-3164695D01*
G01X24783449Y-3164695D02*
G01X24783449Y-3244705D01*
G01X24783449Y-3187555D02*
G01X24800721Y-3170283D01*
G01X24812151Y-3164695D01*
G01X24829169Y-3164695D01*
G01X24840599Y-3170283D01*
G01X24846441Y-3187555D01*
G01X24846441Y-3244705D01*
G01X24846441Y-3187555D02*
G01X24863459Y-3170283D01*
G01X24874889Y-3164695D01*
G01X24892161Y-3164695D01*
G01X24903591Y-3170283D01*
G01X24909179Y-3187555D01*
G01X24909179Y-3244705D01*
G01X25084947Y-3124563D02*
G01X25084947Y-3244705D01*
G01X25084947Y-3244705D02*
G01X25153527Y-3244705D01*
G01X25269859Y-3164695D02*
G01X25269859Y-3244705D01*
G01X25269859Y-3181713D02*
G01X25258429Y-3170283D01*
G01X25246999Y-3164695D01*
G01X25229981Y-3164695D01*
G01X25218551Y-3170283D01*
G01X25207121Y-3181713D01*
G01X25201279Y-3198985D01*
G01X25201279Y-3210415D01*
G01X25207121Y-3227433D01*
G01X25218551Y-3238863D01*
G01X25229981Y-3244705D01*
G01X25246999Y-3244705D01*
G01X25258429Y-3238863D01*
G01X25269859Y-3227433D01*
G01X25323453Y-3164695D02*
G01X25357743Y-3244705D01*
G01X25392033Y-3164695D02*
G01X25357743Y-3244705D01*
G01X25346313Y-3267565D01*
G01X25334883Y-3278995D01*
G01X25323453Y-3284583D01*
G01X25317611Y-3284583D01*
G01X25439785Y-3198985D02*
G01X25508365Y-3198985D01*
G01X25508365Y-3187555D01*
G01X25502777Y-3176125D01*
G01X25496935Y-3170283D01*
G01X25485505Y-3164695D01*
G01X25468487Y-3164695D01*
G01X25457057Y-3170283D01*
G01X25445627Y-3181713D01*
G01X25439785Y-3198985D01*
G01X25439785Y-3210415D01*
G01X25445627Y-3227433D01*
G01X25457057Y-3238863D01*
G01X25468487Y-3244705D01*
G01X25485505Y-3244705D01*
G01X25496935Y-3238863D01*
G01X25508365Y-3227433D01*
G01X25556117Y-3164695D02*
G01X25556117Y-3244705D01*
G01X25556117Y-3198985D02*
G01X25561959Y-3181713D01*
G01X25573389Y-3170283D01*
G01X25584819Y-3164695D01*
G01X25601837Y-3164695D01*
G01X11129824Y-3705134D02*
G01X11072674Y-3785144D01*
G01X11158526Y-3785144D01*
G01X11129824Y-3705134D02*
G01X11129824Y-3825276D01*
G01X12498267Y-3705134D02*
G01X12561259Y-3705134D01*
G01X12526969Y-3750854D01*
G01X12543987Y-3750854D01*
G01X12555417Y-3756696D01*
G01X12561259Y-3762284D01*
G01X12566847Y-3779556D01*
G01X12566847Y-3790986D01*
G01X12561259Y-3808004D01*
G01X12549829Y-3819434D01*
G01X12532557Y-3825276D01*
G01X12515539Y-3825276D01*
G01X12498267Y-3819434D01*
G01X12492679Y-3813846D01*
G01X12486837Y-3802416D01*
G01X12689021Y-3745266D02*
G01X12683179Y-3762284D01*
G01X12671749Y-3773714D01*
G01X12654731Y-3779556D01*
G01X12648889Y-3779556D01*
G01X12631871Y-3773714D01*
G01X12620441Y-3762284D01*
G01X12614599Y-3745266D01*
G01X12614599Y-3739424D01*
G01X12620441Y-3722406D01*
G01X12631871Y-3710976D01*
G01X12648889Y-3705134D01*
G01X12654731Y-3705134D01*
G01X12671749Y-3710976D01*
G01X12683179Y-3722406D01*
G01X12689021Y-3745266D01*
G01X12689021Y-3773714D01*
G01X12683179Y-3802416D01*
G01X12671749Y-3819434D01*
G01X12654731Y-3825276D01*
G01X12643301Y-3825276D01*
G01X12626029Y-3819434D01*
G01X12620441Y-3808004D01*
G01X12742615Y-3796574D02*
G01X12736773Y-3802416D01*
G01X12742615Y-3808004D01*
G01X12748203Y-3802416D01*
G01X12742615Y-3796574D01*
G01X12853105Y-3705134D02*
G01X12795955Y-3785144D01*
G01X12881807Y-3785144D01*
G01X12853105Y-3705134D02*
G01X12853105Y-3825276D01*
G01X12929559Y-3745266D02*
G01X12992551Y-3825276D01*
G01X12992551Y-3745266D02*
G01X12929559Y-3825276D01*
G01X13051733Y-3705134D02*
G01X13114725Y-3705134D01*
G01X13080435Y-3750854D01*
G01X13097453Y-3750854D01*
G01X13108883Y-3756696D01*
G01X13114725Y-3762284D01*
G01X13120313Y-3779556D01*
G01X13120313Y-3790986D01*
G01X13114725Y-3808004D01*
G01X13103295Y-3819434D01*
G01X13086023Y-3825276D01*
G01X13069005Y-3825276D01*
G01X13051733Y-3819434D01*
G01X13046145Y-3813846D01*
G01X13040303Y-3802416D01*
G01X13242487Y-3745266D02*
G01X13236645Y-3762284D01*
G01X13225215Y-3773714D01*
G01X13208197Y-3779556D01*
G01X13202355Y-3779556D01*
G01X13185337Y-3773714D01*
G01X13173907Y-3762284D01*
G01X13168065Y-3745266D01*
G01X13168065Y-3739424D01*
G01X13173907Y-3722406D01*
G01X13185337Y-3710976D01*
G01X13202355Y-3705134D01*
G01X13208197Y-3705134D01*
G01X13225215Y-3710976D01*
G01X13236645Y-3722406D01*
G01X13242487Y-3745266D01*
G01X13242487Y-3773714D01*
G01X13236645Y-3802416D01*
G01X13225215Y-3819434D01*
G01X13208197Y-3825276D01*
G01X13196767Y-3825276D01*
G01X13179495Y-3819434D01*
G01X13173907Y-3808004D01*
G01X13296081Y-3796574D02*
G01X13290239Y-3802416D01*
G01X13296081Y-3808004D01*
G01X13301669Y-3802416D01*
G01X13296081Y-3796574D01*
G01X13406571Y-3705134D02*
G01X13349421Y-3785144D01*
G01X13435273Y-3785144D01*
G01X13406571Y-3705134D02*
G01X13406571Y-3825276D01*
G01X13483025Y-3745266D02*
G01X13483025Y-3825276D01*
G01X13483025Y-3768126D02*
G01X13500297Y-3750854D01*
G01X13511727Y-3745266D01*
G01X13528745Y-3745266D01*
G01X13540175Y-3750854D01*
G01X13546017Y-3768126D01*
G01X13546017Y-3825276D01*
G01X13546017Y-3768126D02*
G01X13563035Y-3750854D01*
G01X13574465Y-3745266D01*
G01X13591737Y-3745266D01*
G01X13603167Y-3750854D01*
G01X13608755Y-3768126D01*
G01X13608755Y-3825276D01*
G01X13656507Y-3705134D02*
G01X13662349Y-3710976D01*
G01X13667937Y-3705134D01*
G01X13662349Y-3699546D01*
G01X13656507Y-3705134D01*
G01X13662349Y-3745266D02*
G01X13662349Y-3825276D01*
G01X13715689Y-3705134D02*
G01X13715689Y-3825276D01*
G01X13803573Y-3682274D02*
G01X13792143Y-3693704D01*
G01X13780713Y-3710976D01*
G01X13769283Y-3733836D01*
G01X13763441Y-3762284D01*
G01X13763441Y-3785144D01*
G01X13769283Y-3813846D01*
G01X13780713Y-3836706D01*
G01X13792143Y-3853724D01*
G01X13803573Y-3865154D01*
G01X13851325Y-3727994D02*
G01X13862755Y-3722406D01*
G01X13880027Y-3705134D01*
G01X13880027Y-3825276D01*
G01X13933621Y-3796574D02*
G01X13927779Y-3802416D01*
G01X13933621Y-3808004D01*
G01X13939209Y-3802416D01*
G01X13933621Y-3796574D01*
G01X14021251Y-3705134D02*
G01X14004233Y-3710976D01*
G01X13992803Y-3727994D01*
G01X13986961Y-3756696D01*
G01X13986961Y-3773714D01*
G01X13992803Y-3802416D01*
G01X14004233Y-3819434D01*
G01X14021251Y-3825276D01*
G01X14032681Y-3825276D01*
G01X14049953Y-3819434D01*
G01X14061383Y-3802416D01*
G01X14066971Y-3773714D01*
G01X14066971Y-3756696D01*
G01X14061383Y-3727994D01*
G01X14049953Y-3710976D01*
G01X14032681Y-3705134D01*
G01X14021251Y-3705134D01*
G01X14149013Y-3705134D02*
G01X14131995Y-3710976D01*
G01X14120565Y-3727994D01*
G01X14114723Y-3756696D01*
G01X14114723Y-3773714D01*
G01X14120565Y-3802416D01*
G01X14131995Y-3819434D01*
G01X14149013Y-3825276D01*
G01X14160443Y-3825276D01*
G01X14177715Y-3819434D01*
G01X14189145Y-3802416D01*
G01X14194733Y-3773714D01*
G01X14194733Y-3756696D01*
G01X14189145Y-3727994D01*
G01X14177715Y-3710976D01*
G01X14160443Y-3705134D01*
G01X14149013Y-3705134D01*
G01X14276775Y-3705134D02*
G01X14259757Y-3710976D01*
G01X14248327Y-3727994D01*
G01X14242485Y-3756696D01*
G01X14242485Y-3773714D01*
G01X14248327Y-3802416D01*
G01X14259757Y-3819434D01*
G01X14276775Y-3825276D01*
G01X14288205Y-3825276D01*
G01X14305477Y-3819434D01*
G01X14316907Y-3802416D01*
G01X14322495Y-3773714D01*
G01X14322495Y-3756696D01*
G01X14316907Y-3727994D01*
G01X14305477Y-3710976D01*
G01X14288205Y-3705134D01*
G01X14276775Y-3705134D01*
G01X14370247Y-3745266D02*
G01X14433239Y-3825276D01*
G01X14433239Y-3745266D02*
G01X14370247Y-3825276D01*
G01X14480991Y-3727994D02*
G01X14492421Y-3722406D01*
G01X14509693Y-3705134D01*
G01X14509693Y-3825276D01*
G01X14563287Y-3796574D02*
G01X14557445Y-3802416D01*
G01X14563287Y-3808004D01*
G01X14568875Y-3802416D01*
G01X14563287Y-3796574D01*
G01X14650917Y-3705134D02*
G01X14633899Y-3710976D01*
G01X14622469Y-3727994D01*
G01X14616627Y-3756696D01*
G01X14616627Y-3773714D01*
G01X14622469Y-3802416D01*
G01X14633899Y-3819434D01*
G01X14650917Y-3825276D01*
G01X14662347Y-3825276D01*
G01X14679619Y-3819434D01*
G01X14691049Y-3802416D01*
G01X14696637Y-3773714D01*
G01X14696637Y-3756696D01*
G01X14691049Y-3727994D01*
G01X14679619Y-3710976D01*
G01X14662347Y-3705134D01*
G01X14650917Y-3705134D01*
G01X14778679Y-3705134D02*
G01X14761661Y-3710976D01*
G01X14750231Y-3727994D01*
G01X14744389Y-3756696D01*
G01X14744389Y-3773714D01*
G01X14750231Y-3802416D01*
G01X14761661Y-3819434D01*
G01X14778679Y-3825276D01*
G01X14790109Y-3825276D01*
G01X14807381Y-3819434D01*
G01X14818811Y-3802416D01*
G01X14824399Y-3773714D01*
G01X14824399Y-3756696D01*
G01X14818811Y-3727994D01*
G01X14807381Y-3710976D01*
G01X14790109Y-3705134D01*
G01X14778679Y-3705134D01*
G01X14906441Y-3705134D02*
G01X14889423Y-3710976D01*
G01X14877993Y-3727994D01*
G01X14872151Y-3756696D01*
G01X14872151Y-3773714D01*
G01X14877993Y-3802416D01*
G01X14889423Y-3819434D01*
G01X14906441Y-3825276D01*
G01X14917871Y-3825276D01*
G01X14935143Y-3819434D01*
G01X14946573Y-3802416D01*
G01X14952161Y-3773714D01*
G01X14952161Y-3756696D01*
G01X14946573Y-3727994D01*
G01X14935143Y-3710976D01*
G01X14917871Y-3705134D01*
G01X14906441Y-3705134D01*
G01X14999913Y-3745266D02*
G01X14999913Y-3825276D01*
G01X14999913Y-3768126D02*
G01X15017185Y-3750854D01*
G01X15028615Y-3745266D01*
G01X15045633Y-3745266D01*
G01X15057063Y-3750854D01*
G01X15062905Y-3768126D01*
G01X15062905Y-3825276D01*
G01X15062905Y-3768126D02*
G01X15079923Y-3750854D01*
G01X15091353Y-3745266D01*
G01X15108625Y-3745266D01*
G01X15120055Y-3750854D01*
G01X15125643Y-3768126D01*
G01X15125643Y-3825276D01*
G01X15173395Y-3745266D02*
G01X15173395Y-3825276D01*
G01X15173395Y-3768126D02*
G01X15190667Y-3750854D01*
G01X15202097Y-3745266D01*
G01X15219115Y-3745266D01*
G01X15230545Y-3750854D01*
G01X15236387Y-3768126D01*
G01X15236387Y-3825276D01*
G01X15236387Y-3768126D02*
G01X15253405Y-3750854D01*
G01X15264835Y-3745266D01*
G01X15282107Y-3745266D01*
G01X15293537Y-3750854D01*
G01X15299125Y-3768126D01*
G01X15299125Y-3825276D01*
G01X15346877Y-3682274D02*
G01X15358307Y-3693704D01*
G01X15369737Y-3710976D01*
G01X15381167Y-3733836D01*
G01X15387009Y-3762284D01*
G01X15387009Y-3785144D01*
G01X15381167Y-3813846D01*
G01X15369737Y-3836706D01*
G01X15358307Y-3853724D01*
G01X15346877Y-3865154D01*
G01X16533710Y-3705134D02*
G01X16533710Y-3825276D01*
G01X16533710Y-3705134D02*
G01X16585272Y-3705134D01*
G01X16602290Y-3710976D01*
G01X16608132Y-3716564D01*
G01X16613720Y-3727994D01*
G01X16613720Y-3745266D01*
G01X16608132Y-3756696D01*
G01X16602290Y-3762284D01*
G01X16585272Y-3768126D01*
G01X16533710Y-3768126D01*
G01X16701604Y-3705134D02*
G01X16701604Y-3825276D01*
G01X16661472Y-3705134D02*
G01X16741482Y-3705134D01*
G01X16789234Y-3705134D02*
G01X16789234Y-3825276D01*
G01X16869244Y-3705134D02*
G01X16869244Y-3825276D01*
G01X16789234Y-3762284D02*
G01X16869244Y-3762284D01*
G01X17995118Y-3705134D02*
G01X17995118Y-3825276D01*
G01X17995118Y-3705134D02*
G01X18046680Y-3705134D01*
G01X18063698Y-3710976D01*
G01X18069540Y-3716564D01*
G01X18075128Y-3727994D01*
G01X18075128Y-3739424D01*
G01X18069540Y-3750854D01*
G01X18063698Y-3756696D01*
G01X18046680Y-3762284D01*
G01X17995118Y-3762284D01*
G01X18035250Y-3762284D02*
G01X18075128Y-3825276D01*
G01X18151582Y-3745266D02*
G01X18140152Y-3750854D01*
G01X18128722Y-3762284D01*
G01X18122880Y-3779556D01*
G01X18122880Y-3790986D01*
G01X18128722Y-3808004D01*
G01X18140152Y-3819434D01*
G01X18151582Y-3825276D01*
G01X18168600Y-3825276D01*
G01X18180030Y-3819434D01*
G01X18191460Y-3808004D01*
G01X18197302Y-3790986D01*
G01X18197302Y-3779556D01*
G01X18191460Y-3762284D01*
G01X18180030Y-3750854D01*
G01X18168600Y-3745266D01*
G01X18151582Y-3745266D01*
G01X18245054Y-3745266D02*
G01X18245054Y-3802416D01*
G01X18250896Y-3819434D01*
G01X18262326Y-3825276D01*
G01X18279344Y-3825276D01*
G01X18290774Y-3819434D01*
G01X18308046Y-3802416D01*
G01X18308046Y-3745266D02*
G01X18308046Y-3825276D01*
G01X18355798Y-3745266D02*
G01X18355798Y-3825276D01*
G01X18355798Y-3768126D02*
G01X18373070Y-3750854D01*
G01X18384500Y-3745266D01*
G01X18401518Y-3745266D01*
G01X18412948Y-3750854D01*
G01X18418790Y-3768126D01*
G01X18418790Y-3825276D01*
G01X18535122Y-3705134D02*
G01X18535122Y-3825276D01*
G01X18535122Y-3762284D02*
G01X18523692Y-3750854D01*
G01X18512262Y-3745266D01*
G01X18495244Y-3745266D01*
G01X18483814Y-3750854D01*
G01X18472384Y-3762284D01*
G01X18466542Y-3779556D01*
G01X18466542Y-3790986D01*
G01X18472384Y-3808004D01*
G01X18483814Y-3819434D01*
G01X18495244Y-3825276D01*
G01X18512262Y-3825276D01*
G01X18523692Y-3819434D01*
G01X18535122Y-3808004D01*
G01X19426299Y-3705134D02*
G01X19426299Y-3825276D01*
G01X19426299Y-3705134D02*
G01X19477861Y-3705134D01*
G01X19494879Y-3710976D01*
G01X19500721Y-3716564D01*
G01X19506309Y-3727994D01*
G01X19506309Y-3745266D01*
G01X19500721Y-3756696D01*
G01X19494879Y-3762284D01*
G01X19477861Y-3768126D01*
G01X19426299Y-3768126D01*
G01X19622641Y-3745266D02*
G01X19622641Y-3825276D01*
G01X19622641Y-3762284D02*
G01X19611211Y-3750854D01*
G01X19599781Y-3745266D01*
G01X19582763Y-3745266D01*
G01X19571333Y-3750854D01*
G01X19559903Y-3762284D01*
G01X19554061Y-3779556D01*
G01X19554061Y-3790986D01*
G01X19559903Y-3808004D01*
G01X19571333Y-3819434D01*
G01X19582763Y-3825276D01*
G01X19599781Y-3825276D01*
G01X19611211Y-3819434D01*
G01X19622641Y-3808004D01*
G01X19738973Y-3705134D02*
G01X19738973Y-3825276D01*
G01X19738973Y-3762284D02*
G01X19727543Y-3750854D01*
G01X19716113Y-3745266D01*
G01X19699095Y-3745266D01*
G01X19687665Y-3750854D01*
G01X19676235Y-3762284D01*
G01X19670393Y-3779556D01*
G01X19670393Y-3790986D01*
G01X19676235Y-3808004D01*
G01X19687665Y-3819434D01*
G01X19699095Y-3825276D01*
G01X19716113Y-3825276D01*
G01X19727543Y-3819434D01*
G01X19738973Y-3808004D01*
G01X21095478Y-3705134D02*
G01X21095478Y-3825276D01*
G01X21095478Y-3705134D02*
G01X21147040Y-3705134D01*
G01X21164058Y-3710976D01*
G01X21169900Y-3716564D01*
G01X21175488Y-3727994D01*
G01X21175488Y-3739424D01*
G01X21169900Y-3750854D01*
G01X21164058Y-3756696D01*
G01X21147040Y-3762284D01*
G01X21095478Y-3762284D01*
G01X21135610Y-3762284D02*
G01X21175488Y-3825276D01*
G01X21251942Y-3745266D02*
G01X21240512Y-3750854D01*
G01X21229082Y-3762284D01*
G01X21223240Y-3779556D01*
G01X21223240Y-3790986D01*
G01X21229082Y-3808004D01*
G01X21240512Y-3819434D01*
G01X21251942Y-3825276D01*
G01X21268960Y-3825276D01*
G01X21280390Y-3819434D01*
G01X21291820Y-3808004D01*
G01X21297662Y-3790986D01*
G01X21297662Y-3779556D01*
G01X21291820Y-3762284D01*
G01X21280390Y-3750854D01*
G01X21268960Y-3745266D01*
G01X21251942Y-3745266D01*
G01X21345414Y-3745266D02*
G01X21345414Y-3802416D01*
G01X21351256Y-3819434D01*
G01X21362686Y-3825276D01*
G01X21379704Y-3825276D01*
G01X21391134Y-3819434D01*
G01X21408406Y-3802416D01*
G01X21408406Y-3745266D02*
G01X21408406Y-3825276D01*
G01X21456158Y-3745266D02*
G01X21456158Y-3825276D01*
G01X21456158Y-3768126D02*
G01X21473430Y-3750854D01*
G01X21484860Y-3745266D01*
G01X21501878Y-3745266D01*
G01X21513308Y-3750854D01*
G01X21519150Y-3768126D01*
G01X21519150Y-3825276D01*
G01X21635482Y-3705134D02*
G01X21635482Y-3825276D01*
G01X21635482Y-3762284D02*
G01X21624052Y-3750854D01*
G01X21612622Y-3745266D01*
G01X21595604Y-3745266D01*
G01X21584174Y-3750854D01*
G01X21572744Y-3762284D01*
G01X21566902Y-3779556D01*
G01X21566902Y-3790986D01*
G01X21572744Y-3808004D01*
G01X21584174Y-3819434D01*
G01X21595604Y-3825276D01*
G01X21612622Y-3825276D01*
G01X21624052Y-3819434D01*
G01X21635482Y-3808004D01*
G01X23054979Y-3705134D02*
G01X23054979Y-3825276D01*
G01X23014847Y-3705134D02*
G01X23094857Y-3705134D01*
G01X23171311Y-3745266D02*
G01X23159881Y-3750854D01*
G01X23148451Y-3762284D01*
G01X23142609Y-3779556D01*
G01X23142609Y-3790986D01*
G01X23148451Y-3808004D01*
G01X23159881Y-3819434D01*
G01X23171311Y-3825276D01*
G01X23188329Y-3825276D01*
G01X23199759Y-3819434D01*
G01X23211189Y-3808004D01*
G01X23217031Y-3790986D01*
G01X23217031Y-3779556D01*
G01X23211189Y-3762284D01*
G01X23199759Y-3750854D01*
G01X23188329Y-3745266D01*
G01X23171311Y-3745266D01*
G01X23264783Y-3745266D02*
G01X23264783Y-3865154D01*
G01X23264783Y-3762284D02*
G01X23276213Y-3750854D01*
G01X23287643Y-3745266D01*
G01X23304915Y-3745266D01*
G01X23316345Y-3750854D01*
G01X23327775Y-3762284D01*
G01X23333363Y-3779556D01*
G01X23333363Y-3790986D01*
G01X23327775Y-3808004D01*
G01X23316345Y-3819434D01*
G01X23304915Y-3825276D01*
G01X23287643Y-3825276D01*
G01X23276213Y-3819434D01*
G01X23264783Y-3808004D01*
G01X23509131Y-3705134D02*
G01X23509131Y-3825276D01*
G01X23509131Y-3825276D02*
G01X23577711Y-3825276D01*
G01X23694043Y-3745266D02*
G01X23694043Y-3825276D01*
G01X23694043Y-3762284D02*
G01X23682613Y-3750854D01*
G01X23671183Y-3745266D01*
G01X23654165Y-3745266D01*
G01X23642735Y-3750854D01*
G01X23631305Y-3762284D01*
G01X23625463Y-3779556D01*
G01X23625463Y-3790986D01*
G01X23631305Y-3808004D01*
G01X23642735Y-3819434D01*
G01X23654165Y-3825276D01*
G01X23671183Y-3825276D01*
G01X23682613Y-3819434D01*
G01X23694043Y-3808004D01*
G01X23747637Y-3745266D02*
G01X23781927Y-3825276D01*
G01X23816217Y-3745266D02*
G01X23781927Y-3825276D01*
G01X23770497Y-3848136D01*
G01X23759067Y-3859566D01*
G01X23747637Y-3865154D01*
G01X23741795Y-3865154D01*
G01X23863969Y-3779556D02*
G01X23932549Y-3779556D01*
G01X23932549Y-3768126D01*
G01X23926961Y-3756696D01*
G01X23921119Y-3750854D01*
G01X23909689Y-3745266D01*
G01X23892671Y-3745266D01*
G01X23881241Y-3750854D01*
G01X23869811Y-3762284D01*
G01X23863969Y-3779556D01*
G01X23863969Y-3790986D01*
G01X23869811Y-3808004D01*
G01X23881241Y-3819434D01*
G01X23892671Y-3825276D01*
G01X23909689Y-3825276D01*
G01X23921119Y-3819434D01*
G01X23932549Y-3808004D01*
G01X23980301Y-3745266D02*
G01X23980301Y-3825276D01*
G01X23980301Y-3779556D02*
G01X23986143Y-3762284D01*
G01X23997573Y-3750854D01*
G01X24009003Y-3745266D01*
G01X24026021Y-3745266D01*
G01X24073773Y-3773714D02*
G01X24176643Y-3773714D01*
G01X24224395Y-3705134D02*
G01X24224395Y-3825276D01*
G01X24224395Y-3705134D02*
G01X24275957Y-3705134D01*
G01X24292975Y-3710976D01*
G01X24298817Y-3716564D01*
G01X24304405Y-3727994D01*
G01X24304405Y-3739424D01*
G01X24298817Y-3750854D01*
G01X24292975Y-3756696D01*
G01X24275957Y-3762284D01*
G01X24224395Y-3762284D02*
G01X24275957Y-3762284D01*
G01X24292975Y-3768126D01*
G01X24298817Y-3773714D01*
G01X24304405Y-3785144D01*
G01X24304405Y-3802416D01*
G01X24298817Y-3813846D01*
G01X24292975Y-3819434D01*
G01X24275957Y-3825276D01*
G01X24224395Y-3825276D01*
G01X24380859Y-3745266D02*
G01X24369429Y-3750854D01*
G01X24357999Y-3762284D01*
G01X24352157Y-3779556D01*
G01X24352157Y-3790986D01*
G01X24357999Y-3808004D01*
G01X24369429Y-3819434D01*
G01X24380859Y-3825276D01*
G01X24397877Y-3825276D01*
G01X24409307Y-3819434D01*
G01X24420737Y-3808004D01*
G01X24426579Y-3790986D01*
G01X24426579Y-3779556D01*
G01X24420737Y-3762284D01*
G01X24409307Y-3750854D01*
G01X24397877Y-3745266D01*
G01X24380859Y-3745266D01*
G01X24491603Y-3705134D02*
G01X24491603Y-3802416D01*
G01X24497191Y-3819434D01*
G01X24508621Y-3825276D01*
G01X24520051Y-3825276D01*
G01X24474331Y-3745266D02*
G01X24514463Y-3745266D01*
G01X24585075Y-3705134D02*
G01X24585075Y-3802416D01*
G01X24590663Y-3819434D01*
G01X24602093Y-3825276D01*
G01X24613523Y-3825276D01*
G01X24567803Y-3745266D02*
G01X24607935Y-3745266D01*
G01X24689977Y-3745266D02*
G01X24678547Y-3750854D01*
G01X24667117Y-3762284D01*
G01X24661275Y-3779556D01*
G01X24661275Y-3790986D01*
G01X24667117Y-3808004D01*
G01X24678547Y-3819434D01*
G01X24689977Y-3825276D01*
G01X24706995Y-3825276D01*
G01X24718425Y-3819434D01*
G01X24729855Y-3808004D01*
G01X24735697Y-3790986D01*
G01X24735697Y-3779556D01*
G01X24729855Y-3762284D01*
G01X24718425Y-3750854D01*
G01X24706995Y-3745266D01*
G01X24689977Y-3745266D01*
G01X24783449Y-3745266D02*
G01X24783449Y-3825276D01*
G01X24783449Y-3768126D02*
G01X24800721Y-3750854D01*
G01X24812151Y-3745266D01*
G01X24829169Y-3745266D01*
G01X24840599Y-3750854D01*
G01X24846441Y-3768126D01*
G01X24846441Y-3825276D01*
G01X24846441Y-3768126D02*
G01X24863459Y-3750854D01*
G01X24874889Y-3745266D01*
G01X24892161Y-3745266D01*
G01X24903591Y-3750854D01*
G01X24909179Y-3768126D01*
G01X24909179Y-3825276D01*
G01X25084947Y-3705134D02*
G01X25084947Y-3825276D01*
G01X25084947Y-3825276D02*
G01X25153527Y-3825276D01*
G01X25269859Y-3745266D02*
G01X25269859Y-3825276D01*
G01X25269859Y-3762284D02*
G01X25258429Y-3750854D01*
G01X25246999Y-3745266D01*
G01X25229981Y-3745266D01*
G01X25218551Y-3750854D01*
G01X25207121Y-3762284D01*
G01X25201279Y-3779556D01*
G01X25201279Y-3790986D01*
G01X25207121Y-3808004D01*
G01X25218551Y-3819434D01*
G01X25229981Y-3825276D01*
G01X25246999Y-3825276D01*
G01X25258429Y-3819434D01*
G01X25269859Y-3808004D01*
G01X25323453Y-3745266D02*
G01X25357743Y-3825276D01*
G01X25392033Y-3745266D02*
G01X25357743Y-3825276D01*
G01X25346313Y-3848136D01*
G01X25334883Y-3859566D01*
G01X25323453Y-3865154D01*
G01X25317611Y-3865154D01*
G01X25439785Y-3779556D02*
G01X25508365Y-3779556D01*
G01X25508365Y-3768126D01*
G01X25502777Y-3756696D01*
G01X25496935Y-3750854D01*
G01X25485505Y-3745266D01*
G01X25468487Y-3745266D01*
G01X25457057Y-3750854D01*
G01X25445627Y-3762284D01*
G01X25439785Y-3779556D01*
G01X25439785Y-3790986D01*
G01X25445627Y-3808004D01*
G01X25457057Y-3819434D01*
G01X25468487Y-3825276D01*
G01X25485505Y-3825276D01*
G01X25496935Y-3819434D01*
G01X25508365Y-3808004D01*
G01X25556117Y-3745266D02*
G01X25556117Y-3825276D01*
G01X25556117Y-3779556D02*
G01X25561959Y-3762284D01*
G01X25573389Y-3750854D01*
G01X25584819Y-3745266D01*
G01X25601837Y-3745266D01*
G01X11147096Y-4325838D02*
G01X11141254Y-4342856D01*
G01X11129824Y-4354286D01*
G01X11112806Y-4360128D01*
G01X11106964Y-4360128D01*
G01X11089946Y-4354286D01*
G01X11078516Y-4342856D01*
G01X11072674Y-4325838D01*
G01X11072674Y-4319996D01*
G01X11078516Y-4302978D01*
G01X11089946Y-4291548D01*
G01X11106964Y-4285706D01*
G01X11112806Y-4285706D01*
G01X11129824Y-4291548D01*
G01X11141254Y-4302978D01*
G01X11147096Y-4325838D01*
G01X11147096Y-4354286D01*
G01X11141254Y-4382988D01*
G01X11129824Y-4400006D01*
G01X11112806Y-4405848D01*
G01X11101376Y-4405848D01*
G01X11084104Y-4400006D01*
G01X11078516Y-4388576D01*
G01X11206278Y-4285706D02*
G01X11269270Y-4285706D01*
G01X11234980Y-4331426D01*
G01X11251998Y-4331426D01*
G01X11263428Y-4337268D01*
G01X11269270Y-4342856D01*
G01X11274858Y-4360128D01*
G01X11274858Y-4371558D01*
G01X11269270Y-4388576D01*
G01X11257840Y-4400006D01*
G01X11240568Y-4405848D01*
G01X11223550Y-4405848D01*
G01X11206278Y-4400006D01*
G01X11200690Y-4394418D01*
G01X11194848Y-4382988D01*
G01X12486837Y-4308566D02*
G01X12498267Y-4302978D01*
G01X12515539Y-4285706D01*
G01X12515539Y-4405848D01*
G01X12569133Y-4314408D02*
G01X12569133Y-4308566D01*
G01X12574721Y-4297136D01*
G01X12580563Y-4291548D01*
G01X12591993Y-4285706D01*
G01X12614853Y-4285706D01*
G01X12626283Y-4291548D01*
G01X12631871Y-4297136D01*
G01X12637713Y-4308566D01*
G01X12637713Y-4319996D01*
G01X12631871Y-4331426D01*
G01X12620441Y-4348698D01*
G01X12563291Y-4405848D01*
G01X12643301Y-4405848D01*
G01X12696895Y-4377146D02*
G01X12691053Y-4382988D01*
G01X12696895Y-4388576D01*
G01X12702483Y-4382988D01*
G01X12696895Y-4377146D01*
G01X12784525Y-4285706D02*
G01X12767507Y-4291548D01*
G01X12756077Y-4308566D01*
G01X12750235Y-4337268D01*
G01X12750235Y-4354286D01*
G01X12756077Y-4382988D01*
G01X12767507Y-4400006D01*
G01X12784525Y-4405848D01*
G01X12795955Y-4405848D01*
G01X12813227Y-4400006D01*
G01X12824657Y-4382988D01*
G01X12830245Y-4354286D01*
G01X12830245Y-4337268D01*
G01X12824657Y-4308566D01*
G01X12813227Y-4291548D01*
G01X12795955Y-4285706D01*
G01X12784525Y-4285706D01*
G01X12877997Y-4325838D02*
G01X12877997Y-4405848D01*
G01X12877997Y-4348698D02*
G01X12895269Y-4331426D01*
G01X12906699Y-4325838D01*
G01X12923717Y-4325838D01*
G01X12935147Y-4331426D01*
G01X12940989Y-4348698D01*
G01X12940989Y-4405848D01*
G01X12940989Y-4348698D02*
G01X12958007Y-4331426D01*
G01X12969437Y-4325838D01*
G01X12986709Y-4325838D01*
G01X12998139Y-4331426D01*
G01X13003727Y-4348698D01*
G01X13003727Y-4405848D01*
G01X13051479Y-4285706D02*
G01X13057321Y-4291548D01*
G01X13062909Y-4285706D01*
G01X13057321Y-4280118D01*
G01X13051479Y-4285706D01*
G01X13057321Y-4325838D02*
G01X13057321Y-4405848D01*
G01X13110661Y-4285706D02*
G01X13110661Y-4405848D01*
G01X13198545Y-4262846D02*
G01X13187115Y-4274276D01*
G01X13175685Y-4291548D01*
G01X13164255Y-4314408D01*
G01X13158413Y-4342856D01*
G01X13158413Y-4365716D01*
G01X13164255Y-4394418D01*
G01X13175685Y-4417278D01*
G01X13187115Y-4434296D01*
G01X13198545Y-4445726D01*
G01X13280587Y-4285706D02*
G01X13263569Y-4291548D01*
G01X13252139Y-4308566D01*
G01X13246297Y-4337268D01*
G01X13246297Y-4354286D01*
G01X13252139Y-4382988D01*
G01X13263569Y-4400006D01*
G01X13280587Y-4405848D01*
G01X13292017Y-4405848D01*
G01X13309289Y-4400006D01*
G01X13320719Y-4382988D01*
G01X13326307Y-4354286D01*
G01X13326307Y-4337268D01*
G01X13320719Y-4308566D01*
G01X13309289Y-4291548D01*
G01X13292017Y-4285706D01*
G01X13280587Y-4285706D01*
G01X13379901Y-4377146D02*
G01X13374059Y-4382988D01*
G01X13379901Y-4388576D01*
G01X13385489Y-4382988D01*
G01X13379901Y-4377146D01*
G01X13444671Y-4285706D02*
G01X13507663Y-4285706D01*
G01X13473373Y-4331426D01*
G01X13490391Y-4331426D01*
G01X13501821Y-4337268D01*
G01X13507663Y-4342856D01*
G01X13513251Y-4360128D01*
G01X13513251Y-4371558D01*
G01X13507663Y-4388576D01*
G01X13496233Y-4400006D01*
G01X13478961Y-4405848D01*
G01X13461943Y-4405848D01*
G01X13444671Y-4400006D01*
G01X13439083Y-4394418D01*
G01X13433241Y-4382988D01*
G01X13595293Y-4285706D02*
G01X13578275Y-4291548D01*
G01X13566845Y-4308566D01*
G01X13561003Y-4337268D01*
G01X13561003Y-4354286D01*
G01X13566845Y-4382988D01*
G01X13578275Y-4400006D01*
G01X13595293Y-4405848D01*
G01X13606723Y-4405848D01*
G01X13623995Y-4400006D01*
G01X13635425Y-4382988D01*
G01X13641013Y-4354286D01*
G01X13641013Y-4337268D01*
G01X13635425Y-4308566D01*
G01X13623995Y-4291548D01*
G01X13606723Y-4285706D01*
G01X13595293Y-4285706D01*
G01X13757345Y-4285706D02*
G01X13700195Y-4285706D01*
G01X13694607Y-4337268D01*
G01X13700195Y-4331426D01*
G01X13717467Y-4325838D01*
G01X13734485Y-4325838D01*
G01X13751757Y-4331426D01*
G01X13763187Y-4342856D01*
G01X13768775Y-4360128D01*
G01X13768775Y-4371558D01*
G01X13763187Y-4388576D01*
G01X13751757Y-4400006D01*
G01X13734485Y-4405848D01*
G01X13717467Y-4405848D01*
G01X13700195Y-4400006D01*
G01X13694607Y-4394418D01*
G01X13688765Y-4382988D01*
G01X13816527Y-4325838D02*
G01X13816527Y-4405848D01*
G01X13816527Y-4348698D02*
G01X13833799Y-4331426D01*
G01X13845229Y-4325838D01*
G01X13862247Y-4325838D01*
G01X13873677Y-4331426D01*
G01X13879519Y-4348698D01*
G01X13879519Y-4405848D01*
G01X13879519Y-4348698D02*
G01X13896537Y-4331426D01*
G01X13907967Y-4325838D01*
G01X13925239Y-4325838D01*
G01X13936669Y-4331426D01*
G01X13942257Y-4348698D01*
G01X13942257Y-4405848D01*
G01X13990009Y-4325838D02*
G01X13990009Y-4405848D01*
G01X13990009Y-4348698D02*
G01X14007281Y-4331426D01*
G01X14018711Y-4325838D01*
G01X14035729Y-4325838D01*
G01X14047159Y-4331426D01*
G01X14053001Y-4348698D01*
G01X14053001Y-4405848D01*
G01X14053001Y-4348698D02*
G01X14070019Y-4331426D01*
G01X14081449Y-4325838D01*
G01X14098721Y-4325838D01*
G01X14110151Y-4331426D01*
G01X14115739Y-4348698D01*
G01X14115739Y-4405848D01*
G01X14163491Y-4262846D02*
G01X14174921Y-4274276D01*
G01X14186351Y-4291548D01*
G01X14197781Y-4314408D01*
G01X14203623Y-4342856D01*
G01X14203623Y-4365716D01*
G01X14197781Y-4394418D01*
G01X14186351Y-4417278D01*
G01X14174921Y-4434296D01*
G01X14163491Y-4445726D01*
G01X16533710Y-4285706D02*
G01X16533710Y-4405848D01*
G01X16533710Y-4285706D02*
G01X16585272Y-4285706D01*
G01X16602290Y-4291548D01*
G01X16608132Y-4297136D01*
G01X16613720Y-4308566D01*
G01X16613720Y-4325838D01*
G01X16608132Y-4337268D01*
G01X16602290Y-4342856D01*
G01X16585272Y-4348698D01*
G01X16533710Y-4348698D01*
G01X16701604Y-4285706D02*
G01X16701604Y-4405848D01*
G01X16661472Y-4285706D02*
G01X16741482Y-4285706D01*
G01X16789234Y-4285706D02*
G01X16789234Y-4405848D01*
G01X16869244Y-4285706D02*
G01X16869244Y-4405848D01*
G01X16789234Y-4342856D02*
G01X16869244Y-4342856D01*
G01X17995118Y-4285706D02*
G01X17995118Y-4405848D01*
G01X17995118Y-4285706D02*
G01X18046680Y-4285706D01*
G01X18063698Y-4291548D01*
G01X18069540Y-4297136D01*
G01X18075128Y-4308566D01*
G01X18075128Y-4319996D01*
G01X18069540Y-4331426D01*
G01X18063698Y-4337268D01*
G01X18046680Y-4342856D01*
G01X17995118Y-4342856D01*
G01X18035250Y-4342856D02*
G01X18075128Y-4405848D01*
G01X18151582Y-4325838D02*
G01X18140152Y-4331426D01*
G01X18128722Y-4342856D01*
G01X18122880Y-4360128D01*
G01X18122880Y-4371558D01*
G01X18128722Y-4388576D01*
G01X18140152Y-4400006D01*
G01X18151582Y-4405848D01*
G01X18168600Y-4405848D01*
G01X18180030Y-4400006D01*
G01X18191460Y-4388576D01*
G01X18197302Y-4371558D01*
G01X18197302Y-4360128D01*
G01X18191460Y-4342856D01*
G01X18180030Y-4331426D01*
G01X18168600Y-4325838D01*
G01X18151582Y-4325838D01*
G01X18245054Y-4325838D02*
G01X18245054Y-4382988D01*
G01X18250896Y-4400006D01*
G01X18262326Y-4405848D01*
G01X18279344Y-4405848D01*
G01X18290774Y-4400006D01*
G01X18308046Y-4382988D01*
G01X18308046Y-4325838D02*
G01X18308046Y-4405848D01*
G01X18355798Y-4325838D02*
G01X18355798Y-4405848D01*
G01X18355798Y-4348698D02*
G01X18373070Y-4331426D01*
G01X18384500Y-4325838D01*
G01X18401518Y-4325838D01*
G01X18412948Y-4331426D01*
G01X18418790Y-4348698D01*
G01X18418790Y-4405848D01*
G01X18535122Y-4285706D02*
G01X18535122Y-4405848D01*
G01X18535122Y-4342856D02*
G01X18523692Y-4331426D01*
G01X18512262Y-4325838D01*
G01X18495244Y-4325838D01*
G01X18483814Y-4331426D01*
G01X18472384Y-4342856D01*
G01X18466542Y-4360128D01*
G01X18466542Y-4371558D01*
G01X18472384Y-4388576D01*
G01X18483814Y-4400006D01*
G01X18495244Y-4405848D01*
G01X18512262Y-4405848D01*
G01X18523692Y-4400006D01*
G01X18535122Y-4388576D01*
G01X19426299Y-4285706D02*
G01X19472019Y-4405848D01*
G01X19517739Y-4285706D02*
G01X19472019Y-4405848D01*
G01X19565491Y-4285706D02*
G01X19571333Y-4291548D01*
G01X19576921Y-4285706D01*
G01X19571333Y-4280118D01*
G01X19565491Y-4285706D01*
G01X19571333Y-4325838D02*
G01X19571333Y-4405848D01*
G01X19693253Y-4325838D02*
G01X19693253Y-4405848D01*
G01X19693253Y-4342856D02*
G01X19681823Y-4331426D01*
G01X19670393Y-4325838D01*
G01X19653375Y-4325838D01*
G01X19641945Y-4331426D01*
G01X19630515Y-4342856D01*
G01X19624673Y-4360128D01*
G01X19624673Y-4371558D01*
G01X19630515Y-4388576D01*
G01X19641945Y-4400006D01*
G01X19653375Y-4405848D01*
G01X19670393Y-4405848D01*
G01X19681823Y-4400006D01*
G01X19693253Y-4388576D01*
G01X23054979Y-4285706D02*
G01X23054979Y-4405848D01*
G01X23014847Y-4285706D02*
G01X23094857Y-4285706D01*
G01X23171311Y-4325838D02*
G01X23159881Y-4331426D01*
G01X23148451Y-4342856D01*
G01X23142609Y-4360128D01*
G01X23142609Y-4371558D01*
G01X23148451Y-4388576D01*
G01X23159881Y-4400006D01*
G01X23171311Y-4405848D01*
G01X23188329Y-4405848D01*
G01X23199759Y-4400006D01*
G01X23211189Y-4388576D01*
G01X23217031Y-4371558D01*
G01X23217031Y-4360128D01*
G01X23211189Y-4342856D01*
G01X23199759Y-4331426D01*
G01X23188329Y-4325838D01*
G01X23171311Y-4325838D01*
G01X23264783Y-4325838D02*
G01X23264783Y-4445726D01*
G01X23264783Y-4342856D02*
G01X23276213Y-4331426D01*
G01X23287643Y-4325838D01*
G01X23304915Y-4325838D01*
G01X23316345Y-4331426D01*
G01X23327775Y-4342856D01*
G01X23333363Y-4360128D01*
G01X23333363Y-4371558D01*
G01X23327775Y-4388576D01*
G01X23316345Y-4400006D01*
G01X23304915Y-4405848D01*
G01X23287643Y-4405848D01*
G01X23276213Y-4400006D01*
G01X23264783Y-4388576D01*
G01X23509131Y-4285706D02*
G01X23509131Y-4405848D01*
G01X23509131Y-4405848D02*
G01X23577711Y-4405848D01*
G01X23694043Y-4325838D02*
G01X23694043Y-4405848D01*
G01X23694043Y-4342856D02*
G01X23682613Y-4331426D01*
G01X23671183Y-4325838D01*
G01X23654165Y-4325838D01*
G01X23642735Y-4331426D01*
G01X23631305Y-4342856D01*
G01X23625463Y-4360128D01*
G01X23625463Y-4371558D01*
G01X23631305Y-4388576D01*
G01X23642735Y-4400006D01*
G01X23654165Y-4405848D01*
G01X23671183Y-4405848D01*
G01X23682613Y-4400006D01*
G01X23694043Y-4388576D01*
G01X23747637Y-4325838D02*
G01X23781927Y-4405848D01*
G01X23816217Y-4325838D02*
G01X23781927Y-4405848D01*
G01X23770497Y-4428708D01*
G01X23759067Y-4440138D01*
G01X23747637Y-4445726D01*
G01X23741795Y-4445726D01*
G01X23863969Y-4360128D02*
G01X23932549Y-4360128D01*
G01X23932549Y-4348698D01*
G01X23926961Y-4337268D01*
G01X23921119Y-4331426D01*
G01X23909689Y-4325838D01*
G01X23892671Y-4325838D01*
G01X23881241Y-4331426D01*
G01X23869811Y-4342856D01*
G01X23863969Y-4360128D01*
G01X23863969Y-4371558D01*
G01X23869811Y-4388576D01*
G01X23881241Y-4400006D01*
G01X23892671Y-4405848D01*
G01X23909689Y-4405848D01*
G01X23921119Y-4400006D01*
G01X23932549Y-4388576D01*
G01X23980301Y-4325838D02*
G01X23980301Y-4405848D01*
G01X23980301Y-4360128D02*
G01X23986143Y-4342856D01*
G01X23997573Y-4331426D01*
G01X24009003Y-4325838D01*
G01X24026021Y-4325838D01*
G01X24073773Y-4354286D02*
G01X24176643Y-4354286D01*
G01X24224395Y-4285706D02*
G01X24224395Y-4405848D01*
G01X24224395Y-4285706D02*
G01X24275957Y-4285706D01*
G01X24292975Y-4291548D01*
G01X24298817Y-4297136D01*
G01X24304405Y-4308566D01*
G01X24304405Y-4319996D01*
G01X24298817Y-4331426D01*
G01X24292975Y-4337268D01*
G01X24275957Y-4342856D01*
G01X24224395Y-4342856D02*
G01X24275957Y-4342856D01*
G01X24292975Y-4348698D01*
G01X24298817Y-4354286D01*
G01X24304405Y-4365716D01*
G01X24304405Y-4382988D01*
G01X24298817Y-4394418D01*
G01X24292975Y-4400006D01*
G01X24275957Y-4405848D01*
G01X24224395Y-4405848D01*
G01X24380859Y-4325838D02*
G01X24369429Y-4331426D01*
G01X24357999Y-4342856D01*
G01X24352157Y-4360128D01*
G01X24352157Y-4371558D01*
G01X24357999Y-4388576D01*
G01X24369429Y-4400006D01*
G01X24380859Y-4405848D01*
G01X24397877Y-4405848D01*
G01X24409307Y-4400006D01*
G01X24420737Y-4388576D01*
G01X24426579Y-4371558D01*
G01X24426579Y-4360128D01*
G01X24420737Y-4342856D01*
G01X24409307Y-4331426D01*
G01X24397877Y-4325838D01*
G01X24380859Y-4325838D01*
G01X24491603Y-4285706D02*
G01X24491603Y-4382988D01*
G01X24497191Y-4400006D01*
G01X24508621Y-4405848D01*
G01X24520051Y-4405848D01*
G01X24474331Y-4325838D02*
G01X24514463Y-4325838D01*
G01X24585075Y-4285706D02*
G01X24585075Y-4382988D01*
G01X24590663Y-4400006D01*
G01X24602093Y-4405848D01*
G01X24613523Y-4405848D01*
G01X24567803Y-4325838D02*
G01X24607935Y-4325838D01*
G01X24689977Y-4325838D02*
G01X24678547Y-4331426D01*
G01X24667117Y-4342856D01*
G01X24661275Y-4360128D01*
G01X24661275Y-4371558D01*
G01X24667117Y-4388576D01*
G01X24678547Y-4400006D01*
G01X24689977Y-4405848D01*
G01X24706995Y-4405848D01*
G01X24718425Y-4400006D01*
G01X24729855Y-4388576D01*
G01X24735697Y-4371558D01*
G01X24735697Y-4360128D01*
G01X24729855Y-4342856D01*
G01X24718425Y-4331426D01*
G01X24706995Y-4325838D01*
G01X24689977Y-4325838D01*
G01X24783449Y-4325838D02*
G01X24783449Y-4405848D01*
G01X24783449Y-4348698D02*
G01X24800721Y-4331426D01*
G01X24812151Y-4325838D01*
G01X24829169Y-4325838D01*
G01X24840599Y-4331426D01*
G01X24846441Y-4348698D01*
G01X24846441Y-4405848D01*
G01X24846441Y-4348698D02*
G01X24863459Y-4331426D01*
G01X24874889Y-4325838D01*
G01X24892161Y-4325838D01*
G01X24903591Y-4331426D01*
G01X24909179Y-4348698D01*
G01X24909179Y-4405848D01*
G01X25084947Y-4285706D02*
G01X25084947Y-4405848D01*
G01X25084947Y-4405848D02*
G01X25153527Y-4405848D01*
G01X25269859Y-4325838D02*
G01X25269859Y-4405848D01*
G01X25269859Y-4342856D02*
G01X25258429Y-4331426D01*
G01X25246999Y-4325838D01*
G01X25229981Y-4325838D01*
G01X25218551Y-4331426D01*
G01X25207121Y-4342856D01*
G01X25201279Y-4360128D01*
G01X25201279Y-4371558D01*
G01X25207121Y-4388576D01*
G01X25218551Y-4400006D01*
G01X25229981Y-4405848D01*
G01X25246999Y-4405848D01*
G01X25258429Y-4400006D01*
G01X25269859Y-4388576D01*
G01X25323453Y-4325838D02*
G01X25357743Y-4405848D01*
G01X25392033Y-4325838D02*
G01X25357743Y-4405848D01*
G01X25346313Y-4428708D01*
G01X25334883Y-4440138D01*
G01X25323453Y-4445726D01*
G01X25317611Y-4445726D01*
G01X25439785Y-4360128D02*
G01X25508365Y-4360128D01*
G01X25508365Y-4348698D01*
G01X25502777Y-4337268D01*
G01X25496935Y-4331426D01*
G01X25485505Y-4325838D01*
G01X25468487Y-4325838D01*
G01X25457057Y-4331426D01*
G01X25445627Y-4342856D01*
G01X25439785Y-4360128D01*
G01X25439785Y-4371558D01*
G01X25445627Y-4388576D01*
G01X25457057Y-4400006D01*
G01X25468487Y-4405848D01*
G01X25485505Y-4405848D01*
G01X25496935Y-4400006D01*
G01X25508365Y-4388576D01*
G01X25556117Y-4325838D02*
G01X25556117Y-4405848D01*
G01X25556117Y-4360128D02*
G01X25561959Y-4342856D01*
G01X25573389Y-4331426D01*
G01X25584819Y-4325838D01*
G01X25601837Y-4325838D01*

G04 Image Start*
G36*
G01X9908062Y-2724604D02*
G01X9802449Y-2713123D01*
G01X9759574Y-2810329D01*
G01X9716699Y-2713123D01*
G01X9611086Y-2724604D01*
G01X9673849Y-2638879D01*
G01X9634127Y-2584624D01*
G01X9665619Y-2584624D01*
G01X9705320Y-2638879D01*
G01X9665619Y-2693133D01*
G01X9732447Y-2685869D01*
G01X9732447Y-2685869D01*
G01X9759574Y-2747362D01*
G01X9786701Y-2685869D01*
G01X9853529Y-2693133D01*
G01X9813828Y-2638879D01*
G01X9853503Y-2584650D01*
G01X9786676Y-2591914D01*
G01X9759574Y-2530395D01*
G01X9732447Y-2591889D01*
G01X9665619Y-2584624D01*
G01X9634127Y-2584624D01*
G01X9611086Y-2553154D01*
G01X9716724Y-2564634D01*
G01X9759574Y-2467429D01*
G01X9802449Y-2564634D01*
G01X9908062Y-2553154D01*
G01X9845299Y-2638879D01*
G01X9908062Y-2724604D01*
G37*
G36*
G01X9779069Y-1610299D02*
G01X9771329Y-1610887D01*
G01X9763486Y-1611086D01*
G01X9755643Y-1610887D01*
G01X9747902Y-1610299D01*
G01X9740275Y-1609330D01*
G01X9732770Y-1607990D01*
G01X9718164Y-1604235D01*
G01X9704162Y-1599110D01*
G01X9690839Y-1592693D01*
G01X9678274Y-1585060D01*
G01X9666542Y-1576287D01*
G01X9655720Y-1566452D01*
G01X9645884Y-1555629D01*
G01X9637111Y-1543897D01*
G01X9629478Y-1531332D01*
G01X9623061Y-1518010D01*
G01X9617937Y-1504008D01*
G01X9614182Y-1489402D01*
G01X9612841Y-1481896D01*
G01X9611872Y-1474269D01*
G01X9611284Y-1466529D01*
G01X9611086Y-1458686D01*
G01X9636486Y-1458686D01*
G01X9637143Y-1471652D01*
G01X9639070Y-1484248D01*
G01X9642205Y-1496410D01*
G01X9646482Y-1508072D01*
G01X9651836Y-1519172D01*
G01X9658205Y-1529643D01*
G01X9665523Y-1539423D01*
G01X9673725Y-1548446D01*
G01X9682749Y-1556649D01*
G01X9692528Y-1563966D01*
G01X9703000Y-1570335D01*
G01X9714099Y-1575690D01*
G01X9725761Y-1579966D01*
G01X9737923Y-1583101D01*
G01X9737923Y-1583101D01*
G01X9750519Y-1585029D01*
G01X9763486Y-1585686D01*
G01X9776452Y-1585029D01*
G01X9789048Y-1583101D01*
G01X9801210Y-1579966D01*
G01X9812872Y-1575690D01*
G01X9823972Y-1570335D01*
G01X9834443Y-1563966D01*
G01X9844223Y-1556649D01*
G01X9853246Y-1548446D01*
G01X9861449Y-1539423D01*
G01X9868766Y-1529643D01*
G01X9875135Y-1519172D01*
G01X9880490Y-1508072D01*
G01X9884766Y-1496410D01*
G01X9887901Y-1484248D01*
G01X9889829Y-1471652D01*
G01X9890486Y-1458686D01*
G01X9889829Y-1445719D01*
G01X9887901Y-1433123D01*
G01X9884766Y-1420962D01*
G01X9880490Y-1409299D01*
G01X9875135Y-1398200D01*
G01X9868766Y-1387728D01*
G01X9861449Y-1377949D01*
G01X9853246Y-1368925D01*
G01X9844223Y-1360723D01*
G01X9834443Y-1353405D01*
G01X9823972Y-1347037D01*
G01X9812872Y-1341682D01*
G01X9801210Y-1337405D01*
G01X9789048Y-1334271D01*
G01X9776452Y-1332343D01*
G01X9763486Y-1331686D01*
G01X9750519Y-1332343D01*
G01X9737923Y-1334271D01*
G01X9725761Y-1337405D01*
G01X9714099Y-1341682D01*
G01X9703000Y-1347037D01*
G01X9692528Y-1353405D01*
G01X9682749Y-1360723D01*
G01X9673725Y-1368925D01*
G01X9665523Y-1377949D01*
G01X9658205Y-1387728D01*
G01X9651836Y-1398200D01*
G01X9646482Y-1409299D01*
G01X9642205Y-1420962D01*
G01X9639070Y-1433123D01*
G01X9637143Y-1445719D01*
G01X9636486Y-1458686D01*
G01X9611086Y-1458686D01*
G01X9611284Y-1450843D01*
G01X9611872Y-1443102D01*
G01X9612841Y-1435475D01*
G01X9614182Y-1427970D01*
G01X9617937Y-1413364D01*
G01X9623061Y-1399362D01*
G01X9629478Y-1386040D01*
G01X9637111Y-1373474D01*
G01X9645884Y-1361742D01*
G01X9655720Y-1350920D01*
G01X9666542Y-1341084D01*
G01X9678274Y-1332311D01*
G01X9690839Y-1324678D01*
G01X9704162Y-1318261D01*
G01X9718164Y-1313137D01*
G01X9732770Y-1309382D01*
G01X9740275Y-1308042D01*
G01X9747902Y-1307072D01*
G01X9755643Y-1306484D01*
G01X9763486Y-1306286D01*
G01X9771329Y-1306484D01*
G01X9779069Y-1307072D01*
G01X9786696Y-1308042D01*
G01X9794202Y-1309382D01*
G01X9808807Y-1313137D01*
G01X9822810Y-1318261D01*
G01X9836132Y-1324678D01*
G01X9848697Y-1332311D01*
G01X9860429Y-1341084D01*
G01X9871251Y-1350920D01*
G01X9881087Y-1361742D01*
G01X9889860Y-1373474D01*
G01X9897493Y-1386040D01*
G01X9903910Y-1399362D01*
G01X9909035Y-1413364D01*
G01X9912790Y-1427970D01*
G01X9914130Y-1435475D01*
G01X9915099Y-1443102D01*
G01X9915687Y-1450843D01*
G01X9915886Y-1458686D01*
G01X9915687Y-1466529D01*
G01X9915099Y-1474269D01*
G01X9914130Y-1481896D01*
G01X9912790Y-1489402D01*
G01X9909035Y-1504008D01*
G01X9903910Y-1518010D01*
G01X9897493Y-1531332D01*
G01X9889860Y-1543897D01*
G01X9881087Y-1555629D01*
G01X9871251Y-1566452D01*
G01X9860429Y-1576287D01*
G01X9848697Y-1585060D01*
G01X9836132Y-1592693D01*
G01X9822810Y-1599110D01*
G01X9808807Y-1604235D01*
G01X9794202Y-1607990D01*
G01X9786696Y-1609330D01*
G01X9779069Y-1610299D01*
G37*
G36*
G01X9915886Y-3850237D02*
G01X9832777Y-3850237D01*
G01X9832777Y-3933371D01*
G01X9694220Y-3933371D01*
G01X9694220Y-3850263D01*
G01X9611086Y-3850263D01*
G01X9611086Y-3737106D01*
G01X9636486Y-3737106D01*
G01X9636486Y-3824837D01*
G01X9719620Y-3824837D01*
G01X9719620Y-3907971D01*
G01X9719620Y-3907971D01*
G01X9807351Y-3907971D01*
G01X9807351Y-3824863D01*
G01X9890486Y-3824863D01*
G01X9890486Y-3737106D01*
G01X9807351Y-3737106D01*
G01X9807351Y-3653971D01*
G01X9719620Y-3653971D01*
G01X9719620Y-3737106D01*
G01X9636486Y-3737106D01*
G01X9611086Y-3737106D01*
G01X9611086Y-3711706D01*
G01X9694220Y-3711706D01*
G01X9694220Y-3628571D01*
G01X9832751Y-3628571D01*
G01X9832751Y-3711706D01*
G01X9915886Y-3711706D01*
G01X9915886Y-3850237D01*
G37*
G36*
G01X9915886Y-3048000D02*
G01X9845858Y-3200400D01*
G01X9915886Y-3352800D01*
G01X9763486Y-3282772D01*
G01X9611086Y-3352800D01*
G01X9634848Y-3301086D01*
G01X9662800Y-3301086D01*
G01X9752868Y-3259684D01*
G01X9763486Y-3254807D01*
G01X9774103Y-3259684D01*
G01X9864171Y-3301086D01*
G01X9822769Y-3211017D01*
G01X9817892Y-3200400D01*
G01X9822769Y-3189783D01*
G01X9864171Y-3099714D01*
G01X9774103Y-3141116D01*
G01X9763486Y-3145993D01*
G01X9752868Y-3141116D01*
G01X9662800Y-3099714D01*
G01X9704202Y-3189783D01*
G01X9709079Y-3200400D01*
G01X9709079Y-3200400D01*
G01X9704202Y-3211017D01*
G01X9662800Y-3301086D01*
G01X9634848Y-3301086D01*
G01X9681113Y-3200400D01*
G01X9611086Y-3048000D01*
G01X9763486Y-3118028D01*
G01X9915886Y-3048000D01*
G37*
G36*
G01X9611086Y-1886857D02*
G01X9915886Y-1886857D01*
G01X9763486Y-2150814D01*
G01X9625751Y-1912257D01*
G01X9655078Y-1912257D01*
G01X9763486Y-2100014D01*
G01X9871893Y-1912257D01*
G01X9871893Y-1912257D01*
G01X9655078Y-1912257D01*
G01X9625751Y-1912257D01*
G01X9611086Y-1886857D01*
G37*
G36*
G01X9890486Y-4488543D02*
G01X9788886Y-4488543D01*
G01X9750786Y-4412343D01*
G01X9712686Y-4488543D01*
G01X9611086Y-4488543D01*
G01X9611086Y-4463143D01*
G01X9636486Y-4463143D01*
G01X9696988Y-4463143D01*
G01X9728053Y-4400989D01*
G01X9750786Y-4355548D01*
G01X9773519Y-4400989D01*
G01X9804583Y-4463143D01*
G01X9865086Y-4463143D01*
G01X9865086Y-4402640D01*
G01X9802932Y-4371550D01*
G01X9757491Y-4348843D01*
G01X9802932Y-4326135D01*
G01X9865086Y-4295046D01*
G01X9865086Y-4234543D01*
G01X9804583Y-4234543D01*
G01X9773519Y-4296697D01*
G01X9750786Y-4342137D01*
G01X9728053Y-4296697D01*
G01X9696988Y-4234543D01*
G01X9636486Y-4234543D01*
G01X9636486Y-4295046D01*
G01X9698639Y-4326135D01*
G01X9744080Y-4348843D01*
G01X9698639Y-4371550D01*
G01X9636486Y-4402640D01*
G01X9636486Y-4463143D01*
G01X9636486Y-4463143D01*
G01X9611086Y-4463143D01*
G01X9611086Y-4386943D01*
G01X9687286Y-4348843D01*
G01X9611086Y-4310743D01*
G01X9611086Y-4209143D01*
G01X9712686Y-4209143D01*
G01X9750786Y-4285343D01*
G01X9788886Y-4209143D01*
G01X9890486Y-4209143D01*
G01X9890486Y-4310743D01*
G01X9814286Y-4348843D01*
G01X9890486Y-4386943D01*
G01X9890486Y-4488543D01*
G37*
G36*
G01X9611086Y-725714D02*
G01X9890486Y-725714D01*
G01X9890486Y-1005114D01*
G01X9611086Y-1005114D01*
G01X9611086Y-751114D01*
G01X9636486Y-751114D01*
G01X9636486Y-979714D01*
G01X9865086Y-979714D01*
G01X9865086Y-751114D01*
G01X9865086Y-751114D01*
G01X9636486Y-751114D01*
G01X9611086Y-751114D01*
G01X9611086Y-725714D01*
G37*

G04 PolygonModel Start*
G54D18*
G01X9320800Y-4644571D02*
G01X26192568Y-4644571D01*
G01X9320800Y-4064000D02*
G01X26192568Y-4064000D01*
G01X9320800Y-3483429D02*
G01X26192568Y-3483429D01*
G01X9320800Y-2902857D02*
G01X26192568Y-2902857D01*
G01X9320800Y-2322286D02*
G01X26192568Y-2322286D01*
G01X9320800Y-1741714D02*
G01X26192568Y-1741714D01*
G01X9320800Y-1161143D02*
G01X26192568Y-1161143D01*
G01X9320800Y-580571D02*
G01X26192568Y-580571D01*
G01X9320800Y0D02*
G01X26192568Y0D01*
G01X9320800Y0D02*
G01X9320800Y-4619171D01*
G01X10772228Y0D02*
G01X10772228Y-4619171D01*
G01X12186392Y0D02*
G01X12186392Y-4619171D01*
G01X16233265Y0D02*
G01X16233265Y-4619171D01*
G01X17694672Y0D02*
G01X17694672Y-4619171D01*
G01X19125853Y0D02*
G01X19125853Y-4619171D01*
G01X20795032Y0D02*
G01X20795032Y-4619171D01*
G01X22714401Y0D02*
G01X22714401Y-4619171D01*
G01X26192568Y0D02*
G01X26192568Y-4619171D01*

M02*

