G04 Layer: TopSilkscreenLayer*
G04 EasyEDA Pro v3.2.149.88089769, 2026-09-16 20:40:31*
G04 Gerber Generator version 0.3*
G04 Scale: 100 percent, Rotated: No, Reflected: No*
G04 Dimensions in millimeters*
G04 Leading zeros omitted, absolute positions, 4 integers and 5 decimals*
G04 Generated by one-click*
G04 Object Configs: Pad,Via,Track,Text,Image,Dimension,BoardOutline,BoardCutout,CopperFilled,SolidRegion,FPCStiffener,Line,PlaneZone,ComponentProperty,ComponentSilkscreen,TearDrop*
G04 Layer Configs: 1,15,16,2,3,4,5,6,7,8,9,10,11,13,14,56*
G04 Copper Areas: 0*
%FSLAX45Y45*%
%MOMM*%
%ADD10C,0.1524*%
%ADD11C,0.254*%
%ADD12C,0.2*%
%ADD13C,0.3*%
%ADD14C,0.3000*%
G75*


G04 Text Start*
G54D10*
G01X2574724Y-327401D02*
G01X2581074Y-324353D01*
G01X2587170Y-318003D01*
G01X2590218Y-311907D01*
G01X2590218Y-299461D01*
G01X2587170Y-293365D01*
G01X2581074Y-287015D01*
G01X2574724Y-283967D01*
G01X2565580Y-280919D01*
G01X2550086Y-280919D01*
G01X2540688Y-283967D01*
G01X2534592Y-287015D01*
G01X2528242Y-293365D01*
G01X2525194Y-299461D01*
G01X2525194Y-311907D01*
G01X2528242Y-318003D01*
G01X2534592Y-324353D01*
G01X2540688Y-327401D01*
G01X2577772Y-357627D02*
G01X2581074Y-363723D01*
G01X2590218Y-372867D01*
G01X2525194Y-372867D01*
G01X365760Y-1444498D02*
G01X359410Y-1447546D01*
G01X353314Y-1453896D01*
G01X350266Y-1459992D01*
G01X350266Y-1472438D01*
G01X353314Y-1478534D01*
G01X359410Y-1484884D01*
G01X365760Y-1487932D01*
G01X374904Y-1490980D01*
G01X390398Y-1490980D01*
G01X399796Y-1487932D01*
G01X405892Y-1484884D01*
G01X412242Y-1478534D01*
G01X415290Y-1472438D01*
G01X415290Y-1459992D01*
G01X412242Y-1453896D01*
G01X405892Y-1447546D01*
G01X399796Y-1444498D01*
G01X365760Y-1411224D02*
G01X362712Y-1411224D01*
G01X356362Y-1408176D01*
G01X353314Y-1405128D01*
G01X350266Y-1399032D01*
G01X350266Y-1386586D01*
G01X353314Y-1380236D01*
G01X356362Y-1377188D01*
G01X362712Y-1374140D01*
G01X368808Y-1374140D01*
G01X374904Y-1377188D01*
G01X384302Y-1383538D01*
G01X415290Y-1414272D01*
G01X415290Y-1371092D01*
G01X967740Y-828802D02*
G01X974090Y-825754D01*
G01X980186Y-819404D01*
G01X983234Y-813308D01*
G01X983234Y-800862D01*
G01X980186Y-794766D01*
G01X974090Y-788416D01*
G01X967740Y-785368D01*
G01X958596Y-782320D01*
G01X943102Y-782320D01*
G01X933704Y-785368D01*
G01X927608Y-788416D01*
G01X921258Y-794766D01*
G01X918210Y-800862D01*
G01X918210Y-813308D01*
G01X921258Y-819404D01*
G01X927608Y-825754D01*
G01X933704Y-828802D01*
G01X974090Y-896112D02*
G01X980186Y-893064D01*
G01X983234Y-883666D01*
G01X983234Y-877570D01*
G01X980186Y-868172D01*
G01X970788Y-862076D01*
G01X955548Y-859028D01*
G01X940054Y-859028D01*
G01X927608Y-862076D01*
G01X921258Y-868172D01*
G01X918210Y-877570D01*
G01X918210Y-880618D01*
G01X921258Y-889762D01*
G01X927608Y-896112D01*
G01X936752Y-899160D01*
G01X940054Y-899160D01*
G01X949198Y-896112D01*
G01X955548Y-889762D01*
G01X958596Y-880618D01*
G01X958596Y-877570D01*
G01X955548Y-868172D01*
G01X949198Y-862076D01*
G01X940054Y-859028D01*
G01X730382Y-471589D02*
G01X730382Y-406565D01*
G01X730382Y-471589D02*
G01X708792Y-471589D01*
G01X699394Y-468541D01*
G01X693298Y-462445D01*
G01X690250Y-456095D01*
G01X686948Y-446951D01*
G01X686948Y-431457D01*
G01X690250Y-422059D01*
G01X693298Y-415963D01*
G01X699394Y-409613D01*
G01X708792Y-406565D01*
G01X730382Y-406565D01*
G01X656722Y-459143D02*
G01X650626Y-462445D01*
G01X641482Y-471589D01*
G01X641482Y-406565D01*
G01X5735320Y-147066D02*
G01X5735320Y-212090D01*
G01X5735320Y-147066D02*
G01X5756910Y-147066D01*
G01X5766308Y-150114D01*
G01X5772404Y-156210D01*
G01X5775452Y-162560D01*
G01X5778754Y-171704D01*
G01X5778754Y-187198D01*
G01X5775452Y-196596D01*
G01X5772404Y-202692D01*
G01X5766308Y-209042D01*
G01X5756910Y-212090D01*
G01X5735320Y-212090D01*
G01X5812028Y-162560D02*
G01X5812028Y-159512D01*
G01X5815076Y-153162D01*
G01X5818124Y-150114D01*
G01X5824220Y-147066D01*
G01X5836666Y-147066D01*
G01X5843016Y-150114D01*
G01X5846064Y-153162D01*
G01X5849112Y-159512D01*
G01X5849112Y-165608D01*
G01X5846064Y-171704D01*
G01X5839714Y-181102D01*
G01X5808980Y-212090D01*
G01X5852160Y-212090D01*
G01X6904844Y-344181D02*
G01X6839820Y-344181D01*
G01X6904844Y-344181D02*
G01X6904844Y-365771D01*
G01X6901796Y-375169D01*
G01X6895700Y-381265D01*
G01X6889350Y-384313D01*
G01X6880206Y-387615D01*
G01X6864712Y-387615D01*
G01X6855314Y-384313D01*
G01X6849218Y-381265D01*
G01X6842868Y-375169D01*
G01X6839820Y-365771D01*
G01X6839820Y-344181D01*
G01X6904844Y-423937D02*
G01X6904844Y-457973D01*
G01X6880206Y-439431D01*
G01X6880206Y-448575D01*
G01X6877158Y-454925D01*
G01X6873856Y-457973D01*
G01X6864712Y-461021D01*
G01X6858362Y-461021D01*
G01X6849218Y-457973D01*
G01X6842868Y-451877D01*
G01X6839820Y-442479D01*
G01X6839820Y-433081D01*
G01X6842868Y-423937D01*
G01X6846170Y-420889D01*
G01X6852266Y-417841D01*
G01X181756Y-1129019D02*
G01X246780Y-1129019D01*
G01X181756Y-1129019D02*
G01X181756Y-1107429D01*
G01X184804Y-1098031D01*
G01X190900Y-1091935D01*
G01X197250Y-1088887D01*
G01X206394Y-1085585D01*
G01X221888Y-1085585D01*
G01X231286Y-1088887D01*
G01X237382Y-1091935D01*
G01X243732Y-1098031D01*
G01X246780Y-1107429D01*
G01X246780Y-1129019D01*
G01X181756Y-1024625D02*
G01X224936Y-1055359D01*
G01X224936Y-1009131D01*
G01X181756Y-1024625D02*
G01X246780Y-1024625D01*
G01X6698066Y-1836290D02*
G01X6747596Y-1836290D01*
G01X6756740Y-1839338D01*
G01X6760042Y-1842386D01*
G01X6763090Y-1848736D01*
G01X6763090Y-1854832D01*
G01X6760042Y-1861182D01*
G01X6756740Y-1864230D01*
G01X6747596Y-1867278D01*
G01X6741246Y-1867278D01*
G01X6710512Y-1806064D02*
G01X6707210Y-1799968D01*
G01X6698066Y-1790824D01*
G01X6763090Y-1790824D01*
G01X89408Y-439166D02*
G01X89408Y-488696D01*
G01X86360Y-497840D01*
G01X83312Y-501142D01*
G01X76962Y-504190D01*
G01X70866Y-504190D01*
G01X64516Y-501142D01*
G01X61468Y-497840D01*
G01X58420Y-488696D01*
G01X58420Y-482346D01*
G01X122682Y-454660D02*
G01X122682Y-451612D01*
G01X125730Y-445262D01*
G01X128778Y-442214D01*
G01X134874Y-439166D01*
G01X147320Y-439166D01*
G01X153670Y-442214D01*
G01X156718Y-445262D01*
G01X159766Y-451612D01*
G01X159766Y-457708D01*
G01X156718Y-463804D01*
G01X150368Y-473202D01*
G01X119634Y-504190D01*
G01X162814Y-504190D01*
G01X6933514Y-134175D02*
G01X6868490Y-134175D01*
G01X6933514Y-134175D02*
G01X6933514Y-162115D01*
G01X6930466Y-171259D01*
G01X6927418Y-174307D01*
G01X6921068Y-177609D01*
G01X6914972Y-177609D01*
G01X6908876Y-174307D01*
G01X6905828Y-171259D01*
G01X6902526Y-162115D01*
G01X6902526Y-134175D01*
G01X6902526Y-155765D02*
G01X6868490Y-177609D01*
G01X6933514Y-238569D02*
G01X6890334Y-207835D01*
G01X6890334Y-254063D01*
G01X6933514Y-238569D02*
G01X6868490Y-238569D01*
G01X6439586Y-323024D02*
G01X6504610Y-323024D01*
G01X6439586Y-323024D02*
G01X6439586Y-295084D01*
G01X6442634Y-285940D01*
G01X6445682Y-282892D01*
G01X6452032Y-279590D01*
G01X6458128Y-279590D01*
G01X6464224Y-282892D01*
G01X6467272Y-285940D01*
G01X6470574Y-295084D01*
G01X6470574Y-323024D01*
G01X6470574Y-301434D02*
G01X6504610Y-279590D01*
G01X6439586Y-206184D02*
G01X6504610Y-237172D01*
G01X6439586Y-249364D02*
G01X6439586Y-206184D01*
G01X2316480Y-462534D02*
G01X2316480Y-397510D01*
G01X2316480Y-462534D02*
G01X2288540Y-462534D01*
G01X2279396Y-459486D01*
G01X2276348Y-456438D01*
G01X2273046Y-450088D01*
G01X2273046Y-443992D01*
G01X2276348Y-437896D01*
G01X2279396Y-434848D01*
G01X2288540Y-431546D01*
G01X2316480Y-431546D01*
G01X2294890Y-431546D02*
G01X2273046Y-397510D01*
G01X2227580Y-462534D02*
G01X2236724Y-459486D01*
G01X2239772Y-453390D01*
G01X2239772Y-447040D01*
G01X2236724Y-440944D01*
G01X2230628Y-437896D01*
G01X2218182Y-434848D01*
G01X2208784Y-431546D01*
G01X2202688Y-425450D01*
G01X2199640Y-419354D01*
G01X2199640Y-409956D01*
G01X2202688Y-403860D01*
G01X2205736Y-400558D01*
G01X2215134Y-397510D01*
G01X2227580Y-397510D01*
G01X2236724Y-400558D01*
G01X2239772Y-403860D01*
G01X2242820Y-409956D01*
G01X2242820Y-419354D01*
G01X2239772Y-425450D01*
G01X2233676Y-431546D01*
G01X2224278Y-434848D01*
G01X2212086Y-437896D01*
G01X2205736Y-440944D01*
G01X2202688Y-447040D01*
G01X2202688Y-453390D01*
G01X2205736Y-459486D01*
G01X2215134Y-462534D01*
G01X2227580Y-462534D01*
G01X1125220Y-261366D02*
G01X1125220Y-326390D01*
G01X1125220Y-261366D02*
G01X1153160Y-261366D01*
G01X1162304Y-264414D01*
G01X1165352Y-267462D01*
G01X1168654Y-273812D01*
G01X1168654Y-279908D01*
G01X1165352Y-286004D01*
G01X1162304Y-289052D01*
G01X1153160Y-292354D01*
G01X1125220Y-292354D01*
G01X1146810Y-292354D02*
G01X1168654Y-326390D01*
G01X1239012Y-282956D02*
G01X1235964Y-292354D01*
G01X1229614Y-298450D01*
G01X1220470Y-301498D01*
G01X1217422Y-301498D01*
G01X1208024Y-298450D01*
G01X1201928Y-292354D01*
G01X1198880Y-282956D01*
G01X1198880Y-279908D01*
G01X1201928Y-270510D01*
G01X1208024Y-264414D01*
G01X1217422Y-261366D01*
G01X1220470Y-261366D01*
G01X1229614Y-264414D01*
G01X1235964Y-270510D01*
G01X1239012Y-282956D01*
G01X1239012Y-298450D01*
G01X1235964Y-313944D01*
G01X1229614Y-323342D01*
G01X1220470Y-326390D01*
G01X1214120Y-326390D01*
G01X1204976Y-323342D01*
G01X1201928Y-316992D01*
G01X304264Y-492486D02*
G01X304264Y-557510D01*
G01X304264Y-492486D02*
G01X332204Y-492486D01*
G01X341348Y-495534D01*
G01X344396Y-498582D01*
G01X347698Y-504932D01*
G01X347698Y-511028D01*
G01X344396Y-517124D01*
G01X341348Y-520172D01*
G01X332204Y-523474D01*
G01X304264Y-523474D01*
G01X325854Y-523474D02*
G01X347698Y-557510D01*
G01X377924Y-504932D02*
G01X384020Y-501630D01*
G01X393164Y-492486D01*
G01X393164Y-557510D01*
G01X423390Y-504932D02*
G01X429486Y-501630D01*
G01X438630Y-492486D01*
G01X438630Y-557510D01*
G01X5423154Y-829310D02*
G01X5416804Y-823214D01*
G01X5407660Y-820166D01*
G01X5395214Y-820166D01*
G01X5385816Y-823214D01*
G01X5379720Y-829310D01*
G01X5379720Y-835660D01*
G01X5382768Y-841756D01*
G01X5385816Y-844804D01*
G01X5392166Y-847852D01*
G01X5410708Y-854202D01*
G01X5416804Y-857250D01*
G01X5419852Y-860298D01*
G01X5423154Y-866648D01*
G01X5423154Y-875792D01*
G01X5416804Y-882142D01*
G01X5407660Y-885190D01*
G01X5395214Y-885190D01*
G01X5385816Y-882142D01*
G01X5379720Y-875792D01*
G01X5453380Y-820166D02*
G01X5468620Y-885190D01*
G01X5484114Y-820166D02*
G01X5468620Y-885190D01*
G01X5484114Y-820166D02*
G01X5499608Y-885190D01*
G01X5515102Y-820166D02*
G01X5499608Y-885190D01*
G01X5551424Y-820166D02*
G01X5585460Y-820166D01*
G01X5566918Y-844804D01*
G01X5576062Y-844804D01*
G01X5582412Y-847852D01*
G01X5585460Y-851154D01*
G01X5588508Y-860298D01*
G01X5588508Y-866648D01*
G01X5585460Y-875792D01*
G01X5579364Y-882142D01*
G01X5569966Y-885190D01*
G01X5560568Y-885190D01*
G01X5551424Y-882142D01*
G01X5548376Y-878840D01*
G01X5545328Y-872744D01*
G01X4631690Y-1473454D02*
G01X4637786Y-1467104D01*
G01X4640834Y-1457960D01*
G01X4640834Y-1445514D01*
G01X4637786Y-1436116D01*
G01X4631690Y-1430020D01*
G01X4625340Y-1430020D01*
G01X4619244Y-1433068D01*
G01X4616196Y-1436116D01*
G01X4613148Y-1442466D01*
G01X4606798Y-1461008D01*
G01X4603750Y-1467104D01*
G01X4600702Y-1470152D01*
G01X4594352Y-1473454D01*
G01X4585208Y-1473454D01*
G01X4578858Y-1467104D01*
G01X4575810Y-1457960D01*
G01X4575810Y-1445514D01*
G01X4578858Y-1436116D01*
G01X4585208Y-1430020D01*
G01X4640834Y-1503680D02*
G01X4575810Y-1518920D01*
G01X4640834Y-1534414D02*
G01X4575810Y-1518920D01*
G01X4640834Y-1534414D02*
G01X4575810Y-1549908D01*
G01X4640834Y-1565402D02*
G01X4575810Y-1549908D01*
G01X4640834Y-1626362D02*
G01X4597654Y-1595628D01*
G01X4597654Y-1641856D01*
G01X4640834Y-1626362D02*
G01X4575810Y-1626362D01*
G01X1702054Y-1883410D02*
G01X1695704Y-1877314D01*
G01X1686560Y-1874266D01*
G01X1674114Y-1874266D01*
G01X1664716Y-1877314D01*
G01X1658620Y-1883410D01*
G01X1658620Y-1889760D01*
G01X1661668Y-1895856D01*
G01X1664716Y-1898904D01*
G01X1671066Y-1901952D01*
G01X1689608Y-1908302D01*
G01X1695704Y-1911350D01*
G01X1698752Y-1914398D01*
G01X1702054Y-1920748D01*
G01X1702054Y-1929892D01*
G01X1695704Y-1936242D01*
G01X1686560Y-1939290D01*
G01X1674114Y-1939290D01*
G01X1664716Y-1936242D01*
G01X1658620Y-1929892D01*
G01X1732280Y-1874266D02*
G01X1747520Y-1939290D01*
G01X1763014Y-1874266D02*
G01X1747520Y-1939290D01*
G01X1763014Y-1874266D02*
G01X1778508Y-1939290D01*
G01X1794002Y-1874266D02*
G01X1778508Y-1939290D01*
G01X1870456Y-1889760D02*
G01X1867408Y-1883410D01*
G01X1861312Y-1877314D01*
G01X1854962Y-1874266D01*
G01X1842770Y-1874266D01*
G01X1836420Y-1877314D01*
G01X1830324Y-1883410D01*
G01X1827276Y-1889760D01*
G01X1824228Y-1898904D01*
G01X1824228Y-1914398D01*
G01X1827276Y-1923796D01*
G01X1830324Y-1929892D01*
G01X1836420Y-1936242D01*
G01X1842770Y-1939290D01*
G01X1854962Y-1939290D01*
G01X1861312Y-1936242D01*
G01X1867408Y-1929892D01*
G01X1870456Y-1923796D01*
G01X1900682Y-1874266D02*
G01X1900682Y-1939290D01*
G01X1900682Y-1939290D02*
G01X1937766Y-1939290D01*
G01X1967992Y-1874266D02*
G01X1967992Y-1939290D01*
G01X2011172Y-1874266D02*
G01X1967992Y-1917446D01*
G01X1983232Y-1901952D02*
G01X2011172Y-1939290D01*
G01X1930654Y-2048510D02*
G01X1924304Y-2042414D01*
G01X1915160Y-2039366D01*
G01X1902714Y-2039366D01*
G01X1893316Y-2042414D01*
G01X1887220Y-2048510D01*
G01X1887220Y-2054860D01*
G01X1890268Y-2060956D01*
G01X1893316Y-2064004D01*
G01X1899666Y-2067052D01*
G01X1918208Y-2073402D01*
G01X1924304Y-2076450D01*
G01X1927352Y-2079498D01*
G01X1930654Y-2085848D01*
G01X1930654Y-2094992D01*
G01X1924304Y-2101342D01*
G01X1915160Y-2104390D01*
G01X1902714Y-2104390D01*
G01X1893316Y-2101342D01*
G01X1887220Y-2094992D01*
G01X1960880Y-2039366D02*
G01X1976120Y-2104390D01*
G01X1991614Y-2039366D02*
G01X1976120Y-2104390D01*
G01X1991614Y-2039366D02*
G01X2007108Y-2104390D01*
G01X2022602Y-2039366D02*
G01X2007108Y-2104390D01*
G01X2052828Y-2039366D02*
G01X2052828Y-2104390D01*
G01X2052828Y-2039366D02*
G01X2074418Y-2039366D01*
G01X2083562Y-2042414D01*
G01X2089912Y-2048510D01*
G01X2092960Y-2054860D01*
G01X2096008Y-2064004D01*
G01X2096008Y-2079498D01*
G01X2092960Y-2088896D01*
G01X2089912Y-2094992D01*
G01X2083562Y-2101342D01*
G01X2074418Y-2104390D01*
G01X2052828Y-2104390D01*
G01X2126234Y-2039366D02*
G01X2126234Y-2104390D01*
G01X2175002Y-2039366D02*
G01X2168652Y-2042414D01*
G01X2162556Y-2048510D01*
G01X2159508Y-2054860D01*
G01X2156460Y-2064004D01*
G01X2156460Y-2079498D01*
G01X2159508Y-2088896D01*
G01X2162556Y-2094992D01*
G01X2168652Y-2101342D01*
G01X2175002Y-2104390D01*
G01X2187194Y-2104390D01*
G01X2193544Y-2101342D01*
G01X2199640Y-2094992D01*
G01X2202688Y-2088896D01*
G01X2205990Y-2079498D01*
G01X2205990Y-2064004D01*
G01X2202688Y-2054860D01*
G01X2199640Y-2048510D01*
G01X2193544Y-2042414D01*
G01X2187194Y-2039366D01*
G01X2175002Y-2039366D01*
G01X2153920Y-1874266D02*
G01X2153920Y-1939290D01*
G01X2153920Y-1874266D02*
G01X2181860Y-1874266D01*
G01X2191004Y-1877314D01*
G01X2194052Y-1880362D01*
G01X2197354Y-1886712D01*
G01X2197354Y-1892808D01*
G01X2194052Y-1898904D01*
G01X2191004Y-1901952D01*
G01X2181860Y-1905254D01*
G01X2153920Y-1905254D01*
G01X2175510Y-1905254D02*
G01X2197354Y-1939290D01*
G01X2227580Y-1874266D02*
G01X2227580Y-1920748D01*
G01X2230628Y-1929892D01*
G01X2236724Y-1936242D01*
G01X2246122Y-1939290D01*
G01X2252218Y-1939290D01*
G01X2261616Y-1936242D01*
G01X2267712Y-1929892D01*
G01X2270760Y-1920748D01*
G01X2270760Y-1874266D01*
G01X2300986Y-1874266D02*
G01X2300986Y-1939290D01*
G01X2300986Y-1874266D02*
G01X2344166Y-1939290D01*
G01X2344166Y-1874266D02*
G01X2344166Y-1939290D01*
G01X2255520Y-2039366D02*
G01X2255520Y-2104390D01*
G01X2255520Y-2039366D02*
G01X2283460Y-2039366D01*
G01X2292604Y-2042414D01*
G01X2295652Y-2045462D01*
G01X2298954Y-2051812D01*
G01X2298954Y-2057908D01*
G01X2295652Y-2064004D01*
G01X2292604Y-2067052D01*
G01X2283460Y-2070354D01*
G01X2255520Y-2070354D02*
G01X2283460Y-2070354D01*
G01X2292604Y-2073402D01*
G01X2295652Y-2076450D01*
G01X2298954Y-2082546D01*
G01X2298954Y-2091944D01*
G01X2295652Y-2098040D01*
G01X2292604Y-2101342D01*
G01X2283460Y-2104390D01*
G01X2255520Y-2104390D01*
G01X2347722Y-2039366D02*
G01X2341372Y-2042414D01*
G01X2335276Y-2048510D01*
G01X2332228Y-2054860D01*
G01X2329180Y-2064004D01*
G01X2329180Y-2079498D01*
G01X2332228Y-2088896D01*
G01X2335276Y-2094992D01*
G01X2341372Y-2101342D01*
G01X2347722Y-2104390D01*
G01X2359914Y-2104390D01*
G01X2366264Y-2101342D01*
G01X2372360Y-2094992D01*
G01X2375408Y-2088896D01*
G01X2378710Y-2079498D01*
G01X2378710Y-2064004D01*
G01X2375408Y-2054860D01*
G01X2372360Y-2048510D01*
G01X2366264Y-2042414D01*
G01X2359914Y-2039366D01*
G01X2347722Y-2039366D01*
G01X2427478Y-2039366D02*
G01X2421128Y-2042414D01*
G01X2415032Y-2048510D01*
G01X2411984Y-2054860D01*
G01X2408936Y-2064004D01*
G01X2408936Y-2079498D01*
G01X2411984Y-2088896D01*
G01X2415032Y-2094992D01*
G01X2421128Y-2101342D01*
G01X2427478Y-2104390D01*
G01X2439670Y-2104390D01*
G01X2446020Y-2101342D01*
G01X2452116Y-2094992D01*
G01X2455164Y-2088896D01*
G01X2458466Y-2079498D01*
G01X2458466Y-2064004D01*
G01X2455164Y-2054860D01*
G01X2452116Y-2048510D01*
G01X2446020Y-2042414D01*
G01X2439670Y-2039366D01*
G01X2427478Y-2039366D01*
G01X2510282Y-2039366D02*
G01X2510282Y-2104390D01*
G01X2488692Y-2039366D02*
G01X2531872Y-2039366D01*
G01X2605278Y-2048510D02*
G01X2599182Y-2042414D01*
G01X2589784Y-2039366D01*
G01X2577338Y-2039366D01*
G01X2568194Y-2042414D01*
G01X2562098Y-2048510D01*
G01X2562098Y-2054860D01*
G01X2565146Y-2060956D01*
G01X2568194Y-2064004D01*
G01X2574290Y-2067052D01*
G01X2592832Y-2073402D01*
G01X2599182Y-2076450D01*
G01X2602230Y-2079498D01*
G01X2605278Y-2085848D01*
G01X2605278Y-2094992D01*
G01X2599182Y-2101342D01*
G01X2589784Y-2104390D01*
G01X2577338Y-2104390D01*
G01X2568194Y-2101342D01*
G01X2562098Y-2094992D01*
G01X2635504Y-2039366D02*
G01X2635504Y-2104390D01*
G01X2635504Y-2039366D02*
G01X2675636Y-2039366D01*
G01X2635504Y-2070354D02*
G01X2660142Y-2070354D01*
G01X2635504Y-2104390D02*
G01X2675636Y-2104390D01*
G01X2705862Y-2039366D02*
G01X2705862Y-2104390D01*
G01X2705862Y-2104390D02*
G01X2742946Y-2104390D01*
G01X2528316Y-1874266D02*
G01X2562352Y-1874266D01*
G01X2543810Y-1898904D01*
G01X2553208Y-1898904D01*
G01X2559304Y-1901952D01*
G01X2562352Y-1905254D01*
G01X2565654Y-1914398D01*
G01X2565654Y-1920748D01*
G01X2562352Y-1929892D01*
G01X2556256Y-1936242D01*
G01X2547112Y-1939290D01*
G01X2537714Y-1939290D01*
G01X2528316Y-1936242D01*
G01X2525268Y-1932940D01*
G01X2522220Y-1926844D01*
G01X2595880Y-1874266D02*
G01X2620518Y-1939290D01*
G01X2645410Y-1874266D02*
G01X2620518Y-1939290D01*
G01X2681732Y-1874266D02*
G01X2715768Y-1874266D01*
G01X2697226Y-1898904D01*
G01X2706370Y-1898904D01*
G01X2712720Y-1901952D01*
G01X2715768Y-1905254D01*
G01X2718816Y-1914398D01*
G01X2718816Y-1920748D01*
G01X2715768Y-1929892D01*
G01X2709672Y-1936242D01*
G01X2700274Y-1939290D01*
G01X2690876Y-1939290D01*
G01X2681732Y-1936242D01*
G01X2678684Y-1932940D01*
G01X2675636Y-1926844D01*
G01X2784602Y-1889760D02*
G01X2781554Y-1883410D01*
G01X2775204Y-1877314D01*
G01X2769108Y-1874266D01*
G01X2756662Y-1874266D01*
G01X2750566Y-1877314D01*
G01X2744216Y-1883410D01*
G01X2741168Y-1889760D01*
G01X2738120Y-1898904D01*
G01X2738120Y-1914398D01*
G01X2741168Y-1923796D01*
G01X2744216Y-1929892D01*
G01X2750566Y-1936242D01*
G01X2756662Y-1939290D01*
G01X2769108Y-1939290D01*
G01X2775204Y-1936242D01*
G01X2781554Y-1929892D01*
G01X2784602Y-1923796D01*
G01X2784602Y-1914398D01*
G01X2769108Y-1914398D02*
G01X2784602Y-1914398D01*
G01X2814828Y-1874266D02*
G01X2814828Y-1939290D01*
G01X2814828Y-1874266D02*
G01X2858008Y-1939290D01*
G01X2858008Y-1874266D02*
G01X2858008Y-1939290D01*
G01X2888234Y-1874266D02*
G01X2888234Y-1939290D01*
G01X2888234Y-1874266D02*
G01X2909824Y-1874266D01*
G01X2918968Y-1877314D01*
G01X2925318Y-1883410D01*
G01X2928366Y-1889760D01*
G01X2931414Y-1898904D01*
G01X2931414Y-1914398D01*
G01X2928366Y-1923796D01*
G01X2925318Y-1929892D01*
G01X2918968Y-1936242D01*
G01X2909824Y-1939290D01*
G01X2888234Y-1939290D01*
G01X1871980Y-449834D02*
G01X1871980Y-403352D01*
G01X1868932Y-394208D01*
G01X1862582Y-387858D01*
G01X1853438Y-384810D01*
G01X1847088Y-384810D01*
G01X1837944Y-387858D01*
G01X1831848Y-394208D01*
G01X1828546Y-403352D01*
G01X1828546Y-449834D01*
G01X1767586Y-449834D02*
G01X1798320Y-406654D01*
G01X1752092Y-406654D01*
G01X1767586Y-449834D02*
G01X1767586Y-384810D01*
G01X807720Y-1010666D02*
G01X807720Y-1057148D01*
G01X810768Y-1066292D01*
G01X817118Y-1072642D01*
G01X826262Y-1075690D01*
G01X832612Y-1075690D01*
G01X841756Y-1072642D01*
G01X847852Y-1066292D01*
G01X851154Y-1057148D01*
G01X851154Y-1010666D01*
G01X918464Y-1010666D02*
G01X887476Y-1010666D01*
G01X884428Y-1038352D01*
G01X887476Y-1035304D01*
G01X896620Y-1032256D01*
G01X906018Y-1032256D01*
G01X915416Y-1035304D01*
G01X921512Y-1041654D01*
G01X924560Y-1050798D01*
G01X924560Y-1057148D01*
G01X921512Y-1066292D01*
G01X915416Y-1072642D01*
G01X906018Y-1075690D01*
G01X896620Y-1075690D01*
G01X887476Y-1072642D01*
G01X884428Y-1069340D01*
G01X881380Y-1063244D01*
G01X689821Y-497223D02*
G01X686773Y-490873D01*
G01X680423Y-484777D01*
G01X674327Y-481729D01*
G01X661881Y-481729D01*
G01X655785Y-484777D01*
G01X649435Y-490873D01*
G01X646387Y-497223D01*
G01X643339Y-506367D01*
G01X643339Y-521861D01*
G01X646387Y-531259D01*
G01X649435Y-537355D01*
G01X655785Y-543705D01*
G01X661881Y-546753D01*
G01X674327Y-546753D01*
G01X680423Y-543705D01*
G01X686773Y-537355D01*
G01X689821Y-531259D01*
G01X726143Y-481729D02*
G01X760179Y-481729D01*
G01X741637Y-506367D01*
G01X750781Y-506367D01*
G01X757131Y-509415D01*
G01X760179Y-512717D01*
G01X763227Y-521861D01*
G01X763227Y-528211D01*
G01X760179Y-537355D01*
G01X754083Y-543705D01*
G01X744685Y-546753D01*
G01X735287Y-546753D01*
G01X726143Y-543705D01*
G01X723095Y-540403D01*
G01X720047Y-534307D01*
G01X811995Y-481729D02*
G01X802597Y-484777D01*
G01X796501Y-494175D01*
G01X793453Y-509415D01*
G01X793453Y-518813D01*
G01X796501Y-534307D01*
G01X802597Y-543705D01*
G01X811995Y-546753D01*
G01X818091Y-546753D01*
G01X827489Y-543705D01*
G01X833585Y-534307D01*
G01X836633Y-518813D01*
G01X836633Y-509415D01*
G01X833585Y-494175D01*
G01X827489Y-484777D01*
G01X818091Y-481729D01*
G01X811995Y-481729D01*
G04 Text End*

G04 PolygonModel Start*
G01X2475454Y-296161D02*
G01X2475454Y-346161D01*
G01X2390976Y-280919D02*
G01X2460216Y-280919D01*
G01X2375736Y-346161D02*
G01X2375736Y-296161D01*
G01X2375949Y-440439D02*
G01X2375949Y-390439D01*
G01X2475662Y-390439D02*
G01X2475662Y-440439D01*
G01X2460427Y-455681D02*
G01X2391184Y-455681D01*
G01X2475664Y-440439D02*
G02X2460424Y-455679I-15240J0D01*
G01X2391184Y-455679D02*
G02X2375944Y-440439I0J15240D01*
G01X2375736Y-296161D02*
G02X2390976Y-280921I15240J0D01*
G01X2460216Y-280921D02*
G02X2475456Y-296161I0J-15240D01*
G01X618239Y-1484854D02*
G01X568239Y-1484854D01*
G01X633481Y-1400376D02*
G01X633481Y-1469616D01*
G01X568239Y-1385136D02*
G01X618239Y-1385136D01*
G01X473961Y-1385349D02*
G01X523961Y-1385349D01*
G01X523961Y-1485062D02*
G01X473961Y-1485062D01*
G01X458719Y-1469827D02*
G01X458719Y-1400584D01*
G01X473961Y-1485064D02*
G02X458721Y-1469824I0J15240D01*
G01X458721Y-1400584D02*
G02X473961Y-1385344I15240J0D01*
G01X618239Y-1385136D02*
G02X633479Y-1400376I0J-15240D01*
G01X633479Y-1469616D02*
G02X618239Y-1484856I-15240J0D01*
G54D11*
G01X1093460Y-1634721D02*
G01X1093460Y-1714718D01*
G01X1093506Y-1578676D02*
G01X1093506Y-1498679D01*
G01X951492Y-1634721D02*
G01X951492Y-1714718D01*
G01X951540Y-1578676D02*
G01X951540Y-1498679D01*
G01X1062477Y-1745694D02*
G01X982472Y-1745694D01*
G01X982525Y-1467701D02*
G01X1062528Y-1467701D01*
G01X951540Y-1498684D02*
G02X982525Y-1467701I30983J0D01*
G01X1062523Y-1467701D02*
G02X1093506Y-1498684I0J-30983D01*
G01X1093460Y-1714713D02*
G02X1062477Y-1745694I-30983J3D01*
G01X982480Y-1745694D02*
G02X951492Y-1714713I-5J30983D01*
G01X951240Y-1883484D02*
G01X951240Y-1803486D01*
G01X951194Y-1939529D02*
G01X951194Y-2019526D01*
G01X1093208Y-1883484D02*
G01X1093208Y-1803486D01*
G01X1093160Y-1939529D02*
G01X1093160Y-2019526D01*
G01X982223Y-1772511D02*
G01X1062228Y-1772511D01*
G01X1062175Y-2050504D02*
G01X982172Y-2050504D01*
G01X1093160Y-2019521D02*
G02X1062175Y-2050504I-30983J0D01*
G01X982177Y-2050504D02*
G02X951194Y-2019521I0J30983D01*
G01X951240Y-1803491D02*
G02X982223Y-1772511I30983J-3D01*
G01X1062220Y-1772511D02*
G02X1093208Y-1803491I5J-30983D01*
G54D10*
G01X859539Y-887954D02*
G01X809539Y-887954D01*
G01X874781Y-803476D02*
G01X874781Y-872716D01*
G01X809539Y-788236D02*
G01X859539Y-788236D01*
G01X715261Y-788449D02*
G01X765261Y-788449D01*
G01X765261Y-888162D02*
G01X715261Y-888162D01*
G01X700019Y-872927D02*
G01X700019Y-803684D01*
G01X715261Y-888164D02*
G02X700021Y-872924I0J15240D01*
G01X700021Y-803684D02*
G02X715261Y-788444I15240J0D01*
G01X859539Y-788236D02*
G02X874779Y-803476I0J-15240D01*
G01X874779Y-872716D02*
G02X859539Y-887956I-15240J0D01*
G54D11*
G01X759391Y-743331D02*
G01X679394Y-743331D01*
G01X815437Y-743377D02*
G01X895434Y-743377D01*
G01X759391Y-601363D02*
G01X679394Y-601363D01*
G01X815437Y-601411D02*
G01X895434Y-601411D01*
G01X648419Y-712348D02*
G01X648419Y-632343D01*
G01X926412Y-632396D02*
G01X926412Y-712399D01*
G01X895429Y-601411D02*
G02X926412Y-632396I0J-30983D01*
G01X926412Y-712394D02*
G02X895429Y-743377I-30983J0D01*
G01X679399Y-743331D02*
G02X648419Y-712348I3J30983D01*
G01X648419Y-632351D02*
G02X679399Y-601363I30983J5D01*
G01X373380Y-196085D02*
G01X373380Y-181699D01*
G01X373380Y-351701D02*
G01X373380Y-337315D01*
G01X642620Y-181699D02*
G01X671797Y-181699D01*
G01X671797Y-181699D02*
G01X671899Y-181800D01*
G01X642620Y-351701D02*
G01X672297Y-351701D01*
G01X672297Y-351701D02*
G01X672399Y-351599D01*
G01X642620Y-351701D02*
G01X373380Y-351701D01*
G01X467360Y-307340D02*
G01X467360Y-226060D01*
G01X467360Y-266725D02*
G01X435991Y-266725D01*
G01X536001Y-266700D02*
G01X569001Y-266700D01*
G01X533400Y-317500D02*
G01X533400Y-215900D01*
G01X525780Y-266700D02*
G01X467360Y-307340D01*
G01X467360Y-226060D02*
G01X525780Y-266700D01*
G01X373380Y-181699D02*
G01X642620Y-181699D01*
G36*
G01X467360Y-226060D02*
G01X525780Y-266700D01*
G01X467360Y-307340D01*
G01X467360Y-226060D01*
G37*
G36*
G01X658157Y-364401D02*
G01X658157Y-327396D01*
G01X688640Y-327396D01*
G01X688640Y-364401D01*
G01X658157Y-364401D01*
G37*
G36*
G01X658157Y-168999D02*
G01X688640Y-168999D01*
G01X688640Y-206002D01*
G01X658157Y-206002D01*
G01X658157Y-168999D01*
G37*
G01X6268720Y-248415D02*
G01X6268720Y-262801D01*
G01X6268720Y-92799D02*
G01X6268720Y-107185D01*
G01X5999480Y-262801D02*
G01X5970303Y-262801D01*
G01X5970303Y-262801D02*
G01X5970201Y-262699D01*
G01X5999480Y-92799D02*
G01X5969803Y-92799D01*
G01X5969803Y-92799D02*
G01X5969701Y-92900D01*
G01X5999480Y-92799D02*
G01X6268720Y-92799D01*
G01X6174740Y-137160D02*
G01X6174740Y-218440D01*
G01X6174740Y-177775D02*
G01X6206109Y-177775D01*
G01X6106099Y-177800D02*
G01X6073099Y-177800D01*
G01X6108700Y-127000D02*
G01X6108700Y-228600D01*
G01X6116320Y-177800D02*
G01X6174740Y-137160D01*
G01X6174740Y-218440D02*
G01X6116320Y-177800D01*
G01X6268720Y-262801D02*
G01X5999480Y-262801D01*
G36*
G01X6174740Y-218440D02*
G01X6116320Y-177800D01*
G01X6174740Y-137160D01*
G01X6174740Y-218440D01*
G37*
G36*
G01X5983943Y-80099D02*
G01X5983943Y-117104D01*
G01X5953460Y-117104D01*
G01X5953460Y-80099D01*
G01X5983943Y-80099D01*
G37*
G36*
G01X5983943Y-275501D02*
G01X5953460Y-275501D01*
G01X5953460Y-238498D01*
G01X5983943Y-238498D01*
G01X5983943Y-275501D01*
G37*
G54D10*
G01X6540480Y-687319D02*
G01X6718320Y-687319D01*
G01X6540480Y-379481D02*
G01X6718320Y-379481D01*
G01X546120Y-785881D02*
G01X368280Y-785881D01*
G01X546120Y-1093719D02*
G01X368280Y-1093719D01*
G54D11*
G01X7394766Y-1705635D02*
G01X7394766Y-504269D01*
G01X8866231Y-504269D02*
G01X7264758Y-504269D01*
G01X8866231Y-504269D02*
G01X8866231Y-1705635D01*
G01X8866231Y-1705635D02*
G01X7264212Y-1705635D01*
G01X8349882Y-928126D02*
G01X8349882Y-681878D01*
G01X8349882Y-681878D02*
G01X8149882Y-681878D01*
G01X8149882Y-681878D02*
G01X8149882Y-928126D01*
G01X8349882Y-928126D02*
G01X8149882Y-928126D01*
G01X8349882Y-1281778D02*
G01X8349882Y-1526520D01*
G01X8349882Y-1526520D02*
G01X8149882Y-1526520D01*
G01X8149882Y-1526520D02*
G01X8149882Y-1281778D01*
G01X8349882Y-1281778D02*
G01X8149882Y-1281778D01*
G01X6994815Y-1516583D02*
G01X6994815Y-1494762D01*
G01X6994815Y-1415072D02*
G01X6994815Y-1244750D01*
G01X6994815Y-1165060D02*
G01X6994815Y-1044750D01*
G01X6994815Y-965060D02*
G01X6994815Y-794702D01*
G01X6994815Y-715134D02*
G01X6994815Y-693252D01*
G01X36284Y-634911D02*
G01X-1183709Y-643296D01*
G01X-1183709Y-643296D02*
G01X-1183709Y-1496294D01*
G01X-1183709Y-1496294D02*
G01X36284Y-1498511D01*
G01X231297Y-1363271D02*
G01X231297Y-1434503D01*
G01X231297Y-699087D02*
G01X231297Y-770316D01*
G54D10*
G01X331579Y-1551760D02*
G01X331579Y-1525379D01*
G01X331579Y-1525379D02*
G01X836821Y-1525379D01*
G01X836821Y-1525379D02*
G01X836821Y-1551760D01*
G01X331579Y-2004240D02*
G01X331579Y-2030621D01*
G01X331579Y-2030621D02*
G01X836821Y-2030621D01*
G01X836821Y-2030621D02*
G01X836821Y-2004240D01*
G01X6719240Y-205979D02*
G01X6719240Y-134175D01*
G01X6719240Y-134175D02*
G01X6818960Y-134175D01*
G01X6818960Y-134175D02*
G01X6818960Y-205979D01*
G01X6719240Y-251221D02*
G01X6719240Y-323024D01*
G01X6719240Y-323024D02*
G01X6818960Y-323024D01*
G01X6818960Y-323024D02*
G01X6818960Y-251221D01*
G01X421503Y-1138758D02*
G01X493306Y-1138758D01*
G01X493306Y-1138758D02*
G01X493306Y-1238479D01*
G01X493306Y-1238479D02*
G01X421503Y-1238479D01*
G01X376260Y-1138758D02*
G01X304457Y-1138758D01*
G01X304457Y-1138758D02*
G01X304457Y-1238479D01*
G01X304457Y-1238479D02*
G01X376260Y-1238479D01*
G01X621360Y-1267221D02*
G01X621360Y-1339024D01*
G01X621360Y-1339024D02*
G01X521640Y-1339024D01*
G01X521640Y-1339024D02*
G01X521640Y-1267221D01*
G01X621360Y-1221979D02*
G01X621360Y-1150175D01*
G01X621360Y-1150175D02*
G01X521640Y-1150175D01*
G01X521640Y-1150175D02*
G01X521640Y-1221979D01*
G01X6653860Y-251221D02*
G01X6653860Y-323024D01*
G01X6653860Y-323024D02*
G01X6554140Y-323024D01*
G01X6554140Y-323024D02*
G01X6554140Y-251221D01*
G01X6653860Y-205979D02*
G01X6653860Y-134175D01*
G01X6653860Y-134175D02*
G01X6554140Y-134175D01*
G01X6554140Y-134175D02*
G01X6554140Y-205979D01*
G01X2291248Y-267640D02*
G01X2363051Y-267640D01*
G01X2363051Y-267640D02*
G01X2363051Y-367360D01*
G01X2363051Y-367360D02*
G01X2291248Y-367360D01*
G01X2246005Y-267640D02*
G01X2174202Y-267640D01*
G01X2174202Y-267640D02*
G01X2174202Y-367360D01*
G01X2174202Y-367360D02*
G01X2246005Y-367360D01*
G01X1361679Y-341960D02*
G01X1289876Y-341960D01*
G01X1289876Y-341960D02*
G01X1289876Y-242240D01*
G01X1289876Y-242240D02*
G01X1361679Y-242240D01*
G01X1406921Y-341960D02*
G01X1478725Y-341960D01*
G01X1478725Y-341960D02*
G01X1478725Y-242240D01*
G01X1478725Y-242240D02*
G01X1406921Y-242240D01*
G01X485394Y-739160D02*
G01X581282Y-739160D01*
G01X581282Y-739160D02*
G01X581282Y-607040D01*
G01X581282Y-607040D02*
G01X485394Y-607040D01*
G01X400152Y-739160D02*
G01X304264Y-739160D01*
G01X304264Y-739160D02*
G01X304264Y-607040D01*
G01X304264Y-607040D02*
G01X400152Y-607040D01*
G01X6024042Y-766740D02*
G01X6024042Y-838543D01*
G01X6024042Y-838543D02*
G01X5924321Y-838543D01*
G01X5924321Y-838543D02*
G01X5924321Y-766740D01*
G01X6024042Y-721497D02*
G01X6024042Y-649694D01*
G01X6024042Y-649694D02*
G01X5924321Y-649694D01*
G01X5924321Y-649694D02*
G01X5924321Y-721497D01*
G01X5884342Y-766740D02*
G01X5884342Y-838543D01*
G01X5884342Y-838543D02*
G01X5784621Y-838543D01*
G01X5784621Y-838543D02*
G01X5784621Y-766740D01*
G01X5884342Y-721497D02*
G01X5884342Y-649694D01*
G01X5884342Y-649694D02*
G01X5784621Y-649694D01*
G01X5784621Y-649694D02*
G01X5784621Y-721497D01*
G01X5744642Y-766740D02*
G01X5744642Y-838543D01*
G01X5744642Y-838543D02*
G01X5644921Y-838543D01*
G01X5644921Y-838543D02*
G01X5644921Y-766740D01*
G01X5744642Y-721497D02*
G01X5744642Y-649694D01*
G01X5744642Y-649694D02*
G01X5644921Y-649694D01*
G01X5644921Y-649694D02*
G01X5644921Y-721497D01*
G01X6310960Y-771921D02*
G01X6310960Y-843724D01*
G01X6310960Y-843724D02*
G01X6211240Y-843724D01*
G01X6211240Y-843724D02*
G01X6211240Y-771921D01*
G01X6310960Y-726679D02*
G01X6310960Y-654875D01*
G01X6310960Y-654875D02*
G01X6211240Y-654875D01*
G01X6211240Y-654875D02*
G01X6211240Y-726679D01*
G01X6171260Y-771921D02*
G01X6171260Y-843724D01*
G01X6171260Y-843724D02*
G01X6071540Y-843724D01*
G01X6071540Y-843724D02*
G01X6071540Y-771921D01*
G01X6171260Y-726679D02*
G01X6171260Y-654875D01*
G01X6171260Y-654875D02*
G01X6071540Y-654875D01*
G01X6071540Y-654875D02*
G01X6071540Y-726679D01*
G01X4832143Y-1055759D02*
G01X4832143Y-1127562D01*
G01X4832143Y-1127562D02*
G01X4732422Y-1127562D01*
G01X4732422Y-1127562D02*
G01X4732422Y-1055759D01*
G01X4832143Y-1010516D02*
G01X4832143Y-938713D01*
G01X4832143Y-938713D02*
G01X4732422Y-938713D01*
G01X4732422Y-938713D02*
G01X4732422Y-1010516D01*
G54D11*
G01X6532499Y-1060087D02*
G01X6532499Y-947202D01*
G01X6532499Y-947202D02*
G01X5534500Y-947202D01*
G01X6532499Y-1430083D02*
G01X6532499Y-1236315D01*
G01X6532499Y-1710083D02*
G01X6532499Y-1606311D01*
G01X5532501Y-1886311D02*
G01X5532501Y-1998200D01*
G01X5532501Y-1998200D02*
G01X6532499Y-1998200D01*
G01X6532499Y-1998200D02*
G01X6532499Y-1886311D01*
G01X5532501Y-1606311D02*
G01X5532501Y-1710083D01*
G01X5532501Y-1236315D02*
G01X5532501Y-1430083D01*
G01X5532501Y-948202D02*
G01X5532501Y-1060087D01*
G01X5139914Y-1362499D02*
G01X5139914Y-1812501D01*
G01X5139914Y-1812501D02*
G01X4689912Y-1812501D01*
G01X4689912Y-1812501D02*
G01X4689912Y-1362499D01*
G01X4689912Y-1362499D02*
G01X5139914Y-1362499D01*
G54D10*
G01X1923240Y-360820D02*
G01X1708960Y-360820D01*
G01X1708960Y-360820D02*
G01X1708960Y-45580D01*
G01X1708960Y-45580D02*
G01X1923240Y-45580D01*
G01X1923240Y-45580D02*
G01X1923240Y-360820D01*
G54D12*
G01X933486Y-1120000D02*
G01X956300Y-1120000D01*
G01X956300Y-1120000D02*
G01X956300Y-1127089D01*
G01X819114Y-1120000D02*
G01X796300Y-1120000D01*
G01X796300Y-1120000D02*
G01X796300Y-1127089D01*
G01X933506Y-1420000D02*
G01X956300Y-1420000D01*
G01X956300Y-1420000D02*
G01X956300Y-1412911D01*
G01X819074Y-1420000D02*
G01X796300Y-1420000D01*
G01X796300Y-1420000D02*
G01X796300Y-1412911D01*
G01X819114Y-1120000D02*
G01X933486Y-1120000D01*
G01X933506Y-1420000D02*
G01X819074Y-1420000D01*
G36*
G01X906300Y-1404148D02*
G02X906300Y-1355852I0J24148D01*
G02X906300Y-1404148I0J-24148D01*
G37*

G04 Rect Start*
G54D11*
G01X5933491Y-1579194D02*
G01X5933491Y-1368196D01*
G01X6132500Y-1368196D01*
G01X6132500Y-1579194D01*
G01X5933491Y-1579194D01*
G01X1710146Y-1849208D02*
G01X1710146Y-499208D01*
G01X4500146Y-499208D01*
G01X4500146Y-1849208D01*
G01X1710146Y-1849208D01*
G04 Rect End*

G04 Circle Start*
G54D13*
G01X6484239Y-366573D02*
G03X6514262Y-366573I15011J0D01*
G03X6484239Y-366573I-15011J0D01*
G01X572338Y-1106627D02*
G03X602361Y-1106627I15011J0D01*
G03X572338Y-1106627I-15011J0D01*
G54D11*
G01X233591Y-1324800D02*
G03X258991Y-1324800I12700J0D01*
G03X233591Y-1324800I-12700J0D01*
G01X5860364Y-1473200D02*
G03X6204636Y-1473200I172136J0D01*
G03X5860364Y-1473200I-172136J0D01*
G01X5423052Y-1017194D02*
G03X5493969Y-1017194I35458J0D01*
G03X5423052Y-1017194I-35458J0D01*
G01X4822711Y-1587500D02*
G03X5007115Y-1587500I92202J0D01*
G03X4822711Y-1587500I-92202J0D01*
G01X5018850Y-1727505D02*
G03X5090986Y-1727505I36068J0D01*
G03X5018850Y-1727505I-36068J0D01*
G01X5018850Y-1447495D02*
G03X5090986Y-1447495I36068J0D01*
G03X5018850Y-1447495I-36068J0D01*
G01X4738840Y-1447495D02*
G03X4810976Y-1447495I36068J0D01*
G03X4738840Y-1447495I-36068J0D01*
G01X4738840Y-1727505D02*
G03X4810976Y-1727505I36068J0D01*
G03X4738840Y-1727505I-36068J0D01*
G54D13*
G01X1832991Y-303200D02*
G03X1863014Y-303200I15011J0D01*
G03X1832991Y-303200I-15011J0D01*
G01X2012086Y-362433D02*
G03X2042109Y-362433I15011J0D01*
G03X2012086Y-362433I-15011J0D01*
G04 Circle End*

M02*

