G04 Layer: BottomLayer*
G04 EasyEDA Pro v3.2.149.88089769, 2026-09-16 20:40:31*
G04 Gerber Generator version 0.3*
G04 Scale: 100 percent, Rotated: No, Reflected: No*
G04 Dimensions in millimeters*
G04 Leading zeros omitted, absolute positions, 4 integers and 5 decimals*
G04 Generated by one-click*
G04 Object Configs: Pad,Via,Track,Text,Image,Dimension,BoardOutline,BoardCutout,CopperFilled,SolidRegion,FPCStiffener,Line,PlaneZone,ComponentProperty,ComponentSilkscreen,TearDrop*
G04 Layer Configs: 1,15,16,2,3,4,5,6,7,8,9,10,11,13,14,56*
G04 Copper Areas: 115*
%FSLAX45Y45*%
%MOMM*%
%ADD10C,0.2032*%
%ADD11C,0.254*%
%ADD12R,0.54X0.5*%
%ADD13R,0.5X0.54*%
%ADD14R,0.8X0.9*%
%ADD15R,0.7036X1.6*%
%ADD16R,0.7X1.6*%
%ADD17R,1.2X1.5*%
%ADD18R,1.2X2.2*%
%ADD19R,1.6X1.5*%
%ADD20C,1.6*%
%ADD21C,3.39999*%
%ADD22O,2.4X1.2*%
%ADD23R,1.65001X4.29999*%
%ADD24R,1.0X0.8*%
%ADD25R,0.80648X0.86401*%
%ADD26R,0.54X0.56566*%
%ADD27R,1.13254X1.37701*%
%ADD28R,0.56566X0.54*%
%ADD29R,1.58001X0.8*%
%ADD30R,1.4X1.2*%
%ADD31R,3.39999X3.39999*%
%ADD32R,0.2X0.875*%
%ADD33R,0.875X0.2*%
%ADD34R,1.8X0.3*%
%ADD35R,3.19999X2.49999*%
%ADD36C,0.61*%
%ADD37C,0.18*%
G75*


G04 Copper Start*
G36*
G01X7284986Y-553530D02*
G01X7284986Y-1656270D01*
G01X7276379Y-1629179D01*
G01X7264121Y-1603533D01*
G01X7248446Y-1579821D01*
G01X7229654Y-1558494D01*
G01X7208103Y-1539960D01*
G01X7184204Y-1524572D01*
G01X7158413Y-1512623D01*
G01X7131221Y-1504342D01*
G01X7103147Y-1499887D01*
G01X7074728Y-1499342D01*
G01X7046504Y-1502717D01*
G01X7019015Y-1509949D01*
G01X6992784Y-1520900D01*
G01X6968312Y-1535360D01*
G01X6981193Y-1519409D01*
G01X6991059Y-1501436D01*
G01X6997600Y-1482005D01*
G01X7000613Y-1461725D01*
G01X7000003Y-1441231D01*
G01X6995789Y-1421166D01*
G01X6988102Y-1402159D01*
G01X6977184Y-1384805D01*
G01X6963377Y-1369648D01*
G01X6947114Y-1357164D01*
G01X6928904Y-1347743D01*
G01X6909318Y-1341680D01*
G01X6888970Y-1339166D01*
G01X6868498Y-1340280D01*
G01X6848543Y-1344986D01*
G01X6829730Y-1353137D01*
G01X6812650Y-1364478D01*
G01X6797837Y-1378654D01*
G01X6785755Y-1395219D01*
G01X6776784Y-1413654D01*
G01X6771205Y-1433383D01*
G01X6769192Y-1453787D01*
G01X6770808Y-1474226D01*
G01X6776003Y-1494059D01*
G01X6784614Y-1512666D01*
G01X6796372Y-1529463D01*
G01X6810906Y-1543923D01*
G01X6827763Y-1555594D01*
G01X6846414Y-1564109D01*
G01X6866274Y-1569202D01*
G01X6886721Y-1570713D01*
G01X6907114Y-1568595D01*
G01X6926814Y-1562914D01*
G01X6945203Y-1553849D01*
G01X6926393Y-1573738D01*
G01X6910388Y-1595949D01*
G01X6897473Y-1620087D01*
G01X6887876Y-1645726D01*
G01X6881766Y-1672411D01*
G01X6879253Y-1699672D01*
G01X6880379Y-1727024D01*
G01X6885126Y-1753986D01*
G01X6893408Y-1780079D01*
G01X6905081Y-1804841D01*
G01X6919937Y-1827836D01*
G01X6937713Y-1848655D01*
G01X6958095Y-1866931D01*
G01X6980723Y-1882341D01*
G01X7005195Y-1894610D01*
G01X7031080Y-1903524D01*
G01X7057918Y-1908923D01*
G01X7085235Y-1910712D01*
G01X7112549Y-1908860D01*
G01X7139375Y-1903400D01*
G01X7165238Y-1894427D01*
G01X7189683Y-1882101D01*
G01X7212275Y-1866640D01*
G01X7232615Y-1848318D01*
G01X7250344Y-1827458D01*
G01X7265147Y-1804429D01*
G01X7276763Y-1779640D01*
G01X7284986Y-1753528D01*
G01X7284986Y-2087886D01*
G01X23114Y-2087886D01*
G01X23114Y-1977588D01*
G01X270986Y-1977588D01*
G01X272739Y-1988655D01*
G01X277826Y-1998639D01*
G01X285749Y-2006562D01*
G01X295733Y-2011649D01*
G01X306800Y-2013402D01*
G01X464801Y-2013402D01*
G01X475868Y-2011649D01*
G01X485852Y-2006562D01*
G01X493775Y-1998639D01*
G01X498862Y-1988655D01*
G01X500615Y-1977588D01*
G01X500615Y-1897588D01*
G01X498862Y-1886521D01*
G01X493775Y-1876537D01*
G01X485852Y-1868614D01*
G01X475868Y-1863527D01*
G01X464801Y-1861774D01*
G01X306800Y-1861774D01*
G01X295733Y-1863527D01*
G01X285749Y-1868614D01*
G01X277826Y-1876537D01*
G01X272739Y-1886521D01*
G01X270986Y-1897588D01*
G01X270986Y-1977588D01*
G01X270986Y-1977588D01*
G01X23114Y-1977588D01*
G01X23114Y-1578243D01*
G01X37770Y-1584773D01*
G01X53310Y-1588765D01*
G01X69299Y-1590109D01*
G01X189299Y-1590109D01*
G01X208726Y-1588118D01*
G01X227346Y-1582230D01*
G01X244385Y-1572689D01*
G01X259136Y-1559892D01*
G01X270986Y-1544369D01*
G01X270986Y-1607612D01*
G01X272739Y-1618679D01*
G01X277826Y-1628663D01*
G01X285749Y-1636586D01*
G01X295733Y-1641673D01*
G01X306800Y-1643426D01*
G01X464801Y-1643426D01*
G01X476499Y-1641462D01*
G01X486913Y-1635784D01*
G01X494902Y-1627017D01*
G01X499589Y-1616121D01*
G01X784585Y-1616121D01*
G01X784585Y-1948606D01*
G01X786238Y-1961162D01*
G01X791085Y-1972863D01*
G01X798794Y-1982911D01*
G01X869484Y-2053601D01*
G01X879532Y-2061310D01*
G01X891232Y-2066157D01*
G01X903789Y-2067810D01*
G01X2326186Y-2067810D01*
G01X2337085Y-2066570D01*
G01X2347427Y-2062913D01*
G01X2356683Y-2057026D01*
G01X2371706Y-2059999D01*
G01X2387011Y-2059448D01*
G01X2401782Y-2055400D01*
G01X2415229Y-2048071D01*
G01X2426637Y-2037854D01*
G01X2435397Y-2025291D01*
G01X2441041Y-2011054D01*
G01X2443269Y-1995902D01*
G01X2441962Y-1980643D01*
G01X2437189Y-1966091D01*
G01X2429205Y-1953022D01*
G01X2418436Y-1942133D01*
G01X2405456Y-1934005D01*
G01X2390958Y-1929071D01*
G01X2375714Y-1927594D01*
G01X2360539Y-1929654D01*
G01X2353549Y-1915406D01*
G01X2343375Y-1903227D01*
G01X2330598Y-1893814D01*
G01X2315951Y-1887706D01*
G01X2300272Y-1885253D01*
G01X2101534Y-1686516D01*
G01X2389104Y-1686516D01*
G01X2400171Y-1684763D01*
G01X2410155Y-1679676D01*
G01X2418078Y-1671752D01*
G01X2423165Y-1661769D01*
G01X2424918Y-1650702D01*
G01X2424918Y-1400702D01*
G01X2424909Y-1399897D01*
G01X2438207Y-1413196D01*
G01X2447488Y-1420317D01*
G01X2458296Y-1424794D01*
G01X2469895Y-1426321D01*
G01X2690765Y-1426321D01*
G01X2702364Y-1424794D01*
G01X2713172Y-1420317D01*
G01X2722453Y-1413196D01*
G01X2738690Y-1396959D01*
G01X2752877Y-1396049D01*
G01X2766544Y-1392137D01*
G01X2779063Y-1385401D01*
G01X2789859Y-1376152D01*
G01X2798435Y-1364815D01*
G01X2804398Y-1351910D01*
G01X2851308Y-1351910D01*
G01X2892600Y-1393202D01*
G01X2902647Y-1400912D01*
G01X2914348Y-1405758D01*
G01X2926904Y-1407411D01*
G01X3369324Y-1407411D01*
G01X3381880Y-1405758D01*
G01X3393581Y-1400912D01*
G01X3403628Y-1393202D01*
G01X3451316Y-1345514D01*
G01X3462465Y-1345514D01*
G01X3471761Y-1344287D01*
G01X3480419Y-1340688D01*
G01X3487847Y-1334966D01*
G01X3493535Y-1327511D01*
G01X3690857Y-1327511D01*
G01X3690857Y-1372524D01*
G01X3640288Y-1423093D01*
G01X3632593Y-1433115D01*
G01X3627747Y-1444785D01*
G01X3604593Y-1444785D01*
G01X3593526Y-1446538D01*
G01X3583542Y-1451625D01*
G01X3575619Y-1459548D01*
G01X3570532Y-1469532D01*
G01X3568779Y-1480599D01*
G01X3568779Y-1577802D01*
G01X3416208Y-1730372D01*
G01X3415945Y-1730372D01*
G01X3413390Y-1720178D01*
G01X3407986Y-1711165D01*
G01X3400199Y-1704108D01*
G01X3390699Y-1699615D01*
G01X3380303Y-1698073D01*
G01X3300304Y-1698073D01*
G01X3288663Y-1700017D01*
G01X3278287Y-1705640D01*
G01X3270301Y-1714329D01*
G01X3262315Y-1705640D01*
G01X3251939Y-1700017D01*
G01X3240299Y-1698073D01*
G01X3160299Y-1698073D01*
G01X3149232Y-1699826D01*
G01X3139248Y-1704913D01*
G01X3131325Y-1712836D01*
G01X3126238Y-1722820D01*
G01X3124485Y-1733887D01*
G01X3124485Y-1823887D01*
G01X3126238Y-1834954D01*
G01X3131325Y-1844938D01*
G01X3139248Y-1852861D01*
G01X3149232Y-1857948D01*
G01X3160299Y-1859701D01*
G01X3240299Y-1859701D01*
G01X3251939Y-1857756D01*
G01X3262315Y-1852134D01*
G01X3270301Y-1843444D01*
G01X3278287Y-1852134D01*
G01X3288663Y-1857756D01*
G01X3300304Y-1859701D01*
G01X3380303Y-1859701D01*
G01X3390699Y-1858159D01*
G01X3400199Y-1853666D01*
G01X3407987Y-1846608D01*
G01X3413390Y-1837595D01*
G01X3415945Y-1827400D01*
G01X3436303Y-1827400D01*
G01X3448859Y-1825747D01*
G01X3460560Y-1820901D01*
G01X3470608Y-1813191D01*
G01X3568779Y-1715020D01*
G01X3568779Y-1770601D01*
G01X3570532Y-1781668D01*
G01X3575619Y-1791652D01*
G01X3583542Y-1799575D01*
G01X3593526Y-1804662D01*
G01X3604593Y-1806415D01*
G01X3744592Y-1806415D01*
G01X3755660Y-1804662D01*
G01X3765643Y-1799575D01*
G01X3773567Y-1791652D01*
G01X3778654Y-1781668D01*
G01X3780406Y-1770601D01*
G01X3780406Y-1650601D01*
G01X3779225Y-1641478D01*
G01X3775759Y-1632957D01*
G01X3770236Y-1625600D01*
G01X3775759Y-1618243D01*
G01X3779225Y-1609722D01*
G01X3780406Y-1600599D01*
G01X3780406Y-1480599D01*
G01X3778553Y-1469228D01*
G01X3773186Y-1459033D01*
G01X3764859Y-1451071D01*
G01X3754435Y-1446164D01*
G01X3756584Y-1444014D01*
G01X3807318Y-1444014D01*
G01X3816932Y-1442700D01*
G01X3825840Y-1438853D01*
G01X3833389Y-1432756D01*
G01X3839023Y-1424856D01*
G01X3842331Y-1415734D01*
G01X3845638Y-1424856D01*
G01X3851273Y-1432756D01*
G01X3858822Y-1438853D01*
G01X3867730Y-1442700D01*
G01X3877344Y-1444014D01*
G01X3957991Y-1444014D01*
G01X3969058Y-1442262D01*
G01X3979042Y-1437175D01*
G01X3986965Y-1429251D01*
G01X3992052Y-1419268D01*
G01X3993805Y-1408200D01*
G01X3993805Y-1397282D01*
G01X4006220Y-1392854D01*
G01X4016810Y-1385006D01*
G01X4081878Y-1319938D01*
G01X4081878Y-1500184D01*
G01X4049400Y-1500184D01*
G01X4038782Y-1501794D01*
G01X4029119Y-1506480D01*
G01X4021279Y-1513820D01*
G01X4015968Y-1523154D01*
G01X4013664Y-1533644D01*
G01X4006856Y-1535694D01*
G01X4000421Y-1538717D01*
G01X4000421Y-1480599D01*
G01X3998668Y-1469532D01*
G01X3993581Y-1459548D01*
G01X3985658Y-1451625D01*
G01X3975674Y-1446538D01*
G01X3964607Y-1444785D01*
G01X3824608Y-1444785D01*
G01X3813540Y-1446538D01*
G01X3803557Y-1451625D01*
G01X3795633Y-1459548D01*
G01X3790546Y-1469532D01*
G01X3788794Y-1480599D01*
G01X3788794Y-1600599D01*
G01X3789975Y-1609722D01*
G01X3793441Y-1618243D01*
G01X3798964Y-1625600D01*
G01X3793441Y-1632957D01*
G01X3789975Y-1641478D01*
G01X3788794Y-1650601D01*
G01X3788794Y-1770601D01*
G01X3790546Y-1781668D01*
G01X3795633Y-1791652D01*
G01X3803557Y-1799575D01*
G01X3813540Y-1804662D01*
G01X3824608Y-1806415D01*
G01X3964607Y-1806415D01*
G01X3975674Y-1804662D01*
G01X3985658Y-1799575D01*
G01X3993581Y-1791652D01*
G01X3998668Y-1781668D01*
G01X4000421Y-1770601D01*
G01X4000421Y-1673397D01*
G01X4023298Y-1650520D01*
G01X4030852Y-1656634D01*
G01X4039772Y-1660493D01*
G01X4049400Y-1661812D01*
G01X4129400Y-1661812D01*
G01X4141040Y-1659867D01*
G01X4151417Y-1654245D01*
G01X4159402Y-1645555D01*
G01X4167388Y-1654245D01*
G01X4177764Y-1659867D01*
G01X4189405Y-1661812D01*
G01X4269405Y-1661812D01*
G01X4280472Y-1660059D01*
G01X4290456Y-1654972D01*
G01X4298379Y-1647048D01*
G01X4303466Y-1637065D01*
G01X4305219Y-1625998D01*
G01X4305219Y-1535998D01*
G01X4303466Y-1524931D01*
G01X4298379Y-1514947D01*
G01X4290456Y-1507024D01*
G01X4280472Y-1501937D01*
G01X4269405Y-1500184D01*
G01X4189405Y-1500184D01*
G01X4180140Y-1501403D01*
G01X4171506Y-1504977D01*
G01X4171506Y-1319898D01*
G01X4233413Y-1381806D01*
G01X4242694Y-1388927D01*
G01X4253502Y-1393404D01*
G01X4265101Y-1394931D01*
G01X4308923Y-1394931D01*
G01X4306728Y-1401883D01*
G01X4305986Y-1409135D01*
G01X4305986Y-1459135D01*
G01X4307739Y-1470202D01*
G01X4312826Y-1480186D01*
G01X4320749Y-1488109D01*
G01X4330733Y-1493196D01*
G01X4341800Y-1494949D01*
G01X4395800Y-1494949D01*
G01X4406867Y-1493196D01*
G01X4416851Y-1488109D01*
G01X4424774Y-1480186D01*
G01X4429861Y-1470202D01*
G01X4431614Y-1459135D01*
G01X4431614Y-1430739D01*
G01X4499819Y-1498944D01*
G01X4475039Y-1498944D01*
G01X4463972Y-1500697D01*
G01X4453988Y-1505784D01*
G01X4446065Y-1513707D01*
G01X4440978Y-1523691D01*
G01X4439225Y-1534758D01*
G01X4439225Y-1588759D01*
G01X4440978Y-1599826D01*
G01X4446065Y-1609810D01*
G01X4453988Y-1617733D01*
G01X4463972Y-1622820D01*
G01X4475039Y-1624573D01*
G01X4525039Y-1624573D01*
G01X4535547Y-1622996D01*
G01X4535547Y-1638538D01*
G01X4528951Y-1637925D01*
G01X4478951Y-1637925D01*
G01X4467884Y-1639678D01*
G01X4457900Y-1644765D01*
G01X4449977Y-1652688D01*
G01X4444890Y-1662672D01*
G01X4443137Y-1673739D01*
G01X4443137Y-1727740D01*
G01X4444890Y-1738807D01*
G01X4449977Y-1748791D01*
G01X4457900Y-1756714D01*
G01X4467884Y-1761801D01*
G01X4478951Y-1763554D01*
G01X4528951Y-1763554D01*
G01X4537724Y-1762463D01*
G01X4545962Y-1759256D01*
G01X4554201Y-1762463D01*
G01X4562974Y-1763554D01*
G01X4612974Y-1763554D01*
G01X4624041Y-1761801D01*
G01X4634025Y-1756714D01*
G01X4641948Y-1748791D01*
G01X4647035Y-1738807D01*
G01X4648788Y-1727740D01*
G01X4648788Y-1673739D01*
G01X4646849Y-1662115D01*
G01X4641242Y-1651750D01*
G01X4632575Y-1643765D01*
G01X4632575Y-1615774D01*
G01X4637696Y-1610271D01*
G01X4655456Y-1610271D01*
G01X4677837Y-1632652D01*
G01X4677837Y-1643262D01*
G01X4666646Y-1654452D01*
G01X4658936Y-1664500D01*
G01X4654090Y-1676200D01*
G01X4652437Y-1688757D01*
G01X4652437Y-1773451D01*
G01X4636951Y-1788937D01*
G01X4584753Y-1788937D01*
G01X4573113Y-1790882D01*
G01X4562736Y-1796504D01*
G01X4554751Y-1805194D01*
G01X4546765Y-1796504D01*
G01X4536389Y-1790882D01*
G01X4524748Y-1788937D01*
G01X4444749Y-1788937D01*
G01X4433681Y-1790690D01*
G01X4423698Y-1795777D01*
G01X4415774Y-1803700D01*
G01X4410687Y-1813684D01*
G01X4408935Y-1824751D01*
G01X4408935Y-1914751D01*
G01X4410687Y-1925818D01*
G01X4415774Y-1935802D01*
G01X4423698Y-1943725D01*
G01X4433681Y-1948812D01*
G01X4444749Y-1950565D01*
G01X4524748Y-1950565D01*
G01X4536389Y-1948621D01*
G01X4546765Y-1942998D01*
G01X4554751Y-1934309D01*
G01X4562736Y-1942998D01*
G01X4573113Y-1948621D01*
G01X4584753Y-1950565D01*
G01X4664753Y-1950565D01*
G01X4675820Y-1948812D01*
G01X4685804Y-1943725D01*
G01X4693727Y-1935802D01*
G01X4698814Y-1925818D01*
G01X4700567Y-1914751D01*
G01X4700567Y-1862539D01*
G01X4735255Y-1827851D01*
G01X4740873Y-1821111D01*
G01X4745185Y-1813470D01*
G01X4769065Y-1813470D01*
G01X4785959Y-1830365D01*
G01X4785959Y-1923051D01*
G01X4787712Y-1934118D01*
G01X4792799Y-1944101D01*
G01X4800722Y-1952025D01*
G01X4810706Y-1957112D01*
G01X4821773Y-1958865D01*
G01X4935027Y-1958865D01*
G01X4946094Y-1957112D01*
G01X4956078Y-1952025D01*
G01X4964001Y-1944101D01*
G01X4969088Y-1934118D01*
G01X4970841Y-1923051D01*
G01X4970841Y-1830365D01*
G01X4985959Y-1815247D01*
G01X4985959Y-1923051D01*
G01X4987712Y-1934118D01*
G01X4992799Y-1944101D01*
G01X5000722Y-1952025D01*
G01X5010706Y-1957112D01*
G01X5021773Y-1958865D01*
G01X5114459Y-1958865D01*
G01X5161245Y-2005651D01*
G01X5171293Y-2013360D01*
G01X5182993Y-2018207D01*
G01X5195550Y-2019860D01*
G01X5333999Y-2019860D01*
G01X5346556Y-2018207D01*
G01X5358256Y-2013360D01*
G01X5368304Y-2005651D01*
G01X5414713Y-1959242D01*
G01X5437200Y-1959242D01*
G01X5448584Y-1957384D01*
G01X5458788Y-1952004D01*
G01X5466752Y-1943660D01*
G01X5594849Y-1943660D01*
G01X5607405Y-1942007D01*
G01X5619106Y-1937161D01*
G01X5629153Y-1929451D01*
G01X5635399Y-1923205D01*
G01X5659940Y-1947746D01*
G01X5662615Y-1957789D01*
G01X5668061Y-1966640D01*
G01X5675819Y-1973556D01*
G01X5685236Y-1977952D01*
G01X5695518Y-1979460D01*
G01X5749519Y-1979460D01*
G01X5760902Y-1977603D01*
G01X5771105Y-1972223D01*
G01X5779069Y-1963880D01*
G01X5815167Y-1963880D01*
G01X5822568Y-1969523D01*
G01X5831172Y-1973069D01*
G01X5840400Y-1974278D01*
G01X5894400Y-1974278D01*
G01X5905787Y-1972420D01*
G01X5915992Y-1967038D01*
G01X5923956Y-1958690D01*
G01X5926887Y-1958690D01*
G01X5934690Y-1965830D01*
G01X5944239Y-1970380D01*
G01X5954700Y-1971942D01*
G01X6008700Y-1971942D01*
G01X6020084Y-1970084D01*
G01X6030288Y-1964704D01*
G01X6038252Y-1956360D01*
G01X6051284Y-1956360D01*
G01X6058685Y-1962004D01*
G01X6067290Y-1965551D01*
G01X6076518Y-1966760D01*
G01X6130519Y-1966760D01*
G01X6141586Y-1965007D01*
G01X6151570Y-1959920D01*
G01X6159493Y-1951997D01*
G01X6164580Y-1942013D01*
G01X6166333Y-1930946D01*
G01X6166333Y-1874380D01*
G01X6165500Y-1866702D01*
G01X6163041Y-1859382D01*
G01X6165500Y-1852061D01*
G01X6166333Y-1844383D01*
G01X6166333Y-1787817D01*
G01X6164841Y-1777589D01*
G01X6160491Y-1768213D01*
G01X6153644Y-1760470D01*
G01X6144871Y-1755005D01*
G01X6134903Y-1752272D01*
G01X6075820Y-1693189D01*
G01X6169175Y-1693189D01*
G01X6170995Y-1710511D01*
G01X6176378Y-1727076D01*
G01X6185087Y-1742160D01*
G01X6196741Y-1755104D01*
G01X6210832Y-1765342D01*
G01X6226744Y-1772426D01*
G01X6243781Y-1776048D01*
G01X6261198Y-1776048D01*
G01X6278235Y-1772426D01*
G01X6294147Y-1765342D01*
G01X6308238Y-1755104D01*
G01X6319892Y-1742160D01*
G01X6328601Y-1727076D01*
G01X6333983Y-1710511D01*
G01X6335804Y-1693189D01*
G01X6333983Y-1675867D01*
G01X6328601Y-1659302D01*
G01X6319892Y-1644218D01*
G01X6308238Y-1631275D01*
G01X6294147Y-1621037D01*
G01X6278235Y-1613953D01*
G01X6261198Y-1610331D01*
G01X6243781Y-1610331D01*
G01X6226744Y-1613953D01*
G01X6210832Y-1621037D01*
G01X6196741Y-1631275D01*
G01X6185087Y-1644218D01*
G01X6176378Y-1659302D01*
G01X6170995Y-1675867D01*
G01X6169175Y-1693189D01*
G01X6169175Y-1693189D01*
G01X6075820Y-1693189D01*
G01X6028640Y-1646010D01*
G01X6031278Y-1633746D01*
G01X6031559Y-1621205D01*
G01X6029473Y-1608836D01*
G01X6034501Y-1598898D01*
G01X6036233Y-1587896D01*
G01X6036233Y-1482896D01*
G01X6309599Y-1482896D01*
G01X6311352Y-1493964D01*
G01X6316439Y-1503947D01*
G01X6324362Y-1511871D01*
G01X6334346Y-1516958D01*
G01X6345413Y-1518710D01*
G01X6505412Y-1518710D01*
G01X6516480Y-1516958D01*
G01X6526463Y-1511871D01*
G01X6534387Y-1503947D01*
G01X6539474Y-1493964D01*
G01X6541226Y-1482896D01*
G01X6541226Y-1332897D01*
G01X6540755Y-1329919D01*
G01X7016687Y-1329919D01*
G01X7018562Y-1347760D01*
G01X7024106Y-1364822D01*
G01X7033075Y-1380359D01*
G01X7045080Y-1393691D01*
G01X7059593Y-1404236D01*
G01X7075982Y-1411532D01*
G01X7093530Y-1415262D01*
G01X7111470Y-1415262D01*
G01X7129018Y-1411532D01*
G01X7145407Y-1404236D01*
G01X7159921Y-1393691D01*
G01X7171925Y-1380359D01*
G01X7180895Y-1364822D01*
G01X7186439Y-1347760D01*
G01X7188314Y-1329919D01*
G01X7186439Y-1312077D01*
G01X7180895Y-1295015D01*
G01X7171925Y-1279478D01*
G01X7159921Y-1266146D01*
G01X7145407Y-1255602D01*
G01X7129018Y-1248305D01*
G01X7111470Y-1244575D01*
G01X7093530Y-1244575D01*
G01X7075982Y-1248305D01*
G01X7059593Y-1255602D01*
G01X7045080Y-1266146D01*
G01X7033075Y-1279478D01*
G01X7024106Y-1295015D01*
G01X7018562Y-1312077D01*
G01X7016687Y-1329919D01*
G01X7016687Y-1329919D01*
G01X6540755Y-1329919D01*
G01X6539474Y-1321830D01*
G01X6534387Y-1311846D01*
G01X6526463Y-1303923D01*
G01X6516480Y-1298836D01*
G01X6505412Y-1297083D01*
G01X6345413Y-1297083D01*
G01X6334346Y-1298836D01*
G01X6324362Y-1303923D01*
G01X6316439Y-1311846D01*
G01X6311352Y-1321830D01*
G01X6309599Y-1332897D01*
G01X6309599Y-1482896D01*
G01X6309599Y-1482896D01*
G01X6036233Y-1482896D01*
G01X6036233Y-1427897D01*
G01X6034480Y-1416829D01*
G01X6029393Y-1406846D01*
G01X6021469Y-1398922D01*
G01X6011486Y-1393835D01*
G01X6000419Y-1392083D01*
G01X5930419Y-1392083D01*
G01X5919961Y-1393643D01*
G01X5910415Y-1398190D01*
G01X5900869Y-1393643D01*
G01X5890411Y-1392083D01*
G01X5866570Y-1392083D01*
G01X5693060Y-1218573D01*
G01X5692103Y-1204111D01*
G01X5688026Y-1190202D01*
G01X5681025Y-1177512D01*
G01X5671434Y-1166646D01*
G01X5659712Y-1158122D01*
G01X5646418Y-1152349D01*
G01X5632187Y-1149602D01*
G01X5617699Y-1150012D01*
G01X5603647Y-1153560D01*
G01X5590701Y-1160076D01*
G01X5579479Y-1169249D01*
G01X5570519Y-1180641D01*
G01X5262487Y-872610D01*
G01X5688283Y-872610D01*
G01X5691506Y-888504D01*
G01X5698491Y-903142D01*
G01X5708820Y-915646D01*
G01X5703471Y-930957D01*
G01X5701998Y-947108D01*
G01X5704490Y-963134D01*
G01X5710798Y-978075D01*
G01X5720543Y-991039D01*
G01X5733144Y-1001249D01*
G01X5747846Y-1008096D01*
G01X5763771Y-1011169D01*
G01X5779965Y-1010284D01*
G01X5779965Y-1010284D01*
G01X5795460Y-1005495D01*
G01X5809330Y-997088D01*
G01X5820744Y-985566D01*
G01X5829019Y-971618D01*
G01X5833662Y-956079D01*
G01X5834394Y-939877D01*
G01X5831171Y-923982D01*
G01X5824186Y-909345D01*
G01X5813858Y-896841D01*
G01X5819207Y-881530D01*
G01X5820679Y-865378D01*
G01X5820592Y-864817D01*
G01X6167706Y-864817D01*
G01X6168120Y-880168D01*
G01X6172054Y-895012D01*
G01X6179296Y-908554D01*
G01X6189459Y-920067D01*
G01X6201998Y-928933D01*
G01X6216240Y-934677D01*
G01X6231421Y-936991D01*
G01X6294484Y-1000055D01*
G01X6296799Y-1015236D01*
G01X6302543Y-1029478D01*
G01X6311409Y-1042016D01*
G01X6322922Y-1052180D01*
G01X6336463Y-1059422D01*
G01X6351307Y-1063356D01*
G01X6366658Y-1063769D01*
G01X6381693Y-1060641D01*
G01X6395605Y-1054138D01*
G01X6407648Y-1044609D01*
G01X6417176Y-1032566D01*
G01X6423679Y-1018654D01*
G01X6426808Y-1003620D01*
G01X6426600Y-995907D01*
G01X6769536Y-995907D01*
G01X6769872Y-1017488D01*
G01X6774207Y-1038632D01*
G01X6782390Y-1058604D01*
G01X6794137Y-1076711D01*
G01X6809040Y-1092324D01*
G01X6826580Y-1104900D01*
G01X6809040Y-1117476D01*
G01X6794137Y-1133089D01*
G01X6782390Y-1151196D01*
G01X6774207Y-1171168D01*
G01X6769872Y-1192312D01*
G01X6769536Y-1213893D01*
G01X6773210Y-1235161D01*
G01X6780766Y-1255378D01*
G01X6791943Y-1273843D01*
G01X6806351Y-1289913D01*
G01X6823491Y-1303030D01*
G01X6842768Y-1312739D01*
G01X6863511Y-1318702D01*
G01X6885000Y-1320714D01*
G01X6885000Y-1320714D01*
G01X6906490Y-1318702D01*
G01X6927233Y-1312739D01*
G01X6946509Y-1303030D01*
G01X6963649Y-1289913D01*
G01X6978058Y-1273843D01*
G01X6989234Y-1255378D01*
G01X6996791Y-1235161D01*
G01X7000464Y-1213893D01*
G01X7000128Y-1192312D01*
G01X6995793Y-1171168D01*
G01X6987610Y-1151196D01*
G01X6975863Y-1133089D01*
G01X6960961Y-1117476D01*
G01X6943420Y-1104900D01*
G01X6960961Y-1092324D01*
G01X6975863Y-1076711D01*
G01X6987610Y-1058604D01*
G01X6995793Y-1038632D01*
G01X7000128Y-1017488D01*
G01X7000464Y-995907D01*
G01X6996791Y-974639D01*
G01X6989234Y-954422D01*
G01X6978058Y-935957D01*
G01X6963649Y-919887D01*
G01X6946509Y-906770D01*
G01X6927233Y-897061D01*
G01X6906490Y-891098D01*
G01X6885000Y-889086D01*
G01X6863511Y-891098D01*
G01X6842768Y-897061D01*
G01X6823491Y-906770D01*
G01X6806351Y-919887D01*
G01X6791943Y-935957D01*
G01X6780766Y-954422D01*
G01X6773210Y-974639D01*
G01X6769536Y-995907D01*
G01X6426600Y-995907D01*
G01X6426394Y-988269D01*
G01X6422461Y-973424D01*
G01X6415218Y-959883D01*
G01X6405055Y-948370D01*
G01X6392516Y-939504D01*
G01X6378275Y-933760D01*
G01X6363093Y-931446D01*
G01X6311555Y-879907D01*
G01X7016687Y-879907D01*
G01X7018562Y-897749D01*
G01X7024106Y-914810D01*
G01X7033075Y-930347D01*
G01X7045080Y-943679D01*
G01X7059593Y-954224D01*
G01X7075982Y-961521D01*
G01X7093530Y-965251D01*
G01X7111470Y-965251D01*
G01X7129018Y-961521D01*
G01X7145407Y-954224D01*
G01X7159921Y-943679D01*
G01X7171925Y-930347D01*
G01X7180895Y-914810D01*
G01X7186439Y-897749D01*
G01X7188314Y-879907D01*
G01X7186439Y-862065D01*
G01X7180895Y-845003D01*
G01X7171925Y-829467D01*
G01X7159921Y-816135D01*
G01X7145407Y-805590D01*
G01X7129018Y-798293D01*
G01X7111470Y-794563D01*
G01X7093530Y-794563D01*
G01X7075982Y-798293D01*
G01X7059593Y-805590D01*
G01X7045080Y-816135D01*
G01X7033075Y-829467D01*
G01X7024106Y-845003D01*
G01X7018562Y-862065D01*
G01X7016687Y-879907D01*
G01X7016687Y-879907D01*
G01X6311555Y-879907D01*
G01X6300030Y-868382D01*
G01X6297716Y-853201D01*
G01X6291971Y-838959D01*
G01X6283105Y-826420D01*
G01X6271593Y-816257D01*
G01X6258051Y-809015D01*
G01X6243207Y-805081D01*
G01X6227856Y-804668D01*
G01X6212821Y-807796D01*
G01X6198909Y-814299D01*
G01X6186866Y-823828D01*
G01X6186866Y-823828D01*
G01X6177338Y-835871D01*
G01X6170835Y-849782D01*
G01X6167706Y-864817D01*
G01X5820592Y-864817D01*
G01X5818187Y-849353D01*
G01X5811880Y-834411D01*
G01X5802134Y-821447D01*
G01X5789533Y-811237D01*
G01X5774831Y-804391D01*
G01X5758906Y-801318D01*
G01X5742712Y-802202D01*
G01X5727217Y-806991D01*
G01X5713347Y-815398D01*
G01X5701934Y-826920D01*
G01X5693658Y-840868D01*
G01X5689015Y-856408D01*
G01X5688283Y-872610D01*
G01X5262487Y-872610D01*
G01X5182456Y-792578D01*
G01X5981834Y-792578D01*
G01X5983761Y-808448D01*
G01X5989430Y-823396D01*
G01X5998511Y-836553D01*
G01X6010477Y-847154D01*
G01X6024632Y-854583D01*
G01X6040154Y-858409D01*
G01X6056141Y-858409D01*
G01X6071663Y-854583D01*
G01X6085818Y-847154D01*
G01X6097784Y-836553D01*
G01X6106866Y-823396D01*
G01X6112535Y-808448D01*
G01X6114462Y-792578D01*
G01X6112535Y-776708D01*
G01X6106866Y-761761D01*
G01X6097784Y-748604D01*
G01X6085818Y-738003D01*
G01X6071663Y-730574D01*
G01X6056141Y-726748D01*
G01X6040154Y-726748D01*
G01X6024632Y-730574D01*
G01X6010477Y-738003D01*
G01X5998511Y-748604D01*
G01X5989430Y-761761D01*
G01X5983761Y-776708D01*
G01X5981834Y-792578D01*
G01X5981834Y-792578D01*
G01X5182456Y-792578D01*
G01X5148878Y-759000D01*
G01X5139597Y-751878D01*
G01X5128788Y-747401D01*
G01X5117190Y-745874D01*
G01X4778411Y-745874D01*
G01X4780337Y-734289D01*
G01X4780337Y-680288D01*
G01X4778584Y-669221D01*
G01X4773497Y-659237D01*
G01X4765574Y-651314D01*
G01X4755590Y-646227D01*
G01X4744523Y-644474D01*
G01X4694523Y-644474D01*
G01X4685750Y-645565D01*
G01X4677512Y-648772D01*
G01X4669273Y-645565D01*
G01X4660500Y-644474D01*
G01X4657343Y-644474D01*
G01X4615659Y-602790D01*
G01X4606378Y-595669D01*
G01X4595570Y-591192D01*
G01X4583971Y-589665D01*
G01X4573362Y-589665D01*
G01X4573999Y-576515D01*
G01X4572025Y-563499D01*
G01X4567520Y-551130D01*
G01X4560659Y-539894D01*
G01X4566516Y-530656D01*
G01X4570774Y-520581D01*
G01X4570774Y-535000D01*
G01X4572527Y-546067D01*
G01X4577614Y-556051D01*
G01X4585538Y-563974D01*
G01X4595521Y-569061D01*
G01X4606588Y-570814D01*
G01X4656588Y-570814D01*
G01X4665361Y-569723D01*
G01X4673600Y-566516D01*
G01X4681839Y-569723D01*
G01X4690612Y-570814D01*
G01X4740612Y-570814D01*
G01X4751679Y-569061D01*
G01X4761662Y-563974D01*
G01X4767733Y-557903D01*
G01X4869581Y-557903D01*
G01X4871334Y-568971D01*
G01X4876421Y-578954D01*
G01X4884344Y-586878D01*
G01X4894328Y-591965D01*
G01X4905395Y-593717D01*
G01X5025395Y-593717D01*
G01X5036462Y-591965D01*
G01X5046446Y-586878D01*
G01X5054369Y-578954D01*
G01X5059456Y-568971D01*
G01X5061209Y-557903D01*
G01X6419591Y-557903D01*
G01X6421344Y-568971D01*
G01X6426431Y-578954D01*
G01X6434354Y-586878D01*
G01X6444338Y-591965D01*
G01X6455405Y-593717D01*
G01X6575405Y-593717D01*
G01X6586472Y-591965D01*
G01X6596456Y-586878D01*
G01X6604379Y-578954D01*
G01X6609466Y-568971D01*
G01X6611219Y-557903D01*
G01X6611219Y-337904D01*
G01X6609466Y-326837D01*
G01X6604379Y-316853D01*
G01X6596456Y-308930D01*
G01X6586472Y-303843D01*
G01X6575405Y-302090D01*
G01X6455405Y-302090D01*
G01X6444338Y-303843D01*
G01X6434354Y-308930D01*
G01X6426431Y-316853D01*
G01X6421344Y-326837D01*
G01X6419591Y-337904D01*
G01X6419591Y-557903D01*
G01X6419591Y-557903D01*
G01X5061209Y-557903D01*
G01X5061209Y-557903D01*
G01X5061209Y-407899D01*
G01X5149591Y-407899D01*
G01X5151432Y-426591D01*
G01X5156884Y-444565D01*
G01X5165738Y-461130D01*
G01X5177654Y-475649D01*
G01X5192173Y-487565D01*
G01X5208738Y-496419D01*
G01X5226712Y-501871D01*
G01X5245405Y-503712D01*
G01X5264097Y-501871D01*
G01X5282071Y-496419D01*
G01X5298636Y-487565D01*
G01X5313155Y-475649D01*
G01X5325071Y-461130D01*
G01X5333925Y-444565D01*
G01X5339378Y-426591D01*
G01X5341219Y-407899D01*
G01X5341219Y-407899D01*
G01X5949589Y-407899D01*
G01X5951430Y-426591D01*
G01X5956883Y-444565D01*
G01X5965737Y-461130D01*
G01X5977653Y-475649D01*
G01X5992172Y-487565D01*
G01X6008737Y-496419D01*
G01X6026711Y-501871D01*
G01X6045403Y-503712D01*
G01X6064096Y-501871D01*
G01X6082070Y-496419D01*
G01X6098635Y-487565D01*
G01X6113154Y-475649D01*
G01X6125070Y-461130D01*
G01X6133924Y-444565D01*
G01X6139376Y-426591D01*
G01X6141217Y-407899D01*
G01X6139376Y-389206D01*
G01X6133924Y-371232D01*
G01X6125070Y-354667D01*
G01X6113154Y-340148D01*
G01X6098635Y-328232D01*
G01X6082070Y-319378D01*
G01X6064096Y-313926D01*
G01X6045403Y-312085D01*
G01X6026711Y-313926D01*
G01X6008737Y-319378D01*
G01X5992172Y-328232D01*
G01X5977653Y-340148D01*
G01X5965737Y-354667D01*
G01X5956883Y-371232D01*
G01X5951430Y-389206D01*
G01X5949589Y-407899D01*
G01X5949589Y-407899D01*
G01X5341219Y-407899D01*
G01X5339378Y-389206D01*
G01X5333925Y-371232D01*
G01X5325071Y-354667D01*
G01X5313155Y-340148D01*
G01X5298636Y-328232D01*
G01X5282071Y-319378D01*
G01X5264097Y-313926D01*
G01X5245405Y-312085D01*
G01X5226712Y-313926D01*
G01X5208738Y-319378D01*
G01X5192173Y-328232D01*
G01X5177654Y-340148D01*
G01X5165738Y-354667D01*
G01X5156884Y-371232D01*
G01X5151432Y-389206D01*
G01X5149591Y-407899D01*
G01X5149591Y-407899D01*
G01X5061209Y-407899D01*
G01X5061209Y-337904D01*
G01X5059456Y-326837D01*
G01X5054369Y-316853D01*
G01X5046446Y-308930D01*
G01X5036462Y-303843D01*
G01X5025395Y-302090D01*
G01X4905395Y-302090D01*
G01X4894328Y-303843D01*
G01X4884344Y-308930D01*
G01X4876421Y-316853D01*
G01X4871334Y-326837D01*
G01X4869581Y-337904D01*
G01X4869581Y-557903D01*
G01X4869581Y-557903D01*
G01X4767733Y-557903D01*
G01X4769586Y-556051D01*
G01X4774673Y-546067D01*
G01X4776426Y-535000D01*
G01X4776426Y-481000D01*
G01X4774673Y-469933D01*
G01X4769586Y-459949D01*
G01X4761662Y-452026D01*
G01X4751679Y-446939D01*
G01X4740612Y-445186D01*
G01X4690612Y-445186D01*
G01X4681839Y-446277D01*
G01X4673600Y-449484D01*
G01X4665361Y-446277D01*
G01X4656588Y-445186D01*
G01X4632154Y-445186D01*
G01X4578289Y-391321D01*
G01X4569008Y-384199D01*
G01X4558200Y-379722D01*
G01X4546601Y-378195D01*
G01X4439015Y-378195D01*
G01X4439015Y-372209D01*
G01X4437488Y-360611D01*
G01X4433011Y-349802D01*
G01X4425889Y-340521D01*
G01X4253814Y-168446D01*
G01X4253814Y-144012D01*
G01X4252723Y-135239D01*
G01X4249516Y-127000D01*
G01X4252723Y-118761D01*
G01X4253814Y-109988D01*
G01X4253814Y-59988D01*
G01X4252727Y-51232D01*
G01X4249533Y-43008D01*
G01X4244424Y-35814D01*
G01X7284986Y-35814D01*
G01X7284986Y-456272D01*
G01X7276761Y-430156D01*
G01X7265143Y-405364D01*
G01X7250337Y-382333D01*
G01X7232604Y-361471D01*
G01X7212259Y-343147D01*
G01X7189662Y-327687D01*
G01X7165213Y-315362D01*
G01X7139344Y-306392D01*
G01X7112514Y-300935D01*
G01X7085196Y-299088D01*
G01X7057875Y-300883D01*
G01X7031034Y-306289D01*
G01X7005148Y-315209D01*
G01X6980676Y-327487D01*
G01X6958049Y-342905D01*
G01X6937670Y-361189D01*
G01X6919897Y-382017D01*
G01X6905047Y-405020D01*
G01X6893381Y-429791D01*
G01X6885107Y-455890D01*
G01X6880370Y-482857D01*
G01X6879255Y-510214D01*
G01X6881781Y-537478D01*
G01X6887903Y-564164D01*
G01X6897514Y-589802D01*
G01X6910442Y-613937D01*
G01X6926460Y-636143D01*
G01X6945284Y-656026D01*
G01X6926896Y-646943D01*
G01X6907195Y-641246D01*
G01X6886797Y-639114D01*
G01X6866344Y-640612D01*
G01X6846475Y-645695D01*
G01X6827814Y-654203D01*
G01X6810947Y-665869D01*
G01X6796402Y-680327D01*
G01X6784635Y-697124D01*
G01X6776015Y-715733D01*
G01X6770813Y-735571D01*
G01X6769192Y-756015D01*
G01X6771202Y-776425D01*
G01X6776780Y-796160D01*
G01X6785752Y-814602D01*
G01X6797837Y-831172D01*
G01X6812654Y-845351D01*
G01X6829740Y-856693D01*
G01X6848559Y-864845D01*
G01X6868521Y-869549D01*
G01X6889000Y-870658D01*
G01X6909353Y-868138D01*
G01X6928942Y-862067D01*
G01X6947154Y-852637D01*
G01X6963416Y-840141D01*
G01X6977220Y-824974D01*
G01X6988131Y-807609D01*
G01X6995809Y-788592D01*
G01X7000012Y-768519D01*
G01X7000609Y-748019D01*
G01X6997580Y-727735D01*
G01X6991021Y-708304D01*
G01X6981137Y-690334D01*
G01X6968239Y-674389D01*
G01X6992710Y-688863D01*
G01X7018943Y-699826D01*
G01X7046435Y-707070D01*
G01X7074664Y-710455D01*
G01X7103090Y-709918D01*
G01X7131171Y-705469D01*
G01X7158371Y-697192D01*
G01X7184171Y-685246D01*
G01X7208078Y-669859D01*
G01X7229636Y-651324D01*
G01X7248435Y-629994D01*
G01X7264114Y-606278D01*
G01X7276376Y-580627D01*
G01X7284986Y-553530D01*
G37*
G36*
G01X23114Y-879575D02*
G01X23114Y-763988D01*
G01X301185Y-763988D01*
G01X303112Y-779858D01*
G01X308781Y-794806D01*
G01X317863Y-807963D01*
G01X329829Y-818564D01*
G01X343984Y-825993D01*
G01X359506Y-829819D01*
G01X375493Y-829819D01*
G01X391015Y-825993D01*
G01X405170Y-818564D01*
G01X417136Y-807963D01*
G01X426217Y-794806D01*
G01X431530Y-780798D01*
G01X851495Y-780798D01*
G01X853422Y-796668D01*
G01X859091Y-811616D01*
G01X868172Y-824773D01*
G01X880138Y-835374D01*
G01X894293Y-842803D01*
G01X909815Y-846629D01*
G01X925802Y-846629D01*
G01X941324Y-842803D01*
G01X955479Y-835374D01*
G01X967445Y-824773D01*
G01X976527Y-811616D01*
G01X982196Y-796668D01*
G01X984123Y-780798D01*
G01X982196Y-764928D01*
G01X976527Y-749981D01*
G01X967445Y-736824D01*
G01X955479Y-726223D01*
G01X941324Y-718794D01*
G01X925802Y-714968D01*
G01X909815Y-714968D01*
G01X894293Y-718794D01*
G01X880138Y-726223D01*
G01X868172Y-736824D01*
G01X859091Y-749981D01*
G01X853422Y-764928D01*
G01X851495Y-780798D01*
G01X851495Y-780798D01*
G01X431530Y-780798D01*
G01X431886Y-779858D01*
G01X433813Y-763988D01*
G01X431886Y-748119D01*
G01X426217Y-733171D01*
G01X417136Y-720014D01*
G01X405170Y-709413D01*
G01X391015Y-701984D01*
G01X375493Y-698158D01*
G01X359506Y-698158D01*
G01X343984Y-701984D01*
G01X329829Y-709413D01*
G01X317863Y-720014D01*
G01X308781Y-733171D01*
G01X303112Y-748119D01*
G01X301185Y-763988D01*
G01X301185Y-763988D01*
G01X23114Y-763988D01*
G01X23114Y-723253D01*
G01X37770Y-729783D01*
G01X53310Y-733776D01*
G01X69299Y-735119D01*
G01X189299Y-735119D01*
G01X207991Y-733278D01*
G01X225965Y-727826D01*
G01X242530Y-718972D01*
G01X257049Y-707056D01*
G01X268965Y-692537D01*
G01X277819Y-675972D01*
G01X283271Y-657998D01*
G01X285112Y-639305D01*
G01X283271Y-620613D01*
G01X277819Y-602639D01*
G01X268965Y-586074D01*
G01X257049Y-571555D01*
G01X242530Y-559639D01*
G01X225965Y-550785D01*
G01X207991Y-545332D01*
G01X189299Y-543491D01*
G01X69299Y-543491D01*
G01X53310Y-544835D01*
G01X37770Y-548827D01*
G01X23114Y-555357D01*
G01X23114Y-105212D01*
G01X258286Y-105212D01*
G01X258286Y-185212D01*
G01X260039Y-196279D01*
G01X265126Y-206263D01*
G01X273049Y-214186D01*
G01X283033Y-219273D01*
G01X294100Y-221026D01*
G01X452101Y-221026D01*
G01X463168Y-219273D01*
G01X473152Y-214186D01*
G01X481075Y-206263D01*
G01X486162Y-196279D01*
G01X487915Y-185212D01*
G01X487915Y-105212D01*
G01X487915Y-105212D01*
G01X486162Y-94145D01*
G01X481075Y-84161D01*
G01X473152Y-76238D01*
G01X463168Y-71151D01*
G01X452101Y-69398D01*
G01X294100Y-69398D01*
G01X283033Y-71151D01*
G01X273049Y-76238D01*
G01X265126Y-84161D01*
G01X260039Y-94145D01*
G01X258286Y-105212D01*
G01X23114Y-105212D01*
G01X23114Y-35814D01*
G01X3241403Y-35814D01*
G01X3234971Y-43997D01*
G01X3229899Y-53086D01*
G01X3218599Y-53086D01*
G01X3206554Y-46612D01*
G01X3193437Y-42747D01*
G01X3179806Y-41654D01*
G01X3166241Y-43380D01*
G01X3153318Y-47852D01*
G01X3141587Y-54879D01*
G01X3131547Y-64163D01*
G01X3123625Y-75309D01*
G01X3118158Y-87843D01*
G01X3115377Y-101232D01*
G01X3115402Y-114907D01*
G01X3118231Y-128286D01*
G01X2921004Y-128286D01*
G01X2912314Y-129136D01*
G01X2912314Y-85101D01*
G01X2910562Y-74034D01*
G01X2905475Y-64050D01*
G01X2897551Y-56127D01*
G01X2887568Y-51040D01*
G01X2876500Y-49287D01*
G01X2711500Y-49287D01*
G01X2700432Y-51040D01*
G01X2690449Y-56127D01*
G01X2682525Y-64050D01*
G01X2677438Y-74034D01*
G01X2675686Y-85101D01*
G01X2675686Y-515101D01*
G01X2677438Y-526168D01*
G01X2682525Y-536152D01*
G01X2690449Y-544075D01*
G01X2700432Y-549162D01*
G01X2711500Y-550915D01*
G01X2876500Y-550915D01*
G01X2887568Y-549162D01*
G01X2897551Y-544075D01*
G01X2905475Y-536152D01*
G01X2910562Y-526168D01*
G01X2912314Y-515101D01*
G01X2912314Y-245166D01*
G01X2939567Y-217914D01*
G01X3122253Y-217914D01*
G01X3121391Y-229412D01*
G01X3122534Y-240885D01*
G01X3125647Y-251988D01*
G01X3109935Y-251408D01*
G01X3094527Y-254544D01*
G01X3080292Y-261219D01*
G01X3068027Y-271058D01*
G01X3058424Y-283508D01*
G01X3052022Y-297869D01*
G01X3049181Y-313333D01*
G01X3050061Y-329031D01*
G01X3054611Y-344082D01*
G01X3062577Y-357637D01*
G01X3073510Y-368937D01*
G01X3086797Y-377344D01*
G01X3101689Y-382388D01*
G01X3117350Y-383784D01*
G01X3132899Y-381453D01*
G01X3147463Y-375527D01*
G01X3160222Y-366339D01*
G01X3170459Y-354405D01*
G01X3177599Y-340397D01*
G01X3181241Y-325101D01*
G01X3181179Y-309378D01*
G01X3177417Y-294112D01*
G01X3192323Y-294753D01*
G01X3206996Y-292045D01*
G01X3220691Y-286125D01*
G01X3232716Y-277294D01*
G01X3245462Y-286694D01*
G01X3260073Y-292805D01*
G01X3275717Y-295276D01*
G01X3291500Y-293968D01*
G01X3296348Y-304526D01*
G01X3304319Y-312976D01*
G01X3314577Y-318430D01*
G01X3326040Y-320314D01*
G01X3367403Y-320314D01*
G01X3357818Y-325545D01*
G01X3350255Y-333420D01*
G01X3345416Y-343208D01*
G01X3343751Y-354000D01*
G01X3343751Y-408000D01*
G01X3344916Y-417060D01*
G01X3348335Y-425531D01*
G01X3353786Y-432861D01*
G01X3346015Y-438514D01*
G01X3340027Y-446029D01*
G01X3336252Y-454866D01*
G01X3334963Y-464388D01*
G01X3334963Y-505875D01*
G01X3284131Y-505875D01*
G01X3284131Y-436658D01*
G01X3282378Y-425591D01*
G01X3277291Y-415607D01*
G01X3269368Y-407684D01*
G01X3259384Y-402597D01*
G01X3248317Y-400844D01*
G01X3167669Y-400844D01*
G01X3158055Y-402159D01*
G01X3149147Y-406006D01*
G01X3141599Y-412103D01*
G01X3135964Y-420002D01*
G01X3132657Y-429124D01*
G01X3129349Y-420002D01*
G01X3123714Y-412103D01*
G01X3116166Y-406006D01*
G01X3107258Y-402159D01*
G01X3097644Y-400844D01*
G01X3053399Y-400844D01*
G01X3049669Y-386533D01*
G01X3042860Y-373404D01*
G01X3033310Y-362111D01*
G01X3021495Y-353215D01*
G01X3008002Y-347159D01*
G01X2993503Y-344244D01*
G01X2978718Y-344615D01*
G01X2964383Y-348254D01*
G01X2951211Y-354979D01*
G01X2939857Y-364456D01*
G01X2930886Y-376214D01*
G01X2924744Y-389668D01*
G01X2921737Y-404149D01*
G01X2922014Y-418936D01*
G01X2925561Y-433294D01*
G01X2932202Y-446508D01*
G01X2941606Y-457922D01*
G01X2953307Y-466968D01*
G01X2966721Y-473196D01*
G01X2981183Y-476296D01*
G01X2981183Y-523059D01*
G01X2983173Y-534832D01*
G01X2988923Y-545297D01*
G01X2997794Y-553290D01*
G01X3008800Y-557922D01*
G01X3008800Y-1045308D01*
G01X3009641Y-1054302D01*
G01X3012135Y-1062984D01*
G01X2929915Y-1062984D01*
G01X2929915Y-1046104D01*
G01X2928163Y-1035037D01*
G01X2923076Y-1025053D01*
G01X2915152Y-1017130D01*
G01X2905169Y-1012043D01*
G01X2894101Y-1010290D01*
G01X2872917Y-1010290D01*
G01X2871309Y-995376D01*
G01X2866389Y-981205D01*
G01X2858411Y-968502D01*
G01X2847781Y-957917D01*
G01X2835044Y-949992D01*
G01X2839976Y-938204D01*
G01X2841658Y-925538D01*
G01X2841658Y-903563D01*
G01X2852663Y-898931D01*
G01X2861534Y-890938D01*
G01X2867284Y-880473D01*
G01X2869274Y-868700D01*
G01X2869274Y-782300D01*
G01X2867521Y-771233D01*
G01X2862434Y-761249D01*
G01X2854511Y-753326D01*
G01X2844527Y-748239D01*
G01X2833460Y-746486D01*
G01X2752813Y-746486D01*
G01X2743199Y-747800D01*
G01X2734291Y-751647D01*
G01X2726742Y-757744D01*
G01X2721107Y-765644D01*
G01X2717800Y-774766D01*
G01X2715541Y-767815D01*
G01X2722125Y-753901D01*
G01X2725322Y-738844D01*
G01X2724963Y-723455D01*
G01X2721065Y-708564D01*
G01X2713839Y-694973D01*
G01X2703674Y-683414D01*
G01X2691118Y-674509D01*
G01X2676847Y-668740D01*
G01X2661631Y-666416D01*
G01X2536227Y-541011D01*
G01X2542235Y-533490D01*
G01X2546023Y-524640D01*
G01X2547316Y-515101D01*
G01X2547316Y-85101D01*
G01X2545564Y-74034D01*
G01X2540477Y-64050D01*
G01X2532553Y-56127D01*
G01X2522570Y-51040D01*
G01X2511502Y-49287D01*
G01X2346502Y-49287D01*
G01X2335434Y-51040D01*
G01X2325451Y-56127D01*
G01X2317527Y-64050D01*
G01X2312440Y-74034D01*
G01X2310688Y-85101D01*
G01X2310688Y-515101D01*
G01X2312440Y-526168D01*
G01X2317527Y-536152D01*
G01X2325451Y-544075D01*
G01X2335434Y-549162D01*
G01X2346502Y-550915D01*
G01X2408912Y-550915D01*
G01X2593022Y-735025D01*
G01X2594608Y-747287D01*
G01X2585485Y-750594D01*
G01X2577585Y-756229D01*
G01X2571488Y-763777D01*
G01X2567640Y-772686D01*
G01X2566326Y-782300D01*
G01X2566326Y-833028D01*
G01X2469474Y-929880D01*
G01X2419348Y-929880D01*
G01X2423497Y-920685D01*
G01X2424918Y-910698D01*
G01X2424918Y-660698D01*
G01X2423165Y-649631D01*
G01X2418078Y-639648D01*
G01X2410155Y-631724D01*
G01X2400171Y-626637D01*
G01X2389104Y-624884D01*
G01X2069104Y-624884D01*
G01X2058037Y-626637D01*
G01X2048053Y-631724D01*
G01X2040130Y-639648D01*
G01X2035043Y-649631D01*
G01X2033290Y-660698D01*
G01X2033290Y-881673D01*
G01X1512079Y-360462D01*
G01X1593078Y-360462D01*
G01X1596398Y-375654D01*
G01X1603164Y-389655D01*
G01X1613005Y-401696D01*
G01X1625380Y-411114D01*
G01X1639607Y-417391D01*
G01X1654906Y-420182D01*
G01X1670433Y-419334D01*
G01X1685336Y-414892D01*
G01X1698795Y-407102D01*
G01X1710070Y-396392D01*
G01X1711098Y-411909D01*
G01X1715711Y-426760D01*
G01X1723655Y-440128D01*
G01X1734495Y-451279D01*
G01X1747633Y-459598D01*
G01X1762347Y-464629D01*
G01X1777829Y-466095D01*
G01X1793226Y-463916D01*
G01X1807692Y-458210D01*
G01X1820432Y-449293D01*
G01X1830745Y-437653D01*
G01X1838063Y-423933D01*
G01X1838063Y-423933D01*
G01X1841985Y-408884D01*
G01X1842295Y-393337D01*
G01X1838975Y-378145D01*
G01X1832209Y-364143D01*
G01X1828421Y-359509D01*
G01X2032452Y-359509D01*
G01X2034379Y-375379D01*
G01X2040048Y-390327D01*
G01X2049129Y-403484D01*
G01X2061095Y-414085D01*
G01X2075251Y-421514D01*
G01X2090773Y-425340D01*
G01X2106759Y-425340D01*
G01X2122281Y-421514D01*
G01X2136436Y-414085D01*
G01X2148402Y-403484D01*
G01X2157484Y-390327D01*
G01X2163153Y-375379D01*
G01X2165080Y-359509D01*
G01X2163153Y-343639D01*
G01X2157484Y-328692D01*
G01X2148402Y-315535D01*
G01X2136436Y-304934D01*
G01X2122281Y-297505D01*
G01X2106759Y-293679D01*
G01X2090773Y-293679D01*
G01X2075251Y-297505D01*
G01X2061095Y-304934D01*
G01X2049129Y-315535D01*
G01X2040048Y-328692D01*
G01X2034379Y-343639D01*
G01X2032452Y-359509D01*
G01X2032452Y-359509D01*
G01X1828421Y-359509D01*
G01X1822368Y-352102D01*
G01X1809993Y-342685D01*
G01X1795765Y-336408D01*
G01X1780467Y-333617D01*
G01X1764940Y-334465D01*
G01X1750037Y-338906D01*
G01X1736578Y-346696D01*
G01X1725303Y-357406D01*
G01X1724275Y-341889D01*
G01X1719662Y-327038D01*
G01X1711718Y-313670D01*
G01X1700878Y-302520D01*
G01X1687740Y-294200D01*
G01X1673026Y-289169D01*
G01X1657544Y-287703D01*
G01X1642147Y-289883D01*
G01X1627681Y-295588D01*
G01X1614941Y-304506D01*
G01X1604628Y-316145D01*
G01X1597310Y-329866D01*
G01X1593388Y-344914D01*
G01X1593078Y-360462D01*
G01X1512079Y-360462D01*
G01X1429302Y-277685D01*
G01X1419255Y-269975D01*
G01X1407554Y-265128D01*
G01X1394998Y-263475D01*
G01X1140998Y-263475D01*
G01X1130822Y-264555D01*
G01X1121098Y-267745D01*
G01X1125624Y-253623D01*
G01X1126899Y-238849D01*
G01X1125476Y-228600D01*
G01X1709983Y-228600D01*
G01X1711909Y-244470D01*
G01X1717578Y-259417D01*
G01X1726660Y-272574D01*
G01X1738626Y-283175D01*
G01X1752781Y-290604D01*
G01X1768303Y-294430D01*
G01X1784290Y-294430D01*
G01X1799812Y-290604D01*
G01X1813967Y-283175D01*
G01X1825933Y-272574D01*
G01X1835015Y-259417D01*
G01X1840683Y-244470D01*
G01X1842610Y-228600D01*
G01X1840683Y-212730D01*
G01X1835015Y-197782D01*
G01X1825933Y-184625D01*
G01X1813967Y-174024D01*
G01X1799812Y-166595D01*
G01X1784290Y-162769D01*
G01X1768303Y-162769D01*
G01X1752781Y-166595D01*
G01X1738626Y-174024D01*
G01X1726660Y-184625D01*
G01X1717578Y-197782D01*
G01X1711909Y-212730D01*
G01X1709983Y-228600D01*
G01X1709983Y-228600D01*
G01X1125476Y-228600D01*
G01X1124860Y-224161D01*
G01X1119607Y-210293D01*
G01X1111403Y-197939D01*
G01X1100660Y-187717D01*
G01X1087914Y-180138D01*
G01X1087914Y-105212D01*
G01X1086161Y-94145D01*
G01X1081074Y-84161D01*
G01X1073151Y-76238D01*
G01X1063167Y-71151D01*
G01X1052100Y-69398D01*
G01X894099Y-69398D01*
G01X883032Y-71151D01*
G01X873048Y-76238D01*
G01X865125Y-84161D01*
G01X860038Y-94145D01*
G01X858285Y-105212D01*
G01X858285Y-185212D01*
G01X860038Y-196279D01*
G01X865125Y-206263D01*
G01X873048Y-214186D01*
G01X883032Y-219273D01*
G01X894099Y-221026D01*
G01X997239Y-221026D01*
G01X994403Y-236765D01*
G01X995417Y-252725D01*
G01X1000223Y-267978D01*
G01X1008541Y-281637D01*
G01X1019886Y-292908D01*
G01X1033600Y-301135D01*
G01X1048885Y-305839D01*
G01X1064852Y-306748D01*
G01X1080571Y-303807D01*
G01X945004Y-439374D01*
G01X894099Y-439374D01*
G01X882402Y-441338D01*
G01X871989Y-447014D01*
G01X864000Y-455780D01*
G01X859312Y-466675D01*
G01X486888Y-466675D01*
G01X482200Y-455780D01*
G01X474211Y-447014D01*
G01X463798Y-441338D01*
G01X452101Y-439374D01*
G01X294100Y-439374D01*
G01X283033Y-441127D01*
G01X273049Y-446214D01*
G01X265126Y-454137D01*
G01X260039Y-464121D01*
G01X258286Y-475188D01*
G01X258286Y-555188D01*
G01X260039Y-566255D01*
G01X265126Y-576239D01*
G01X273049Y-584162D01*
G01X283033Y-589249D01*
G01X294100Y-591002D01*
G01X452101Y-591002D01*
G01X463797Y-589038D01*
G01X474211Y-583363D01*
G01X482200Y-574597D01*
G01X486888Y-563703D01*
G01X859312Y-563703D01*
G01X864000Y-574597D01*
G01X871989Y-583363D01*
G01X882403Y-589038D01*
G01X894099Y-591002D01*
G01X1052100Y-591002D01*
G01X1063167Y-589249D01*
G01X1073151Y-584162D01*
G01X1081074Y-576239D01*
G01X1086161Y-566255D01*
G01X1087914Y-555188D01*
G01X1087914Y-475188D01*
G01X1086321Y-464627D01*
G01X1081685Y-455006D01*
G01X1074418Y-447179D01*
G01X1106769Y-414827D01*
G01X1106769Y-1952613D01*
G01X1108029Y-1962029D01*
G01X1111720Y-1970782D01*
G01X1100614Y-1970782D01*
G01X1100614Y-1897588D01*
G01X1098861Y-1886521D01*
G01X1093774Y-1876537D01*
G01X1085851Y-1868614D01*
G01X1075867Y-1863527D01*
G01X1064800Y-1861774D01*
G01X906799Y-1861774D01*
G01X897592Y-1862978D01*
G01X889005Y-1866508D01*
G01X881613Y-1872127D01*
G01X881613Y-1633073D01*
G01X889005Y-1638692D01*
G01X897592Y-1642222D01*
G01X906799Y-1643426D01*
G01X1064800Y-1643426D01*
G01X1075867Y-1641673D01*
G01X1085851Y-1636586D01*
G01X1093774Y-1628663D01*
G01X1098861Y-1618679D01*
G01X1100614Y-1607612D01*
G01X1100614Y-1527612D01*
G01X1098861Y-1516545D01*
G01X1093774Y-1506561D01*
G01X1085851Y-1498638D01*
G01X1075867Y-1493551D01*
G01X1064800Y-1491798D01*
G01X906799Y-1491798D01*
G01X895104Y-1493761D01*
G01X884691Y-1499436D01*
G01X876702Y-1508200D01*
G01X872013Y-1519093D01*
G01X499587Y-1519093D01*
G01X494898Y-1508200D01*
G01X486909Y-1499436D01*
G01X476496Y-1493761D01*
G01X464801Y-1491798D01*
G01X306800Y-1491798D01*
G01X295281Y-1493701D01*
G01X284986Y-1499208D01*
G01X284016Y-1479838D01*
G01X279164Y-1461060D01*
G01X270630Y-1443645D01*
G01X258765Y-1428304D01*
G01X244053Y-1415667D01*
G01X227097Y-1406252D01*
G01X208593Y-1400444D01*
G01X189299Y-1398481D01*
G01X69299Y-1398481D01*
G01X53310Y-1399824D01*
G01X37770Y-1403817D01*
G01X23114Y-1410347D01*
G01X23114Y-1027232D01*
G01X32501Y-1038470D01*
G01X44125Y-1047373D01*
G01X57419Y-1053509D01*
G01X71736Y-1056577D01*
G01X86377Y-1056429D01*
G01X100629Y-1053072D01*
G01X113797Y-1046669D01*
G01X125239Y-1037532D01*
G01X134396Y-1026107D01*
G01X140823Y-1012951D01*
G01X200965Y-1073093D01*
G01X199825Y-1088146D01*
G01X202118Y-1103067D01*
G01X207727Y-1117083D01*
G01X216360Y-1129467D01*
G01X227571Y-1139578D01*
G01X240778Y-1146891D01*
G01X255297Y-1151028D01*
G01X270375Y-1151773D01*
G01X285231Y-1149089D01*
G01X299095Y-1143115D01*
G01X311248Y-1134159D01*
G01X318982Y-1125118D01*
G01X505185Y-1125118D01*
G01X507112Y-1140988D01*
G01X512781Y-1155935D01*
G01X521862Y-1169092D01*
G01X533828Y-1179693D01*
G01X547984Y-1187122D01*
G01X563506Y-1190948D01*
G01X579492Y-1190948D01*
G01X595014Y-1187122D01*
G01X609169Y-1179693D01*
G01X621136Y-1169092D01*
G01X630217Y-1155935D01*
G01X635886Y-1140988D01*
G01X637813Y-1125118D01*
G01X635886Y-1109248D01*
G01X630217Y-1094300D01*
G01X621136Y-1081143D01*
G01X609169Y-1070542D01*
G01X595014Y-1063113D01*
G01X579492Y-1059287D01*
G01X563506Y-1059287D01*
G01X547984Y-1063113D01*
G01X533828Y-1070542D01*
G01X521862Y-1081143D01*
G01X512781Y-1094300D01*
G01X507112Y-1109248D01*
G01X505185Y-1125118D01*
G01X505185Y-1125118D01*
G01X318982Y-1125118D01*
G01X321061Y-1122687D01*
G01X328025Y-1109293D01*
G01X331780Y-1094671D01*
G01X332130Y-1079579D01*
G01X329057Y-1064798D01*
G01X322721Y-1051096D01*
G01X313450Y-1039181D01*
G01X301725Y-1029672D01*
G01X288152Y-1023062D01*
G01X267463Y-1002373D01*
G01X281206Y-994138D01*
G01X292573Y-982848D01*
G01X300900Y-969162D01*
G01X305702Y-953877D01*
G01X306580Y-939798D01*
G01X367676Y-939798D01*
G01X369603Y-955668D01*
G01X375272Y-970616D01*
G01X384353Y-983772D01*
G01X396319Y-994373D01*
G01X410474Y-1001803D01*
G01X425996Y-1005629D01*
G01X441983Y-1005629D01*
G01X457505Y-1001803D01*
G01X471660Y-994373D01*
G01X483372Y-983998D01*
G01X648295Y-983998D01*
G01X650222Y-999868D01*
G01X655891Y-1014816D01*
G01X664972Y-1027972D01*
G01X676938Y-1038573D01*
G01X691094Y-1046003D01*
G01X706616Y-1049828D01*
G01X722602Y-1049828D01*
G01X738124Y-1046003D01*
G01X752280Y-1038573D01*
G01X764246Y-1027972D01*
G01X773327Y-1014816D01*
G01X778996Y-999868D01*
G01X780923Y-983998D01*
G01X778996Y-968128D01*
G01X773327Y-953180D01*
G01X764246Y-940024D01*
G01X752280Y-929423D01*
G01X738124Y-921993D01*
G01X722602Y-918168D01*
G01X706616Y-918168D01*
G01X691094Y-921993D01*
G01X676938Y-929423D01*
G01X664972Y-940024D01*
G01X655891Y-953180D01*
G01X650222Y-968128D01*
G01X648295Y-983998D01*
G01X648295Y-983998D01*
G01X483372Y-983998D01*
G01X483626Y-983772D01*
G01X492708Y-970616D01*
G01X498377Y-955668D01*
G01X500304Y-939798D01*
G01X498377Y-923928D01*
G01X492708Y-908980D01*
G01X483626Y-895824D01*
G01X471660Y-885223D01*
G01X457505Y-877794D01*
G01X441983Y-873968D01*
G01X425996Y-873968D01*
G01X410474Y-877794D01*
G01X396319Y-885223D01*
G01X384353Y-895824D01*
G01X375272Y-908980D01*
G01X369603Y-923928D01*
G01X367676Y-939798D01*
G01X367676Y-939798D01*
G01X306580Y-939798D01*
G01X306699Y-937888D01*
G01X303831Y-922125D01*
G01X297268Y-907511D01*
G01X287391Y-894897D01*
G01X274777Y-885020D01*
G01X260162Y-878456D01*
G01X244400Y-875589D01*
G01X228410Y-876585D01*
G01X213126Y-881388D01*
G01X199440Y-889715D01*
G01X188150Y-901082D01*
G01X179915Y-914824D01*
G01X154563Y-889472D01*
G01X152046Y-873569D01*
G01X145771Y-858741D01*
G01X136107Y-845862D01*
G01X123624Y-835692D01*
G01X109059Y-828830D01*
G01X93269Y-825681D01*
G01X77185Y-826431D01*
G01X61756Y-831034D01*
G01X47891Y-839220D01*
G01X36408Y-850507D01*
G01X27983Y-864228D01*
G01X23114Y-879575D01*
G37*
G36*
G01X2298852Y-946512D02*
G01X2294703Y-955707D01*
G01X2293282Y-965694D01*
G01X2293282Y-995694D01*
G01X2294708Y-1005700D01*
G01X2293697Y-1010273D01*
G01X2280559Y-1003430D01*
G01X2266230Y-999674D01*
G01X2251425Y-999193D01*
G01X2236883Y-1002010D01*
G01X2223328Y-1007984D01*
G01X2211438Y-1016819D01*
G01X2201806Y-1028072D01*
G01X2194912Y-1041183D01*
G01X2191100Y-1055497D01*
G01X2190560Y-1070300D01*
G01X2193320Y-1084853D01*
G01X2199242Y-1098431D01*
G01X2208030Y-1110356D01*
G01X2219246Y-1120032D01*
G01X2216836Y-1131608D01*
G01X2216522Y-1143428D01*
G01X2203569Y-1150585D01*
G01X2192526Y-1160436D01*
G01X2183942Y-1172491D01*
G01X2178246Y-1186149D01*
G01X2175720Y-1200730D01*
G01X2176490Y-1215508D01*
G01X2180519Y-1229748D01*
G01X2187605Y-1242739D01*
G01X2197396Y-1253836D01*
G01X2209404Y-1262485D01*
G01X2203721Y-1275235D01*
G01X2200833Y-1288891D01*
G01X2200867Y-1302850D01*
G01X2203823Y-1316492D01*
G01X2209569Y-1329214D01*
G01X2217850Y-1340450D01*
G01X2228301Y-1349705D01*
G01X2240457Y-1356566D01*
G01X2253779Y-1360731D01*
G01X2267679Y-1362015D01*
G01X2281540Y-1360361D01*
G01X2294747Y-1355843D01*
G01X2298852Y-1364888D01*
G01X2078510Y-1364888D01*
G01X2078510Y-946988D01*
G01X2078508Y-946512D01*
G01X2298852Y-946512D01*
G37*
G36*
G01X2544910Y-1045707D02*
G01X2544910Y-1015707D01*
G01X2543484Y-1005700D01*
G01X2544910Y-995694D01*
G01X2544910Y-991662D01*
G01X2632058Y-904514D01*
G01X2682787Y-904514D01*
G01X2692401Y-903200D01*
G01X2701309Y-899353D01*
G01X2708858Y-893256D01*
G01X2714493Y-885356D01*
G01X2717800Y-876234D01*
G01X2721281Y-885683D01*
G01X2727254Y-893789D01*
G01X2735248Y-899911D01*
G01X2744630Y-903567D01*
G01X2744630Y-905443D01*
G01X2708040Y-942033D01*
G01X2700330Y-952081D01*
G01X2695484Y-963782D01*
G01X2693831Y-976338D01*
G01X2693831Y-1168624D01*
G01X2678349Y-1153143D01*
G01X2674716Y-1143000D01*
G01X2677923Y-1134761D01*
G01X2679014Y-1125988D01*
G01X2679014Y-1075988D01*
G01X2677261Y-1064921D01*
G01X2672174Y-1054938D01*
G01X2664251Y-1047014D01*
G01X2654267Y-1041927D01*
G01X2643200Y-1040174D01*
G01X2589200Y-1040174D01*
G01X2578133Y-1041927D01*
G01X2568149Y-1047014D01*
G01X2560226Y-1054938D01*
G01X2555139Y-1064921D01*
G01X2553386Y-1075988D01*
G01X2553386Y-1100032D01*
G01X2544910Y-1093602D01*
G01X2544910Y-1065694D01*
G01X2543487Y-1055700D01*
G01X2544910Y-1045707D01*
G37*
G36*
G01X3105828Y-676326D02*
G01X3154077Y-676326D01*
G01X3162850Y-675235D01*
G01X3171088Y-672028D01*
G01X3179327Y-675235D01*
G01X3188100Y-676326D01*
G01X3238100Y-676326D01*
G01X3249167Y-674573D01*
G01X3259151Y-669486D01*
G01X3267074Y-661563D01*
G01X3272161Y-651579D01*
G01X3273914Y-640512D01*
G01X3273914Y-616065D01*
G01X3294476Y-595503D01*
G01X3420649Y-595503D01*
G01X3407517Y-602984D01*
G01X3396420Y-613244D01*
G01X3387934Y-625750D01*
G01X3382500Y-639853D01*
G01X3380400Y-654820D01*
G01X3381744Y-669874D01*
G01X3367830Y-669874D01*
G01X3356763Y-671627D01*
G01X3346780Y-676714D01*
G01X3338856Y-684637D01*
G01X3333769Y-694621D01*
G01X3332016Y-705688D01*
G01X3332016Y-759689D01*
G01X3333769Y-770756D01*
G01X3338856Y-780740D01*
G01X3346780Y-788663D01*
G01X3356763Y-793750D01*
G01X3367830Y-795503D01*
G01X3417830Y-795503D01*
G01X3426603Y-794411D01*
G01X3434842Y-791204D01*
G01X3443081Y-794411D01*
G01X3451854Y-795503D01*
G01X3475732Y-795503D01*
G01X3470449Y-800786D01*
G01X3446012Y-800786D01*
G01X3437239Y-801877D01*
G01X3429000Y-805084D01*
G01X3420761Y-801877D01*
G01X3411988Y-800786D01*
G01X3361988Y-800786D01*
G01X3350921Y-802539D01*
G01X3340938Y-807626D01*
G01X3333014Y-815549D01*
G01X3327927Y-825533D01*
G01X3326174Y-836600D01*
G01X3326174Y-890600D01*
G01X3327927Y-901667D01*
G01X3333014Y-911651D01*
G01X3340938Y-919574D01*
G01X3350921Y-924661D01*
G01X3361988Y-926414D01*
G01X3411988Y-926414D01*
G01X3414669Y-926314D01*
G01X3414669Y-1072363D01*
G01X3412788Y-1072363D01*
G01X3404015Y-1073454D01*
G01X3395777Y-1076661D01*
G01X3387538Y-1073454D01*
G01X3378765Y-1072363D01*
G01X3328765Y-1072363D01*
G01X3317698Y-1074115D01*
G01X3307714Y-1079202D01*
G01X3299791Y-1087126D01*
G01X3294704Y-1097109D01*
G01X3292951Y-1108177D01*
G01X3292951Y-1136136D01*
G01X3208608Y-1051793D01*
G01X3198561Y-1044083D01*
G01X3186860Y-1039237D01*
G01X3174304Y-1037584D01*
G01X3118199Y-1037584D01*
G01X3105828Y-1025213D01*
G01X3105828Y-676326D01*
G37*
G36*
G01X3132657Y-530593D02*
G01X3137076Y-541679D01*
G01X3144893Y-550697D01*
G01X3120420Y-550697D01*
G01X3128237Y-541679D01*
G01X3132657Y-530593D01*
G37*
G36*
G01X3441700Y-292034D02*
G01X3444702Y-300561D01*
G01X3449743Y-308065D01*
G01X3456503Y-314067D01*
G01X3464550Y-318186D01*
G01X3463588Y-318186D01*
G01X3454815Y-319277D01*
G01X3446577Y-322484D01*
G01X3438338Y-319277D01*
G01X3429565Y-318186D01*
G01X3418850Y-318186D01*
G01X3426897Y-314067D01*
G01X3433657Y-308065D01*
G01X3438698Y-300561D01*
G01X3441700Y-292034D01*
G37*
G36*
G01X3754630Y-353683D02*
G01X3744069Y-355924D01*
G01X3734656Y-361211D01*
G01X3727246Y-369062D01*
G01X3722513Y-378765D01*
G01X3720886Y-389437D01*
G01X3720886Y-464869D01*
G01X3645454Y-464869D01*
G01X3637067Y-465865D01*
G01X3629615Y-465865D01*
G01X3617341Y-453591D01*
G01X3608060Y-446469D01*
G01X3597251Y-441992D01*
G01X3585653Y-440465D01*
G01X3532567Y-440465D01*
G01X3532567Y-438372D01*
G01X3539567Y-432653D01*
G01X3544912Y-425363D01*
G01X3548262Y-416967D01*
G01X3549402Y-408000D01*
G01X3549402Y-354000D01*
G01X3547738Y-343208D01*
G01X3542899Y-333420D01*
G01X3535336Y-325545D01*
G01X3525751Y-320314D01*
G01X3557360Y-320314D01*
G01X3567008Y-318990D01*
G01X3575942Y-315117D01*
G01X3590122Y-318967D01*
G01X3604802Y-319600D01*
G01X3619261Y-316986D01*
G01X3632789Y-311251D01*
G01X3644722Y-302678D01*
G01X3654474Y-291688D01*
G01X3661567Y-278820D01*
G01X3665653Y-264706D01*
G01X3754630Y-353683D01*
G37*
G36*
G01X3593174Y-58400D02*
G01X3592252Y-50324D01*
G01X3589532Y-42663D01*
G01X3585155Y-35814D01*
G01X4023276Y-35814D01*
G01X4018167Y-43008D01*
G01X4014973Y-51232D01*
G01X4013886Y-59988D01*
G01X4013886Y-109988D01*
G01X4014977Y-118761D01*
G01X4018184Y-127000D01*
G01X4014977Y-135239D01*
G01X4013886Y-144012D01*
G01X4013886Y-194012D01*
G01X4015113Y-203307D01*
G01X4018711Y-211966D01*
G01X4024434Y-219394D01*
G01X4031888Y-225082D01*
G01X4031888Y-263325D01*
G01X4016691Y-265141D01*
G01X4002315Y-270392D01*
G01X3989525Y-278798D01*
G01X3977376Y-271469D01*
G01X3963946Y-266892D01*
G01X3949849Y-265277D01*
G01X3948628Y-262788D01*
G01X3951835Y-254550D01*
G01X3952926Y-245777D01*
G01X3952926Y-195777D01*
G01X3951797Y-186856D01*
G01X3948481Y-178497D01*
G01X3943188Y-171227D01*
G01X3959297Y-168766D01*
G01X3974320Y-162450D01*
G01X3987349Y-152661D01*
G01X3997597Y-139989D01*
G01X4004445Y-125202D01*
G01X4007480Y-109190D01*
G01X4006518Y-92922D01*
G01X4001618Y-77380D01*
G01X3993075Y-63502D01*
G01X3981406Y-52127D01*
G01X3967314Y-43941D01*
G01X3951652Y-39439D01*
G01X3935365Y-38893D01*
G01X3919436Y-42335D01*
G01X3904828Y-49558D01*
G01X3892422Y-60126D01*
G01X3593174Y-60126D01*
G01X3593174Y-58400D01*
G37*
G36*
G01X3892422Y-149754D02*
G01X3904288Y-159963D01*
G01X3863111Y-159963D01*
G01X3852044Y-161716D01*
G01X3842060Y-166803D01*
G01X3834137Y-174726D01*
G01X3829050Y-184710D01*
G01X3827297Y-195777D01*
G01X3827297Y-245777D01*
G01X3828389Y-254550D01*
G01X3831596Y-262788D01*
G01X3828389Y-271027D01*
G01X3827297Y-279800D01*
G01X3827297Y-299598D01*
G01X3677454Y-149754D01*
G01X3892422Y-149754D01*
G37*
G36*
G01X3799041Y-804407D02*
G01X3806163Y-795125D01*
G01X3810640Y-784317D01*
G01X3812167Y-772718D01*
G01X3812167Y-627538D01*
G01X3826088Y-633074D01*
G01X3840896Y-635343D01*
G01X3840896Y-855129D01*
G01X3832172Y-843696D01*
G01X3821190Y-834411D01*
G01X3808463Y-827713D01*
G01X3794592Y-823916D01*
G01X3780229Y-823199D01*
G01X3781041Y-822407D01*
G01X3799041Y-804407D01*
G37*
G36*
G01X3876675Y-996506D02*
G01X4029617Y-996506D01*
G01X4026344Y-999779D01*
G01X4012794Y-1005905D01*
G01X4000949Y-1014895D01*
G01X3991405Y-1026300D01*
G01X3984643Y-1039544D01*
G01X3981002Y-1053961D01*
G01X3980665Y-1068828D01*
G01X3976699Y-1068608D01*
G01X3968568Y-1068608D01*
G01X3964305Y-1060206D01*
G01X3958380Y-1052880D01*
G01X3920380Y-1014880D01*
G01X3911099Y-1007758D01*
G01X3900290Y-1003281D01*
G01X3888692Y-1001754D01*
G01X3873560Y-1001754D01*
G01X3876675Y-996506D01*
G37*
G36*
G01X4592863Y-1324072D02*
G01X4591791Y-1308985D01*
G01X4587328Y-1294532D01*
G01X4579706Y-1281467D01*
G01X4569322Y-1270469D01*
G01X4556715Y-1262110D01*
G01X4542543Y-1256826D01*
G01X4527542Y-1254890D01*
G01X4512492Y-1256404D01*
G01X4498177Y-1261289D01*
G01X4485341Y-1269291D01*
G01X4474652Y-1279993D01*
G01X4466667Y-1292839D01*
G01X4461800Y-1307160D01*
G01X4460305Y-1322212D01*
G01X4453906Y-1315813D01*
G01X4444810Y-1308667D01*
G01X4434281Y-1303878D01*
G01X4422917Y-1301717D01*
G01X4416391Y-1295809D01*
G01X4408620Y-1291671D01*
G01X4414641Y-1287988D01*
G01X4420009Y-1283406D01*
G01X4461646Y-1241770D01*
G01X4477461Y-1240557D01*
G01X4492535Y-1235624D01*
G01X4506007Y-1227253D01*
G01X4517105Y-1215921D01*
G01X4525196Y-1202279D01*
G01X4720919Y-1398002D01*
G01X4722067Y-1413491D01*
G01X4726787Y-1428287D01*
G01X4734818Y-1441580D01*
G01X4745721Y-1452641D01*
G01X4758898Y-1460862D01*
G01X4773625Y-1465793D01*
G01X4789095Y-1467163D01*
G01X4794005Y-1481511D01*
G01X4802047Y-1494369D01*
G01X4812799Y-1505063D01*
G01X4825700Y-1513035D01*
G01X4840074Y-1517868D01*
G01X4855171Y-1519308D01*
G01X4870200Y-1517282D01*
G01X4884376Y-1511893D01*
G01X4894347Y-1516964D01*
G01X4905395Y-1518710D01*
G01X5014596Y-1518710D01*
G01X5014596Y-1555783D01*
G01X4824573Y-1555783D01*
G01X4592863Y-1324072D01*
G37*
G36*
G01X5655207Y-1392083D02*
G01X5600396Y-1392083D01*
G01X5589946Y-1393641D01*
G01X5580405Y-1398181D01*
G01X5570865Y-1393641D01*
G01X5560414Y-1392083D01*
G01X5545504Y-1392083D01*
G01X5261254Y-1107833D01*
G01X5251207Y-1100123D01*
G01X5239506Y-1095277D01*
G01X5226950Y-1093624D01*
G01X4963514Y-1093624D01*
G01X4960601Y-1083900D01*
G01X4955077Y-1075384D01*
G01X4947386Y-1068760D01*
G01X4938145Y-1064561D01*
G01X4928097Y-1063122D01*
G01X4847449Y-1063122D01*
G01X4837835Y-1064437D01*
G01X4828927Y-1068284D01*
G01X4821379Y-1074381D01*
G01X4815744Y-1082280D01*
G01X4812436Y-1091402D01*
G01X4809129Y-1082280D01*
G01X4803494Y-1074381D01*
G01X4795946Y-1068284D01*
G01X4787038Y-1064437D01*
G01X4777424Y-1063122D01*
G01X4721461Y-1063122D01*
G01X4715806Y-1057466D01*
G01X4727127Y-1050083D01*
G01X4736716Y-1040558D01*
G01X4744175Y-1029286D01*
G01X4749193Y-1016736D01*
G01X4751562Y-1003429D01*
G01X4751185Y-989918D01*
G01X4748075Y-976764D01*
G01X4742363Y-964514D01*
G01X4748435Y-964514D01*
G01X4759502Y-962761D01*
G01X4769486Y-957674D01*
G01X4777409Y-949751D01*
G01X4782496Y-939767D01*
G01X4784249Y-928700D01*
G01X4784249Y-874700D01*
G01X4782496Y-863633D01*
G01X4777409Y-853649D01*
G01X4769486Y-845726D01*
G01X4759502Y-840639D01*
G01X4748435Y-838886D01*
G01X4698435Y-838886D01*
G01X4689662Y-839977D01*
G01X4681423Y-843184D01*
G01X4673185Y-839977D01*
G01X4664412Y-838886D01*
G01X4639975Y-838886D01*
G01X4636591Y-835502D01*
G01X5098627Y-835502D01*
G01X5655207Y-1392083D01*
G37*
G36*
G01X4761601Y-1221151D02*
G01X4777424Y-1221151D01*
G01X4787038Y-1219836D01*
G01X4795946Y-1215989D01*
G01X4803494Y-1209892D01*
G01X4809129Y-1201993D01*
G01X4812436Y-1192871D01*
G01X4815744Y-1201993D01*
G01X4821379Y-1209892D01*
G01X4828927Y-1215989D01*
G01X4837835Y-1219836D01*
G01X4847449Y-1221151D01*
G01X4928097Y-1221151D01*
G01X4938144Y-1219712D01*
G01X4947385Y-1215513D01*
G01X4955076Y-1208890D01*
G01X4960600Y-1200375D01*
G01X4963514Y-1190652D01*
G01X5206854Y-1190652D01*
G01X5408285Y-1392083D01*
G01X5380407Y-1392083D01*
G01X5369949Y-1393643D01*
G01X5360403Y-1398190D01*
G01X5350857Y-1393643D01*
G01X5340400Y-1392083D01*
G01X5270400Y-1392083D01*
G01X5259949Y-1393641D01*
G01X5250409Y-1398181D01*
G01X5240868Y-1393641D01*
G01X5230418Y-1392083D01*
G01X5160418Y-1392083D01*
G01X5149960Y-1393643D01*
G01X5140414Y-1398190D01*
G01X5130868Y-1393643D01*
G01X5120410Y-1392083D01*
G01X5061209Y-1392083D01*
G01X5061209Y-1332897D01*
G01X5059456Y-1321830D01*
G01X5054369Y-1311846D01*
G01X5046446Y-1303923D01*
G01X5036462Y-1298836D01*
G01X5025395Y-1297083D01*
G01X4905395Y-1297083D01*
G01X4895013Y-1298621D01*
G01X4885523Y-1303102D01*
G01X4877739Y-1310142D01*
G01X4872331Y-1319136D01*
G01X4869761Y-1329311D01*
G01X4761601Y-1221151D01*
G37*
G36*
G01X5422741Y-1623710D02*
G01X5419147Y-1633494D01*
G01X5417131Y-1643719D01*
G01X5397122Y-1623710D01*
G01X5422741Y-1623710D01*
G37*
G54D10*
G01X7284986Y-553530D02*
G01X7284986Y-1656270D01*
G03X6968312Y-1535360I-199986J-48629D01*
G03X6812650Y-1364478I-83312J80448D01*
G03X6945203Y-1553849I72351J-90434D01*
G03X6980723Y-1882341I139797J-151050D01*
G03X7284986Y-1753528I104277J177442D01*
G01X7284986Y-2087886D01*
G01X23114Y-2087886D01*
G01X23114Y-1578243D01*
G03X69299Y-1590109I46185J83948D01*
G01X189299Y-1590109D01*
G03X270986Y-1544369I0J95814D01*
G01X270986Y-1607612D01*
G03X306800Y-1643426I35814J0D01*
G01X464801Y-1643426D01*
G03X499589Y-1616121I0J35814D01*
G01X784585Y-1616121D01*
G01X784585Y-1948606D01*
G03X798794Y-1982911I48514J0D01*
G01X869484Y-2053601D01*
G03X903789Y-2067810I34305J34305D01*
G01X2326186Y-2067810D01*
G03X2356683Y-2057026I0J48514D01*
G03X2443269Y-1995902I20303J63130D01*
G03X2360539Y-1929654I-66284J2006D01*
G03X2300272Y-1885253I-62603J-21872D01*
G01X2101534Y-1686516D01*
G01X2389104Y-1686516D01*
G03X2424918Y-1650702I0J35814D01*
G01X2424918Y-1400702D01*
G01X2424909Y-1399897D01*
G01X2438207Y-1413196D01*
G03X2469895Y-1426321I31688J31688D01*
G01X2690765Y-1426321D01*
G03X2722453Y-1413196I0J44814D01*
G01X2738690Y-1396959D01*
G03X2804398Y-1351910I2875J66252D01*
G01X2851308Y-1351910D01*
G01X2892600Y-1393202D01*
G03X2926904Y-1407411I34305J34305D01*
G01X3369324Y-1407411D01*
G03X3403628Y-1393202I0J48514D01*
G01X3451316Y-1345514D01*
G01X3462465Y-1345514D01*
G03X3493535Y-1327511I0J35814D01*
G01X3690857Y-1327511D01*
G01X3690857Y-1372524D01*
G01X3640288Y-1423093D01*
G03X3627747Y-1444785I34305J-34305D01*
G01X3604593Y-1444785D01*
G03X3568779Y-1480599I0J-35814D01*
G01X3568779Y-1577802D01*
G01X3416208Y-1730372D01*
G01X3415945Y-1730372D01*
G03X3380303Y-1698073I-35641J-3514D01*
G01X3300304Y-1698073D01*
G03X3270301Y-1714329I0J-35814D01*
G03X3240299Y-1698073I-30002J-19557D01*
G01X3160299Y-1698073D01*
G03X3124485Y-1733887I0J-35814D01*
G01X3124485Y-1823887D01*
G03X3160299Y-1859701I35814J0D01*
G01X3240299Y-1859701D01*
G03X3270301Y-1843444I0J35814D01*
G03X3300304Y-1859701I30002J19557D01*
G01X3380303Y-1859701D01*
G03X3415945Y-1827400I0J35814D01*
G01X3436303Y-1827400D01*
G03X3470608Y-1813191I0J48514D01*
G01X3568779Y-1715020D01*
G01X3568779Y-1770601D01*
G03X3604593Y-1806415I35814J0D01*
G01X3744592Y-1806415D01*
G03X3780406Y-1770601I0J35814D01*
G01X3780406Y-1650601D01*
G03X3770236Y-1625600I-35814J0D01*
G03X3780406Y-1600599I-25643J25001D01*
G01X3780406Y-1480599D01*
G03X3754435Y-1446164I-35814J0D01*
G01X3756584Y-1444014D01*
G01X3807318Y-1444014D01*
G03X3842331Y-1415734I0J35814D01*
G03X3877344Y-1444014I35013J7534D01*
G01X3957991Y-1444014D01*
G03X3993805Y-1408200I0J35814D01*
G01X3993805Y-1397282D01*
G03X4016810Y-1385006I-8683J43965D01*
G01X4081878Y-1319938D01*
G01X4081878Y-1500184D01*
G01X4049400Y-1500184D01*
G03X4013664Y-1533644I0J-35814D01*
G03X4000421Y-1538717I10548J-47353D01*
G01X4000421Y-1480599D01*
G03X3964607Y-1444785I-35814J0D01*
G01X3824608Y-1444785D01*
G03X3788794Y-1480599I0J-35814D01*
G01X3788794Y-1600599D01*
G03X3798964Y-1625600I35814J0D01*
G03X3788794Y-1650601I25643J-25001D01*
G01X3788794Y-1770601D01*
G03X3824608Y-1806415I35814J0D01*
G01X3964607Y-1806415D01*
G03X4000421Y-1770601I0J35814D01*
G01X4000421Y-1673397D01*
G01X4023298Y-1650520D01*
G03X4049400Y-1661812I26102J24522D01*
G01X4129400Y-1661812D01*
G03X4159402Y-1645555I0J35814D01*
G03X4189405Y-1661812I30002J19557D01*
G01X4269405Y-1661812D01*
G03X4305219Y-1625998I0J35814D01*
G01X4305219Y-1535998D01*
G03X4269405Y-1500184I-35814J0D01*
G01X4189405Y-1500184D01*
G03X4171506Y-1504977I0J-35814D01*
G01X4171506Y-1319898D01*
G01X4233413Y-1381806D01*
G03X4265101Y-1394931I31688J31688D01*
G01X4308923Y-1394931D01*
G03X4305986Y-1409135I32877J-14204D01*
G01X4305986Y-1459135D01*
G03X4341800Y-1494949I35814J0D01*
G01X4395800Y-1494949D01*
G03X4431614Y-1459135I0J35814D01*
G01X4431614Y-1430739D01*
G01X4499819Y-1498944D01*
G01X4475039Y-1498944D01*
G03X4439225Y-1534758I0J-35814D01*
G01X4439225Y-1588759D01*
G03X4475039Y-1624573I35814J0D01*
G01X4525039Y-1624573D01*
G03X4535547Y-1622996I0J35814D01*
G01X4535547Y-1638538D01*
G03X4528951Y-1637925I-6596J-35201D01*
G01X4478951Y-1637925D01*
G03X4443137Y-1673739I0J-35814D01*
G01X4443137Y-1727740D01*
G03X4478951Y-1763554I35814J0D01*
G01X4528951Y-1763554D01*
G03X4545962Y-1759256I0J35814D01*
G03X4562974Y-1763554I17012J31516D01*
G01X4612974Y-1763554D01*
G03X4648788Y-1727740I0J35814D01*
G01X4648788Y-1673739D01*
G03X4632575Y-1643765I-35814J0D01*
G01X4632575Y-1615774D01*
G03X4637696Y-1610271I-23512J27015D01*
G01X4655456Y-1610271D01*
G01X4677837Y-1632652D01*
G01X4677837Y-1643262D01*
G01X4666646Y-1654452D01*
G03X4652437Y-1688757I34305J-34305D01*
G01X4652437Y-1773451D01*
G01X4636951Y-1788937D01*
G01X4584753Y-1788937D01*
G03X4554751Y-1805194I0J-35814D01*
G03X4524748Y-1788937I-30002J-19557D01*
G01X4444749Y-1788937D01*
G03X4408935Y-1824751I0J-35814D01*
G01X4408935Y-1914751D01*
G03X4444749Y-1950565I35814J0D01*
G01X4524748Y-1950565D01*
G03X4554751Y-1934309I0J35814D01*
G03X4584753Y-1950565I30002J19557D01*
G01X4664753Y-1950565D01*
G03X4700567Y-1914751I0J35814D01*
G01X4700567Y-1862539D01*
G01X4735255Y-1827851D01*
G03X4745185Y-1813470I-34305J34305D01*
G01X4769065Y-1813470D01*
G01X4785959Y-1830365D01*
G01X4785959Y-1923051D01*
G03X4821773Y-1958865I35814J0D01*
G01X4935027Y-1958865D01*
G03X4970841Y-1923051I0J35814D01*
G01X4970841Y-1830365D01*
G01X4985959Y-1815247D01*
G01X4985959Y-1923051D01*
G03X5021773Y-1958865I35814J0D01*
G01X5114459Y-1958865D01*
G01X5161245Y-2005651D01*
G03X5195550Y-2019860I34305J34305D01*
G01X5333999Y-2019860D01*
G03X5368304Y-2005651I0J48514D01*
G01X5414713Y-1959242D01*
G01X5437200Y-1959242D01*
G03X5466752Y-1943660I0J35814D01*
G01X5594849Y-1943660D01*
G03X5629153Y-1929451I0J48514D01*
G01X5635399Y-1923205D01*
G01X5659940Y-1947746D01*
G03X5695518Y-1979460I35579J4100D01*
G01X5749519Y-1979460D01*
G03X5779069Y-1963880I0J35814D01*
G01X5815167Y-1963880D01*
G03X5840400Y-1974278I25233J25416D01*
G01X5894400Y-1974278D01*
G03X5923956Y-1958690I0J35814D01*
G01X5926887Y-1958690D01*
G03X5954700Y-1971942I27813J22562D01*
G01X6008700Y-1971942D01*
G03X6038252Y-1956360I0J35814D01*
G01X6051284Y-1956360D01*
G03X6076518Y-1966760I25234J25414D01*
G01X6130519Y-1966760D01*
G03X6166333Y-1930946I0J35814D01*
G01X6166333Y-1874380D01*
G03X6163041Y-1859382I-35814J0D01*
G03X6166333Y-1844383I-32522J14999D01*
G01X6166333Y-1787817D01*
G03X6134903Y-1752272I-35814J0D01*
G01X6028640Y-1646010D01*
G03X6029473Y-1608836I-63222J20013D01*
G03X6036233Y-1587896I-29055J20940D01*
G01X6036233Y-1427897D01*
G03X6000419Y-1392083I-35814J0D01*
G01X5930419Y-1392083D01*
G03X5910415Y-1398190I0J-35814D01*
G03X5890411Y-1392083I-20004J-29707D01*
G01X5866570Y-1392083D01*
G01X5693060Y-1218573D01*
G03X5646418Y-1152349I-66252J2875D01*
G03X5570519Y-1180641I-19609J-63348D01*
G01X5148878Y-759000D01*
G03X5117190Y-745874I-31688J-31688D01*
G01X4778411Y-745874D01*
G03X4780337Y-734289I-33888J11586D01*
G01X4780337Y-680288D01*
G03X4744523Y-644474I-35814J0D01*
G01X4694523Y-644474D01*
G03X4677512Y-648772I0J-35814D01*
G03X4660500Y-644474I-17012J-31516D01*
G01X4657343Y-644474D01*
G01X4615659Y-602790D01*
G03X4583971Y-589665I-31688J-31688D01*
G01X4573362Y-589665D01*
G03X4560659Y-539894I-65591J9766D01*
G03X4570774Y-520581I-52888J40005D01*
G01X4570774Y-535000D01*
G03X4606588Y-570814I35814J0D01*
G01X4656588Y-570814D01*
G03X4673600Y-566516I0J35814D01*
G03X4690612Y-570814I17012J31516D01*
G01X4740612Y-570814D01*
G03X4776426Y-535000I0J35814D01*
G01X4776426Y-481000D01*
G03X4740612Y-445186I-35814J0D01*
G01X4690612Y-445186D01*
G03X4673600Y-449484I0J-35814D01*
G03X4656588Y-445186I-17012J-31516D01*
G01X4632154Y-445186D01*
G01X4578289Y-391321D01*
G03X4546601Y-378195I-31688J-31688D01*
G01X4439015Y-378195D01*
G01X4439015Y-372209D01*
G03X4425889Y-340521I-44814J0D01*
G01X4253814Y-168446D01*
G01X4253814Y-144012D01*
G03X4249516Y-127000I-35814J0D01*
G03X4253814Y-109988I-31516J17012D01*
G01X4253814Y-59988D01*
G03X4244424Y-35814I-35814J0D01*
G01X7284986Y-35814D01*
G01X7284986Y-456272D01*
G03X6980676Y-327487I-199986J-48629D01*
G03X6945284Y-656026I104324J-177414D01*
G03X6812654Y-845351I-60283J-98888D01*
G03X6968239Y-674389I72346J90437D01*
G03X7284986Y-553530I116761J169488D01*
G01X270986Y-1977588D02*
G03X306800Y-2013402I35814J0D01*
G01X464801Y-2013402D01*
G03X500615Y-1977588I0J35814D01*
G01X500615Y-1897588D01*
G03X464801Y-1861774I-35814J0D01*
G01X306800Y-1861774D01*
G03X270986Y-1897588I0J-35814D01*
G01X270986Y-1977588D01*
G01X4869581Y-557903D02*
G03X4905395Y-593717I35814J0D01*
G01X5025395Y-593717D01*
G03X5061209Y-557903I0J35814D01*
G01X5061209Y-337904D01*
G03X5025395Y-302090I-35814J0D01*
G01X4905395Y-302090D01*
G03X4869581Y-337904I0J-35814D01*
G01X4869581Y-557903D01*
G01X5149591Y-407899D02*
G03X5341219Y-407899I95814J0D01*
G03X5149591Y-407899I-95814J0D01*
G01X5779965Y-1010284D02*
G03X5813858Y-896841I-11686J65276D01*
G03X5742712Y-802202I-59459J29362D01*
G03X5708820Y-915646I11686J-65276D01*
G03X5779965Y-1010284I59459J-29362D01*
G01X5949589Y-407899D02*
G03X6141217Y-407899I95814J0D01*
G03X5949589Y-407899I-95814J0D01*
G01X5981834Y-792578D02*
G03X6114462Y-792578I66314J0D01*
G03X5981834Y-792578I-66314J0D01*
G01X6186866Y-823828D02*
G03X6231421Y-936991I46891J-46891D01*
G01X6294484Y-1000055D01*
G03X6407648Y-1044609I66273J2336D01*
G03X6363093Y-931446I-46891J46891D01*
G01X6300030Y-868382D01*
G03X6186866Y-823828I-66273J-2336D01*
G01X6169175Y-1693189D02*
G03X6335804Y-1693189I83315J0D01*
G03X6169175Y-1693189I-83315J0D01*
G01X6309599Y-1482896D02*
G03X6345413Y-1518710I35814J0D01*
G01X6505412Y-1518710D01*
G03X6541226Y-1482896I0J35814D01*
G01X6541226Y-1332897D01*
G03X6505412Y-1297083I-35814J0D01*
G01X6345413Y-1297083D01*
G03X6309599Y-1332897I0J-35814D01*
G01X6309599Y-1482896D01*
G01X6419591Y-557903D02*
G03X6455405Y-593717I35814J0D01*
G01X6575405Y-593717D01*
G03X6611219Y-557903I0J35814D01*
G01X6611219Y-337904D01*
G03X6575405Y-302090I-35814J0D01*
G01X6455405Y-302090D01*
G03X6419591Y-337904I0J-35814D01*
G01X6419591Y-557903D01*
G01X6885000Y-1320714D02*
G03X6943420Y-1104900I0J115814D01*
G03X6885000Y-889086I-58420J100000D01*
G03X6826580Y-1104900I0J-115814D01*
G03X6885000Y-1320714I58420J-100000D01*
G01X7016687Y-1329919D02*
G03X7188314Y-1329919I85814J0D01*
G03X7016687Y-1329919I-85814J0D01*
G01X7016687Y-879907D02*
G03X7188314Y-879907I85814J0D01*
G03X7016687Y-879907I-85814J0D01*
G01X23114Y-879575D02*
G01X23114Y-723253D01*
G03X69299Y-735119I46185J83948D01*
G01X189299Y-735119D01*
G03X189299Y-543491I0J95814D01*
G01X69299Y-543491D01*
G03X23114Y-555357I0J-95814D01*
G01X23114Y-35814D01*
G01X3241403Y-35814D01*
G03X3229899Y-53086I48760J-44944D01*
G01X3218599Y-53086D01*
G03X3141587Y-54879I-37249J-54864D01*
G03X3118231Y-128286I39763J-53071D01*
G01X2921004Y-128286D01*
G03X2912314Y-129136I0J-44814D01*
G01X2912314Y-85101D01*
G03X2876500Y-49287I-35814J0D01*
G01X2711500Y-49287D01*
G03X2675686Y-85101I0J-35814D01*
G01X2675686Y-515101D01*
G03X2711500Y-550915I35814J0D01*
G01X2876500Y-550915D01*
G03X2912314Y-515101I0J35814D01*
G01X2912314Y-245166D01*
G01X2939567Y-217914D01*
G01X3122253Y-217914D01*
G03X3125647Y-251988I65447J-10686D01*
G03X3073510Y-368937I-10283J-65512D01*
G03X3177417Y-294112I41854J51437D01*
G03X3232716Y-277294I10283J65512D01*
G03X3291500Y-293968I45454J48286D01*
G03X3326040Y-320314I34540J9468D01*
G01X3367403Y-320314D01*
G03X3343751Y-354000I12163J-33685D01*
G01X3343751Y-408000D01*
G03X3353786Y-432861I35814J0D01*
G03X3334963Y-464388I16991J-31527D01*
G01X3334963Y-505875D01*
G01X3284131Y-505875D01*
G01X3284131Y-436658D01*
G03X3248317Y-400844I-35814J0D01*
G01X3167669Y-400844D01*
G03X3132657Y-429124I0J-35814D01*
G03X3097644Y-400844I-35013J-7534D01*
G01X3053399Y-400844D01*
G03X2939857Y-364456I-65635J-9465D01*
G03X2981183Y-476296I47907J-45853D01*
G01X2981183Y-523059D01*
G03X3008800Y-557922I35814J0D01*
G01X3008800Y-1045308D01*
G03X3012135Y-1062984I48514J0D01*
G01X2929915Y-1062984D01*
G01X2929915Y-1046104D01*
G03X2894101Y-1010290I-35814J0D01*
G01X2872917Y-1010290D01*
G03X2835044Y-949992I-66313J392D01*
G03X2841658Y-925538I-41900J24454D01*
G01X2841658Y-903563D01*
G03X2869274Y-868700I-8198J34863D01*
G01X2869274Y-782300D01*
G03X2833460Y-746486I-35814J0D01*
G01X2752813Y-746486D01*
G03X2717800Y-774766I0J-35814D01*
G03X2715541Y-767815I-35013J-7534D01*
G03X2661631Y-666416I-56247J35126D01*
G01X2536227Y-541011D01*
G03X2547316Y-515101I-24724J25911D01*
G01X2547316Y-85101D01*
G03X2511502Y-49287I-35814J0D01*
G01X2346502Y-49287D01*
G03X2310688Y-85101I0J-35814D01*
G01X2310688Y-515101D01*
G03X2346502Y-550915I35814J0D01*
G01X2408912Y-550915D01*
G01X2593022Y-735025D01*
G03X2594608Y-747287I66273J2336D01*
G03X2566326Y-782300I7532J-35013D01*
G01X2566326Y-833028D01*
G01X2469474Y-929880D01*
G01X2419348Y-929880D01*
G03X2424918Y-910698I-30244J19182D01*
G01X2424918Y-660698D01*
G03X2389104Y-624884I-35814J0D01*
G01X2069104Y-624884D01*
G03X2033290Y-660698I0J-35814D01*
G01X2033290Y-881673D01*
G01X1429302Y-277685D01*
G03X1394998Y-263475I-34305J-34305D01*
G01X1140998Y-263475D01*
G03X1121098Y-267745I0J-48514D01*
G03X1087914Y-180138I-60490J27175D01*
G01X1087914Y-105212D01*
G03X1052100Y-69398I-35814J0D01*
G01X894099Y-69398D01*
G03X858285Y-105212I0J-35814D01*
G01X858285Y-185212D01*
G03X894099Y-221026I35814J0D01*
G01X997239Y-221026D01*
G03X1080571Y-303807I63369J-19544D01*
G01X945004Y-439374D01*
G01X894099Y-439374D01*
G03X859312Y-466675I0J-35814D01*
G01X486888Y-466675D01*
G03X452101Y-439374I-34787J-8513D01*
G01X294100Y-439374D01*
G03X258286Y-475188I0J-35814D01*
G01X258286Y-555188D01*
G03X294100Y-591002I35814J0D01*
G01X452101Y-591002D01*
G03X486888Y-563703I0J35814D01*
G01X859312Y-563703D01*
G03X894099Y-591002I34787J8515D01*
G01X1052100Y-591002D01*
G03X1087914Y-555188I0J35814D01*
G01X1087914Y-475188D01*
G03X1074418Y-447179I-35814J0D01*
G01X1106769Y-414827D01*
G01X1106769Y-1952613D01*
G03X1111720Y-1970782I35814J0D01*
G01X1100614Y-1970782D01*
G01X1100614Y-1897588D01*
G03X1064800Y-1861774I-35814J0D01*
G01X906799Y-1861774D01*
G03X881613Y-1872127I0J-35814D01*
G01X881613Y-1633073D01*
G03X906799Y-1643426I25186J25462D01*
G01X1064800Y-1643426D01*
G03X1100614Y-1607612I0J35814D01*
G01X1100614Y-1527612D01*
G03X1064800Y-1491798I-35814J0D01*
G01X906799Y-1491798D01*
G03X872013Y-1519093I0J-35814D01*
G01X499587Y-1519093D01*
G03X464801Y-1491798I-34786J-8519D01*
G01X306800Y-1491798D01*
G03X284986Y-1499208I0J-35814D01*
G03X189299Y-1398481I-95688J4913D01*
G01X69299Y-1398481D01*
G03X23114Y-1410347I0J-95814D01*
G01X23114Y-1027232D01*
G03X86377Y-1056429I55276J36634D01*
G03X140823Y-1012951I-7987J65831D01*
G01X200965Y-1073093D01*
G03X299095Y-1143115I65124J-12505D01*
G03X288152Y-1023062I-33005J57517D01*
G01X267463Y-1002373D01*
G03X287391Y-894897I-26964J60585D01*
G03X179915Y-914824I-46891J-46891D01*
G01X154563Y-889472D01*
G03X93269Y-825681I-66273J-2336D01*
G03X23114Y-879575I-4979J-66127D01*
G01X487915Y-105212D02*
G03X452101Y-69398I-35814J0D01*
G01X294100Y-69398D01*
G03X258286Y-105212I0J-35814D01*
G01X258286Y-185212D01*
G03X294100Y-221026I35814J0D01*
G01X452101Y-221026D01*
G03X487915Y-185212I0J35814D01*
G01X487915Y-105212D01*
G01X301185Y-763988D02*
G03X433813Y-763988I66314J0D01*
G03X301185Y-763988I-66314J0D01*
G01X367676Y-939798D02*
G03X500304Y-939798I66314J0D01*
G03X367676Y-939798I-66314J0D01*
G01X505185Y-1125118D02*
G03X637813Y-1125118I66314J0D01*
G03X505185Y-1125118I-66314J0D01*
G01X648295Y-983998D02*
G03X780923Y-983998I66314J0D01*
G03X648295Y-983998I-66314J0D01*
G01X851495Y-780798D02*
G03X984123Y-780798I66314J0D01*
G03X851495Y-780798I-66314J0D01*
G01X1838063Y-423933D02*
G03X1725303Y-357406I-61767J24133D01*
G03X1597310Y-329866I-66226J3407D01*
G03X1710070Y-396392I61767J-24133D01*
G03X1838063Y-423933I66226J-3407D01*
G01X1709983Y-228600D02*
G03X1842610Y-228600I66314J0D01*
G03X1709983Y-228600I-66314J0D01*
G01X2032452Y-359509D02*
G03X2165080Y-359509I66314J0D01*
G03X2032452Y-359509I-66314J0D01*
G01X2298852Y-946512D02*
G03X2293282Y-965694I30244J-19182D01*
G01X2293282Y-995694D01*
G03X2294708Y-1005700I35814J0D01*
G03X2293697Y-1010273I34388J-10006D01*
G03X2201806Y-1028072I-37011J-55025D01*
G03X2219246Y-1120032I54880J-37226D01*
G03X2216522Y-1143428I63460J-19246D01*
G03X2175720Y-1200730I25394J-61259D01*
G03X2209404Y-1262485I66196J-3957D01*
G03X2217850Y-1340450I57392J-33223D01*
G03X2294747Y-1355843I48945J44743D01*
G03X2298852Y-1364888I34349J10137D01*
G01X2078510Y-1364888D01*
G01X2078510Y-946988D01*
G01X2078508Y-946512D01*
G01X2298852Y-946512D01*
G01X2544910Y-1045707D02*
G01X2544910Y-1015707D01*
G03X2543484Y-1005700I-35814J0D01*
G03X2544910Y-995694I-34388J10006D01*
G01X2544910Y-991662D01*
G01X2632058Y-904514D01*
G01X2682787Y-904514D01*
G03X2717800Y-876234I0J35814D01*
G03X2744630Y-903567I35013J7534D01*
G01X2744630Y-905443D01*
G01X2708040Y-942033D01*
G03X2693831Y-976338I34305J-34305D01*
G01X2693831Y-1168624D01*
G01X2678349Y-1153143D01*
G03X2674716Y-1143000I-35149J-6868D01*
G03X2679014Y-1125988I-31516J17012D01*
G01X2679014Y-1075988D01*
G03X2643200Y-1040174I-35814J0D01*
G01X2589200Y-1040174D01*
G03X2553386Y-1075988I0J-35814D01*
G01X2553386Y-1100032D01*
G03X2544910Y-1093602I-31131J-32236D01*
G01X2544910Y-1065694D01*
G03X2543487Y-1055700I-35814J0D01*
G03X2544910Y-1045707I-34391J9994D01*
G01X3105828Y-676326D02*
G01X3154077Y-676326D01*
G03X3171088Y-672028I0J35814D01*
G03X3188100Y-676326I17012J31516D01*
G01X3238100Y-676326D01*
G03X3273914Y-640512I0J35814D01*
G01X3273914Y-616065D01*
G01X3294476Y-595503D01*
G01X3420649Y-595503D01*
G03X3381744Y-669874I26044J-60986D01*
G01X3367830Y-669874D01*
G03X3332016Y-705688I0J-35814D01*
G01X3332016Y-759689D01*
G03X3367830Y-795503I35814J0D01*
G01X3417830Y-795503D01*
G03X3434842Y-791204I0J35814D01*
G03X3451854Y-795503I17012J31516D01*
G01X3475732Y-795503D01*
G01X3470449Y-800786D01*
G01X3446012Y-800786D01*
G03X3429000Y-805084I0J-35814D01*
G03X3411988Y-800786I-17012J-31516D01*
G01X3361988Y-800786D01*
G03X3326174Y-836600I0J-35814D01*
G01X3326174Y-890600D01*
G03X3361988Y-926414I35814J0D01*
G01X3411988Y-926414D01*
G03X3414669Y-926314I0J35814D01*
G01X3414669Y-1072363D01*
G01X3412788Y-1072363D01*
G03X3395777Y-1076661I0J-35814D01*
G03X3378765Y-1072363I-17012J-31516D01*
G01X3328765Y-1072363D01*
G03X3292951Y-1108177I0J-35814D01*
G01X3292951Y-1136136D01*
G01X3208608Y-1051793D01*
G03X3174304Y-1037584I-34305J-34305D01*
G01X3118199Y-1037584D01*
G01X3105828Y-1025213D01*
G01X3105828Y-676326D01*
G01X3132657Y-530593D02*
G03X3144893Y-550697I35013J7534D01*
G01X3120420Y-550697D01*
G03X3132657Y-530593I-22776J27639D01*
G01X3441700Y-292034D02*
G03X3464550Y-318186I35013J7534D01*
G01X3463588Y-318186D01*
G03X3446577Y-322484I0J-35814D01*
G03X3429565Y-318186I-17012J-31516D01*
G01X3418850Y-318186D01*
G03X3441700Y-292034I-12163J33685D01*
G01X3754630Y-353683D02*
G03X3720886Y-389437I2070J-35754D01*
G01X3720886Y-464869D01*
G01X3645454Y-464869D01*
G03X3637067Y-465865I0J-35814D01*
G01X3629615Y-465865D01*
G01X3617341Y-453591D01*
G03X3585653Y-440465I-31688J-31688D01*
G01X3532567Y-440465D01*
G01X3532567Y-438372D01*
G03X3549402Y-408000I-18978J30372D01*
G01X3549402Y-354000D01*
G03X3525751Y-320314I-35814J0D01*
G01X3557360Y-320314D01*
G03X3575942Y-315117I0J35814D01*
G03X3632789Y-311251I24361J61677D01*
G03X3665653Y-264706I-32486J57812D01*
G01X3754630Y-353683D01*
G01X3593174Y-58400D02*
G03X3585155Y-35814I-35814J0D01*
G01X4023276Y-35814D01*
G03X4013886Y-59988I26424J-24174D01*
G01X4013886Y-109988D01*
G03X4018184Y-127000I35814J0D01*
G03X4013886Y-144012I31516J-17012D01*
G01X4013886Y-194012D01*
G03X4031888Y-225082I35814J0D01*
G01X4031888Y-263325D01*
G03X3989525Y-278798I214J-66314D01*
G03X3949849Y-265277I-40133J-52791D01*
G03X3948628Y-262788I-32737J-14523D01*
G03X3952926Y-245777I-31516J17012D01*
G01X3952926Y-195777D01*
G03X3943188Y-171227I-35814J0D01*
G03X4001618Y-77380I-1886J66287D01*
G03X3892422Y-60126I-60316J-27560D01*
G01X3593174Y-60126D01*
G01X3593174Y-58400D01*
G01X3892422Y-149754D02*
G03X3904288Y-159963I48880J44814D01*
G01X3863111Y-159963D01*
G03X3827297Y-195777I0J-35814D01*
G01X3827297Y-245777D01*
G03X3831596Y-262788I35814J0D01*
G03X3827297Y-279800I31516J-17012D01*
G01X3827297Y-299598D01*
G01X3677454Y-149754D01*
G01X3892422Y-149754D01*
G01X3799041Y-804407D02*
G03X3812167Y-772718I-31688J31688D01*
G01X3812167Y-627538D01*
G03X3840896Y-635343I31305J58460D01*
G01X3840896Y-855129D01*
G03X3780229Y-823199I-56773J-34269D01*
G01X3781041Y-822407D01*
G01X3799041Y-804407D01*
G01X3876675Y-996506D02*
G01X4029617Y-996506D01*
G01X4026344Y-999779D01*
G03X3980665Y-1068828I20368J-63109D01*
G03X3976699Y-1068608I-3965J-35594D01*
G01X3968568Y-1068608D01*
G03X3958380Y-1052880I-41876J-15960D01*
G01X3920380Y-1014880D01*
G03X3888692Y-1001754I-31688J-31688D01*
G01X3873560Y-1001754D01*
G03X3876675Y-996506I-55407J36436D01*
G01X4592863Y-1324072D02*
G03X4527542Y-1254890I-66252J2875D01*
G03X4460305Y-1322212I-931J-66307D01*
G01X4453906Y-1315813D01*
G03X4422917Y-1301717I-34305J-34305D01*
G03X4408620Y-1291671I-27117J-23395D01*
G03X4420009Y-1283406I-20299J39953D01*
G01X4461646Y-1241770D01*
G03X4525196Y-1202279I2875J66252D01*
G01X4720919Y-1398002D01*
G03X4789095Y-1467163I66252J-2875D01*
G03X4884376Y-1511893I64785J14156D01*
G03X4905395Y-1518710I21020J28997D01*
G01X5014596Y-1518710D01*
G01X5014596Y-1555783D01*
G01X4824573Y-1555783D01*
G01X4592863Y-1324072D01*
G01X5655207Y-1392083D02*
G01X5600396Y-1392083D01*
G03X5580405Y-1398181I0J-35814D01*
G03X5560414Y-1392083I-19991J-29715D01*
G01X5545504Y-1392083D01*
G01X5261254Y-1107833D01*
G03X5226950Y-1093624I-34305J-34305D01*
G01X4963514Y-1093624D01*
G03X4928097Y-1063122I-35418J-5312D01*
G01X4847449Y-1063122D01*
G03X4812436Y-1091402I0J-35814D01*
G03X4777424Y-1063122I-35013J-7534D01*
G01X4721461Y-1063122D01*
G01X4715806Y-1057466D01*
G03X4749193Y-1016736I-30375J58948D01*
G03X4742363Y-964514I-63763J18218D01*
G01X4748435Y-964514D01*
G03X4784249Y-928700I0J35814D01*
G01X4784249Y-874700D01*
G03X4748435Y-838886I-35814J0D01*
G01X4698435Y-838886D01*
G03X4681423Y-843184I0J-35814D01*
G03X4664412Y-838886I-17012J-31516D01*
G01X4639975Y-838886D01*
G01X4636591Y-835502D01*
G01X5098627Y-835502D01*
G01X5655207Y-1392083D01*
G01X4761601Y-1221151D02*
G01X4777424Y-1221151D01*
G03X4812436Y-1192871I0J35814D01*
G03X4847449Y-1221151I35013J7534D01*
G01X4928097Y-1221151D01*
G03X4963514Y-1190652I0J35814D01*
G01X5206854Y-1190652D01*
G01X5408285Y-1392083D01*
G01X5380407Y-1392083D01*
G03X5360403Y-1398190I0J-35814D01*
G03X5340400Y-1392083I-20004J-29707D01*
G01X5270400Y-1392083D01*
G03X5250409Y-1398181I0J-35814D01*
G03X5230418Y-1392083I-19991J-29715D01*
G01X5160418Y-1392083D01*
G03X5140414Y-1398190I0J-35814D01*
G03X5120410Y-1392083I-20004J-29707D01*
G01X5061209Y-1392083D01*
G01X5061209Y-1332897D01*
G03X5025395Y-1297083I-35814J0D01*
G01X4905395Y-1297083D01*
G03X4869761Y-1329311I0J-35814D01*
G01X4761601Y-1221151D01*
G01X5422741Y-1623710D02*
G03X5417131Y-1643719I60258J-27686D01*
G01X5397122Y-1623710D01*
G01X5422741Y-1623710D01*
G54D11*
G01X373101Y-145212D02*
G01X477755Y-145212D01*
G01X373101Y-145212D02*
G01X268446Y-145212D01*
G01X373101Y-145212D02*
G01X373101Y-210866D01*
G01X373101Y-145212D02*
G01X373101Y-79558D01*
G01X2229104Y-1525702D02*
G01X2414758Y-1525702D01*
G01X2229104Y-1525702D02*
G01X2229104Y-1676356D01*
G01X2229104Y-1525702D02*
G01X2229104Y-1375048D01*
G01X2229104Y-785698D02*
G01X2414758Y-785698D01*
G01X2229104Y-785698D02*
G01X2043450Y-785698D01*
G01X2229104Y-785698D02*
G01X2229104Y-936352D01*
G01X2229104Y-785698D02*
G01X2229104Y-635044D01*
G01X2616200Y-1100988D02*
G01X2616200Y-1050334D01*
G01X2616200Y-1100988D02*
G01X2668854Y-1100988D01*
G01X973099Y-145212D02*
G01X1077754Y-145212D01*
G01X973099Y-145212D02*
G01X868445Y-145212D01*
G01X973099Y-145212D02*
G01X973099Y-210866D01*
G01X973099Y-145212D02*
G01X973099Y-79558D01*
G01X385801Y-1937588D02*
G01X281146Y-1937588D01*
G01X385801Y-1937588D02*
G01X490455Y-1937588D01*
G01X385801Y-1937588D02*
G01X385801Y-1871934D01*
G01X385801Y-1937588D02*
G01X385801Y-2003242D01*
G01X985799Y-1937588D02*
G01X1090454Y-1937588D01*
G01X985799Y-1937588D02*
G01X985799Y-1871934D01*
G01X6515405Y-447904D02*
G01X6429751Y-447904D01*
G01X6515405Y-447904D02*
G01X6601059Y-447904D01*
G01X6515405Y-447904D02*
G01X6515405Y-312250D01*
G01X6515405Y-447904D02*
G01X6515405Y-583557D01*
G01X6425413Y-1407897D02*
G01X6319759Y-1407897D01*
G01X6425413Y-1407897D02*
G01X6531066Y-1407897D01*
G01X6425413Y-1407897D02*
G01X6425413Y-1307243D01*
G01X6425413Y-1407897D02*
G01X6425413Y-1508550D01*
G01X3894607Y-1540599D02*
G01X3798954Y-1540599D01*
G01X3894607Y-1540599D02*
G01X3894607Y-1454945D01*
G01X4046709Y-790693D02*
G01X3851056Y-790693D01*
G01X3404565Y-381000D02*
G01X3353911Y-381000D01*
G01X4229405Y-1580998D02*
G01X4295059Y-1580998D01*
G01X4229405Y-1580998D02*
G01X4229405Y-1510344D01*
G01X4229405Y-1580998D02*
G01X4229405Y-1651652D01*
G01X4368800Y-1434135D02*
G01X4368800Y-1484789D01*
G01X4368800Y-1434135D02*
G01X4421454Y-1434135D01*
G01X4368800Y-1434135D02*
G01X4316146Y-1434135D01*
G01X3392830Y-732688D02*
G01X3342176Y-732688D01*
G01X3392830Y-732688D02*
G01X3392830Y-785343D01*
G01X3386988Y-863600D02*
G01X3336334Y-863600D01*
G01X3386988Y-863600D02*
G01X3386988Y-810946D01*
G01X3386988Y-863600D02*
G01X3386988Y-916254D01*
G01X4076700Y-84988D02*
G01X4024046Y-84988D01*
G01X4191000Y-84988D02*
G01X4243654Y-84988D01*
G01X3353765Y-1135177D02*
G01X3303111Y-1135177D01*
G01X3353765Y-1135177D02*
G01X3353765Y-1082523D01*
G01X3890112Y-220777D02*
G01X3890112Y-170123D01*
G01X3890112Y-220777D02*
G01X3837457Y-220777D01*
G01X3890112Y-220777D02*
G01X3942766Y-220777D01*
G01X3395777Y-491388D02*
G01X3345123Y-491388D01*
G01X4965395Y-1407897D02*
G01X4965395Y-1307243D01*
G01X4965395Y-1407897D02*
G01X4965395Y-1508550D01*
G01X4965395Y-447904D02*
G01X4879741Y-447904D01*
G01X4965395Y-447904D02*
G01X5051049Y-447904D01*
G01X4965395Y-447904D02*
G01X4965395Y-312250D01*
G01X4965395Y-447904D02*
G01X4965395Y-583557D01*
G01X4500039Y-1561758D02*
G01X4449385Y-1561758D01*
G01X4500039Y-1561758D02*
G01X4500039Y-1614413D01*
G01X4503951Y-1700740D02*
G01X4453297Y-1700740D01*
G01X4503951Y-1700740D02*
G01X4503951Y-1648085D01*
G01X4503951Y-1700740D02*
G01X4503951Y-1753394D01*
G01X4715612Y-508000D02*
G01X4766266Y-508000D01*
G01X4715612Y-508000D02*
G01X4715612Y-455346D01*
G01X4715612Y-508000D02*
G01X4715612Y-560654D01*
G01X4719523Y-707288D02*
G01X4770177Y-707288D01*
G01X4719523Y-707288D02*
G01X4719523Y-654634D01*
G01X4723435Y-901700D02*
G01X4774089Y-901700D01*
G01X4723435Y-901700D02*
G01X4723435Y-849046D01*
G01X5415407Y-1507896D02*
G01X5415407Y-1613550D01*
G01X3674593Y-1710601D02*
G01X3770246Y-1710601D01*
G01X3674593Y-1710601D02*
G01X3674593Y-1796255D01*
G01X3200299Y-1778887D02*
G01X3134645Y-1778887D01*
G01X3200299Y-1778887D02*
G01X3200299Y-1708233D01*
G01X3200299Y-1778887D02*
G01X3200299Y-1849541D01*
G01X4484748Y-1869751D02*
G01X4419095Y-1869751D01*
G01X4484748Y-1869751D02*
G01X4484748Y-1940405D01*
G01X4484748Y-1869751D02*
G01X4484748Y-1799097D01*
G01X3129077Y-613512D02*
G01X3129077Y-560857D01*
G01X3129077Y-613512D02*
G01X3129077Y-666166D01*
G01X129299Y-639305D02*
G01X129299Y-553651D01*
G01X129299Y-639305D02*
G01X129299Y-724959D01*
G01X129299Y-639305D02*
G01X274952Y-639305D01*
G01X129299Y-1494295D02*
G01X129299Y-1408641D01*
G01X129299Y-1494295D02*
G01X129299Y-1579949D01*
G01X129299Y-1494295D02*
G01X274952Y-1494295D01*
G01X6885000Y-1454912D02*
G01X6779346Y-1454912D01*
G01X6885000Y-1454912D02*
G01X6990654Y-1454912D01*
G01X6885000Y-1454912D02*
G01X6885000Y-1349258D01*
G01X6885000Y-1454912D02*
G01X6885000Y-1560566D01*
G01X7085000Y-504901D02*
G01X6889346Y-504901D01*
G01X7085000Y-504901D02*
G01X7085000Y-309248D01*
G01X7085000Y-504901D02*
G01X7085000Y-700555D01*
G01X7085000Y-1704899D02*
G01X6889346Y-1704899D01*
G01X7085000Y-1704899D02*
G01X7085000Y-1509245D01*
G01X7085000Y-1704899D02*
G01X7085000Y-1900552D01*
G04 Copper End*

G04 Pad Start*
G54D12*
G01X3890112Y-220777D03*
G01X3890112Y-304800D03*
G54D13*
G01X3404565Y-381000D03*
G01X3488588Y-381000D03*
G01X4719523Y-707288D03*
G01X4635500Y-707288D03*
G01X3392830Y-732688D03*
G01X3476854Y-732688D03*
G54D12*
G01X4368800Y-1434135D03*
G01X4368800Y-1350112D03*
G54D14*
G01X3340303Y-1778887D03*
G01X3200299Y-1778887D03*
G01X4229405Y-1580998D03*
G01X4089400Y-1580998D03*
G54D12*
G01X2616200Y-1185012D03*
G01X2616200Y-1100988D03*
G54D13*
G01X4587974Y-1700740D03*
G01X4503951Y-1700740D03*
G01X4500039Y-1561758D03*
G01X4584062Y-1561758D03*
G54D14*
G01X4484748Y-1869751D03*
G01X4624753Y-1869751D03*
G54D13*
G01X3213100Y-613512D03*
G01X3129077Y-613512D03*
G01X4723435Y-901700D03*
G01X4639412Y-901700D03*
G54D12*
G01X4076700Y-84988D03*
G01X4076700Y-169012D03*
G54D13*
G01X3395777Y-491388D03*
G01X3479800Y-491388D03*
G01X4715612Y-508000D03*
G01X4631588Y-508000D03*
G01X3353765Y-1135177D03*
G01X3437788Y-1135177D03*
G54D12*
G01X4191000Y-84988D03*
G01X4191000Y-169012D03*
G54D13*
G01X3471012Y-863600D03*
G01X3386988Y-863600D03*
G54D16*
G01X5195418Y-1507896D03*
G01X5305400Y-1507896D03*
G01X5415407Y-1507896D03*
G01X5525414Y-1507896D03*
G01X5635396Y-1507896D03*
G01X5745404Y-1507896D03*
G01X5855411Y-1507896D03*
G01X5965419Y-1507896D03*
G01X5085410Y-1507896D03*
G54D17*
G01X4965395Y-1407897D03*
G54D18*
G01X4965395Y-447904D03*
G01X6515405Y-447904D03*
G54D19*
G01X6425413Y-1407897D03*
G54D20*
G01X6885000Y-754913D03*
G01X6885000Y-1004900D03*
G01X6885000Y-1204900D03*
G01X6885000Y-1454912D03*
G54D21*
G01X7085000Y-504901D03*
G01X7085000Y-1704899D03*
G54D22*
G01X129299Y-639305D03*
G01X129299Y-1494295D03*
G54D23*
G01X2429002Y-300101D03*
G01X2794000Y-300101D03*
G54D24*
G01X2844102Y-1086104D03*
G01X3074099Y-1181100D03*
G01X2844102Y-1276096D03*
G54D25*
G01X3517036Y-101600D03*
G01X3366364Y-101600D03*
G54D26*
G01X5283200Y-1897482D03*
G01X5283200Y-1810918D03*
G54D25*
G01X3917667Y-1365000D03*
G01X3766994Y-1365000D03*
G01X3517036Y-241300D03*
G01X3366364Y-241300D03*
G54D26*
G01X6103518Y-1902663D03*
G01X6103518Y-1816100D03*
G01X5981700Y-1821282D03*
G01X5981700Y-1907845D03*
G01X5867400Y-1823618D03*
G01X5867400Y-1910182D03*
G01X5722518Y-1828800D03*
G01X5722518Y-1915363D03*
G01X5410200Y-1808582D03*
G01X5410200Y-1895145D03*
G54D27*
G01X5078400Y-1854200D03*
G01X4878400Y-1854200D03*
G54D25*
G01X4887773Y-1142136D03*
G01X4737100Y-1142136D03*
G01X2642464Y-825500D03*
G01X2793136Y-825500D03*
G54D28*
G01X3434182Y-1282700D03*
G01X3347618Y-1282700D03*
G54D25*
G01X3207993Y-479859D03*
G01X3057320Y-479859D03*
G54D29*
G01X973099Y-145212D03*
G01X373101Y-145212D03*
G01X973099Y-515188D03*
G01X373101Y-515188D03*
G01X385801Y-1937588D03*
G01X985799Y-1937588D03*
G01X385801Y-1567612D03*
G01X985799Y-1567612D03*
G54D30*
G01X3674593Y-1540599D03*
G01X3894607Y-1540599D03*
G01X3894607Y-1710601D03*
G01X3674593Y-1710601D03*
G54D31*
G01X4046709Y-790693D03*
G54D32*
G01X4326693Y-433188D03*
G01X4286714Y-433188D03*
G01X4246709Y-433188D03*
G01X4206704Y-433188D03*
G01X4166699Y-433188D03*
G01X4126694Y-433188D03*
G01X4086714Y-433188D03*
G01X4046709Y-433188D03*
G01X4006704Y-433188D03*
G01X3966699Y-433188D03*
G01X3926694Y-433188D03*
G01X3886715Y-433188D03*
G01X3846710Y-433188D03*
G01X3806705Y-433188D03*
G01X3766700Y-433188D03*
G54D33*
G01X3689204Y-510683D03*
G01X3689204Y-550688D03*
G01X3689204Y-590718D03*
G01X3689204Y-630673D03*
G01X3689204Y-670678D03*
G01X3689204Y-710683D03*
G01X3689204Y-750688D03*
G01X3689204Y-790718D03*
G01X3689204Y-830672D03*
G01X3689204Y-870677D03*
G01X3689204Y-910682D03*
G01X3689204Y-950687D03*
G01X3689204Y-990718D03*
G01X3689204Y-1030672D03*
G01X3689204Y-1070677D03*
G54D32*
G01X3766700Y-1148172D03*
G01X3806705Y-1148172D03*
G01X3846710Y-1148172D03*
G01X3886715Y-1148172D03*
G01X3926694Y-1148172D03*
G01X3966699Y-1148172D03*
G01X4006704Y-1148172D03*
G01X4046709Y-1148172D03*
G01X4086714Y-1148172D03*
G01X4126694Y-1148172D03*
G01X4166699Y-1148172D03*
G01X4206704Y-1148172D03*
G01X4246709Y-1148172D03*
G01X4286714Y-1148172D03*
G01X4326693Y-1148172D03*
G54D33*
G01X4404214Y-1070677D03*
G01X4404214Y-1030697D03*
G01X4404214Y-990692D03*
G01X4404214Y-950687D03*
G01X4404214Y-910682D03*
G01X4404214Y-870677D03*
G01X4404214Y-830672D03*
G01X4404214Y-790693D03*
G01X4404214Y-750688D03*
G01X4404214Y-710683D03*
G01X4404214Y-670678D03*
G01X4404214Y-630698D03*
G01X4404214Y-590693D03*
G01X4404214Y-550688D03*
G01X4404214Y-510683D03*
G54D34*
G01X2419096Y-980694D03*
G01X2419096Y-1030707D03*
G01X2419096Y-1080694D03*
G01X2419096Y-1130706D03*
G01X2419096Y-1180694D03*
G01X2419096Y-1230706D03*
G01X2419096Y-1280693D03*
G01X2419096Y-1330706D03*
G54D35*
G01X2229104Y-785698D03*
G01X2229104Y-1525702D03*
G04 Pad End*

G04 Via Start*
G54D36*
G01X3181350Y-107950D03*
G01X3187700Y-228600D03*
G01X4257501Y-1251718D03*
G01X4507771Y-579899D03*
G01X2297935Y-1951526D03*
G01X3812492Y-1046568D03*
G01X2376986Y-1993896D03*
G01X4231182Y-342899D03*
G01X3290163Y-80758D03*
G01X3278170Y-229008D03*
G01X3839702Y-1277118D03*
G01X3843472Y-569079D03*
G01X571499Y-1125118D03*
G01X3981302Y-1277118D03*
G01X5482999Y-1651397D03*
G01X5635399Y-1854596D03*
G01X4297511Y-1044618D03*
G01X6048148Y-792578D03*
G01X4464521Y-1175518D03*
G01X6233757Y-870719D03*
G01X6360757Y-997718D03*
G01X4507771Y-499889D03*
G01X3115364Y-317499D03*
G01X4300671Y-539889D03*
G01X1659076Y-353999D03*
G01X4853881Y-1453007D03*
G01X5768279Y-945008D03*
G01X4787171Y-1400877D03*
G01X5754398Y-867478D03*
G01X4377491Y-1173568D03*
G01X266089Y-1085598D03*
G01X88290Y-891808D03*
G01X240500Y-941788D03*
G01X367499Y-763988D03*
G01X433990Y-939798D03*
G01X78390Y-990598D03*
G01X4093702Y-536739D03*
G01X3941302Y-104940D03*
G01X4032102Y-329639D03*
G01X3600303Y-253439D03*
G01X714609Y-983998D03*
G01X917809Y-780798D03*
G01X1060608Y-240570D03*
G01X4147432Y-253999D03*
G01X1776296Y-399799D03*
G01X1776296Y-228600D03*
G01X5195420Y-1625997D03*
G01X4306421Y-874478D03*
G01X5330799Y-1625997D03*
G01X4302621Y-797338D03*
G01X5626809Y-1215698D03*
G01X4531221Y-1016088D03*
G01X4558571Y-699889D03*
G01X4609371Y-1004688D03*
G01X5965418Y-1625997D03*
G01X4517621Y-940198D03*
G01X5694599Y-1676797D03*
G01X5796198Y-1803796D03*
G01X4526611Y-1321197D03*
G01X3784122Y-889398D03*
G01X2659295Y-732689D03*
G01X3446693Y-656489D03*
G01X3949392Y-331589D03*
G01X4046712Y-1062888D03*
G01X3818153Y-965318D03*
G01X2741565Y-1330707D03*
G01X3585653Y-859878D03*
G01X2282705Y-1139278D03*
G01X3663803Y-1121478D03*
G01X2256685Y-1065298D03*
G01X3534853Y-950688D03*
G01X2241916Y-1204688D03*
G01X3585653Y-1030668D03*
G01X2623855Y-1259267D03*
G01X2266795Y-1295707D03*
G01X2806604Y-1009898D03*
G01X3912122Y-534789D03*
G01X4115322Y-331589D03*
G01X4685431Y-998518D03*
G01X2987764Y-410309D03*
G01X2098766Y-359509D03*
G01X5390009Y-1389797D03*
G01X4659251Y-1637957D03*
G01X3124104Y-1855086D03*
G01X4774230Y-850898D03*
G01X4786930Y-723899D03*
G01X3327303Y-1067688D03*
G01X3998312Y-991488D03*
G01X2279895Y-404699D03*
G01X2154096Y-77800D03*
G01X1354497Y-227820D03*
G01X728998Y-373809D03*
G01X6622497Y-1630387D03*
G04 Via End*

G04 Track Start*
G54D11*
G01X3181350Y-107950D02*
G01X3187700Y-101600D01*
G01X3366364Y-101600D01*
G01X3187700Y-228600D02*
G01X3353664Y-228600D01*
G01X3366364Y-241300D01*
G54D37*
G01X4086722Y-1148168D02*
G01X4086722Y-1251718D01*
G01X3985122Y-1353318D01*
G01X3929352Y-1353318D01*
G01X3917672Y-1364997D01*
G54D11*
G01X2419095Y-980688D02*
G01X2487275Y-980688D01*
G01X2642465Y-825498D01*
G54D37*
G01X4206702Y-1148168D02*
G01X4206702Y-1200918D01*
G01X4257501Y-1251718D01*
G01X4404221Y-630699D02*
G01X4456971Y-630699D01*
G01X4507771Y-579899D01*
G54D11*
G01X973098Y-515189D02*
G01X373099Y-515189D01*
G01X973098Y-515189D02*
G01X973098Y-479890D01*
G01X1140998Y-311989D01*
G01X1394998Y-311989D01*
G01X2029996Y-946988D01*
G01X2029996Y-1683587D01*
G01X2233196Y-1886786D01*
G01X2297935Y-1951526D01*
G54D37*
G01X3812492Y-1046568D02*
G01X3888692Y-1046568D01*
G01X3926692Y-1084568D01*
G01X3926692Y-1148168D01*
G54D11*
G01X385799Y-1567607D02*
G01X985798Y-1567607D01*
G01X833099Y-1567607D02*
G01X833099Y-1948606D01*
G01X903789Y-2019296D01*
G01X2326186Y-2019296D01*
G01X2351586Y-1993896D01*
G01X2376986Y-1993896D01*
G54D37*
G01X4231182Y-342899D02*
G01X4287201Y-342899D01*
G01X4326691Y-382389D01*
G01X4326691Y-433189D01*
G54D11*
G01X3290163Y-80758D02*
G01X3345521Y-80758D01*
G01X3366363Y-101600D01*
G01X3278170Y-229008D02*
G01X3354072Y-229008D01*
G01X3366363Y-241300D01*
G54D37*
G01X3966702Y-1148168D02*
G01X3966702Y-1200918D01*
G01X3890502Y-1277118D01*
G01X3839702Y-1277118D01*
G01X4404221Y-670679D02*
G01X4326071Y-670679D01*
G01X4249871Y-594479D01*
G01X3868872Y-594479D01*
G01X3843472Y-569079D01*
G01X4006702Y-1148168D02*
G01X4006702Y-1251718D01*
G01X3981302Y-1277118D01*
G54D11*
G01X5635399Y-1507897D02*
G01X5635399Y-1600597D01*
G01X5584599Y-1651397D01*
G01X5482999Y-1651397D01*
G01X5635399Y-1854596D02*
G01X5696169Y-1915366D01*
G01X5722519Y-1915366D01*
G01X5862208Y-1915366D01*
G01X5867398Y-1910176D01*
G01X5979368Y-1910176D01*
G01X5981698Y-1907846D01*
G01X6098338Y-1907846D01*
G01X6103518Y-1902666D01*
G01X5635399Y-1854596D02*
G01X5594849Y-1895146D01*
G01X5410199Y-1895146D01*
G01X5333999Y-1971346D01*
G01X5195550Y-1971346D01*
G01X5078400Y-1854196D01*
G01X3340303Y-1778886D02*
G01X3436303Y-1778886D01*
G01X3674593Y-1540597D01*
G01X3674593Y-1457397D01*
G01X3766992Y-1364997D01*
G54D37*
G01X3689203Y-550689D02*
G01X3275913Y-550689D01*
G01X3213094Y-613509D01*
G54D11*
G01X3213094Y-613509D02*
G01X3213094Y-484959D01*
G01X3207994Y-479859D01*
G54D37*
G01X4126692Y-1148168D02*
G01X4126692Y-1543707D01*
G01X4089402Y-1580997D01*
G54D11*
G01X4089402Y-1580997D02*
G01X4024212Y-1580997D01*
G01X3894612Y-1710597D01*
G54D37*
G01X4246712Y-1148168D02*
G01X4246712Y-1095417D01*
G01X4297511Y-1044618D01*
G01X4286721Y-1148168D02*
G01X4286721Y-1200918D01*
G01X4337521Y-1251718D01*
G01X4388321Y-1251718D01*
G01X4464521Y-1175518D01*
G54D11*
G01X6233757Y-870719D02*
G01X6360757Y-997718D01*
G54D37*
G01X4404221Y-550689D02*
G01X4456971Y-550689D01*
G01X4507771Y-499889D01*
G01X4404221Y-590689D02*
G01X4351471Y-590689D01*
G01X4300671Y-539889D01*
G01X3806702Y-1148168D02*
G01X3806702Y-1226318D01*
G01X3750323Y-1282697D01*
G01X3434183Y-1282697D01*
G54D11*
G01X3445523Y-1282697D02*
G01X3369324Y-1358897D01*
G01X2926904Y-1358897D01*
G01X2844104Y-1276097D01*
G01X5525409Y-1507897D02*
G01X5525409Y-1440597D01*
G01X5226950Y-1142138D01*
G01X4887780Y-1142138D01*
G54D37*
G01X4404221Y-1030698D02*
G01X4456971Y-1030698D01*
G01X4558571Y-1132298D01*
G01X4609371Y-1132298D01*
G01X4853881Y-1376807D01*
G01X4853881Y-1453007D01*
G01X4404221Y-1070678D02*
G01X4456971Y-1070678D01*
G01X4787171Y-1400877D01*
G01X4326691Y-1148168D02*
G01X4352091Y-1148168D01*
G01X4377491Y-1173568D01*
G54D11*
G01X266089Y-1085598D02*
G01X266089Y-1069608D01*
G01X88290Y-891808D01*
G54D37*
G01X3966702Y-433189D02*
G01X3966702Y-485939D01*
G01X3992102Y-511339D01*
G01X4068302Y-511339D01*
G01X4093702Y-536739D01*
G01X3941302Y-104940D02*
G01X3520383Y-104940D01*
G01X3517043Y-101600D01*
G01X4006702Y-433189D02*
G01X4006702Y-355039D01*
G01X4032102Y-329639D01*
G01X3600303Y-253439D02*
G01X3529183Y-253439D01*
G01X3517043Y-241300D01*
G01X2794004Y-300099D02*
G01X2921004Y-173100D01*
G01X3637423Y-173100D01*
G01X3846712Y-382389D01*
G01X3846712Y-433189D01*
G54D11*
G01X5195420Y-1507897D02*
G01X5195420Y-1600597D01*
G01X5202210Y-1600597D01*
G01X5410199Y-1808586D01*
G54D37*
G01X5195420Y-1600597D02*
G01X5195420Y-1625997D01*
G01X4306421Y-874478D02*
G01X4400421Y-874478D01*
G01X4404221Y-870678D01*
G54D11*
G01X5305399Y-1507897D02*
G01X5305399Y-1600597D01*
G01X5483199Y-1778396D01*
G01X5672109Y-1778396D01*
G01X5722519Y-1828806D01*
G54D37*
G01X4302621Y-797338D02*
G01X4320091Y-797338D01*
G01X4353421Y-830668D01*
G01X4404221Y-830668D01*
G54D11*
G01X5855408Y-1507897D02*
G01X5855408Y-1600597D01*
G01X5982408Y-1727597D01*
G01X5982408Y-1820576D01*
G01X5981698Y-1821286D01*
G54D37*
G01X5855408Y-1507897D02*
G01X5855408Y-1444297D01*
G01X5626809Y-1215698D01*
G01X4531221Y-1016088D02*
G01X4505821Y-1016088D01*
G01X4480421Y-990688D01*
G01X4404221Y-990688D01*
G01X4404221Y-750688D02*
G01X4507771Y-750688D01*
G01X4558571Y-699889D01*
G01X4609371Y-1004688D02*
G01X4609371Y-1014408D01*
G01X4737101Y-1142138D01*
G54D11*
G01X5965418Y-1507897D02*
G01X5965418Y-1651397D01*
G01X6103518Y-1789496D01*
G01X6103518Y-1816106D01*
G54D37*
G01X4517621Y-940198D02*
G01X4507131Y-950688D01*
G01X4404221Y-950688D01*
G54D11*
G01X5745399Y-1507897D02*
G01X5745399Y-1625997D01*
G01X5694599Y-1676797D01*
G01X5796198Y-1803796D02*
G01X5847578Y-1803796D01*
G01X5867398Y-1823616D01*
G54D37*
G01X5745399Y-1507897D02*
G01X5745399Y-1418897D01*
G01X5117190Y-790688D01*
G01X4404221Y-790688D01*
G54D11*
G01X5085410Y-1507897D02*
G01X5085410Y-1613127D01*
G01X5283199Y-1810916D01*
G54D37*
G01X5085410Y-1600597D02*
G01X4806010Y-1600597D01*
G01X4526611Y-1321197D01*
G01X3784122Y-889398D02*
G01X3765402Y-870678D01*
G01X3689203Y-870678D01*
G54D11*
G01X2429005Y-300099D02*
G01X2429005Y-502399D01*
G01X2659295Y-732689D01*
G01X3446693Y-656489D02*
G01X3446693Y-702529D01*
G01X3476853Y-732689D01*
G54D37*
G01X3476853Y-732689D02*
G01X3494853Y-750688D01*
G01X3689203Y-750688D01*
G01X3949392Y-331589D02*
G01X3926692Y-354289D01*
G01X3926692Y-433189D01*
G01X3949392Y-331589D02*
G01X3916902Y-331589D01*
G01X3890112Y-304799D01*
G01X4046712Y-1062888D02*
G01X4046712Y-1148168D01*
G01X4046712Y-1148168D02*
G01X4046712Y-1042788D01*
G01X4093732Y-995768D01*
G01X4220732Y-995768D01*
G01X4246132Y-970368D01*
G01X4246132Y-767168D01*
G01X4302621Y-710679D01*
G01X4404221Y-710679D01*
G01X4456971Y-710679D01*
G01X4533171Y-634479D01*
G01X4583971Y-634479D01*
G01X4635501Y-686008D01*
G01X4635501Y-707289D01*
G54D11*
G01X3074104Y-1181098D02*
G01X2743905Y-1181098D01*
G01X2742345Y-1179538D01*
G01X2742345Y-976338D01*
G01X2793144Y-925538D01*
G01X2793144Y-825498D01*
G54D37*
G01X3689203Y-990718D02*
G01X3792753Y-990718D01*
G01X3818153Y-965318D01*
G01X2741565Y-1330707D02*
G01X2690765Y-1381507D01*
G01X2469895Y-1381507D01*
G01X2419095Y-1330707D01*
G01X3689203Y-910678D02*
G01X3636452Y-910678D01*
G01X3585653Y-859878D01*
G01X2282705Y-1139278D02*
G01X2324115Y-1180688D01*
G01X2419095Y-1180688D01*
G01X3689203Y-1070678D02*
G01X3689203Y-1096078D01*
G01X3663803Y-1121478D01*
G01X2256685Y-1065298D02*
G01X2272075Y-1080688D01*
G01X2419095Y-1080688D01*
G01X3689203Y-950688D02*
G01X3534853Y-950688D01*
G01X2241916Y-1204688D02*
G01X2267935Y-1230708D01*
G01X2419095Y-1230708D01*
G01X3689203Y-1030668D02*
G01X3585653Y-1030668D01*
G01X2623855Y-1259267D02*
G01X2573055Y-1259267D01*
G01X2547655Y-1233868D01*
G01X2547655Y-1157668D01*
G01X2522255Y-1132268D01*
G01X2420655Y-1132268D01*
G01X2419095Y-1130708D01*
G54D11*
G01X2266795Y-1295707D02*
G01X2281815Y-1280687D01*
G01X2419095Y-1280687D01*
G01X2547195Y-1280687D01*
G01X2590805Y-1324297D01*
G01X2641605Y-1324297D01*
G01X2692405Y-1273497D01*
G01X2692405Y-1235808D01*
G01X2641605Y-1185008D01*
G01X2616205Y-1185008D01*
G01X2806604Y-1009898D02*
G01X2806604Y-1048598D01*
G01X2844104Y-1086098D01*
G01X2869504Y-1111498D01*
G01X3072704Y-1111498D01*
G01X3098104Y-1086098D01*
G01X3174304Y-1086098D01*
G01X3347623Y-1259417D01*
G01X3347623Y-1282697D01*
G01X3326703Y-1238498D02*
G01X3352103Y-1238498D01*
G01X3428303Y-1162298D01*
G01X3428303Y-1144658D01*
G01X3437783Y-1135178D01*
G01X3463183Y-1109778D01*
G01X3463183Y-871428D01*
G01X3471013Y-863598D01*
G54D37*
G01X3471013Y-863598D02*
G01X3543893Y-790718D01*
G01X3689203Y-790718D01*
G01X3749353Y-790718D01*
G01X3767353Y-772718D01*
G01X3767353Y-536719D01*
G01X3741953Y-511319D01*
G01X3689843Y-511319D01*
G01X3741953Y-511319D02*
G01X3767353Y-485919D01*
G01X3767353Y-433839D01*
G01X3767353Y-485919D02*
G01X3783192Y-501759D01*
G01X3868953Y-501759D01*
G01X3886722Y-483989D01*
G01X3886722Y-433189D01*
G01X3886722Y-483989D02*
G01X3912122Y-509389D01*
G01X3912122Y-534789D01*
G01X4115322Y-331589D02*
G01X4046712Y-400199D01*
G01X4046712Y-433189D01*
G01X4086722Y-433189D01*
G01X4115322Y-331589D02*
G01X4076702Y-292969D01*
G01X4076702Y-169010D01*
G54D11*
G01X4076702Y-169010D02*
G01X4191002Y-169010D01*
G54D37*
G01X3689203Y-510679D02*
G01X3611052Y-510679D01*
G01X3585653Y-485279D01*
G01X3484983Y-485279D01*
G01X3484053Y-487139D01*
G01X3479803Y-491389D01*
G54D11*
G01X3484053Y-485279D02*
G01X3484053Y-385530D01*
G01X3488583Y-380999D01*
G54D37*
G01X3463183Y-1109778D02*
G01X3539383Y-1185978D01*
G01X3728893Y-1185978D01*
G01X3766702Y-1148168D01*
G01X4191002Y-169010D02*
G01X4394201Y-372209D01*
G01X4394201Y-500659D01*
G01X4404221Y-510679D01*
G01X4394201Y-448409D02*
G01X4419601Y-423009D01*
G01X4546601Y-423009D01*
G01X4631591Y-507999D01*
G54D11*
G01X4685431Y-998518D02*
G01X4685431Y-973118D01*
G01X4639411Y-927098D01*
G01X4639411Y-901698D01*
G54D37*
G01X4639411Y-901698D02*
G01X4588611Y-850898D01*
G01X4512411Y-850898D01*
G01X4452631Y-910678D01*
G01X4404221Y-910678D01*
G01X4351471Y-910678D01*
G01X4166702Y-1095447D01*
G01X4166702Y-1148168D01*
G01X4166702Y-1148168D02*
G01X4166702Y-1251718D01*
G01X4265101Y-1350117D01*
G01X4368801Y-1350117D01*
G54D11*
G01X4368801Y-1350117D02*
G01X4419601Y-1350117D01*
G01X4584061Y-1514577D01*
G01X4584061Y-1561757D01*
G01X4584061Y-1696827D01*
G01X4587971Y-1700737D01*
G01X4584061Y-1561757D02*
G01X4675551Y-1561757D01*
G01X4726351Y-1612557D01*
G01X4726351Y-1663357D01*
G01X4700951Y-1688757D01*
G01X4700951Y-1793546D01*
G01X4624751Y-1869746D01*
G01X4700951Y-1764956D02*
G01X4789160Y-1764956D01*
G01X4878400Y-1854196D01*
G01X4980000Y-1752596D01*
G01X5157800Y-1752596D01*
G01X5208600Y-1803396D01*
G01X5208600Y-1848276D01*
G01X5257799Y-1897476D01*
G01X5283199Y-1897476D01*
G01X3098104Y-1086098D02*
G01X3057314Y-1045308D01*
G01X3057314Y-479859D01*
G01X2987764Y-410309D01*
G01X5415409Y-1507897D02*
G01X5415409Y-1415197D01*
G01X5390009Y-1389797D01*
G01X4983490Y-1389797D01*
G01X4965390Y-1407897D01*
G01X4659251Y-1637957D02*
G01X4659251Y-1739557D01*
G01X4633851Y-1764956D01*
G01X4557651Y-1764956D01*
G01X4506851Y-1714157D01*
G01X4506851Y-1568567D01*
G01X4500041Y-1561757D01*
G01X4506851Y-1688757D02*
G01X4506851Y-1697837D01*
G01X4503951Y-1700737D01*
G01X4557651Y-1764956D02*
G01X4557651Y-1796846D01*
G01X4484751Y-1869746D01*
G01X4500041Y-1561757D02*
G01X4474641Y-1561757D01*
G01X4373041Y-1460157D01*
G01X4368801Y-1434137D01*
G01X4373041Y-1460157D02*
G01X4350241Y-1460157D01*
G01X4229402Y-1580997D01*
G01X4005392Y-1805006D01*
G01X3818412Y-1805006D01*
G01X3793012Y-1779606D01*
G01X3793012Y-1642197D01*
G01X3894612Y-1540597D01*
G01X3793012Y-1703407D02*
G01X3681783Y-1703407D01*
G01X3674593Y-1710597D01*
G01X3530103Y-1855086D01*
G01X3275303Y-1855086D01*
G01X3200304Y-1778886D01*
G01X3124104Y-1855086D01*
G01X4965390Y-1407897D02*
G01X4812990Y-1255497D01*
G01X4812990Y-991258D01*
G01X4723431Y-901698D01*
G01X4774230Y-850898D01*
G01X4786930Y-723899D02*
G01X4736131Y-723899D01*
G01X4719521Y-707289D01*
G01X4719521Y-511909D01*
G01X4715611Y-507999D01*
G01X4719521Y-511909D02*
G01X4901380Y-511909D01*
G01X4965390Y-447899D01*
G01X3327303Y-1067688D02*
G01X3327303Y-1093088D01*
G01X3352703Y-1118488D01*
G01X3352703Y-1134118D01*
G01X3353763Y-1135178D01*
G01X3327303Y-1067688D02*
G01X3327303Y-923288D01*
G01X3386993Y-863598D01*
G01X3386993Y-737564D01*
G01X3388923Y-736599D01*
G01X3392833Y-732689D01*
G01X3386993Y-736599D02*
G01X3234594Y-736599D01*
G01X3158394Y-660399D01*
G01X3158394Y-558799D01*
G01X3132994Y-533399D01*
G01X3132994Y-431799D01*
G01X3158394Y-406399D01*
G01X3259993Y-406399D01*
G01X3336193Y-482599D01*
G01X3386993Y-482599D01*
G01X3395783Y-491389D01*
G01X3158394Y-609599D02*
G01X3132984Y-609599D01*
G01X3129074Y-613509D01*
G01X3386993Y-482599D02*
G01X3386993Y-406399D01*
G01X3404563Y-388829D01*
G01X3404563Y-380999D01*
G54D37*
G01X3404563Y-388829D02*
G01X3404563Y-363429D01*
G01X3455363Y-312629D01*
G01X3734763Y-312629D01*
G01X3806702Y-384569D01*
G01X3806702Y-433189D01*
G01X4715611Y-507999D02*
G01X4715611Y-482599D01*
G01X4461611Y-228600D01*
G01X4360011Y-228600D01*
G01X4250591Y-119180D01*
G01X4021992Y-119180D01*
G01X3920392Y-220780D01*
G01X3890112Y-220780D01*
G54D11*
G01X4123592Y-119180D02*
G01X4089402Y-84990D01*
G01X4076702Y-84990D01*
G01X4148992Y-119180D02*
G01X4183182Y-84990D01*
G01X4191002Y-84990D01*
G54D37*
G01X3998312Y-991488D02*
G01X3998312Y-839088D01*
G01X4046712Y-790688D01*
G54D11*
G01X3129074Y-613509D02*
G01X3129074Y-428497D01*
G01X3034686Y-334109D01*
G01X2976674Y-334109D01*
G01X2925874Y-384909D01*
G01X2925874Y-511909D01*
G01X2722675Y-715109D01*
G01X2722675Y-892908D01*
G01X2646475Y-969108D01*
G01X2646475Y-1070718D01*
G01X2616205Y-1100988D01*
G01X2545925Y-1030708D01*
G01X2419095Y-1030708D01*
G01X2316395Y-1030708D01*
G01X2229096Y-943408D01*
G01X2229096Y-785698D01*
G01X2305295Y-709499D01*
G01X2305295Y-430099D01*
G01X2279895Y-404699D01*
G01X2203696Y-328499D01*
G01X2203696Y-127400D01*
G01X2154096Y-77800D01*
G01X2265595Y-979908D02*
G01X2254495Y-979908D01*
G01X2178296Y-1056108D01*
G01X2178296Y-1474897D01*
G01X2229096Y-1525697D01*
G01X2203696Y-303099D02*
G01X2192696Y-292099D01*
G01X1430697Y-292099D01*
G01X1391817Y-253219D01*
G01X1379897Y-253219D01*
G01X1354497Y-227820D01*
G01X1271887Y-145210D01*
G01X973098Y-145210D01*
G01X881398Y-145210D01*
G01X728998Y-297609D01*
G01X728998Y-373809D01*
G01X728998Y-297609D02*
G01X525499Y-297609D01*
G01X373099Y-145210D01*
G01X129300Y-1494297D02*
G01X385799Y-1750796D01*
G01X385799Y-1937586D01*
G01X205500Y-1570497D02*
G01X281699Y-1494297D01*
G01X1081698Y-1494297D01*
G01X1094498Y-1507097D01*
G01X1094498Y-1828886D01*
G01X985798Y-1937586D01*
G01X4965390Y-447899D02*
G01X5066990Y-447899D01*
G01X6026988Y-1407897D01*
G01X6425407Y-1407897D01*
G01X6622497Y-1604987D01*
G01X6622497Y-1630387D01*
G01X6622497Y-1604987D02*
G01X6734917Y-1604987D01*
G01X6884996Y-1454907D01*
G01X6884996Y-1504897D01*
G01X7084996Y-1704897D01*
G01X6425407Y-1407897D02*
G01X6425407Y-607899D01*
G01X6501607Y-531699D01*
G01X6501607Y-461699D01*
G01X6515407Y-447899D01*
G01X6501607Y-493499D02*
G01X7073596Y-493499D01*
G01X7084996Y-504899D01*
G04 Track End*

M02*

